<?xml version="1.0" encoding="utf-8"?>
<!-- Generator: Adobe Illustrator 20.1.0, SVG Export Plug-In . SVG Version: 6.00 Build 0)  -->
<svg version="1.1" id="Слой_1" xmlns="http://www.w3.org/2000/svg" xmlns:xlink="http://www.w3.org/1999/xlink" x="0px" y="0px"
	 viewBox="0 0 480 480" style="enable-background:new 0 0 480 480;" xml:space="preserve">
<style type="text/css">
	.st0{fill:#3A8789;}
	.st1{fill:#1D5656;}
	.st2{fill:#E7E6E6;}
	.st3{clip-path:url(#SVGID_2_);}
	.st4{fill:#D0D1D1;}
	.st5{fill:#FF4200;}
	.st6{clip-path:url(#SVGID_4_);}
	.st7{fill:#EF0F44;}
	.st8{fill:#F49AB8;}
	.st9{fill:#EF6C9E;}
	.st10{opacity:0.4;fill:#FFFFFF;}
	.st11{fill:#83E2BE;}
	.st12{fill:#22AF7C;}
	.st13{opacity:0.4;fill:#FFFEFD;}
</style>
<g>
	<circle class="st0" cx="241" cy="241.1" r="215.9"/>
	<path class="st1" d="M119.8,371.2l149.8,83.9c105.7-14,187.3-104.4,187.3-214c0-14.9-1.5-29.4-4.4-43.5l-112-86.6L119.8,371.2z"/>
	<g>
		<g>
			<path class="st2" d="M380.5,314c0,0-11.3,22,1.3,46.9H121.1l-1.3-50.1L380.5,314z"/>
			<g>
				<defs>
					<path id="SVGID_1_" d="M380.5,314c0,0-11.3,22,1.3,46.9H121.1l-1.3-50.1L380.5,314z"/>
				</defs>
				<clipPath id="SVGID_2_">
					<use xlink:href="#SVGID_1_"  style="overflow:visible;"/>
				</clipPath>
				<g class="st3">
					<g>
						<g>
							<g>
								<rect x="119.8" y="316.6" class="st4" width="260.2" height="2"/>
							</g>
							<g>
								<rect x="119.8" y="320.7" class="st4" width="260.2" height="2"/>
							</g>
						</g>
						<g>
							<g>
								<rect x="119.8" y="326.8" class="st4" width="260.2" height="2"/>
							</g>
							<g>
								<rect x="119.8" y="333" class="st4" width="260.2" height="2"/>
							</g>
						</g>
					</g>
					<g>
						<g>
							<g>
								<rect x="119.8" y="337.1" class="st4" width="260.2" height="2"/>
							</g>
						</g>
						<g>
							<g>
								<rect x="119.8" y="341.1" class="st4" width="260.2" height="2"/>
							</g>
							<g>
								<rect x="119.8" y="347.3" class="st4" width="260.2" height="2"/>
							</g>
						</g>
						<g>
							<g>
								<rect x="119.8" y="353.4" class="st4" width="260.2" height="2"/>
							</g>
						</g>
					</g>
				</g>
			</g>
			<path class="st5" d="M123.3,331.5c0-2,0-4.2,0-6.6c0-11.8,9.6-10.9,9.6-10.9h252.9v-13.6H130.2c-5.4,0-9.1,1.5-11.7,3.8v0
				c0,0,0,0,0,0c-0.2,0.2-0.4,0.4-0.6,0.6c0,0,0,0-0.1,0.1c-0.1,0.1-0.2,0.2-0.3,0.3c-4.8,4.9-23.5,27-2,58.3
				c2.4,4.1,6.7,7.5,14.8,7.5h255.5v-13.6H132.8c0,0-9.6,1-9.6-10.9c0-2.4,0-4.7,0-6.6C123.3,340.1,123.3,336.7,123.3,331.5z"/>
		</g>
		<g>
			<path class="st2" d="M369.6,183.9c0,0-11.3,22,1.3,46.9H110.4l-1.3-50.1L369.6,183.9z"/>
			<g>
				<defs>
					<path id="SVGID_3_" d="M369.6,183.9c0,0-11.3,22,1.3,46.9H110.4l-1.3-50.1L369.6,183.9z"/>
				</defs>
				<clipPath id="SVGID_4_">
					<use xlink:href="#SVGID_3_"  style="overflow:visible;"/>
				</clipPath>
				<g class="st6">
					<g>
						<g>
							<g>
								<rect x="109.1" y="186.5" class="st4" width="259.9" height="2"/>
							</g>
							<g>
								<rect x="109.1" y="190.6" class="st4" width="259.9" height="2"/>
							</g>
						</g>
						<g>
							<g>
								<rect x="109.1" y="196.7" class="st4" width="259.9" height="2"/>
							</g>
							<g>
								<rect x="109.1" y="202.8" class="st4" width="259.9" height="2"/>
							</g>
						</g>
					</g>
					<g>
						<g>
							<g>
								<rect x="109.1" y="206.9" class="st4" width="259.9" height="2"/>
							</g>
						</g>
						<g>
							<g>
								<rect x="109.1" y="211" class="st4" width="259.9" height="2"/>
							</g>
							<g>
								<rect x="109.1" y="217.1" class="st4" width="259.9" height="2"/>
							</g>
						</g>
						<g>
							<g>
								<rect x="109.1" y="223.3" class="st4" width="259.9" height="2"/>
							</g>
						</g>
					</g>
				</g>
			</g>
			<path class="st7" d="M112.6,201.4c0-2,0-4.2,0-6.6c0-11.8,9.6-10.9,9.6-10.9h252.6v-13.6H119.6c-5.4,0-9.1,1.6-11.7,3.8v0
				c0,0,0,0,0,0c-0.2,0.2-0.4,0.4-0.6,0.6c0,0,0,0-0.1,0.1c-0.1,0.1-0.2,0.2-0.3,0.3c-4.8,4.9-23.5,27-2,58.3
				c2.4,4.1,6.7,7.5,14.7,7.5h255.2v-13.6H122.2c0,0-9.6,1-9.6-10.9c0-2.4,0-4.7,0-6.7C112.6,209.9,112.6,206.5,112.6,201.4z"/>
		</g>
		<g>
			<rect x="103.7" y="241" class="st8" width="283.7" height="59.5"/>
			<rect x="121.1" y="255.4" class="st9" width="73" height="32.6"/>
			<rect x="103.7" y="270.7" class="st10" width="283.7" height="29.7"/>
		</g>
		<g>
			<g>
				<rect x="150.6" y="111" class="st11" width="190" height="59.5"/>
				<rect x="317.5" y="111" class="st12" width="5" height="59.5"/>
				<rect x="296.3" y="111" class="st12" width="5" height="59.5"/>
				<rect x="164.5" y="122.2" class="st12" width="37.6" height="37.6"/>
			</g>
			<rect x="150.6" y="140.7" class="st13" width="190" height="29.7"/>
		</g>
	</g>
</g>
<g>
</g>
<g>
</g>
<g>
</g>
<g>
</g>
<g>
</g>
<g>
</g>
<g>
</g>
<g>
</g>
<g>
</g>
<g>
</g>
<g>
</g>
<g>
</g>
<g>
</g>
<g>
</g>
<g>
</g>
</svg>
