<?xml version="1.0" encoding="utf-8"?>
<!-- Generator: Adobe Illustrator 20.1.0, SVG Export Plug-In . SVG Version: 6.00 Build 0)  -->
<svg version="1.1" id="Слой_1" xmlns="http://www.w3.org/2000/svg" xmlns:xlink="http://www.w3.org/1999/xlink" x="0px" y="0px"
	 viewBox="0 0 300 300" style="enable-background:new 0 0 300 300;" xml:space="preserve">
<style type="text/css">
	.st0{fill:#DA4643;}
	.st1{fill:#F39225;}
	.st2{fill:#E6E6E5;}
	.st3{fill:#38E058;}
</style>
<path class="st0" d="M208.8,152c-0.2,1.1-1.4,1.7-2.6,1.5l-37.6-8.3c-1.2-0.3-2-1.3-1.8-2.4l9.9-44.8c0.2-1.1,1.4-1.7,2.6-1.5
	l37.6,8.3c1.2,0.3,2,1.3,1.8,2.4L208.8,152z"/>
<path class="st1" d="M181,155.9c0,1.2-1.4,2.2-3.1,2.2h-53.3c-1.7,0-3.1-1-3.1-2.2v-51.1c0-1.2,1.4-2.2,3.1-2.2h53.3
	c1.7,0,3.1,1,3.1,2.2V155.9z"/>
<g>
	<g>
		<g>
			<path class="st2" d="M227.2,110.3H110.1c-1.2,0-2.2,1.1-2.2,2.5s1,2.5,2.2,2.5h117.1c1.2,0,2.2-1.1,2.2-2.5
				C229.5,111.5,228.5,110.3,227.2,110.3z"/>
			<path class="st2" d="M219.9,130.7h-104c-1.2,0-2.2,1.1-2.2,2.5s1,2.5,2.2,2.5h104c1.2,0,2.2-1.1,2.2-2.5
				C222.1,131.9,221.1,130.7,219.9,130.7z"/>
			<path class="st2" d="M212.1,151.2h-91.7c-1.2,0-2.2,1.1-2.2,2.5s1,2.5,2.2,2.5h61.8h29.9c1.2,0,2.2-1.1,2.2-2.5
				S213.3,151.2,212.1,151.2z"/>
			<polygon class="st2" points="131.6,113.7 127.2,114.4 133.2,167.5 137.8,168.6 			"/>
			<polygon class="st2" points="149.3,114.1 144.8,114.5 148.1,169.1 152.7,168.1 			"/>
			<polygon class="st2" points="162.6,113.4 162.6,169.2 166.8,169.1 167,113.4 			"/>
			<polygon class="st2" points="183,113.2 174.7,169.9 179.4,167.9 187.4,114 			"/>
			<polygon class="st2" points="202,113.2 188.3,170.2 193.2,169.1 206.3,114.5 			"/>
			<polygon class="st2" points="220.7,112.2 202.5,167.5 206.8,169.6 224.8,114 			"/>
		</g>
	</g>
	<g>
		<path class="st0" d="M216.2,163.7h-89.3l-18-58c-0.3,3.1-3,3.7-5.7,4.1l18.4,58.8c0.5,1.5,1.7,2.5,3,2.5h91.5
			c1.8,0,3.2-1.7,3.2-3.7C219.4,165.4,217.9,163.7,216.2,163.7z"/>
		<path class="st2" d="M108.1,102.8c-1-0.9-2.5-1.5-4.1-1.5h-2.4H62.2c-3.2,0-5.8,2.3-5.8,5.2c0,2.9,2.6,5.2,5.8,5.2H104
			c0.2,0,0.5,0,0.7-0.1c2.7-0.3,4.8-2.2,5-4.6c0-0.2,0.1-0.3,0.1-0.5C109.8,105,109.2,103.7,108.1,102.8z"/>
	</g>
	<polygon class="st0" points="191.1,206.5 119.5,206.5 128.1,166.9 132.6,168.2 125.5,201.2 191.1,201.2 	"/>
	<g>
		<circle class="st2" cx="123.3" cy="204.3" r="12.8"/>
		<circle class="st1" cx="123.3" cy="204.3" r="9.6"/>
	</g>
	<g>
		<circle class="st2" cx="189.7" cy="204.3" r="12.8"/>
		<circle class="st1" cx="189.7" cy="204.3" r="9.6"/>
	</g>
</g>
<path class="st3" d="M152.5,94h-0.7c-2.5,0-4.5-2-4.5-4.5V51.7c0-2.5,2-4.5,4.5-4.5h0.7c2.5,0,4.5,2,4.5,4.5v37.8
	C157,92,155,94,152.5,94z"/>
<path class="st3" d="M171,76.5h-37.6c-2.9,0-5.3-2.4-5.3-5.3l0,0c0-2.9,2.4-5.3,5.3-5.3H171c2.9,0,5.3,2.4,5.3,5.3l0,0
	C176.3,74.1,173.9,76.5,171,76.5z"/>
</svg>
