<?xml version="1.0" encoding="utf-8"?>
<!-- Generator: Adobe Illustrator 20.1.0, SVG Export Plug-In . SVG Version: 6.00 Build 0)  -->
<svg version="1.1" id="Слой_1" xmlns="http://www.w3.org/2000/svg" xmlns:xlink="http://www.w3.org/1999/xlink" x="0px" y="0px"
	 viewBox="0 0 300 300" style="enable-background:new 0 0 300 300;" xml:space="preserve">
<style type="text/css">
	.st0{fill:#3F4D50;}
	.st1{fill:#2F383A;}
	.st2{fill:#DA4643;}
	.st3{fill:#F39225;}
	.st4{fill:#E6E6E5;}
	.st5{fill:#FFFFFF;}
</style>
<g>
	<g>
		<path class="st0" d="M264.8,150c0,63.3-51.3,114.6-114.6,114.6c-63.3,0-114.6-51.3-114.6-114.6c0-63.3,51.3-114.6,114.6-114.6
			C213.5,35.4,264.8,86.7,264.8,150z"/>
	</g>
</g>
<g>
	<path class="st0" d="M51.2,207.9c-0.3-0.5-0.6-1.1-0.9-1.6C50.6,206.8,50.9,207.3,51.2,207.9z"/>
	<path class="st0" d="M49.6,204.9c-0.2-0.3-0.4-0.7-0.6-1C49.2,204.2,49.4,204.6,49.6,204.9z"/>
	<path class="st0" d="M59,219.5c-0.3-0.4-0.6-0.8-0.9-1.2C58.4,218.7,58.7,219.1,59,219.5z"/>
	<path class="st0" d="M57.6,217.6c-0.5-0.7-1-1.4-1.6-2.2C56.5,216.1,57.1,216.8,57.6,217.6z"/>
	<path class="st0" d="M55.4,214.5c-0.3-0.4-0.5-0.7-0.8-1.1C54.9,213.7,55.1,214.1,55.4,214.5z"/>
	<path class="st0" d="M54,212.4c-0.2-0.4-0.5-0.7-0.7-1.1C53.5,211.6,53.8,212,54,212.4z"/>
	<path class="st0" d="M52.6,210.2c-0.2-0.4-0.4-0.7-0.7-1.1C52.2,209.5,52.4,209.9,52.6,210.2z"/>
	<path class="st0" d="M48.4,202.7c-0.2-0.4-0.4-0.7-0.5-1.1C48,202,48.2,202.3,48.4,202.7z"/>
	<path class="st0" d="M41.8,187.4c-0.1-0.2-0.2-0.5-0.3-0.7C41.6,186.9,41.7,187.1,41.8,187.4z"/>
	<path class="st0" d="M42.8,190c-0.1-0.3-0.2-0.6-0.4-1C42.5,189.4,42.6,189.7,42.8,190z"/>
	<path class="st0" d="M43.7,192.5c-0.1-0.3-0.3-0.7-0.4-1C43.4,191.8,43.6,192.1,43.7,192.5z"/>
	<path class="st0" d="M46,197.8c-0.1-0.3-0.3-0.6-0.4-0.9C45.7,197.2,45.9,197.5,46,197.8z"/>
	<path class="st0" d="M47.2,200.4c-0.2-0.3-0.3-0.7-0.5-1C46.9,199.7,47,200,47.2,200.4z"/>
	<path class="st0" d="M44.7,194.9c-0.1-0.3-0.3-0.6-0.4-0.9C44.4,194.2,44.5,194.5,44.7,194.9z"/>
	<path class="st0" d="M94.5,250.2c-2.5-1.4-4.9-2.9-7.3-4.4C89.6,247.3,92,248.8,94.5,250.2z"/>
	<path class="st0" d="M86.9,245.6c-0.5-0.4-1.1-0.7-1.6-1.1C85.8,244.9,86.4,245.2,86.9,245.6z"/>
	<path class="st0" d="M85,244.3c-2.3-1.6-4.5-3.2-6.7-5C80.5,241,82.7,242.7,85,244.3z"/>
	<path class="st0" d="M96.5,251.3c-0.6-0.3-1.2-0.6-1.8-1C95.3,250.7,95.9,251,96.5,251.3z"/>
	<path class="st0" d="M106.7,256.1c-0.6-0.3-1.3-0.5-1.9-0.8C105.4,255.5,106,255.8,106.7,256.1z"/>
	<path class="st0" d="M60.5,221.4c-0.3-0.4-0.6-0.8-0.9-1.2C59.9,220.6,60.2,221,60.5,221.4z"/>
	<path class="st0" d="M77.9,239c-0.5-0.4-0.9-0.8-1.4-1.2C77,238.2,77.5,238.6,77.9,239z"/>
	<path class="st0" d="M104.7,255.2c-2.7-1.2-5.3-2.4-7.9-3.8C99.3,252.8,102,254,104.7,255.2z"/>
	<path class="st0" d="M66.3,228.1c-1.2-1.3-2.5-2.7-3.6-4.1C63.8,225.4,65,226.7,66.3,228.1z"/>
	<path class="st0" d="M67.9,229.8c-0.4-0.4-0.8-0.8-1.1-1.2C67.2,229,67.5,229.4,67.9,229.8z"/>
	<path class="st0" d="M62.1,223.3c-0.3-0.4-0.6-0.8-1-1.2C61.5,222.6,61.8,223,62.1,223.3z"/>
	<path class="st0" d="M69.6,231.5c-0.4-0.4-0.8-0.8-1.2-1.2C68.8,230.7,69.2,231.1,69.6,231.5z"/>
	<path class="st0" d="M76.1,237.4c-0.5-0.4-0.9-0.8-1.4-1.2C75.2,236.6,75.6,237,76.1,237.4z"/>
	<path class="st0" d="M74.4,236c-1.5-1.3-2.9-2.6-4.3-4C71.5,233.4,72.9,234.7,74.4,236z"/>
	<path class="st0" d="M37.9,173.2c0-0.2-0.1-0.4-0.1-0.6C37.8,172.8,37.9,173,37.9,173.2z"/>
	<path class="st0" d="M38.6,176.5c-0.1-0.2-0.1-0.5-0.2-0.7C38.5,176,38.6,176.2,38.6,176.5z"/>
	<path class="st0" d="M37,168c0-0.3-0.1-0.6-0.1-0.9C36.9,167.4,36.9,167.7,37,168z"/>
	<path class="st0" d="M37.4,170.6c-0.1-0.3-0.1-0.6-0.2-0.9C37.3,170,37.4,170.3,37.4,170.6z"/>
	<path class="st0" d="M39.3,179.2c-0.1-0.3-0.2-0.6-0.2-1C39.2,178.6,39.2,178.9,39.3,179.2z"/>
	<path class="st0" d="M40,181.8c-0.1-0.3-0.2-0.6-0.3-1C39.8,181.1,39.9,181.5,40,181.8z"/>
	<path class="st0" d="M35.9,159.1c0-0.3,0-0.6-0.1-0.9C35.9,158.5,35.9,158.8,35.9,159.1z"/>
	<path class="st0" d="M35.6,153.6c0-0.3,0-0.6,0-0.9C35.6,153,35.6,153.3,35.6,153.6z"/>
	<path class="st0" d="M40.8,184.3c-0.1-0.3-0.2-0.5-0.2-0.8C40.6,183.7,40.7,184,40.8,184.3z"/>
	<path class="st0" d="M36.6,165.2c0-0.3-0.1-0.5-0.1-0.8C36.5,164.7,36.5,164.9,36.6,165.2z"/>
	<path class="st0" d="M36.2,161.8c0-0.1,0-0.3,0-0.4C36.1,161.5,36.2,161.6,36.2,161.8z"/>
	<path class="st0" d="M35.7,156.4c0-0.3,0-0.6,0-1C35.7,155.8,35.7,156.1,35.7,156.4z"/>
	<path class="st1" d="M74.7,236.2c-0.1-0.1-0.2-0.2-0.3-0.2C74.5,236.1,74.6,236.2,74.7,236.2z"/>
	<path class="st1" d="M35.9,158.2c0-0.6-0.1-1.2-0.1-1.8C35.8,157,35.8,157.6,35.9,158.2z"/>
	<path class="st1" d="M70.1,232c-0.2-0.1-0.3-0.3-0.5-0.4C69.8,231.7,69.9,231.8,70.1,232z"/>
	<path class="st1" d="M68.5,230.4c-0.2-0.2-0.4-0.4-0.5-0.6C68.1,230,68.3,230.2,68.5,230.4z"/>
	<path class="st1" d="M66.8,228.6c-0.2-0.2-0.3-0.4-0.5-0.5C66.4,228.3,66.6,228.4,66.8,228.6z"/>
	<path class="st1" d="M36.5,164.4c-0.1-0.9-0.2-1.7-0.3-2.6C36.3,162.7,36.4,163.5,36.5,164.4z"/>
	<path class="st1" d="M36.1,161.4c-0.1-0.8-0.1-1.5-0.2-2.3C36,159.9,36.1,160.6,36.1,161.4z"/>
	<path class="st1" d="M94.7,250.3c-0.1,0-0.1-0.1-0.2-0.1C94.6,250.2,94.7,250.3,94.7,250.3z"/>
	<path class="st1" d="M76.5,237.8c-0.2-0.1-0.3-0.3-0.5-0.4C76.2,237.6,76.4,237.7,76.5,237.8z"/>
	<path class="st1" d="M106.9,256.2c-0.1,0-0.2-0.1-0.3-0.1C106.8,256.1,106.9,256.1,106.9,256.2z"/>
	<path class="st1" d="M104.7,255.3C104.7,255.2,104.7,255.2,104.7,255.3C104.7,255.2,104.7,255.2,104.7,255.3z"/>
	<path class="st1" d="M96.8,251.4c-0.1,0-0.2-0.1-0.3-0.1C96.6,251.3,96.7,251.4,96.8,251.4z"/>
	<path class="st1" d="M35.7,155.4c0-0.6-0.1-1.2-0.1-1.9C35.6,154.2,35.7,154.8,35.7,155.4z"/>
	<path class="st1" d="M78.3,239.3c-0.1-0.1-0.3-0.2-0.4-0.3C78,239.1,78.2,239.2,78.3,239.3z"/>
	<path class="st1" d="M35.6,152.7c0-0.9,0-1.8,0-2.7C35.6,150.9,35.6,151.8,35.6,152.7z"/>
	<path class="st1" d="M85.3,244.5c-0.1-0.1-0.2-0.2-0.3-0.2C85.1,244.3,85.2,244.4,85.3,244.5z"/>
	<path class="st1" d="M87.2,245.8c-0.1-0.1-0.2-0.1-0.3-0.2C87,245.6,87.1,245.7,87.2,245.8z"/>
	<path class="st1" d="M41.5,186.6c-0.3-0.8-0.5-1.6-0.8-2.4C41,185.1,41.3,185.8,41.5,186.6z"/>
	<path class="st1" d="M46.7,199.4c-0.2-0.5-0.5-1-0.7-1.5C46.2,198.3,46.5,198.9,46.7,199.4z"/>
	<path class="st1" d="M47.8,201.6c-0.2-0.4-0.4-0.8-0.6-1.3C47.4,200.8,47.6,201.2,47.8,201.6z"/>
	<path class="st1" d="M39.8,180.8c-0.1-0.5-0.3-1.1-0.4-1.6C39.5,179.7,39.6,180.3,39.8,180.8z"/>
	<path class="st1" d="M49,203.9c-0.2-0.4-0.4-0.8-0.6-1.2C48.6,203.1,48.8,203.5,49,203.9z"/>
	<path class="st1" d="M39.1,178.3c-0.2-0.6-0.3-1.2-0.4-1.8C38.8,177.1,38.9,177.7,39.1,178.3z"/>
	<path class="st1" d="M50.3,206.3c-0.2-0.4-0.5-0.9-0.7-1.3C49.8,205.4,50.1,205.8,50.3,206.3z"/>
	<path class="st1" d="M43.3,191.5c-0.2-0.5-0.4-1-0.5-1.4C42.9,190.5,43.1,191,43.3,191.5z"/>
	<path class="st1" d="M45.6,196.9c-0.3-0.7-0.6-1.4-0.9-2.1C45,195.6,45.3,196.2,45.6,196.9z"/>
	<path class="st1" d="M44.3,193.9c-0.2-0.5-0.4-1-0.6-1.4C43.9,193,44.1,193.4,44.3,193.9z"/>
	<path class="st1" d="M62.7,224c-0.2-0.2-0.4-0.4-0.5-0.6C62.3,223.6,62.5,223.8,62.7,224z"/>
	<path class="st1" d="M40.5,183.5c-0.2-0.6-0.3-1.1-0.5-1.7C40.2,182.3,40.4,182.9,40.5,183.5z"/>
	<path class="st1" d="M58.1,218.3c-0.2-0.2-0.4-0.5-0.5-0.7C57.8,217.8,57.9,218.1,58.1,218.3z"/>
	<path class="st1" d="M37.3,169.7c-0.1-0.6-0.2-1.1-0.3-1.7C37.1,168.6,37.2,169.1,37.3,169.7z"/>
	<path class="st1" d="M42.4,189.1c-0.2-0.6-0.4-1.1-0.6-1.7C42,187.9,42.2,188.5,42.4,189.1z"/>
	<path class="st1" d="M59.6,220.3c-0.2-0.3-0.4-0.5-0.6-0.8C59.2,219.7,59.4,220,59.6,220.3z"/>
	<path class="st1" d="M61.1,222.2c-0.2-0.3-0.4-0.5-0.6-0.8C60.7,221.7,60.9,221.9,61.1,222.2z"/>
	<path class="st1" d="M36.8,167c-0.1-0.6-0.2-1.2-0.3-1.8C36.7,165.8,36.7,166.4,36.8,167z"/>
	<path class="st1" d="M53.3,211.3c-0.2-0.3-0.4-0.7-0.6-1C52.9,210.6,53.1,210.9,53.3,211.3z"/>
	<path class="st1" d="M52,209.1c-0.3-0.4-0.5-0.8-0.7-1.3C51.5,208.3,51.7,208.7,52,209.1z"/>
	<path class="st1" d="M38.5,175.7c-0.2-0.8-0.4-1.7-0.5-2.5C38.1,174.1,38.3,174.9,38.5,175.7z"/>
	<path class="st1" d="M37.8,172.6c-0.1-0.6-0.3-1.3-0.4-2C37.5,171.3,37.7,171.9,37.8,172.6z"/>
	<path class="st1" d="M56,215.4c-0.2-0.3-0.4-0.6-0.6-0.9C55.6,214.8,55.8,215.1,56,215.4z"/>
	<path class="st1" d="M54.6,213.3c-0.2-0.3-0.4-0.6-0.6-1C54.2,212.7,54.4,213,54.6,213.3z"/>
	<path class="st1" d="M196.7,214.9l-9.3-18.9l-4.3-1.4l33.2-23.4l-10.1-5.1l18-52.8l-46.2-15.6l-31.3,17.6l-22.7-11.7l-13.3,9.4
		l-6.3-5.9l-45.8-5.1l-16.2,8.9C38,123,35.6,136.2,35.6,150c0,0.9,0,1.8,0,2.7c0,0.3,0,0.6,0,0.9c0,0.6,0,1.2,0.1,1.9
		c0,0.3,0,0.6,0,1c0,0.6,0.1,1.2,0.1,1.8c0,0.3,0,0.6,0.1,0.9c0.1,0.8,0.1,1.5,0.2,2.3c0,0.1,0,0.3,0,0.4c0.1,0.9,0.2,1.8,0.3,2.6
		c0,0.3,0.1,0.5,0.1,0.8c0.1,0.6,0.2,1.2,0.3,1.8c0,0.3,0.1,0.6,0.1,0.9c0.1,0.6,0.2,1.2,0.3,1.7c0.1,0.3,0.1,0.6,0.2,0.9
		c0.1,0.7,0.2,1.3,0.4,2c0,0.2,0.1,0.4,0.1,0.6c0.2,0.8,0.4,1.7,0.5,2.5c0.1,0.2,0.1,0.5,0.2,0.7c0.1,0.6,0.3,1.2,0.4,1.8
		c0.1,0.3,0.2,0.6,0.2,1c0.1,0.5,0.3,1.1,0.4,1.6c0.1,0.3,0.2,0.6,0.3,1c0.2,0.6,0.3,1.1,0.5,1.7c0.1,0.3,0.2,0.5,0.2,0.8
		c0.2,0.8,0.5,1.6,0.8,2.4c0.1,0.2,0.2,0.5,0.3,0.7c0.2,0.6,0.4,1.1,0.6,1.7c0.1,0.3,0.2,0.6,0.4,1c0.2,0.5,0.4,1,0.5,1.4
		c0.1,0.3,0.3,0.7,0.4,1c0.2,0.5,0.4,1,0.6,1.4c0.1,0.3,0.3,0.6,0.4,0.9c0.3,0.7,0.6,1.4,0.9,2.1c0.1,0.3,0.3,0.6,0.4,0.9
		c0.2,0.5,0.5,1,0.7,1.5c0.2,0.3,0.3,0.7,0.5,1c0.2,0.4,0.4,0.8,0.6,1.3c0.2,0.4,0.4,0.7,0.5,1.1c0.2,0.4,0.4,0.8,0.6,1.2
		c0.2,0.3,0.4,0.7,0.6,1c0.2,0.4,0.5,0.9,0.7,1.3c0.3,0.5,0.6,1.1,0.9,1.6c0.2,0.4,0.5,0.8,0.7,1.3c0.2,0.4,0.4,0.7,0.7,1.1
		c0.2,0.3,0.4,0.7,0.6,1c0.2,0.4,0.5,0.7,0.7,1.1c0.2,0.3,0.4,0.6,0.6,1c0.2,0.4,0.5,0.8,0.8,1.1c0.2,0.3,0.4,0.6,0.6,0.9
		c0.5,0.7,1,1.5,1.6,2.2c0.2,0.2,0.4,0.5,0.5,0.7c0.3,0.4,0.6,0.8,0.9,1.2c0.2,0.3,0.4,0.5,0.6,0.8c0.3,0.4,0.6,0.8,0.9,1.2
		c0.2,0.3,0.4,0.5,0.6,0.8c0.3,0.4,0.6,0.8,1,1.2c0.2,0.2,0.4,0.4,0.5,0.6c1.2,1.4,2.4,2.8,3.6,4.1c0.2,0.2,0.3,0.4,0.5,0.5
		c0.4,0.4,0.8,0.8,1.1,1.2c0.2,0.2,0.4,0.4,0.5,0.6c0.4,0.4,0.8,0.8,1.2,1.2c0.2,0.1,0.3,0.3,0.5,0.4c1.4,1.4,2.9,2.7,4.3,4
		c0.1,0.1,0.2,0.2,0.3,0.2c0.5,0.4,0.9,0.8,1.4,1.2c0.2,0.1,0.3,0.3,0.5,0.4c0.5,0.4,0.9,0.8,1.4,1.2c0.1,0.1,0.3,0.2,0.4,0.3
		c2.2,1.7,4.4,3.4,6.7,5c0.1,0.1,0.2,0.2,0.3,0.2c0.5,0.4,1.1,0.7,1.6,1.1c0.1,0.1,0.2,0.1,0.3,0.2c2.4,1.6,4.8,3,7.3,4.4
		c0.1,0,0.1,0.1,0.2,0.1c0.6,0.3,1.2,0.6,1.8,1c0.1,0,0.2,0.1,0.3,0.1c2.6,1.4,5.2,2.6,7.9,3.8c0,0,0.1,0,0.1,0
		c0.6,0.3,1.3,0.5,1.9,0.8c0.1,0,0.2,0.1,0.3,0.1C109.7,257.3,196.7,214.9,196.7,214.9z"/>
</g>
<path class="st2" d="M208.8,152c-0.2,1.1-1.4,1.7-2.6,1.5l-37.6-8.3c-1.2-0.3-2-1.3-1.8-2.4l9.9-44.8c0.2-1.1,1.4-1.7,2.6-1.5
	l37.6,8.3c1.2,0.3,2,1.3,1.8,2.4L208.8,152z"/>
<path class="st3" d="M181,155.9c0,1.2-1.4,2.2-3.1,2.2h-53.3c-1.7,0-3.1-1-3.1-2.2v-51.1c0-1.2,1.4-2.2,3.1-2.2h53.3
	c1.7,0,3.1,1,3.1,2.2V155.9z"/>
<g>
	<g>
		<g>
			<path class="st4" d="M227.2,110.3H110.1c-1.2,0-2.2,1.1-2.2,2.5c0,1.4,1,2.5,2.2,2.5h117.1c1.2,0,2.2-1.1,2.2-2.5
				C229.5,111.5,228.5,110.3,227.2,110.3z"/>
			<path class="st4" d="M219.9,130.7h-104c-1.2,0-2.2,1.1-2.2,2.5c0,1.4,1,2.5,2.2,2.5h104c1.2,0,2.2-1.1,2.2-2.5
				C222.1,131.9,221.1,130.7,219.9,130.7z"/>
			<path class="st4" d="M212.1,151.2h-91.7c-1.2,0-2.2,1.1-2.2,2.5c0,1.4,1,2.5,2.2,2.5h61.8h29.9c1.2,0,2.2-1.1,2.2-2.5
				C214.3,152.3,213.3,151.2,212.1,151.2z"/>
			<polygon class="st4" points="131.6,113.7 127.2,114.4 133.2,167.5 137.8,168.6 			"/>
			<polygon class="st4" points="149.3,114.1 144.8,114.5 148.1,169.1 152.7,168.1 			"/>
			<polygon class="st4" points="162.6,113.4 162.6,169.2 166.8,169.1 167,113.4 			"/>
			<polygon class="st4" points="183,113.2 174.7,169.9 179.4,167.9 187.4,114 			"/>
			<polygon class="st4" points="202,113.2 188.3,170.2 193.2,169.1 206.3,114.5 			"/>
			<polygon class="st4" points="220.7,112.2 202.5,167.5 206.8,169.6 224.8,114 			"/>
		</g>
	</g>
	<g>
		<path class="st2" d="M216.2,163.7h-89.3l-18-58c-0.3,3.1-3,3.7-5.7,4.1l18.4,58.8c0.5,1.5,1.7,2.5,3,2.5h91.5
			c1.8,0,3.2-1.7,3.2-3.7C219.4,165.4,217.9,163.7,216.2,163.7z"/>
		<path class="st4" d="M108.1,102.8c-1-0.9-2.5-1.5-4.1-1.5h-2.4H62.2c-3.2,0-5.8,2.3-5.8,5.2c0,2.9,2.6,5.2,5.8,5.2H104
			c0.2,0,0.5,0,0.7-0.1c2.7-0.3,4.8-2.2,5-4.6c0-0.2,0.1-0.3,0.1-0.5C109.8,105,109.2,103.7,108.1,102.8z"/>
	</g>
	<polygon class="st2" points="191.1,206.5 119.5,206.5 128.1,166.9 132.6,168.2 125.5,201.2 191.1,201.2 	"/>
	<g>
		<circle class="st4" cx="123.3" cy="204.3" r="12.8"/>
		<circle class="st3" cx="123.3" cy="204.3" r="9.6"/>
	</g>
	<g>
		<circle class="st4" cx="189.7" cy="204.3" r="12.8"/>
		<circle class="st3" cx="189.7" cy="204.3" r="9.6"/>
	</g>
</g>
<path class="st5" d="M152.5,94h-0.7c-2.5,0-4.5-2-4.5-4.5V51.7c0-2.5,2-4.5,4.5-4.5h0.7c2.5,0,4.5,2,4.5,4.5v37.8
	C157,92,155,94,152.5,94z"/>
<path class="st5" d="M171,76.5h-37.6c-2.9,0-5.3-2.4-5.3-5.3v0c0-2.9,2.4-5.3,5.3-5.3H171c2.9,0,5.3,2.4,5.3,5.3v0
	C176.3,74.1,173.9,76.5,171,76.5z"/>
<g>
</g>
<g>
</g>
<g>
</g>
<g>
</g>
<g>
</g>
<g>
</g>
<g>
</g>
<g>
</g>
<g>
</g>
<g>
</g>
<g>
</g>
<g>
</g>
<g>
</g>
<g>
</g>
<g>
</g>
</svg>
