<?xml version="1.0" encoding="utf-8"?>
<!-- Generator: Adobe Illustrator 20.1.0, SVG Export Plug-In . SVG Version: 6.00 Build 0)  -->
<svg version="1.1" id="Слой_1" xmlns="http://www.w3.org/2000/svg" xmlns:xlink="http://www.w3.org/1999/xlink" x="0px" y="0px"
	 viewBox="0 0 60 60" style="enable-background:new 0 0 60 60;" xml:space="preserve">
<style type="text/css">
	.st0{fill:#70B19D;}
	.st1{fill:#BE4336;}
	.st2{fill:#283C4C;}
	.st3{fill:#511315;}
	.st4{fill:#F8E8D8;}
	.st5{opacity:0.14;fill:#FFFFFF;}
</style>
<circle class="st0" cx="30" cy="28.5" r="25.9"/>
<path class="st1" d="M23.4,42.4c0,0.1,0,4.7,0,4.7l1.3-1l1.3,1.2l0-4.7L23.4,42.4z"/>
<path class="st2" d="M38,43.2c0,0-0.1,0-0.1,0l-0.8,0l-14.8,0l-2.9,0l0-30.3l17.7,0l0.4,0c0.2,0,0.4,0,0.5,0c1.1,0.2,2,0.9,2.4,1.9
	c0.2,0.4,0.3,0.8,0.3,1.3l0,24.3C40.7,41.9,39.5,43.2,38,43.2z"/>
<rect x="19.4" y="12.9" class="st3" width="2.2" height="30.3"/>
<rect x="21.6" y="27.6" class="st4" width="19.1" height="9.2"/>
<path class="st1" d="M38,43.2c0,0-0.1,0-0.1,0l-0.8,0l0-30.3l0.4,0c0.2,0,0.4,0,0.5,0L38,43.2z"/>
<path class="st5" d="M40.4,14.8L22.3,43.2l0,0l-2.9,0l0-30.3l17.7,0l0.4,0c0.2,0,0.4,0,0.5,0C39.1,13.1,40,13.8,40.4,14.8z"/>
<g>
</g>
<g>
</g>
<g>
</g>
<g>
</g>
<g>
</g>
<g>
</g>
<g>
</g>
<g>
</g>
<g>
</g>
<g>
</g>
<g>
</g>
<g>
</g>
<g>
</g>
<g>
</g>
<g>
</g>
</svg>
