<?xml version="1.0" encoding="utf-8"?>
<!-- Generator: Adobe Illustrator 20.1.0, SVG Export Plug-In . SVG Version: 6.00 Build 0)  -->
<svg version="1.1" id="Слой_1" xmlns="http://www.w3.org/2000/svg" xmlns:xlink="http://www.w3.org/1999/xlink" x="0px" y="0px"
	 viewBox="0 0 800 600" style="enable-background:new 0 0 800 600;" xml:space="preserve">
<style type="text/css">
	.st0{fill:#363A65;}
	.st1{fill:#FFFFFD;}
	.st2{fill:#A2B5E5;}
	.st3{fill:#ECECF4;}
	.st4{fill:#F3D031;}
	.st5{fill:#EDBB2C;}
	.st6{fill:#E39826;}
	.st7{fill:#E5CCBA;}
	.st8{fill:#FAEB48;}
	.st9{opacity:0.9;fill:#FBFDFC;}
	.st10{fill:#D8DAE3;}
	.st11{fill:#8BC648;}
	.st12{fill:#E68F21;}
	.st13{fill:#DBDEE9;}
	.st14{fill:#667ED1;}
	.st15{fill:#A1B1E5;}
	.st16{fill:#B4DF60;}
	.st17{opacity:0.3;fill:#A1B1E5;}
	.st18{opacity:0.8;fill:#FFFFFF;}
	.st19{fill:#4957B0;}
	.st20{fill:#82BD49;}
	.st21{fill:none;}
	.st22{fill:#1C4670;}
	.st23{fill:#768296;}
	.st24{fill:url(#SVGID_1_);}
	.st25{fill:#FFFFFF;}
	.st26{fill:#FFA229;}
	.st27{fill:#AEBFCE;}
	.st28{fill:url(#SVGID_2_);}
	.st29{fill:url(#SVGID_3_);}
	.st30{fill:url(#SVGID_4_);}
	.st31{fill:url(#SVGID_5_);}
	.st32{fill:#FCD751;}
	.st33{fill:#3D59A5;}
</style>
<g>
	<path class="st0" d="M241.4,504.9h309.8c5,0,9-4,9-9V301.6c0-5-4-9-9-9H241.4c-5,0-9,4-9,9v194.3
		C232.4,500.9,236.4,504.9,241.4,504.9z"/>
	<path class="st1" d="M560.2,464.9V496c0,4.9-4,8.9-8.9,8.9h-310c-4.9,0-8.9-4-8.9-8.9v-31.1H560.2z"/>
	
		<rect x="241.4" y="300.6" transform="matrix(-1 -1.224647e-16 1.224647e-16 -1 792.5376 756.4439)" class="st2" width="309.8" height="155.2"/>
	
		<rect x="349.4" y="504.9" transform="matrix(-1 -1.224647e-16 1.224647e-16 -1 792.5376 1025.2855)" class="st3" width="93.8" height="15.5"/>
	<path class="st1" d="M313.3,532.7h165.9l0,0c0-6.8-5.5-12.3-12.3-12.3H325.6C318.8,520.4,313.3,525.9,313.3,532.7L313.3,532.7z"/>
</g>
<g>
	<g>
		<g>
			<g>
				<g>
					
						<rect x="167.8" y="493.5" transform="matrix(-1 -1.224647e-16 1.224647e-16 -1 413.0363 1004.9069)" class="st4" width="77.5" height="18"/>
					
						<rect x="167.8" y="496" transform="matrix(-1 -1.224647e-16 1.224647e-16 -1 413.0363 1004.9069)" class="st5" width="77.5" height="12.9"/>
					<g>
						
							<rect x="241.7" y="497.2" transform="matrix(-1 -1.224647e-16 1.224647e-16 -1 484.6764 1004.9069)" class="st6" width="1.3" height="10.6"/>
						
							<rect x="236.2" y="497.2" transform="matrix(-1 -1.224647e-16 1.224647e-16 -1 473.6548 1004.9069)" class="st6" width="1.3" height="10.6"/>
						
							<rect x="230.7" y="497.2" transform="matrix(-1 -1.224647e-16 1.224647e-16 -1 462.6334 1004.9069)" class="st6" width="1.3" height="10.6"/>
						
							<rect x="225.2" y="497.2" transform="matrix(-1 -1.224647e-16 1.224647e-16 -1 451.6117 1004.9069)" class="st6" width="1.3" height="10.6"/>
						
							<rect x="219.7" y="497.2" transform="matrix(-1 -1.224647e-16 1.224647e-16 -1 440.5902 1004.9069)" class="st6" width="1.3" height="10.6"/>
						
							<rect x="214.1" y="497.2" transform="matrix(-1 -1.224647e-16 1.224647e-16 -1 429.5686 1004.9069)" class="st6" width="1.3" height="10.6"/>
						
							<rect x="208.6" y="497.2" transform="matrix(-1 -1.224647e-16 1.224647e-16 -1 418.5472 1004.9069)" class="st6" width="1.3" height="10.6"/>
						
							<rect x="203.1" y="497.2" transform="matrix(-1 -1.224647e-16 1.224647e-16 -1 407.5256 1004.9069)" class="st6" width="1.3" height="10.6"/>
						
							<rect x="197.6" y="497.2" transform="matrix(-1 -1.224647e-16 1.224647e-16 -1 396.5041 1004.9069)" class="st6" width="1.3" height="10.6"/>
						
							<rect x="192.1" y="497.2" transform="matrix(-1 -1.224647e-16 1.224647e-16 -1 385.4824 1004.9069)" class="st6" width="1.3" height="10.6"/>
						
							<rect x="186.6" y="497.2" transform="matrix(-1 -1.224647e-16 1.224647e-16 -1 374.4609 1004.9069)" class="st6" width="1.3" height="10.6"/>
						
							<rect x="181.1" y="497.2" transform="matrix(-1 -1.224647e-16 1.224647e-16 -1 363.4394 1004.9069)" class="st6" width="1.3" height="10.6"/>
						
							<rect x="175.6" y="497.2" transform="matrix(-1 -1.224647e-16 1.224647e-16 -1 352.4179 1004.9069)" class="st6" width="1.3" height="10.6"/>
						
							<rect x="170.1" y="497.2" transform="matrix(-1 -1.224647e-16 1.224647e-16 -1 341.3964 1004.9069)" class="st6" width="1.3" height="10.6"/>
					</g>
				</g>
				<rect x="167.8" y="511.5" class="st6" width="77.5" height="0.8"/>
			</g>
			<g>
				<g>
					
						<rect x="161" y="512.2" transform="matrix(-1 -1.224647e-16 1.224647e-16 -1 399.5543 1042.4966)" class="st4" width="77.5" height="18"/>
					
						<rect x="161" y="514.8" transform="matrix(-1 -1.224647e-16 1.224647e-16 -1 399.5543 1042.4966)" class="st5" width="77.5" height="12.9"/>
					<g>
						
							<rect x="235" y="516" transform="matrix(-1 -1.224647e-16 1.224647e-16 -1 471.1944 1042.4967)" class="st6" width="1.3" height="10.6"/>
						
							<rect x="229.4" y="516" transform="matrix(-1 -1.224647e-16 1.224647e-16 -1 460.173 1042.4967)" class="st6" width="1.3" height="10.6"/>
						
							<rect x="223.9" y="516" transform="matrix(-1 -1.224647e-16 1.224647e-16 -1 449.1514 1042.4967)" class="st6" width="1.3" height="10.6"/>
						
							<rect x="218.4" y="516" transform="matrix(-1 -1.224647e-16 1.224647e-16 -1 438.1299 1042.4967)" class="st6" width="1.3" height="10.6"/>
						
							<rect x="212.9" y="516" transform="matrix(-1 -1.224647e-16 1.224647e-16 -1 427.1082 1042.4967)" class="st6" width="1.3" height="10.6"/>
						
							<rect x="207.4" y="516" transform="matrix(-1 -1.224647e-16 1.224647e-16 -1 416.0868 1042.4967)" class="st6" width="1.3" height="10.6"/>
						
							<rect x="201.9" y="516" transform="matrix(-1 -1.224647e-16 1.224647e-16 -1 405.0652 1042.4967)" class="st6" width="1.3" height="10.6"/>
						
							<rect x="196.4" y="516" transform="matrix(-1 -1.224647e-16 1.224647e-16 -1 394.0437 1042.4967)" class="st6" width="1.3" height="10.6"/>
						
							<rect x="190.9" y="516" transform="matrix(-1 -1.224647e-16 1.224647e-16 -1 383.0221 1042.4967)" class="st6" width="1.3" height="10.6"/>
						
							<rect x="185.4" y="516" transform="matrix(-1 -1.224647e-16 1.224647e-16 -1 372.0005 1042.4967)" class="st6" width="1.3" height="10.6"/>
						
							<rect x="179.9" y="516" transform="matrix(-1 -1.224647e-16 1.224647e-16 -1 360.979 1042.4967)" class="st6" width="1.3" height="10.6"/>
						
							<rect x="174.3" y="516" transform="matrix(-1 -1.224647e-16 1.224647e-16 -1 349.9575 1042.4967)" class="st6" width="1.3" height="10.6"/>
						
							<rect x="168.8" y="516" transform="matrix(-1 -1.224647e-16 1.224647e-16 -1 338.936 1042.4967)" class="st6" width="1.3" height="10.6"/>
						
							<rect x="163.3" y="516" transform="matrix(-1 -1.224647e-16 1.224647e-16 -1 327.9144 1042.4967)" class="st6" width="1.3" height="10.6"/>
					</g>
				</g>
				<rect x="161" y="530.2" class="st6" width="77.5" height="0.8"/>
			</g>
			<g>
				<g>
					
						<rect x="162.5" y="474.7" transform="matrix(-1 -1.224647e-16 1.224647e-16 -1 402.5344 967.3173)" class="st4" width="77.5" height="18"/>
					
						<rect x="162.5" y="477.2" transform="matrix(-1 -1.224647e-16 1.224647e-16 -1 402.5344 967.3173)" class="st5" width="77.5" height="12.9"/>
					<g>
						
							<rect x="236.4" y="478.4" transform="matrix(-1 -1.224647e-16 1.224647e-16 -1 474.1745 967.3173)" class="st6" width="1.3" height="10.6"/>
						
							<rect x="230.9" y="478.4" transform="matrix(-1 -1.224647e-16 1.224647e-16 -1 463.1531 967.3173)" class="st6" width="1.3" height="10.6"/>
						
							<rect x="225.4" y="478.4" transform="matrix(-1 -1.224647e-16 1.224647e-16 -1 452.1315 967.3173)" class="st6" width="1.3" height="10.6"/>
						
							<rect x="219.9" y="478.4" transform="matrix(-1 -1.224647e-16 1.224647e-16 -1 441.11 967.3173)" class="st6" width="1.3" height="10.6"/>
						
							<rect x="214.4" y="478.4" transform="matrix(-1 -1.224647e-16 1.224647e-16 -1 430.0883 967.3173)" class="st6" width="1.3" height="10.6"/>
						
							<rect x="208.9" y="478.4" transform="matrix(-1 -1.224647e-16 1.224647e-16 -1 419.0669 967.3173)" class="st6" width="1.3" height="10.6"/>
						
							<rect x="203.4" y="478.4" transform="matrix(-1 -1.224647e-16 1.224647e-16 -1 408.0453 967.3173)" class="st6" width="1.3" height="10.6"/>
						
							<rect x="197.9" y="478.4" transform="matrix(-1 -1.224647e-16 1.224647e-16 -1 397.0238 967.3173)" class="st6" width="1.3" height="10.6"/>
						
							<rect x="192.4" y="478.4" transform="matrix(-1 -1.224647e-16 1.224647e-16 -1 386.0022 967.3173)" class="st6" width="1.3" height="10.6"/>
						
							<rect x="186.9" y="478.4" transform="matrix(-1 -1.224647e-16 1.224647e-16 -1 374.9806 967.3173)" class="st6" width="1.3" height="10.6"/>
						
							<rect x="181.3" y="478.4" transform="matrix(-1 -1.224647e-16 1.224647e-16 -1 363.9591 967.3173)" class="st6" width="1.3" height="10.6"/>
						
							<rect x="175.8" y="478.4" transform="matrix(-1 -1.224647e-16 1.224647e-16 -1 352.9376 967.3173)" class="st6" width="1.3" height="10.6"/>
						
							<rect x="170.3" y="478.4" transform="matrix(-1 -1.224647e-16 1.224647e-16 -1 341.916 967.3173)" class="st6" width="1.3" height="10.6"/>
						
							<rect x="164.8" y="478.4" transform="matrix(-1 -1.224647e-16 1.224647e-16 -1 330.8945 967.3173)" class="st6" width="1.3" height="10.6"/>
					</g>
				</g>
				<rect x="162.5" y="492.7" class="st6" width="77.5" height="0.8"/>
			</g>
			<g>
				<g>
					
						<rect x="164.3" y="455.9" transform="matrix(-1 -1.224647e-16 1.224647e-16 -1 406.0351 929.7277)" class="st4" width="77.5" height="18"/>
					
						<rect x="164.3" y="458.4" transform="matrix(-1 -1.224647e-16 1.224647e-16 -1 406.0351 929.7277)" class="st5" width="77.5" height="12.9"/>
					<g>
						
							<rect x="238.2" y="459.6" transform="matrix(-1 -1.224647e-16 1.224647e-16 -1 477.6752 929.7276)" class="st6" width="1.3" height="10.6"/>
						
							<rect x="232.7" y="459.6" transform="matrix(-1 -1.224647e-16 1.224647e-16 -1 466.6536 929.7276)" class="st6" width="1.3" height="10.6"/>
						
							<rect x="227.2" y="459.6" transform="matrix(-1 -1.224647e-16 1.224647e-16 -1 455.6322 929.7276)" class="st6" width="1.3" height="10.6"/>
						
							<rect x="221.7" y="459.6" transform="matrix(-1 -1.224647e-16 1.224647e-16 -1 444.6105 929.7276)" class="st6" width="1.3" height="10.6"/>
						
							<rect x="216.2" y="459.6" transform="matrix(-1 -1.224647e-16 1.224647e-16 -1 433.5889 929.7276)" class="st6" width="1.3" height="10.6"/>
						
							<rect x="210.6" y="459.6" transform="matrix(-1 -1.224647e-16 1.224647e-16 -1 422.5674 929.7276)" class="st6" width="1.3" height="10.6"/>
						
							<rect x="205.1" y="459.6" transform="matrix(-1 -1.224647e-16 1.224647e-16 -1 411.546 929.7276)" class="st6" width="1.3" height="10.6"/>
						
							<rect x="199.6" y="459.6" transform="matrix(-1 -1.224647e-16 1.224647e-16 -1 400.5244 929.7276)" class="st6" width="1.3" height="10.6"/>
						
							<rect x="194.1" y="459.6" transform="matrix(-1 -1.224647e-16 1.224647e-16 -1 389.5028 929.7276)" class="st6" width="1.3" height="10.6"/>
						
							<rect x="188.6" y="459.6" transform="matrix(-1 -1.224647e-16 1.224647e-16 -1 378.4812 929.7276)" class="st6" width="1.3" height="10.6"/>
						
							<rect x="183.1" y="459.6" transform="matrix(-1 -1.224647e-16 1.224647e-16 -1 367.4597 929.7276)" class="st6" width="1.3" height="10.6"/>
						
							<rect x="177.6" y="459.6" transform="matrix(-1 -1.224647e-16 1.224647e-16 -1 356.4382 929.7276)" class="st6" width="1.3" height="10.6"/>
						
							<rect x="172.1" y="459.6" transform="matrix(-1 -1.224647e-16 1.224647e-16 -1 345.4167 929.7276)" class="st6" width="1.3" height="10.6"/>
						
							<rect x="166.6" y="459.6" transform="matrix(-1 -1.224647e-16 1.224647e-16 -1 334.3951 929.7276)" class="st6" width="1.3" height="10.6"/>
					</g>
				</g>
				<rect x="164.3" y="473.9" class="st6" width="77.5" height="0.8"/>
			</g>
			<g>
				<g>
					
						<rect x="166.9" y="437.1" transform="matrix(-1 -1.224647e-16 1.224647e-16 -1 411.2859 892.1379)" class="st4" width="77.5" height="18"/>
					
						<rect x="166.9" y="439.6" transform="matrix(-1 -1.224647e-16 1.224647e-16 -1 411.2859 892.1381)" class="st5" width="77.5" height="12.9"/>
					<g>
						
							<rect x="240.8" y="440.8" transform="matrix(-1 -1.224647e-16 1.224647e-16 -1 482.9261 892.1379)" class="st6" width="1.3" height="10.6"/>
						
							<rect x="235.3" y="440.8" transform="matrix(-1 -1.224647e-16 1.224647e-16 -1 471.9046 892.1379)" class="st6" width="1.3" height="10.6"/>
						
							<rect x="229.8" y="440.8" transform="matrix(-1 -1.224647e-16 1.224647e-16 -1 460.8831 892.1379)" class="st6" width="1.3" height="10.6"/>
						
							<rect x="224.3" y="440.8" transform="matrix(-1 -1.224647e-16 1.224647e-16 -1 449.8614 892.1379)" class="st6" width="1.3" height="10.6"/>
						
							<rect x="218.8" y="440.8" transform="matrix(-1 -1.224647e-16 1.224647e-16 -1 438.8398 892.1379)" class="st6" width="1.3" height="10.6"/>
						
							<rect x="213.3" y="440.8" transform="matrix(-1 -1.224647e-16 1.224647e-16 -1 427.8184 892.1379)" class="st6" width="1.3" height="10.6"/>
						
							<rect x="207.8" y="440.8" transform="matrix(-1 -1.224647e-16 1.224647e-16 -1 416.7968 892.1379)" class="st6" width="1.3" height="10.6"/>
						
							<rect x="202.2" y="440.8" transform="matrix(-1 -1.224647e-16 1.224647e-16 -1 405.7753 892.1379)" class="st6" width="1.3" height="10.6"/>
						
							<rect x="196.7" y="440.8" transform="matrix(-1 -1.224647e-16 1.224647e-16 -1 394.7537 892.1379)" class="st6" width="1.3" height="10.6"/>
						
							<rect x="191.2" y="440.8" transform="matrix(-1 -1.224647e-16 1.224647e-16 -1 383.7322 892.1379)" class="st6" width="1.3" height="10.6"/>
						
							<rect x="185.7" y="440.8" transform="matrix(-1 -1.224647e-16 1.224647e-16 -1 372.7106 892.1379)" class="st6" width="1.3" height="10.6"/>
						
							<rect x="180.2" y="440.8" transform="matrix(-1 -1.224647e-16 1.224647e-16 -1 361.6891 892.1379)" class="st6" width="1.3" height="10.6"/>
						
							<rect x="174.7" y="440.8" transform="matrix(-1 -1.224647e-16 1.224647e-16 -1 350.6676 892.1379)" class="st6" width="1.3" height="10.6"/>
						
							<rect x="169.2" y="440.8" transform="matrix(-1 -1.224647e-16 1.224647e-16 -1 339.6461 892.1379)" class="st6" width="1.3" height="10.6"/>
					</g>
				</g>
				<rect x="166.9" y="455.1" class="st6" width="77.5" height="0.8"/>
			</g>
		</g>
		<polygon class="st7" points="240,493.5 240,492.7 240,490.1 240,477.2 240,474.7 241.7,474.7 241.7,473.9 241.7,471.3 
			241.7,458.4 241.7,455.9 244.4,455.9 244.4,455.1 244.4,452.5 244.4,439.6 244.4,437.1 166.9,437.1 166.9,439.6 166.9,452.5 
			166.9,455.1 166.9,455.9 164.3,455.9 164.3,458.4 164.3,471.3 164.3,473.9 164.3,474.7 162.5,474.7 162.5,477.2 162.5,490.1 
			162.5,492.7 162.5,493.5 167.8,493.5 167.8,496 167.8,508.9 167.8,511.5 167.8,512.2 161,512.2 161,514.8 161,527.7 161,530.2 
			161,531 238.5,531 238.5,530.2 238.5,527.7 238.5,514.8 238.5,512.2 245.2,512.2 245.2,511.5 245.2,508.9 245.2,496 245.2,493.5 
					"/>
	</g>
	<g>
		<path class="st8" d="M167.7,493.4c-20.5,0-37.1-16.6-37.1-37.1c0-20.5,16.6-37.1,37.1-37.1h6.4v74.2L167.7,493.4z"/>
		<circle class="st4" cx="172.8" cy="456.2" r="37.1"/>
		<g>
			<path class="st5" d="M172.8,484c15.4,0,27.9-12.5,27.9-27.9c0-15.4-12.5-27.9-27.9-27.9c-15.4,0-27.9,12.5-27.9,27.9
				C144.9,471.5,157.5,484,172.8,484z"/>
			<path class="st6" d="M198.1,456.1c0-14.9-11.8-27.2-26.6-27.9c0.4,0,0.9,0,1.3,0c15.4,0,27.9,12.5,27.9,27.9
				c0,15.4-12.5,27.9-27.9,27.9c-0.4,0-0.9,0-1.3,0C186.3,483.3,198.1,471.1,198.1,456.1z"/>
		</g>
		<g>
			<path class="st4" d="M172.3,471.2c-5.8-0.5-10.1-3.6-10.3-9.1h7.8c0.2,1.8,1,2.8,2.5,3.3v-6.8c-4.6-1.2-10.3-2.5-10.3-9.2
				c0-5.4,4.5-8.5,10.3-8.9v-3.5h2.7v3.5c5.9,0.5,9.6,3.5,10,8.9h-7.8c-0.2-1.6-1-2.6-2.2-3v6.6c4.6,1.3,10.5,2.5,10.5,9.2
				c0,4.6-3.7,8.7-10.5,9v3.5h-2.7V471.2z M172.3,452.2v-6c-1.6,0.3-2.6,1.2-2.6,2.9C169.7,450.6,170.7,451.5,172.3,452.2z
				 M175,459.5v6.1c1.7-0.3,2.8-1.5,2.8-3C177.8,461,176.7,460.1,175,459.5z"/>
		</g>
	</g>
	<g>
		<g>
			
				<rect x="125.2" y="513.9" transform="matrix(-1 -1.224647e-16 1.224647e-16 -1 327.9143 1045.7837)" class="st4" width="77.5" height="18"/>
			
				<rect x="125.2" y="516.5" transform="matrix(-1 -1.224647e-16 1.224647e-16 -1 327.9143 1045.7837)" class="st5" width="77.5" height="12.9"/>
			<g>
				
					<rect x="199.1" y="517.6" transform="matrix(-1 -1.224647e-16 1.224647e-16 -1 399.5544 1045.7836)" class="st6" width="1.3" height="10.6"/>
				
					<rect x="193.6" y="517.6" transform="matrix(-1 -1.224647e-16 1.224647e-16 -1 388.5329 1045.7836)" class="st6" width="1.3" height="10.6"/>
				
					<rect x="188.1" y="517.6" transform="matrix(-1 -1.224647e-16 1.224647e-16 -1 377.5113 1045.7836)" class="st6" width="1.3" height="10.6"/>
				
					<rect x="182.6" y="517.6" transform="matrix(-1 -1.224647e-16 1.224647e-16 -1 366.4897 1045.7836)" class="st6" width="1.3" height="10.6"/>
				
					<rect x="177.1" y="517.6" transform="matrix(-1 -1.224647e-16 1.224647e-16 -1 355.4681 1045.7836)" class="st6" width="1.3" height="10.6"/>
				
					<rect x="171.6" y="517.6" transform="matrix(-1 -1.224647e-16 1.224647e-16 -1 344.4466 1045.7836)" class="st6" width="1.3" height="10.6"/>
				
					<rect x="166.1" y="517.6" transform="matrix(-1 -1.224647e-16 1.224647e-16 -1 333.4251 1045.7836)" class="st6" width="1.3" height="10.6"/>
				
					<rect x="160.6" y="517.6" transform="matrix(-1 -1.224647e-16 1.224647e-16 -1 322.4036 1045.7836)" class="st6" width="1.3" height="10.6"/>
				
					<rect x="155.1" y="517.6" transform="matrix(-1 -1.224647e-16 1.224647e-16 -1 311.3821 1045.7836)" class="st6" width="1.3" height="10.6"/>
				
					<rect x="149.5" y="517.6" transform="matrix(-1 -1.224647e-16 1.224647e-16 -1 300.3604 1045.7836)" class="st6" width="1.3" height="10.6"/>
				
					<rect x="144" y="517.6" transform="matrix(-1 -1.224647e-16 1.224647e-16 -1 289.3389 1045.7836)" class="st6" width="1.3" height="10.6"/>
				
					<rect x="138.5" y="517.6" transform="matrix(-1 -1.224647e-16 1.224647e-16 -1 278.3174 1045.7836)" class="st6" width="1.3" height="10.6"/>
				
					<rect x="133" y="517.6" transform="matrix(-1 -1.224647e-16 1.224647e-16 -1 267.2959 1045.7836)" class="st6" width="1.3" height="10.6"/>
				
					<rect x="127.5" y="517.6" transform="matrix(-1 -1.224647e-16 1.224647e-16 -1 256.2743 1045.7836)" class="st6" width="1.3" height="10.6"/>
			</g>
		</g>
		<rect x="125.2" y="531.9" class="st6" width="77.5" height="0.8"/>
	</g>
	<g>
		<g>
			
				<rect x="219.1" y="513.9" transform="matrix(-1 -1.224647e-16 1.224647e-16 -1 515.637 1045.7837)" class="st4" width="77.5" height="18"/>
			
				<rect x="219.1" y="516.5" transform="matrix(-1 -1.224647e-16 1.224647e-16 -1 515.637 1045.7837)" class="st5" width="77.5" height="12.9"/>
			<g>
				
					<rect x="293" y="517.6" transform="matrix(-1 -1.224647e-16 1.224647e-16 -1 587.277 1045.7836)" class="st6" width="1.3" height="10.6"/>
				
					<rect x="287.5" y="517.6" transform="matrix(-1 -1.224647e-16 1.224647e-16 -1 576.2556 1045.7836)" class="st6" width="1.3" height="10.6"/>
				
					<rect x="282" y="517.6" transform="matrix(-1 -1.224647e-16 1.224647e-16 -1 565.234 1045.7836)" class="st6" width="1.3" height="10.6"/>
				
					<rect x="276.5" y="517.6" transform="matrix(-1 -1.224647e-16 1.224647e-16 -1 554.2124 1045.7836)" class="st6" width="1.3" height="10.6"/>
				
					<rect x="271" y="517.6" transform="matrix(-1 -1.224647e-16 1.224647e-16 -1 543.1908 1045.7836)" class="st6" width="1.3" height="10.6"/>
				
					<rect x="265.4" y="517.6" transform="matrix(-1 -1.224647e-16 1.224647e-16 -1 532.1694 1045.7836)" class="st6" width="1.3" height="10.6"/>
				
					<rect x="259.9" y="517.6" transform="matrix(-1 -1.224647e-16 1.224647e-16 -1 521.1478 1045.7836)" class="st6" width="1.3" height="10.6"/>
				
					<rect x="254.4" y="517.6" transform="matrix(-1 -1.224647e-16 1.224647e-16 -1 510.1264 1045.7836)" class="st6" width="1.3" height="10.6"/>
				
					<rect x="248.9" y="517.6" transform="matrix(-1 -1.224647e-16 1.224647e-16 -1 499.1047 1045.7836)" class="st6" width="1.3" height="10.6"/>
				
					<rect x="243.4" y="517.6" transform="matrix(-1 -1.224647e-16 1.224647e-16 -1 488.0832 1045.7836)" class="st6" width="1.3" height="10.6"/>
				
					<rect x="237.9" y="517.6" transform="matrix(-1 -1.224647e-16 1.224647e-16 -1 477.0616 1045.7836)" class="st6" width="1.3" height="10.6"/>
				
					<rect x="232.4" y="517.6" transform="matrix(-1 -1.224647e-16 1.224647e-16 -1 466.0401 1045.7836)" class="st6" width="1.3" height="10.6"/>
				
					<rect x="226.9" y="517.6" transform="matrix(-1 -1.224647e-16 1.224647e-16 -1 455.0186 1045.7836)" class="st6" width="1.3" height="10.6"/>
				
					<rect x="221.4" y="517.6" transform="matrix(-1 -1.224647e-16 1.224647e-16 -1 443.997 1045.7836)" class="st6" width="1.3" height="10.6"/>
			</g>
		</g>
		<rect x="219.1" y="531.9" class="st6" width="77.5" height="0.8"/>
	</g>
	<g>
		<g>
			
				<rect x="134.3" y="495.1" transform="matrix(-1 -1.224647e-16 1.224647e-16 -1 346.0718 1008.1939)" class="st4" width="77.5" height="18"/>
			
				<rect x="134.3" y="497.7" transform="matrix(-1 -1.224647e-16 1.224647e-16 -1 346.0718 1008.194)" class="st5" width="77.5" height="12.9"/>
			<g>
				
					<rect x="208.2" y="498.8" transform="matrix(-1 -1.224647e-16 1.224647e-16 -1 417.7118 1008.1939)" class="st6" width="1.3" height="10.6"/>
				
					<rect x="202.7" y="498.8" transform="matrix(-1 -1.224647e-16 1.224647e-16 -1 406.6903 1008.1939)" class="st6" width="1.3" height="10.6"/>
				
					<rect x="197.2" y="498.8" transform="matrix(-1 -1.224647e-16 1.224647e-16 -1 395.6688 1008.1939)" class="st6" width="1.3" height="10.6"/>
				
					<rect x="191.7" y="498.8" transform="matrix(-1 -1.224647e-16 1.224647e-16 -1 384.6472 1008.1939)" class="st6" width="1.3" height="10.6"/>
				
					<rect x="186.2" y="498.8" transform="matrix(-1 -1.224647e-16 1.224647e-16 -1 373.6255 1008.1939)" class="st6" width="1.3" height="10.6"/>
				
					<rect x="180.7" y="498.8" transform="matrix(-1 -1.224647e-16 1.224647e-16 -1 362.6041 1008.1939)" class="st6" width="1.3" height="10.6"/>
				
					<rect x="175.2" y="498.8" transform="matrix(-1 -1.224647e-16 1.224647e-16 -1 351.5826 1008.1939)" class="st6" width="1.3" height="10.6"/>
				
					<rect x="169.6" y="498.8" transform="matrix(-1 -1.224647e-16 1.224647e-16 -1 340.5611 1008.1939)" class="st6" width="1.3" height="10.6"/>
				
					<rect x="164.1" y="498.8" transform="matrix(-1 -1.224647e-16 1.224647e-16 -1 329.5394 1008.1939)" class="st6" width="1.3" height="10.6"/>
				
					<rect x="158.6" y="498.8" transform="matrix(-1 -1.224647e-16 1.224647e-16 -1 318.5179 1008.1939)" class="st6" width="1.3" height="10.6"/>
				
					<rect x="153.1" y="498.8" transform="matrix(-1 -1.224647e-16 1.224647e-16 -1 307.4963 1008.1939)" class="st6" width="1.3" height="10.6"/>
				
					<rect x="147.6" y="498.8" transform="matrix(-1 -1.224647e-16 1.224647e-16 -1 296.4749 1008.1939)" class="st6" width="1.3" height="10.6"/>
				
					<rect x="142.1" y="498.8" transform="matrix(-1 -1.224647e-16 1.224647e-16 -1 285.4533 1008.1939)" class="st6" width="1.3" height="10.6"/>
				
					<rect x="136.6" y="498.8" transform="matrix(-1 -1.224647e-16 1.224647e-16 -1 274.4318 1008.1939)" class="st6" width="1.3" height="10.6"/>
			</g>
		</g>
		<rect x="134.3" y="513.1" class="st6" width="77.5" height="0.8"/>
	</g>
</g>
<g>
	<g>
		<g>
			<path class="st9" d="M382.3,437.1H636c5.5,0,9.9-4.4,9.9-9.9v-94c0-5.5-4.4-9.9-9.9-9.9H382.3c-5.5,0-9.9,4.4-9.9,9.9v94
				C372.4,432.7,376.8,437.1,382.3,437.1z"/>
			<g>
				<path class="st10" d="M640.4,323.3h-4.3c5.4,0,9.8,4.4,9.8,9.8v94.2c0,5.4-4.4,9.8-9.8,9.8h4.3c5.4,0,9.8-4.4,9.8-9.8v-94.2
					C650.2,327.7,645.8,323.3,640.4,323.3z"/>
			</g>
		</g>
		<g>
			<g>
				<path class="st11" d="M392.4,399.9v-4c0-0.2-0.2-0.4-0.4-0.4c-0.2,0-0.4,0.2-0.4,0.4v4c-0.7,0.1-1.2,0.6-1.2,1.3v16.4
					c0,0.7,0.5,1.3,1.2,1.3v4c0,0.2,0.2,0.4,0.4,0.4c0.2,0,0.4-0.2,0.4-0.4v-4c0.7-0.1,1.2-0.6,1.2-1.3v-16.4
					C393.7,400.5,393.1,400,392.4,399.9z"/>
				<path class="st11" d="M399.2,398.4v-4c0-0.2-0.2-0.4-0.4-0.4c-0.2,0-0.4,0.2-0.4,0.4v4c-0.7,0.1-1.2,0.6-1.2,1.3v11.5
					c0,0.7,0.5,1.3,1.2,1.3v4c0,0.2,0.2,0.4,0.4,0.4c0.2,0,0.4-0.2,0.4-0.4v-4c0.7-0.1,1.2-0.6,1.2-1.3v-11.5
					C400.5,399,399.9,398.4,399.2,398.4z"/>
				<path class="st12" d="M406,393.8v-13.7c0-0.2-0.2-0.4-0.4-0.4c-0.2,0-0.4,0.2-0.4,0.4v13.7c-0.7,0.1-1.2,0.6-1.2,1.3v21.3
					c0,0.7,0.5,1.3,1.2,1.3v4c0,0.2,0.2,0.4,0.4,0.4c0.2,0,0.4-0.2,0.4-0.4v-4c0.7-0.1,1.2-0.6,1.2-1.3v-21.3
					C407.3,394.4,406.7,393.9,406,393.8z"/>
				<path class="st11" d="M412.8,406v-4c0-0.2-0.2-0.4-0.4-0.4c-0.2,0-0.4,0.2-0.4,0.4v4c-0.7,0.1-1.2,0.6-1.2,1.3v11.5
					c0,0.7,0.5,1.3,1.2,1.3v4c0,0.2,0.2,0.4,0.4,0.4c0.2,0,0.4-0.2,0.4-0.4v-4c0.7-0.1,1.2-0.6,1.2-1.3v-11.5
					C414,406.6,413.5,406.1,412.8,406z"/>
				<path class="st11" d="M419.6,404.1v-4c0-0.2-0.2-0.4-0.4-0.4c-0.2,0-0.4,0.2-0.4,0.4v4c-0.7,0.1-1.2,0.6-1.2,1.3v11.5
					c0,0.7,0.5,1.3,1.2,1.3V432c0,0.2,0.2,0.4,0.4,0.4c0.2,0,0.4-0.2,0.4-0.4v-13.7c0.7-0.1,1.2-0.6,1.2-1.3v-11.5
					C420.8,404.8,420.3,404.2,419.6,404.1z"/>
				<path class="st11" d="M426.4,407.5v-4c0-0.2-0.2-0.4-0.4-0.4c-0.2,0-0.4,0.2-0.4,0.4v4c-0.7,0.1-1.2,0.6-1.2,1.3v6.6
					c0,0.7,0.5,1.3,1.2,1.3v4c0,0.2,0.2,0.4,0.4,0.4c0.2,0,0.4-0.2,0.4-0.4v-4c0.7-0.1,1.2-0.6,1.2-1.3v-6.6
					C427.6,408.1,427.1,407.5,426.4,407.5z"/>
				<path class="st11" d="M433.2,404v-8.9c0-0.2-0.2-0.4-0.4-0.4c-0.2,0-0.4,0.2-0.4,0.4v8.9c-0.7,0.1-1.2,0.6-1.2,1.3v6.6
					c0,0.7,0.5,1.3,1.2,1.3v4c0,0.2,0.2,0.4,0.4,0.4c0.2,0,0.4-0.2,0.4-0.4v-4c0.7-0.1,1.2-0.6,1.2-1.3v-6.6
					C434.4,404.6,433.9,404.1,433.2,404z"/>
				<path class="st11" d="M440,391.1v-8.9c0-0.2-0.2-0.4-0.4-0.4c-0.2,0-0.4,0.2-0.4,0.4v8.9c-0.7,0.1-1.2,0.6-1.2,1.3v16.4
					c0,0.7,0.5,1.3,1.2,1.3v4c0,0.2,0.2,0.4,0.4,0.4c0.2,0,0.4-0.2,0.4-0.4v-4c0.7-0.1,1.2-0.6,1.2-1.3v-16.4
					C441.2,391.7,440.7,391.2,440,391.1z"/>
				<path class="st12" d="M446.8,381.7v-4c0-0.2-0.2-0.4-0.4-0.4c-0.2,0-0.4,0.2-0.4,0.4v4c-0.7,0.1-1.2,0.6-1.2,1.3v31
					c0,0.7,0.5,1.3,1.2,1.3v8.9c0,0.2,0.2,0.4,0.4,0.4c0.2,0,0.4-0.2,0.4-0.4v-8.9c0.7-0.1,1.2-0.6,1.2-1.3v-31
					C448,382.3,447.5,381.8,446.8,381.7z"/>
				<path class="st11" d="M453.6,390.8v-4c0-0.2-0.2-0.4-0.4-0.4c-0.2,0-0.4,0.2-0.4,0.4v4c-0.7,0.1-1.2,0.6-1.2,1.3v16.4
					c0,0.7,0.5,1.3,1.2,1.3v4c0,0.2,0.2,0.4,0.4,0.4c0.2,0,0.4-0.2,0.4-0.4v-4c0.7-0.1,1.2-0.6,1.2-1.3v-16.4
					C454.8,391.4,454.3,390.8,453.6,390.8z"/>
				<path class="st11" d="M460.4,398.4v-4c0-0.2-0.2-0.4-0.4-0.4s-0.4,0.2-0.4,0.4v4c-0.7,0.1-1.2,0.6-1.2,1.3v11.5
					c0,0.7,0.5,1.3,1.2,1.3v13.7c0,0.2,0.2,0.4,0.4,0.4s0.4-0.2,0.4-0.4v-13.7c0.7-0.1,1.2-0.6,1.2-1.3v-11.5
					C461.6,399,461.1,398.5,460.4,398.4z"/>
				<path class="st11" d="M467.2,402.5v-4c0-0.2-0.2-0.4-0.4-0.4c-0.2,0-0.4,0.2-0.4,0.4v4c-0.7,0.1-1.2,0.6-1.2,1.3v6.6
					c0,0.7,0.5,1.3,1.2,1.3v4c0,0.2,0.2,0.4,0.4,0.4c0.2,0,0.4-0.2,0.4-0.4v-4c0.7-0.1,1.2-0.6,1.2-1.3v-6.6
					C468.4,403.1,467.9,402.6,467.2,402.5z"/>
				<path class="st11" d="M474,403.2v-4c0-0.2-0.2-0.4-0.4-0.4c-0.2,0-0.4,0.2-0.4,0.4v4c-0.7,0.1-1.2,0.6-1.2,1.3v1.7
					c0,0.7,0.5,1.3,1.2,1.3v4c0,0.2,0.2,0.4,0.4,0.4c0.2,0,0.4-0.2,0.4-0.4v-4c0.7-0.1,1.2-0.6,1.2-1.3v-1.7
					C475.2,403.8,474.7,403.3,474,403.2z"/>
				<path class="st12" d="M480.8,386.8V378c0-0.2-0.2-0.4-0.4-0.4c-0.2,0-0.4,0.2-0.4,0.4v8.9c-0.7,0.1-1.2,0.6-1.2,1.3v11.5
					c0,0.7,0.5,1.3,1.2,1.3v4c0,0.2,0.2,0.4,0.4,0.4c0.2,0,0.4-0.2,0.4-0.4v-4c0.7-0.1,1.2-0.6,1.2-1.3v-11.5
					C482,387.5,481.4,386.9,480.8,386.8z"/>
				<path class="st11" d="M487.6,378.9v-4c0-0.2-0.2-0.4-0.4-0.4c-0.2,0-0.4,0.2-0.4,0.4v4c-0.7,0.1-1.2,0.6-1.2,1.3v16.4
					c0,0.7,0.5,1.3,1.2,1.3v4c0,0.2,0.2,0.4,0.4,0.4c0.2,0,0.4-0.2,0.4-0.4v-4c0.7-0.1,1.2-0.6,1.2-1.3v-16.4
					C488.8,379.5,488.2,379,487.6,378.9z"/>
				<path class="st11" d="M494.4,366v-4c0-0.2-0.2-0.4-0.4-0.4c-0.2,0-0.4,0.2-0.4,0.4v4c-0.7,0.1-1.2,0.6-1.2,1.3v31
					c0,0.7,0.5,1.3,1.2,1.3v4c0,0.2,0.2,0.4,0.4,0.4c0.2,0,0.4-0.2,0.4-0.4v-4c0.7-0.1,1.2-0.6,1.2-1.3v-31
					C495.6,366.6,495,366.1,494.4,366z"/>
				<path class="st11" d="M501.2,373.9V365c0-0.2-0.2-0.4-0.4-0.4s-0.4,0.2-0.4,0.4v8.9c-0.7,0.1-1.2,0.6-1.2,1.3v11.5
					c0,0.7,0.5,1.3,1.2,1.3v8.9c0,0.2,0.2,0.4,0.4,0.4s0.4-0.2,0.4-0.4V388c0.7-0.1,1.2-0.6,1.2-1.3v-11.5
					C502.4,374.5,501.8,373.9,501.2,373.9z"/>
				<path class="st11" d="M507.9,363.1v-4c0-0.2-0.2-0.4-0.4-0.4c-0.2,0-0.4,0.2-0.4,0.4v4c-0.7,0.1-1.2,0.6-1.2,1.3v1.7
					c0,0.7,0.5,1.3,1.2,1.3v4c0,0.2,0.2,0.4,0.4,0.4c0.2,0,0.4-0.2,0.4-0.4v-4c0.7-0.1,1.2-0.6,1.2-1.3v-1.7
					C509.2,363.7,508.6,363.2,507.9,363.1z"/>
				<path class="st11" d="M514.7,357.8v-4c0-0.2-0.2-0.4-0.4-0.4s-0.4,0.2-0.4,0.4v4c-0.7,0.1-1.2,0.6-1.2,1.3v16.4
					c0,0.7,0.5,1.3,1.2,1.3v4c0,0.2,0.2,0.4,0.4,0.4s0.4-0.2,0.4-0.4v-4c0.7-0.1,1.2-0.6,1.2-1.3v-16.4
					C516,358.5,515.4,357.9,514.7,357.8z"/>
				<path class="st12" d="M521.5,349.1v-4c0-0.2-0.2-0.4-0.4-0.4c-0.2,0-0.4,0.2-0.4,0.4v4c-0.7,0.1-1.2,0.6-1.2,1.3v26.1
					c0,0.7,0.5,1.3,1.2,1.3v4c0,0.2,0.2,0.4,0.4,0.4c0.2,0,0.4-0.2,0.4-0.4v-4c0.7-0.1,1.2-0.6,1.2-1.3v-26.1
					C522.8,349.8,522.2,349.2,521.5,349.1z"/>
				<path class="st11" d="M528.3,352.6V334c0-0.2-0.2-0.4-0.4-0.4s-0.4,0.2-0.4,0.4v18.6c-0.7,0.1-1.2,0.6-1.2,1.3v40.8
					c0,0.7,0.5,1.3,1.2,1.3v8.9c0,0.2,0.2,0.4,0.4,0.4s0.4-0.2,0.4-0.4V396c0.7-0.1,1.2-0.6,1.2-1.3v-40.8
					C529.5,353.2,529,352.7,528.3,352.6z"/>
				<path class="st11" d="M535.1,369.6v-4c0-0.2-0.2-0.4-0.4-0.4c-0.2,0-0.4,0.2-0.4,0.4v4c-0.7,0.1-1.2,0.6-1.2,1.3v6.6
					c0,0.7,0.5,1.3,1.2,1.3v4c0,0.2,0.2,0.4,0.4,0.4c0.2,0,0.4-0.2,0.4-0.4v-4c0.7-0.1,1.2-0.6,1.2-1.3v-6.6
					C536.3,370.2,535.8,369.7,535.1,369.6z"/>
				<path class="st11" d="M541.9,364.3v-4c0-0.2-0.2-0.4-0.4-0.4s-0.4,0.2-0.4,0.4v4c-0.7,0-1.2,0.5-1.2,1.2v16.7
					c0,0.6,0.5,1.2,1.2,1.2v4c0,0.2,0.2,0.4,0.4,0.4s0.4-0.2,0.4-0.4v-4c0.7,0,1.2-0.5,1.2-1.2v-16.7
					C543.1,364.9,542.6,364.4,541.9,364.3z"/>
				<path class="st11" d="M548.7,368.8v-4c0-0.2-0.2-0.4-0.4-0.4c-0.2,0-0.4,0.2-0.4,0.4v4c-0.7,0.1-1.2,0.6-1.2,1.3v1.7
					c0,0.7,0.5,1.3,1.2,1.3v4c0,0.2,0.2,0.4,0.4,0.4c0.2,0,0.4-0.2,0.4-0.4v-4c0.7-0.1,1.2-0.6,1.2-1.3v-1.7
					C549.9,369.5,549.4,368.9,548.7,368.8z"/>
				<path class="st11" d="M555.5,360.1v-8.9c0-0.2-0.2-0.4-0.4-0.4s-0.4,0.2-0.4,0.4v8.9c-0.7,0.1-1.2,0.6-1.2,1.3v16.4
					c0,0.7,0.5,1.3,1.2,1.3v4c0,0.2,0.2,0.4,0.4,0.4s0.4-0.2,0.4-0.4v-4c0.7-0.1,1.2-0.6,1.2-1.3v-16.4
					C556.7,360.7,556.2,360.2,555.5,360.1z"/>
				<path class="st11" d="M562.3,350.7v-4c0-0.2-0.2-0.4-0.4-0.4c-0.2,0-0.4,0.2-0.4,0.4v4c-0.7,0.1-1.2,0.6-1.2,1.3v31
					c0,0.7,0.5,1.3,1.2,1.3v4c0,0.2,0.2,0.4,0.4,0.4c0.2,0,0.4-0.2,0.4-0.4v-4c0.7-0.1,1.2-0.6,1.2-1.3v-31
					C563.5,351.3,563,350.8,562.3,350.7z"/>
				<path class="st12" d="M569.1,351.6v-4c0-0.2-0.2-0.4-0.4-0.4s-0.4,0.2-0.4,0.4v4c-0.7,0.1-1.2,0.6-1.2,1.3v40.8
					c0,0.7,0.5,1.3,1.2,1.3v13.7c0,0.2,0.2,0.4,0.4,0.4s0.4-0.2,0.4-0.4V395c0.7-0.1,1.2-0.6,1.2-1.3v-40.8
					C570.3,352.2,569.8,351.6,569.1,351.6z"/>
				<path class="st11" d="M575.9,366.6v-4c0-0.2-0.2-0.4-0.4-0.4c-0.2,0-0.4,0.2-0.4,0.4v4c-0.7,0.1-1.2,0.6-1.2,1.3v11.5
					c0,0.7,0.5,1.3,1.2,1.3v4c0,0.2,0.2,0.4,0.4,0.4c0.2,0,0.4-0.2,0.4-0.4v-4c0.7-0.1,1.2-0.6,1.2-1.3v-11.5
					C577.1,367.2,576.6,366.7,575.9,366.6z"/>
				<path class="st12" d="M582.7,378.8v-4c0-0.2-0.2-0.4-0.4-0.4s-0.4,0.2-0.4,0.4v4c-0.7,0.1-1.2,0.6-1.2,1.3v1.7
					c0,0.7,0.5,1.3,1.2,1.3v4c0,0.2,0.2,0.4,0.4,0.4s0.4-0.2,0.4-0.4v-4c0.7-0.1,1.2-0.6,1.2-1.3v-1.7
					C583.9,379.4,583.4,378.8,582.7,378.8z"/>
				<path class="st11" d="M589.5,386.4v-4c0-0.2-0.2-0.4-0.4-0.4c-0.2,0-0.4,0.2-0.4,0.4v4c-0.7,0.1-1.2,0.6-1.2,1.3v6.6
					c0,0.7,0.5,1.3,1.2,1.3v4c0,0.2,0.2,0.4,0.4,0.4c0.2,0,0.4-0.2,0.4-0.4v-4c0.7-0.1,1.2-0.6,1.2-1.3v-6.6
					C590.7,387,590.2,386.5,589.5,386.4z"/>
				<path class="st11" d="M596.3,381.2v-8.9c0-0.2-0.2-0.4-0.4-0.4c-0.2,0-0.4,0.2-0.4,0.4v8.9c-0.7,0.1-1.2,0.6-1.2,1.3v16.4
					c0,0.7,0.5,1.3,1.2,1.3v8.9c0,0.2,0.2,0.4,0.4,0.4c0.2,0,0.4-0.2,0.4-0.4v-8.9c0.7-0.1,1.2-0.6,1.2-1.3v-16.4
					C597.5,381.8,596.9,381.3,596.3,381.2z"/>
				<path class="st11" d="M603.1,385v-4c0-0.2-0.2-0.4-0.4-0.4c-0.2,0-0.4,0.2-0.4,0.4v4c-0.7,0.1-1.2,0.6-1.2,1.3v21.3
					c0,0.7,0.5,1.3,1.2,1.3v4c0,0.2,0.2,0.4,0.4,0.4c0.2,0,0.4-0.2,0.4-0.4v-4c0.7-0.1,1.2-0.6,1.2-1.3v-21.3
					C604.3,385.6,603.7,385.1,603.1,385z"/>
				<path class="st11" d="M609.9,368.3v-4c0-0.2-0.2-0.4-0.4-0.4s-0.4,0.2-0.4,0.4v4c-0.7,0.1-1.2,0.6-1.2,1.3v26.1
					c0,0.7,0.5,1.3,1.2,1.3v4c0,0.2,0.2,0.4,0.4,0.4s0.4-0.2,0.4-0.4v-4c0.7-0.1,1.2-0.6,1.2-1.3v-26.1
					C611.1,368.9,610.5,368.4,609.9,368.3z"/>
				<path class="st11" d="M616.7,382.6v-8.9c0-0.2-0.2-0.4-0.4-0.4c-0.2,0-0.4,0.2-0.4,0.4v8.9c-0.7,0.1-1.2,0.6-1.2,1.3v6.6
					c0,0.7,0.5,1.3,1.2,1.3v8.9c0,0.2,0.2,0.4,0.4,0.4c0.2,0,0.4-0.2,0.4-0.4v-8.9c0.7-0.1,1.2-0.6,1.2-1.3v-6.6
					C617.9,383.2,617.3,382.7,616.7,382.6z"/>
				<path class="st12" d="M623.4,376.2v-4c0-0.2-0.2-0.4-0.4-0.4s-0.4,0.2-0.4,0.4v4c-0.7,0.1-1.2,0.6-1.2,1.3V389
					c0,0.7,0.5,1.3,1.2,1.3v4c0,0.2,0.2,0.4,0.4,0.4s0.4-0.2,0.4-0.4v-4c0.7-0.1,1.2-0.6,1.2-1.3v-11.5
					C624.7,376.8,624.1,376.2,623.4,376.2z"/>
				<path class="st11" d="M630.2,373.4v-4c0-0.2-0.2-0.4-0.4-0.4c-0.2,0-0.4,0.2-0.4,0.4v4c-0.7,0.1-1.2,0.6-1.2,1.3v1.7
					c0,0.7,0.5,1.3,1.2,1.3v4c0,0.2,0.2,0.4,0.4,0.4c0.2,0,0.4-0.2,0.4-0.4v-4c0.7-0.1,1.2-0.6,1.2-1.3v-1.7
					C631.5,374,630.9,373.5,630.2,373.4z"/>
			</g>
			<g>
				<path class="st13" d="M452,343.5h-61.9c-1,0-1.8-0.8-1.8-1.8l0,0c0-1,0.8-1.8,1.8-1.8H452c1,0,1.8,0.8,1.8,1.8l0,0
					C453.8,342.7,453,343.5,452,343.5z"/>
				<path class="st13" d="M452,349.8h-61.9c-1,0-1.8-0.8-1.8-1.8l0,0c0-1,0.8-1.8,1.8-1.8H452c1,0,1.8,0.8,1.8,1.8l0,0
					C453.8,349,453,349.8,452,349.8z"/>
				<path class="st13" d="M419.3,356.2h-29.2c-1,0-1.8-0.8-1.8-1.8l0,0c0-1,0.8-1.8,1.8-1.8h29.2c1,0,1.8,0.8,1.8,1.8l0,0
					C421.1,355.4,420.3,356.2,419.3,356.2z"/>
			</g>
		</g>
	</g>
	<g>
		<path class="st9" d="M142.4,376.2h194.9c5.5,0,9.9-4.4,9.9-9.9V250.6c0-5.5-4.4-9.9-9.9-9.9H142.4c-5.5,0-9.9,4.4-9.9,9.9v115.8
			C132.5,371.8,136.9,376.2,142.4,376.2z"/>
		<g>
			<path class="st10" d="M341.6,240.7h-4.3c5.4,0,9.8,4.4,9.8,9.8v116c0,5.4-4.4,9.8-9.8,9.8h4.3c5.4,0,9.8-4.4,9.8-9.8v-116
				C351.4,245,347,240.7,341.6,240.7z"/>
		</g>
		<g>
			<rect x="153.9" y="321.7" class="st14" width="10.2" height="38.3"/>
			<rect x="153.9" y="316.6" class="st15" width="10.2" height="5.1"/>
			<rect x="180.4" y="295.7" class="st15" width="10.2" height="8.9"/>
			<rect x="286.7" y="258.3" class="st15" width="10.2" height="11.8"/>
			<rect x="260.1" y="278.9" class="st15" width="10.2" height="22.8"/>
			<rect x="207" y="333.9" class="st15" width="10.2" height="2.1"/>
			<rect x="233.5" y="304.6" class="st15" width="10.2" height="5.4"/>
			<rect x="313.2" y="306.1" class="st15" width="10.2" height="5.4"/>
			<rect x="180.4" y="304.6" class="st14" width="10.2" height="55.4"/>
			<rect x="207" y="335.9" class="st14" width="10.2" height="24.1"/>
			<rect x="233.5" y="310" class="st14" width="10.2" height="50"/>
			<rect x="260.1" y="301.6" class="st14" width="10.2" height="58.4"/>
			<rect x="286.7" y="270.1" class="st14" width="10.2" height="89.9"/>
			<rect x="313.2" y="311.5" class="st14" width="10.2" height="48.5"/>
			<path class="st16" d="M132.7,360.7V359c8.2,0,12.5-7.8,17.2-14c3.3-4.3,5.9-7.7,8.6-7.7c3.2,0,4.4,4.1,5.6,8.5
				c1.4,5.2,2.9,10.6,7.5,10.6c4.2,0,5.9-13,7.2-23.5c1.7-13,2.9-21,6.9-21c4.2,0,5.7,8.8,7.7,23.4c1.1,8.4,2.7,19.9,5.1,19.9
				c2.8,0,4.4-2.7,6.1-5.6c1.8-3.1,3.7-6.3,7.4-6.3c3.6,0,5.4,2.8,7,5.2c1.6,2.4,3,4.6,5.9,4.6c2.6,0,4.7-13,6.1-21.6
				c2.2-13.9,3.8-22.4,7.5-22.4c3.9,0,5.9,7.3,7.9,15c1.5,5.6,3.4,12.5,5.5,12.5c2.2,0,3.8-4.2,5.4-8.3c1.9-5,3.9-10.2,7.8-10.2
				c3.6,0,5.4,3.5,7.2,6.8c1.7,3.2,3.2,6.3,6.2,6.3c2.7,0,4.7-13.6,6-22.5c2.1-14.2,3.5-22.9,7.2-22.9c3.7,0,5.2,9,7.4,23.7
				c1.3,8.9,3.3,22.2,5.8,22.2c2.6,0,4.3-5.3,5.9-10c1.9-5.8,3.7-11.2,7.5-11.2c3.2,0,6.3,5.9,10.2,13.3c4.7,8.9,12.2,20,18.5,20
				v1.6c-7.3,0-14.7-11.1-19.9-20.9c-3.2-6.1-6.6-12.4-8.8-12.4c-2.6,0-4.4,5.4-5.9,10.1c-1.9,5.7-3.7,11.2-7.4,11.2
				c-3.7,0-5.2-9-7.4-23.6c-1.3-8.9-3.3-22.3-5.8-22.3c-2.4,0-4.3,12.9-5.6,21.5c-2.2,14.9-3.8,23.9-7.7,23.9
				c-3.9,0-5.9-3.8-7.6-7.1c-1.6-3.1-3.1-6-5.7-6c-2.7,0-4.6,4.8-6.3,9.1c-1.9,4.8-3.6,9.3-6.9,9.3c-3.3,0-5.1-6.4-7-13.7
				c-1.7-6.2-3.7-13.8-6.4-13.8c-2.5,0-4.5,12.6-5.9,21c-2.3,14.3-4,23-7.7,23c-3.8,0-5.6-2.8-7.3-5.3c-1.6-2.4-3-4.5-5.7-4.5
				c-2.7,0-4.3,2.7-6,5.5c-1.9,3.2-3.8,6.4-7.5,6.4c-3.7,0-5-8.1-6.8-21.3c-1.3-9.3-3-22-6.1-22c-2.8,0-4.2,10.8-5.3,19.6
				c-1.6,12.8-3.2,24.9-8.9,24.9c-5.8,0-7.6-6.6-9.1-11.8c-1-3.8-2-7.3-4-7.3c-1.9,0-4.5,3.4-7.3,7.1
				C146.2,352.6,141.7,360.7,132.7,360.7z"/>
			<circle class="st12" cx="158.5" cy="338.1" r="2.5"/>
			<circle class="st12" cx="171.6" cy="357.3" r="2.5"/>
			<circle class="st12" cx="185.5" cy="312.8" r="2.5"/>
			<circle class="st12" cx="198.8" cy="356" r="2.5"/>
			<circle class="st12" cx="212.1" cy="344.6" r="2.5"/>
			<circle class="st12" cx="224.6" cy="353.5" r="2.5"/>
			<circle class="st12" cx="238.6" cy="310" r="2.5"/>
			<circle class="st12" cx="252.4" cy="337.5" r="2.5"/>
			<circle class="st12" cx="265.2" cy="319.2" r="2.5"/>
			<circle class="st12" cx="278.5" cy="331.9" r="2.5"/>
			<circle class="st12" cx="291.7" cy="286.8" r="2.5"/>
			<circle class="st12" cx="305" cy="333" r="2.5"/>
			<circle class="st12" cx="318.3" cy="311.5" r="2.5"/>
		</g>
		<g>
			<path class="st13" d="M214,253.8h-61.9c-1,0-1.8-0.8-1.8-1.8l0,0c0-1,0.8-1.8,1.8-1.8H214c1,0,1.8,0.8,1.8,1.8l0,0
				C215.8,253,215,253.8,214,253.8z"/>
			<path class="st13" d="M214,260.1h-61.9c-1,0-1.8-0.8-1.8-1.8l0,0c0-1,0.8-1.8,1.8-1.8H214c1,0,1.8,0.8,1.8,1.8l0,0
				C215.8,259.3,215,260.1,214,260.1z"/>
			<path class="st13" d="M181.3,266.4h-29.2c-1,0-1.8-0.8-1.8-1.8l0,0c0-1,0.8-1.8,1.8-1.8h29.2c1,0,1.8,0.8,1.8,1.8l0,0
				C183.1,265.6,182.3,266.4,181.3,266.4z"/>
		</g>
	</g>
</g>
<g>
	<path class="st17" d="M513.5,457.5c-14.9-14.9-14.9-39,0-53.9c14.9-14.9,39-14.9,53.9,0c14.9,14.9,14.9,39,0,53.9
		C552.6,472.3,528.4,472.3,513.5,457.5z"/>
	<path class="st18" d="M514,428.8c-0.2,0-0.4,0-0.7-0.1c-1.9-0.4-3.1-2.2-2.7-4.1c1.2-6,4-11.4,8.3-15.7c5.7-5.7,13.4-8.9,21.5-8.9
		c3.7,0,7.3,0.7,10.7,1.9c1.8,0.7,2.7,2.7,2,4.5c-0.7,1.8-2.7,2.7-4.5,2c-2.6-1-5.4-1.5-8.3-1.5c-6.3,0-12.2,2.4-16.6,6.9
		c-3.3,3.3-5.5,7.5-6.4,12.1C517.1,427.7,515.7,428.8,514,428.8z"/>
	<g>
		<path class="st13" d="M589.7,459.7l22.7,22.7c4.7,4.7,4.7,12.4,0,17.1l0,0c-4.7,4.7-12.4,4.7-17.1,0l-22.7-22.7
			c3.4-2.1,6.6-4.7,9.5-7.6C585,466.3,587.5,463.1,589.7,459.7z"/>
	</g>
	<g>
		<path class="st0" d="M602.3,470.8l10.9,10.9c5.2,5.2,5.2,13.5,0,18.7c-5.2,5.2-13.5,5.2-18.7,0l4.9-29.5H602.3z"/>
	</g>
	<g>
		<path class="st1" d="M586.8,459.7l22.7,22.7c4.7,4.7,4.7,12.4,0,17.1l0,0c-4.7,4.7-12.4,4.7-17.1,0l-22.7-22.7
			c3.4-2.1,6.6-4.7,9.5-7.6S584.6,463.1,586.8,459.7z"/>
	</g>
	<g>
		<path class="st19" d="M599.4,470.8l10.9,10.9c5.2,5.2,5.2,13.5,0,18.7c-5.2,5.2-13.5,5.2-18.7,0l-10.9-10.9L599.4,470.8z"/>
	</g>
	<g>
		<path class="st19" d="M504.7,469.2c21.4,21.4,56,21.4,77.4,0c21.4-21.4,21.4-56,0-77.4c-21.4-21.4-56-21.4-77.4,0
			C483.4,413.2,483.4,447.8,504.7,469.2z M516.4,457.5c-14.9-14.9-14.9-39,0-53.9c14.9-14.9,39-14.9,53.9,0
			c14.9,14.9,14.9,39,0,53.9C555.5,472.3,531.3,472.3,516.4,457.5z"/>
		<path class="st14" d="M501.8,469.2c21.4,21.4,56,21.4,77.4,0c21.4-21.4,21.4-56,0-77.4c-21.4-21.4-56-21.4-77.4,0
			C480.5,413.2,480.5,447.8,501.8,469.2z M513.5,457.5c-14.9-14.9-14.9-39,0-53.9c14.9-14.9,39-14.9,53.9,0
			c14.9,14.9,14.9,39,0,53.9C552.6,472.3,528.4,472.3,513.5,457.5z"/>
	</g>
</g>
<g>
	<g>
		<rect x="498.2" y="229.7" class="st20" width="152" height="78.7"/>
		<rect x="493.6" y="229.7" class="st16" width="152" height="78.7"/>
		<path class="st11" d="M499.7,290.6v-43.1c5.9,0,10.6-4.8,10.6-10.6h118.6c0,5.9,4.8,10.6,10.6,10.6v43.1
			c-5.9,0-10.6,4.8-10.6,10.6H510.3C510.3,295.3,505.6,290.6,499.7,290.6z"/>
		<circle class="st16" cx="569.6" cy="269" r="29.2"/>
		<path class="st11" d="M569.6,294.3c-14,0-25.3-11.4-25.3-25.3c0-14,11.4-25.3,25.3-25.3c14,0,25.3,11.4,25.3,25.3
			C594.9,283,583.6,294.3,569.6,294.3z"/>
		<g>
			<path class="st16" d="M568.2,284c-5.7-0.5-9.8-3.5-10.1-8.9h7.6c0.2,1.7,1,2.8,2.4,3.2v-6.6c-4.5-1.2-10.1-2.4-10.1-9
				c0-5.2,4.4-8.3,10.1-8.7v-3.4h2.7v3.4c5.7,0.5,9.4,3.4,9.8,8.7H573c-0.2-1.6-1-2.5-2.1-2.9v6.5c4.5,1.3,10.2,2.5,10.2,9
				c0,4.5-3.6,8.5-10.2,8.8v3.4h-2.7V284z M568.2,265.4v-5.8c-1.5,0.3-2.5,1.2-2.5,2.8C565.7,263.9,566.7,264.7,568.2,265.4z
				 M570.9,272.5v5.9c1.7-0.3,2.7-1.4,2.7-3C573.6,274,572.5,273.2,570.9,272.5z"/>
		</g>
	</g>
	<polygon class="st12" points="478.6,257.8 450.7,229.8 422.8,257.8 437.7,257.8 437.7,308.4 463.7,308.4 463.7,257.8 	"/>
</g>
<g>
	<g>
		<path class="st14" d="M358.9,400.6H257.4c-1,0-1.8-0.8-1.8-1.8l0,0c0-1,0.8-1.8,1.8-1.8h101.5c1,0,1.8,0.8,1.8,1.8l0,0
			C360.7,399.8,359.9,400.6,358.9,400.6z"/>
		<path class="st14" d="M358.9,406.9H257.4c-1,0-1.8-0.8-1.8-1.8l0,0c0-1,0.8-1.8,1.8-1.8h101.5c1,0,1.8,0.8,1.8,1.8l0,0
			C360.7,406.1,359.9,406.9,358.9,406.9z"/>
		<path class="st14" d="M286.7,413.2h-29.2c-1,0-1.8-0.8-1.8-1.8l0,0c0-1,0.8-1.8,1.8-1.8h29.2c1,0,1.8,0.8,1.8,1.8l0,0
			C288.4,412.4,287.6,413.2,286.7,413.2z"/>
	</g>
	<g>
		<path class="st14" d="M358.9,427H257.4c-1,0-1.8-0.8-1.8-1.8l0,0c0-1,0.8-1.8,1.8-1.8h101.5c1,0,1.8,0.8,1.8,1.8l0,0
			C360.7,426.2,359.9,427,358.9,427z"/>
		<path class="st14" d="M286.7,433.3h-29.2c-1,0-1.8-0.8-1.8-1.8l0,0c0-1,0.8-1.8,1.8-1.8h29.2c1,0,1.8,0.8,1.8,1.8l0,0
			C288.4,432.5,287.6,433.3,286.7,433.3z"/>
	</g>
</g>
<g>
	<path class="st21" d="M59.5,532.7l20.8-0.4l20.8-0.3l41.6-0.6l83.3-0.7c27.8-0.3,55.5-0.3,83.3-0.4l83.3-0.1l83.3,0.1
		c27.8,0.1,55.5,0.2,83.3,0.4c27.8,0.2,55.5,0.4,83.3,0.7l41.6,0.6l20.8,0.3l20.8,0.4l-20.8,0.4l-20.8,0.3l-41.6,0.6
		c-27.8,0.3-55.5,0.6-83.3,0.7c-27.8,0.2-55.5,0.3-83.3,0.4l-83.3,0.1l-83.3-0.1c-27.8-0.1-55.5-0.2-83.3-0.4l-83.3-0.7l-41.6-0.6
		l-20.8-0.3L59.5,532.7z"/>
</g>
<g>
	<g>
		<path class="st22" d="M653,6.8c0,0.3-0.2,0.6-0.4,0.6l-2.3,0c-0.3,0-0.4-0.3-0.4-0.6l0-1.9c0-0.3,0.2-0.6,0.4-0.6l2.3,0
			c0.3,0,0.4,0.3,0.4,0.6L653,6.8z"/>
		<path class="st22" d="M652.9,25.2c0-0.3-0.2-0.6-0.4-0.6l-2.3,0c-0.2,0-0.4,0.3-0.4,0.6l0,1.9c0,0.3,0.2,0.6,0.4,0.6l2.4,0
			c0.2,0,0.4-0.3,0.4-0.6L652.9,25.2z"/>
		<path class="st22" d="M648.2,7.2c0.2,0.3,0.1,0.6-0.1,0.7l-2,1.2c-0.2,0.1-0.5,0-0.7-0.3l-0.9-1.6c-0.2-0.3-0.1-0.6,0.1-0.7l2-1.2
			c0.2-0.1,0.5,0,0.7,0.3L648.2,7.2z"/>
		<path class="st22" d="M657.3,23.2c-0.2-0.3-0.5-0.4-0.7-0.3l-2,1.2c-0.2,0.1-0.3,0.5-0.1,0.7l0.9,1.6c0.2,0.3,0.5,0.4,0.7,0.3
			l2-1.2c0.2-0.1,0.3-0.5,0.1-0.7L657.3,23.2z"/>
		<path class="st22" d="M644.2,9.9c0.3,0.2,0.4,0.5,0.3,0.7l-1.2,2c-0.1,0.2-0.5,0.3-0.8,0.1l-1.6-1c-0.3-0.2-0.4-0.5-0.3-0.7l1.2-2
			c0.1-0.2,0.5-0.2,0.7-0.1L644.2,9.9z"/>
		<path class="st22" d="M660.1,19.3c-0.3-0.2-0.6-0.1-0.7,0.1l-1.2,2c-0.1,0.2,0,0.5,0.3,0.7l1.6,1c0.3,0.2,0.6,0.1,0.7-0.1l1.2-2
			c0.1-0.2,0-0.5-0.3-0.7L660.1,19.3z"/>
		<path class="st22" d="M642.2,14.3c0.3,0,0.6,0.2,0.6,0.4l0,2.3c0,0.2-0.3,0.4-0.6,0.4l-1.9,0c-0.3,0-0.6-0.2-0.6-0.5l0-2.3
			c0-0.2,0.3-0.4,0.6-0.4L642.2,14.3z"/>
		<path class="st22" d="M660.6,14.4c-0.3,0-0.6,0.2-0.6,0.4l0,2.4c0,0.2,0.3,0.4,0.6,0.4l1.9,0c0.3,0,0.6-0.2,0.6-0.4l0-2.3
			c0-0.2-0.3-0.4-0.6-0.5L660.6,14.4z"/>
		<path class="st22" d="M642.6,19.1c0.3-0.2,0.6-0.1,0.7,0.1l1.2,2c0.1,0.2,0,0.5-0.3,0.7l-1.6,0.9c-0.3,0.2-0.6,0.1-0.7-0.1l-1.2-2
			c-0.1-0.2,0-0.5,0.3-0.7L642.6,19.1z"/>
		<path class="st22" d="M658.6,10c-0.3,0.2-0.4,0.5-0.3,0.7l1.2,2c0.1,0.2,0.5,0.3,0.7,0.1l1.7-0.9c0.3-0.2,0.4-0.5,0.3-0.7l-1.2-2
			c-0.1-0.2-0.4-0.2-0.7-0.1L658.6,10z"/>
		<path class="st22" d="M645.3,23.1c0.2-0.3,0.5-0.4,0.7-0.3l2,1.2c0.2,0.1,0.2,0.5,0.1,0.7l-1,1.6c-0.2,0.3-0.5,0.4-0.7,0.3l-2-1.2
			c-0.2-0.1-0.2-0.5-0.1-0.7L645.3,23.1z"/>
		<path class="st22" d="M654.6,7.2c-0.2,0.3-0.1,0.6,0.1,0.7l2,1.2c0.2,0.1,0.5,0,0.7-0.3l1-1.6c0.2-0.3,0.1-0.6-0.1-0.7l-2-1.2
			c-0.2-0.1-0.5,0-0.7,0.3L654.6,7.2z"/>
		<path class="st22" d="M651.4,6.1c-5.5,0-9.9,4.4-10,9.8c0,5.5,4.3,9.9,9.8,10c5.5,0,9.9-4.3,10-9.8
			C661.3,10.6,656.9,6.1,651.4,6.1z M651.3,22.5c-3.6,0-6.5-3-6.5-6.6c0-3.6,3-6.5,6.6-6.5c3.6,0,6.5,3,6.5,6.6
			C657.8,19.6,654.9,22.5,651.3,22.5z"/>
	</g>
	<g>
		<path class="st22" d="M721.1,65.3c0,0.2-0.1,0.4-0.3,0.4l-1.7,0c-0.2,0-0.3-0.2-0.3-0.4l0-1.4c0-0.2,0.1-0.4,0.3-0.4l1.7,0
			c0.2,0,0.3,0.2,0.3,0.4L721.1,65.3z"/>
		<path class="st22" d="M721,78.6c0-0.2-0.1-0.4-0.3-0.4l-1.7,0c-0.2,0-0.3,0.2-0.3,0.4l0,1.4c0,0.2,0.1,0.4,0.3,0.4l1.7,0
			c0.2,0,0.3-0.2,0.3-0.4L721,78.6z"/>
		<path class="st22" d="M717.6,65.6c0.1,0.2,0.1,0.4-0.1,0.5l-1.5,0.8c-0.2,0.1-0.4,0-0.5-0.2l-0.7-1.2c-0.1-0.2-0.1-0.4,0.1-0.5
			l1.5-0.8c0.2-0.1,0.4,0,0.5,0.2L717.6,65.6z"/>
		<path class="st22" d="M724.2,77.2c-0.1-0.2-0.3-0.3-0.5-0.2l-1.5,0.8c-0.2,0.1-0.2,0.3-0.1,0.5l0.7,1.2c0.1,0.2,0.3,0.3,0.5,0.2
			l1.5-0.8c0.2-0.1,0.2-0.3,0.1-0.5L724.2,77.2z"/>
		<path class="st22" d="M714.7,67.6c0.2,0.1,0.3,0.3,0.2,0.5l-0.9,1.5c-0.1,0.2-0.3,0.2-0.5,0.1l-1.2-0.7c-0.2-0.1-0.3-0.3-0.2-0.5
			l0.9-1.5c0.1-0.2,0.3-0.2,0.5-0.1L714.7,67.6z"/>
		<path class="st22" d="M726.2,74.3c-0.2-0.1-0.4-0.1-0.5,0.1l-0.9,1.5c-0.1,0.2,0,0.4,0.2,0.5l1.2,0.7c0.2,0.1,0.4,0.1,0.5-0.1
			l0.9-1.5c0.1-0.2,0-0.4-0.2-0.5L726.2,74.3z"/>
		<path class="st22" d="M713.2,70.7c0.2,0,0.4,0.1,0.4,0.3l0,1.7c0,0.2-0.2,0.3-0.4,0.3l-1.4,0c-0.2,0-0.4-0.1-0.4-0.3l0-1.7
			c0-0.2,0.2-0.3,0.4-0.3L713.2,70.7z"/>
		<path class="st22" d="M726.6,70.8c-0.2,0-0.4,0.1-0.4,0.3l0,1.7c0,0.2,0.2,0.3,0.4,0.3l1.4,0c0.2,0,0.4-0.1,0.4-0.3l0-1.7
			c0-0.2-0.2-0.3-0.4-0.3L726.6,70.8z"/>
		<path class="st22" d="M713.5,74.2c0.2-0.1,0.4-0.1,0.5,0.1l0.8,1.5c0.1,0.1,0,0.4-0.2,0.5l-1.2,0.7c-0.2,0.1-0.4,0.1-0.5-0.1
			l-0.8-1.5c-0.1-0.2,0-0.4,0.2-0.5L713.5,74.2z"/>
		<path class="st22" d="M725.1,67.6c-0.2,0.1-0.3,0.3-0.2,0.5l0.8,1.5c0.1,0.2,0.3,0.2,0.5,0.1l1.2-0.7c0.2-0.1,0.3-0.3,0.2-0.5
			l-0.8-1.5c-0.1-0.2-0.3-0.2-0.5-0.1L725.1,67.6z"/>
		<path class="st22" d="M715.5,77.1c0.1-0.2,0.3-0.3,0.5-0.2l1.5,0.9c0.2,0.1,0.2,0.3,0.1,0.5l-0.7,1.2c-0.1,0.2-0.3,0.3-0.5,0.2
			l-1.5-0.9c-0.2-0.1-0.2-0.3-0.1-0.5L715.5,77.1z"/>
		<path class="st22" d="M722.2,65.6c-0.1,0.2-0.1,0.4,0.1,0.5l1.5,0.9c0.2,0.1,0.4,0,0.5-0.2l0.7-1.2c0.1-0.2,0.1-0.5-0.1-0.5
			l-1.5-0.9c-0.2-0.1-0.4,0-0.5,0.2L722.2,65.6z"/>
		<path class="st22" d="M719.9,64.8c-3.9,0-7.2,3.1-7.2,7.1c0,3.9,3.1,7.2,7.1,7.2c3.9,0,7.2-3.1,7.2-7.1
			C727.1,68.1,723.9,64.8,719.9,64.8z M719.9,76.6c-2.6,0-4.7-2.1-4.7-4.7c0-2.6,2.1-4.7,4.7-4.7c2.6,0,4.7,2.1,4.7,4.7
			C724.6,74.6,722.5,76.7,719.9,76.6z"/>
	</g>
	<g>
		<path class="st22" d="M648.9,83.6c0,0.2-0.1,0.4-0.3,0.4l-1.4,0c-0.2,0-0.3-0.2-0.3-0.4l0-1.1c0-0.2,0.1-0.4,0.3-0.4l1.4,0
			c0.1,0,0.3,0.2,0.3,0.4L648.9,83.6z"/>
		<path class="st22" d="M648.8,94.6c0-0.2-0.1-0.4-0.3-0.4l-1.4,0c-0.1,0-0.3,0.2-0.3,0.4l0,1.1c0,0.2,0.1,0.4,0.3,0.4l1.4,0
			c0.1,0,0.3-0.2,0.3-0.4L648.8,94.6z"/>
		<path class="st22" d="M646,83.9c0.1,0.2,0.1,0.4-0.1,0.4l-1.2,0.7c-0.1,0.1-0.3,0-0.4-0.2l-0.6-1c-0.1-0.2-0.1-0.4,0.1-0.4
			l1.2-0.7c0.1-0.1,0.3,0,0.4,0.2L646,83.9z"/>
		<path class="st22" d="M651.4,93.4c-0.1-0.2-0.3-0.3-0.4-0.2l-1.2,0.7c-0.1,0.1-0.2,0.3-0.1,0.4l0.6,1c0.1,0.2,0.3,0.3,0.4,0.2
			l1.2-0.7c0.1-0.1,0.1-0.3,0.1-0.4L651.4,93.4z"/>
		<path class="st22" d="M643.6,85.5c0.2,0.1,0.3,0.3,0.2,0.4l-0.7,1.2c-0.1,0.1-0.3,0.1-0.4,0l-1-0.6c-0.2-0.1-0.3-0.3-0.2-0.4
			l0.7-1.2c0.1-0.1,0.3-0.1,0.4,0L643.6,85.5z"/>
		<path class="st22" d="M653.1,91.1c-0.2-0.1-0.4-0.1-0.4,0l-0.7,1.2c-0.1,0.1,0,0.3,0.2,0.4l1,0.6c0.2,0.1,0.4,0.1,0.4,0l0.7-1.2
			c0.1-0.1,0-0.3-0.2-0.4L653.1,91.1z"/>
		<path class="st22" d="M642.4,88.1c0.2,0,0.4,0.1,0.4,0.3l0,1.4c0,0.1-0.2,0.3-0.4,0.3l-1.1,0c-0.2,0-0.4-0.1-0.4-0.3l0-1.4
			c0-0.1,0.2-0.3,0.4-0.3L642.4,88.1z"/>
		<path class="st22" d="M653.4,88.2c-0.2,0-0.4,0.1-0.4,0.3l0,1.4c0,0.1,0.2,0.3,0.4,0.3l1.1,0c0.2,0,0.4-0.1,0.4-0.3l0-1.4
			c0-0.1-0.2-0.3-0.4-0.3L653.4,88.2z"/>
		<path class="st22" d="M642.6,91c0.2-0.1,0.4-0.1,0.4,0.1l0.7,1.2c0.1,0.1,0,0.3-0.2,0.4l-1,0.6c-0.2,0.1-0.4,0.1-0.4-0.1l-0.7-1.2
			c-0.1-0.1,0-0.3,0.2-0.4L642.6,91z"/>
		<path class="st22" d="M652.2,85.6c-0.2,0.1-0.3,0.3-0.2,0.4l0.7,1.2c0.1,0.1,0.3,0.2,0.4,0.1l1-0.6c0.2-0.1,0.3-0.3,0.2-0.4
			l-0.7-1.2c-0.1-0.1-0.3-0.1-0.4-0.1L652.2,85.6z"/>
		<path class="st22" d="M644.2,93.4c0.1-0.2,0.3-0.2,0.4-0.2l1.2,0.7c0.1,0.1,0.1,0.3,0,0.4l-0.6,1c-0.1,0.2-0.3,0.2-0.4,0.2
			l-1.2-0.7c-0.1-0.1-0.1-0.3,0-0.4L644.2,93.4z"/>
		<path class="st22" d="M649.8,83.9c-0.1,0.2-0.1,0.4,0,0.4l1.2,0.7c0.1,0.1,0.3,0,0.4-0.2l0.6-1c0.1-0.2,0.1-0.4,0-0.4l-1.2-0.7
			c-0.1-0.1-0.3,0-0.4,0.2L649.8,83.9z"/>
		<path class="st22" d="M647.9,83.2c-3.3,0-5.9,2.6-6,5.9c0,3.3,2.6,5.9,5.9,6c3.3,0,5.9-2.6,6-5.9
			C653.8,85.9,651.2,83.3,647.9,83.2z M647.8,93c-2.2,0-3.9-1.8-3.9-3.9c0-2.1,1.8-3.9,3.9-3.9c2.1,0,3.9,1.8,3.9,3.9
			C651.7,91.3,650,93,647.8,93z"/>
	</g>
	<g>
		<path class="st22" d="M675.3,11.1c0,0.2-0.1,0.4-0.3,0.4l-1.7,0c-0.2,0-0.3-0.2-0.3-0.4l0-1.4c0-0.2,0.1-0.4,0.3-0.4l1.7,0
			c0.2,0,0.3,0.2,0.3,0.4L675.3,11.1z"/>
		<path class="st22" d="M675.2,24.4c0-0.2-0.1-0.4-0.3-0.4l-1.7,0c-0.2,0-0.3,0.2-0.3,0.4l0,1.4c0,0.2,0.1,0.4,0.3,0.4l1.7,0
			c0.2,0,0.3-0.2,0.3-0.4L675.2,24.4z"/>
		<path class="st22" d="M671.9,11.4c0.1,0.2,0.1,0.4-0.1,0.5l-1.5,0.8c-0.1,0.1-0.4,0-0.5-0.2l-0.7-1.2c-0.1-0.2-0.1-0.4,0.1-0.5
			l1.5-0.8c0.2-0.1,0.4,0,0.5,0.2L671.9,11.4z"/>
		<path class="st22" d="M678.4,23c-0.1-0.2-0.3-0.3-0.5-0.2l-1.5,0.8c-0.2,0.1-0.2,0.3-0.1,0.5l0.7,1.2c0.1,0.2,0.3,0.3,0.5,0.2
			l1.5-0.8c0.2-0.1,0.2-0.3,0.1-0.5L678.4,23z"/>
		<path class="st22" d="M669,13.4c0.2,0.1,0.3,0.3,0.2,0.5l-0.9,1.5c-0.1,0.2-0.3,0.2-0.5,0.1l-1.2-0.7c-0.2-0.1-0.3-0.3-0.2-0.5
			l0.9-1.5c0.1-0.1,0.3-0.2,0.5-0.1L669,13.4z"/>
		<path class="st22" d="M680.4,20.1c-0.2-0.1-0.4-0.1-0.5,0.1l-0.9,1.5c-0.1,0.2,0,0.4,0.2,0.5l1.2,0.7c0.2,0.1,0.4,0.1,0.5-0.1
			l0.9-1.5c0.1-0.2,0-0.4-0.2-0.5L680.4,20.1z"/>
		<path class="st22" d="M667.5,16.5c0.2,0,0.4,0.1,0.4,0.3l0,1.7c0,0.2-0.2,0.3-0.4,0.3l-1.4,0c-0.2,0-0.4-0.1-0.4-0.3l0-1.7
			c0-0.2,0.2-0.3,0.4-0.3L667.5,16.5z"/>
		<path class="st22" d="M680.8,16.6c-0.2,0-0.4,0.1-0.4,0.3l0,1.7c0,0.2,0.2,0.3,0.4,0.3l1.4,0c0.2,0,0.4-0.1,0.4-0.3l0-1.7
			c0-0.2-0.2-0.3-0.4-0.3L680.8,16.6z"/>
		<path class="st22" d="M667.8,20c0.2-0.1,0.4-0.1,0.5,0.1l0.8,1.5c0.1,0.2,0,0.4-0.2,0.5l-1.2,0.7c-0.2,0.1-0.4,0.1-0.5-0.1
			l-0.8-1.5c-0.1-0.2,0-0.4,0.2-0.5L667.8,20z"/>
		<path class="st22" d="M679.3,13.5c-0.2,0.1-0.3,0.3-0.2,0.5l0.8,1.5c0.1,0.2,0.3,0.2,0.5,0.1l1.2-0.7c0.2-0.1,0.3-0.3,0.2-0.5
			l-0.8-1.5c-0.1-0.2-0.3-0.2-0.5-0.1L679.3,13.5z"/>
		<path class="st22" d="M669.7,22.9c0.1-0.2,0.3-0.3,0.5-0.2l1.5,0.9c0.2,0.1,0.2,0.3,0.1,0.5l-0.7,1.2c-0.1,0.2-0.3,0.3-0.5,0.2
			l-1.5-0.9c-0.2-0.1-0.2-0.3-0.1-0.5L669.7,22.9z"/>
		<path class="st22" d="M676.5,11.4c-0.1,0.2-0.1,0.4,0.1,0.5l1.5,0.9c0.1,0.1,0.4,0,0.5-0.2l0.7-1.2c0.1-0.2,0.1-0.5-0.1-0.5
			l-1.5-0.9c-0.1-0.1-0.4,0-0.5,0.2L676.5,11.4z"/>
		<path class="st22" d="M674.2,10.6c-3.9,0-7.2,3.1-7.2,7.1c0,3.9,3.1,7.2,7.1,7.2c3.9,0,7.2-3.1,7.2-7.1
			C681.3,13.9,678.1,10.6,674.2,10.6z M674.1,22.5c-2.6,0-4.7-2.1-4.7-4.7c0-2.6,2.1-4.7,4.7-4.7c2.6,0,4.7,2.1,4.7,4.7
			C678.8,20.4,676.7,22.5,674.1,22.5z"/>
	</g>
	<g>
		<path class="st22" d="M680,121.3c-0.4,0-0.7-0.4-0.7-0.8v-10.9c0-2.2-1.6-4-3.6-4H662c-2.8,0-5-1.8-5-4c0-2.2,2.2-4,5-4h36.3
			c2.1,0,3.6-1.2,3.6-2.2c0-1.1-1.5-2.2-3.6-2.2h-20.1c-2.8,0-5-2-5-4.5c0-2.5,2.2-4.5,5-4.5H697c1.9,0,3.6-1.4,3.6-3
			c0-1.6-1.6-3-3.6-3h-35.5c-2.8,0-5-2.3-5-5.2v-4.4c0-0.4,0.3-0.8,0.7-0.8c0.4,0,0.7,0.4,0.7,0.8v4.4c0,2,1.6,3.6,3.6,3.6H697
			c2.8,0,5,2.1,5,4.6c0,2.5-2.2,4.6-5,4.6h-18.8c-1.9,0-3.6,1.3-3.6,2.9c0,1.6,1.6,2.9,3.6,2.9h20.1c2.8,0,5,1.7,5,3.8
			c0,2.1-2.2,3.8-5,3.8H662c-1.9,0-3.6,1.1-3.6,2.4c0,1.3,1.6,2.4,3.6,2.4h13.7c2.8,0,5,2.5,5,5.6v10.9
			C680.7,120.9,680.4,121.3,680,121.3z"/>
	</g>
	<g>
		<path class="st23" d="M675.4,89c-0.4,0-0.9-0.1-1.3-0.2c-0.4,0.1-0.8,0.2-1.3,0.2h-41.7c-2.1,0-3.8-1.7-3.8-3.8V21
			c0-2.1,1.7-3.8,3.8-3.8h39.1c1.4,0,2.7,0.5,3.8,1.3c1.1-0.8,2.4-1.3,3.8-1.3H717c2.1,0,3.8,1.7,3.8,3.8v64.2
			c0,2.1-1.7,3.8-3.8,3.8H675.4z"/>
		<linearGradient id="SVGID_1_" gradientUnits="userSpaceOnUse" x1="674.1208" y1="79.8849" x2="674.1208" y2="13.1353">
			<stop  offset="0" style="stop-color:#CDEFFA"/>
			<stop  offset="1" style="stop-color:#FAFAFA"/>
		</linearGradient>
		<path class="st24" d="M717,19.7h-33.9h-4.5h-0.7c-2.1,0-3.8,1.7-3.8,3.8c0-2.1-1.7-3.8-3.8-3.8h-0.7h-4.5h-33.9
			c-0.7,0-1.3,0.6-1.3,1.3v64.2c0,0.7,0.6,1.3,1.3,1.3h2.5h0.7h4.5h26.1h4.5h0.7h2.5c0.7,0,1.3-0.3,1.3-0.7c0,0.4,0.6,0.7,1.3,0.7
			h2.5h0.7h4.5h26.1h4.5h0.7h2.5c0.7,0,1.3-0.6,1.3-1.3V21C718.3,20.3,717.7,19.7,717,19.7z"/>
		<path class="st25" d="M674.1,50.9V23.5c0-2.1-1.7-3.8-3.8-3.8h-0.7h-4.5h-33.9c-0.7,0-1.3,0.6-1.3,1.3v64.2c0,0.7,0.6,1.3,1.3,1.3
			h2.5h0.7h4.5h26.1h4.5h0.7h2.5c0.7,0,1.3-0.3,1.3-0.7V50.9C674.1,50.9,674.1,50.9,674.1,50.9z"/>
		<path class="st25" d="M674.1,50.9V23.5c0-2.1,1.7-3.8,3.8-3.8h0.7h4.5H717c0.7,0,1.3,0.6,1.3,1.3v64.2c0,0.7-0.6,1.3-1.3,1.3h-2.5
			h-0.7h-4.5h-26.1h-4.5h-0.7h-2.5c-0.7,0-1.3-0.3-1.3-0.7V50.9C674.1,50.9,674.1,50.9,674.1,50.9z"/>
		<rect x="633.6" y="24" class="st26" width="35.7" height="6.6"/>
		<rect x="633.6" y="32.8" class="st27" width="35.7" height="2.3"/>
		<rect x="633.6" y="41.6" class="st27" width="35.7" height="2.3"/>
		<rect x="633.6" y="46" class="st27" width="35.7" height="2.3"/>
		<rect x="633.6" y="50.4" class="st27" width="35.7" height="2.3"/>
		<rect x="633.6" y="58" class="st27" width="35.7" height="2.3"/>
		<rect x="633.6" y="62.4" class="st27" width="35.7" height="2.3"/>
		<rect x="633.6" y="71.2" class="st27" width="35.7" height="2.3"/>
		<rect x="633.6" y="75.6" class="st27" width="35.7" height="2.3"/>
		<rect x="678.9" y="24" class="st27" width="35.7" height="2.3"/>
		<rect x="678.9" y="28.4" class="st27" width="35.7" height="2.3"/>
		<rect x="678.9" y="36" class="st27" width="35.7" height="2.3"/>
		<rect x="678.9" y="40.4" class="st27" width="35.7" height="2.3"/>
		<rect x="678.9" y="44.8" class="st27" width="35.7" height="2.3"/>
		<rect x="678.9" y="58" class="st27" width="35.7" height="2.3"/>
		<rect x="678.9" y="62.4" class="st27" width="35.7" height="2.3"/>
		<rect x="678.9" y="66.8" class="st27" width="35.7" height="2.3"/>
		<rect x="678.9" y="75.6" class="st27" width="35.7" height="2.3"/>
		<polygon class="st22" points="689.6,17.2 685,17.2 685,68 689.6,65.4 694.2,68 694.2,17.2 		"/>
	</g>
	<path class="st23" d="M689.8,130.8c0,5.4-4.4,9.8-9.8,9.8l0,0c-5.4,0-9.8-4.4-9.8-9.8v-12c0-5.4,4.4-9.8,9.8-9.8l0,0
		c5.4,0,9.8,4.4,9.8,9.8V130.8z"/>
	<g>
		<path class="st27" d="M670.2,118.8v2.4h9.8V109C674.6,109,670.2,113.4,670.2,118.8z"/>
		<linearGradient id="SVGID_2_" gradientUnits="userSpaceOnUse" x1="684.9196" y1="121.2518" x2="684.9196" y2="109.014">
			<stop  offset="0" style="stop-color:#CDEFFA"/>
			<stop  offset="1" style="stop-color:#FAFAFA"/>
		</linearGradient>
		<path class="st28" d="M689.8,118.8c0-5.4-4.4-9.8-9.8-9.8v12.2h9.8V118.8z"/>
		<path class="st27" d="M689.8,118.8c0-5.4-4.4-9.8-9.8-9.8v12.2h9.8V118.8z"/>
	</g>
	<path class="st22" d="M681.4,122.1c0,0.8-0.6,1.4-1.4,1.4l0,0c-0.8,0-1.4-0.6-1.4-1.4v-1.7c0-0.8,0.6-1.4,1.4-1.4l0,0
		c0.8,0,1.4,0.6,1.4,1.4V122.1z"/>
	<g>
		<path class="st26" d="M739.8,15.5c0,0-1.6-2-5.4-0.6c-3,1.1-16.6,13.4-15.2,18.7c0,0,1.1,0.2,2.6-3.1c1.5-3.3,2.5-5.2,5.7-8.4
			c3.2-3.2,7.6-6.4,9.1-4.9L739.8,15.5z"/>
		<path class="st22" d="M729.3,41.5c-8.2,11.1-18.6,20.6-21.2,18.7c-2.7-2,3.4-14.7,11.6-25.8c8.2-11.1,19.6-22,22.3-20
			C744.6,16.3,737.6,30.4,729.3,41.5z"/>
		<path class="st26" d="M714.6,51.4c-1.3-1-2.7-1.6-4.2-1.9c-2.6,5.4-3.8,9.6-2.3,10.7c1.4,1.1,5.2-1.3,9.6-5.4
			C716.9,53.5,715.9,52.4,714.6,51.4z"/>
		
			<linearGradient id="SVGID_3_" gradientUnits="userSpaceOnUse" x1="613.4523" y1="-229.9678" x2="626.5698" y2="-229.9678" gradientTransform="matrix(0.8045 0.594 -0.594 0.8045 88.085 -143.9493)">
			<stop  offset="0" style="stop-color:#BDBDBD"/>
			<stop  offset="0.1172" style="stop-color:#ABABAB"/>
			<stop  offset="0.3225" style="stop-color:#919191"/>
			<stop  offset="0.5346" style="stop-color:#7F7F7F"/>
			<stop  offset="0.7556" style="stop-color:#747474"/>
			<stop  offset="1" style="stop-color:#707070"/>
		</linearGradient>
		<path class="st29" d="M728.8,43.2c-0.7,1-1.5,1.7-2.7,0.9l-7.9-5.9c-1.1-0.8-0.7-1.8,0-2.8l0,0c0.8-1,1.5-1.7,2.7-0.9l7.9,5.9
			C729.9,41.3,729.5,42.2,728.8,43.2L728.8,43.2z"/>
		
			<linearGradient id="SVGID_4_" gradientUnits="userSpaceOnUse" x1="618.4184" y1="-203.5195" x2="621.6067" y2="-203.5195" gradientTransform="matrix(0.8045 0.594 -0.594 0.8045 88.085 -143.9493)">
			<stop  offset="0" style="stop-color:#286891"/>
			<stop  offset="1.002896e-02" style="stop-color:#276790"/>
			<stop  offset="0.2403" style="stop-color:#1C5176"/>
			<stop  offset="0.4781" style="stop-color:#144264"/>
			<stop  offset="0.726" style="stop-color:#103959"/>
			<stop  offset="1" style="stop-color:#0E3655"/>
		</linearGradient>
		<path class="st30" d="M708.9,59.1c-0.5-0.3-1-0.6-1.5-0.7c-0.9,1.9-1.3,3.4-0.8,3.8c0.5,0.4,1.8-0.4,3.4-1.9
			C709.8,59.8,709.4,59.4,708.9,59.1z"/>
		<path class="st26" d="M728.8,43.2c-0.7,1-1.5,1.7-2.7,0.9l-7.9-5.9c-1.1-0.8-0.7-1.8,0-2.8l0,0c0.8-1,1.5-1.7,2.7-0.9l7.9,5.9
			C729.9,41.3,729.5,42.2,728.8,43.2L728.8,43.2z"/>
	</g>
	<g>
		<path class="st26" d="M615.4,42.8c0,0,1.3-1.6,4.3-0.5c2.4,0.9,13.3,10.7,12.1,14.9c0,0-0.9,0.2-2.1-2.5c-1.2-2.6-2-4.1-4.6-6.7
			c-2.6-2.6-6.1-5.1-7.3-3.9L615.4,42.8z"/>
		<path class="st22" d="M623.8,63.5c6.6,8.9,14.8,16.4,16.9,14.9c2.1-1.6-2.7-11.7-9.2-20.6c-6.6-8.9-15.6-17.5-17.7-16
			C611.6,43.4,617.3,54.6,623.8,63.5z"/>
		<path class="st26" d="M635.6,71.4c1-0.8,2.2-1.3,3.3-1.5c2.1,4.3,3,7.7,1.8,8.5c-1.2,0.8-4.1-1-7.6-4.3
			C633.7,73.1,634.5,72.2,635.6,71.4z"/>
		
			<linearGradient id="SVGID_5_" gradientUnits="userSpaceOnUse" x1="59.3357" y1="208.0584" x2="69.7897" y2="208.0584" gradientTransform="matrix(-0.8045 0.594 0.594 0.8045 556.831 -143.9493)">
			<stop  offset="0" style="stop-color:#BDBDBD"/>
			<stop  offset="0.1172" style="stop-color:#ABABAB"/>
			<stop  offset="0.3225" style="stop-color:#919191"/>
			<stop  offset="0.5346" style="stop-color:#7F7F7F"/>
			<stop  offset="0.7556" style="stop-color:#747474"/>
			<stop  offset="1" style="stop-color:#707070"/>
		</linearGradient>
		<path class="st31" d="M624.3,64.9c0.6,0.8,1.2,1.4,2.1,0.7l6.3-4.7c0.9-0.7,0.6-1.4,0-2.2l0,0c-0.6-0.8-1.2-1.4-2.1-0.7l-6.3,4.7
			C623.3,63.3,623.7,64.1,624.3,64.9L624.3,64.9z"/>
		<path class="st22" d="M640.1,77.5c0.4-0.3,0.8-0.5,1.2-0.5c0.7,1.5,1.1,2.7,0.7,3c-0.4,0.3-1.5-0.4-2.7-1.5
			C639.4,78.1,639.7,77.8,640.1,77.5z"/>
		<path class="st26" d="M624.3,64.9c0.6,0.8,1.2,1.4,2.1,0.7l6.3-4.7c0.9-0.7,0.6-1.4,0-2.2l0,0c-0.6-0.8-1.2-1.4-2.1-0.7l-6.3,4.7
			C623.3,63.3,623.7,64.1,624.3,64.9L624.3,64.9z"/>
	</g>
</g>
<g>
	<g>
		<g>
			<rect x="392.6" y="41.6" class="st32" width="9.3" height="11.1"/>
		</g>
		<g>
			<polygon class="st32" points="406.2,42.4 388.3,42.4 397.3,30.7 397.3,30.7 			"/>
		</g>
	</g>
	<g>
		<g>
			<rect x="316.1" y="37.5" class="st22" width="4" height="111.6"/>
		</g>
		<g>
			<rect x="306.2" y="137.2" class="st22" width="120.4" height="4"/>
		</g>
		<g>
			<rect x="325.7" y="106" class="st27" width="18.3" height="25.5"/>
		</g>
		<g>
			<rect x="344.1" y="96.8" class="st26" width="18.3" height="34.7"/>
		</g>
		<g>
			<rect x="362.4" y="79.5" class="st22" width="18.3" height="52.1"/>
		</g>
		<g>
			<rect x="380.8" y="66.7" class="st26" width="18.3" height="64.8"/>
		</g>
		<g>
			<rect x="399.2" y="49.9" class="st27" width="18.3" height="81.6"/>
		</g>
	</g>
	<g>
		<g>
			<polygon class="st22" points="334.6,97.7 331,95.2 341.4,80.4 350.9,80.4 360.6,62 370.4,62 380.1,47.8 389.7,47.8 399.1,30.6 
				402.6,26.9 405.7,29.8 402.4,33.3 392.2,52.1 382.4,52.1 372.7,66.2 363.2,66.2 353.5,84.7 343.6,84.7 			"/>
		</g>
		<g>
			<g>
				<polygon class="st22" points="408.7,35.9 412.4,19.3 396.1,24.3 				"/>
			</g>
		</g>
	</g>
	<g>
		<g>
			<rect x="428.6" y="97.6" class="st32" width="12.2" height="14.6"/>
		</g>
		<g>
			<polygon class="st32" points="446.5,98.7 422.9,98.7 434.7,83.3 434.7,83.3 			"/>
		</g>
	</g>
	<g>
		<g>
			<rect x="331.2" y="64.3" class="st32" width="12.2" height="14.6"/>
		</g>
		<g>
			<polygon class="st32" points="349.1,65.4 325.5,65.4 337.3,50 337.3,50 			"/>
		</g>
	</g>
	<g>
		<g>
			<rect x="362.2" y="16.4" class="st32" width="7.7" height="9.3"/>
		</g>
		<g>
			<polygon class="st32" points="373.5,17.1 358.6,17.1 366,7.3 366,7.3 			"/>
		</g>
	</g>
</g>
<g>
	<g>
		<path class="st27" d="M59.7,42.9c-0.2,0.7,0.1,1.3,0.6,1.4l4.6,1c0.5,0.1,1-0.3,1.1-1l0.8-3.7c0.1-0.6-0.1-1.3-0.6-1.4l-4.6-1.1
			c-0.5-0.1-1,0.3-1.1,1L59.7,42.9z"/>
		<path class="st27" d="M51.4,78.7c0.1-0.6,0.6-1.1,1.1-1l4.6,1.1c0.5,0.1,0.7,0.7,0.6,1.4l-0.8,3.7c-0.1,0.6-0.7,1.1-1.1,1
			l-4.6-1.1c-0.5-0.1-0.7-0.7-0.6-1.4L51.4,78.7z"/>
		<path class="st27" d="M68.9,45.9c-0.5,0.5-0.5,1.1-0.2,1.5l3.4,3.2c0.4,0.3,1,0.2,1.5-0.3l2.6-2.8c0.5-0.5,0.5-1.1,0.2-1.5
			l-3.4-3.2c-0.4-0.3-1-0.2-1.5,0.3L68.9,45.9z"/>
		<path class="st27" d="M43.8,72.8c0.5-0.5,1.1-0.6,1.5-0.3l3.4,3.2c0.4,0.3,0.3,1-0.2,1.5L45.9,80c-0.5,0.5-1.1,0.6-1.5,0.3
			L41,77.1c-0.4-0.3-0.3-1,0.2-1.5L43.8,72.8z"/>
		<path class="st27" d="M75.3,53.1c-0.6,0.2-1,0.7-0.9,1.2l1.4,4.5c0.1,0.5,0.8,0.7,1.4,0.5l3.6-1.1c0.6-0.2,1-0.7,0.9-1.2l-1.4-4.5
			c-0.1-0.5-0.8-0.7-1.4-0.5L75.3,53.1z"/>
		<path class="st27" d="M40.1,63.8c0.6-0.2,1.3,0,1.4,0.5l1.4,4.5c0.1,0.5-0.3,1-0.9,1.2l-3.6,1.1c-0.6,0.2-1.3,0-1.4-0.5l-1.4-4.5
			c-0.1-0.5,0.3-1,0.9-1.2L40.1,63.8z"/>
		<path class="st27" d="M77.3,62.5c-0.6-0.1-1.3,0.1-1.4,0.6l-1,4.6c-0.1,0.5,0.3,1,1,1.1l3.7,0.9c0.6,0.1,1.3-0.1,1.4-0.6l1.1-4.6
			c0.1-0.5-0.3-1-1-1.1L77.3,62.5z"/>
		<path class="st27" d="M41.5,54.3c0.6,0.1,1.1,0.7,1,1.1L41.4,60c-0.1,0.5-0.7,0.7-1.4,0.6l-3.7-0.8c-0.6-0.2-1.1-0.7-1-1.1
			l1.1-4.6c0.1-0.5,0.7-0.7,1.4-0.6L41.5,54.3z"/>
		<path class="st27" d="M74.3,71.7c-0.5-0.4-1.1-0.5-1.5-0.2L69.7,75c-0.3,0.4-0.2,1,0.3,1.5l2.8,2.6c0.5,0.4,1.1,0.5,1.5,0.2
			l3.2-3.4c0.3-0.4,0.2-1-0.3-1.5L74.3,71.7z"/>
		<path class="st27" d="M47.4,46.6c0.5,0.5,0.6,1.1,0.3,1.5l-3.2,3.4c-0.3,0.4-1,0.3-1.5-0.2l-2.8-2.6c-0.5-0.5-0.6-1.1-0.3-1.5
			l3.2-3.4c0.3-0.4,1-0.3,1.5,0.2L47.4,46.6z"/>
		<path class="st27" d="M67.2,78.2c-0.2-0.6-0.7-1-1.2-0.9l-4.5,1.4c-0.5,0.1-0.7,0.8-0.5,1.4l1.1,3.6c0.2,0.6,0.7,1,1.2,0.9
			l4.5-1.4c0.5-0.2,0.7-0.8,0.5-1.4L67.2,78.2z"/>
		<path class="st27" d="M56.4,43c0.2,0.6,0,1.3-0.5,1.4l-4.5,1.4c-0.5,0.1-1-0.2-1.2-0.9l-1.1-3.6c-0.2-0.6,0-1.3,0.5-1.4l4.5-1.4
			c0.5-0.1,1,0.3,1.2,0.9L56.4,43z"/>
		<path class="st27" d="M39.4,57.1C37,67.7,43.6,78.4,54.2,80.8c10.6,2.4,21.2-4.2,23.7-14.8c2.4-10.6-4.2-21.2-14.8-23.7
			C52.5,39.8,41.9,46.5,39.4,57.1z M46,58.6c1.6-7,8.6-11.4,15.6-9.8c7,1.6,11.4,8.6,9.8,15.6c-1.6,7-8.6,11.4-15.6,9.8
			C48.8,72.6,44.4,65.6,46,58.6z"/>
	</g>
	<g>
		<path class="st23" d="M31.5,87.5c-3.5,5.2-2.2,12.3,3.1,15.9c5.2,3.5,12.3,2.2,15.9-3.1c3.5-5.2,2.2-12.3-3.1-15.9
			C42.1,80.9,35,82.3,31.5,87.5z M34.7,89.7c2.3-3.4,7-4.4,10.5-2c3.5,2.3,4.4,7,2,10.5c-2.3,3.4-7,4.4-10.5,2
			C33.3,97.9,32.4,93.2,34.7,89.7z"/>
		<path class="st23" d="M44.7,83.9c-0.2,0.3-0.1,0.8,0.2,1l3.1,2.1c0.3,0.2,0.8,0.1,1-0.2l1.2-1.8c0.2-0.3,0.1-0.8-0.2-1l-3.1-2.1
			c-0.3-0.2-0.8-0.1-1,0.2L44.7,83.9z"/>
		<path class="st23" d="M33.1,101.1c0.2-0.3,0.7-0.4,1-0.2l3.1,2.1c0.3,0.2,0.4,0.7,0.2,1l-1.2,1.8c-0.2,0.3-0.7,0.4-1,0.2l-3.1-2.1
			c-0.3-0.2-0.4-0.7-0.2-1L33.1,101.1z"/>
		<path class="st23" d="M50.6,89.5c-0.4,0.1-0.6,0.4-0.6,0.8l0.7,3.6c0.1,0.4,0.4,0.6,0.8,0.6l2.2-0.4c0.4-0.1,0.6-0.4,0.6-0.8
			l-0.7-3.6c-0.1-0.4-0.4-0.6-0.8-0.6L50.6,89.5z"/>
		<path class="st23" d="M30.3,93.4c0.4-0.1,0.7,0.2,0.8,0.6l0.7,3.6c0.1,0.4-0.2,0.7-0.6,0.8l-2.2,0.4c-0.4,0.1-0.7-0.2-0.8-0.6
			l-0.7-3.6c-0.1-0.4,0.2-0.8,0.6-0.8L30.3,93.4z"/>
		<path class="st23" d="M51,97.6c-0.3-0.2-0.8-0.1-1,0.2l-2.1,3.1c-0.2,0.3-0.1,0.8,0.2,1l1.8,1.2c0.3,0.2,0.8,0.1,1-0.2l2.1-3.1
			c0.2-0.3,0.1-0.8-0.2-1L51,97.6z"/>
		<path class="st23" d="M33.8,86c0.3,0.2,0.4,0.7,0.2,1l-2.1,3.1c-0.2,0.3-0.6,0.4-1,0.2L29.2,89c-0.3-0.2-0.4-0.6-0.2-1L31,85
			c0.2-0.3,0.7-0.4,1-0.2L33.8,86z"/>
		<path class="st23" d="M45.4,103.6c-0.1-0.4-0.4-0.6-0.8-0.6l-3.6,0.7c-0.4,0.1-0.6,0.4-0.5,0.8l0.4,2.2c0.1,0.4,0.4,0.6,0.8,0.6
			l3.6-0.7c0.4-0.1,0.6-0.4,0.6-0.8L45.4,103.6z"/>
		<path class="st23" d="M41.5,83.3c0.1,0.4-0.2,0.7-0.6,0.8l-3.6,0.7c-0.4,0.1-0.7-0.2-0.8-0.6l-0.4-2.2c-0.1-0.4,0.2-0.8,0.6-0.8
			l3.6-0.7c0.4-0.1,0.8,0.2,0.8,0.6L41.5,83.3z"/>
	</g>
	<path class="st22" d="M142.8,58.3c-28.1,7.9-43.9-26-43.9-26S83.2,66.2,55,58.3c0,0-7.9,68.7,43.9,86.7
		C150.7,127,142.8,58.3,142.8,58.3z"/>
	<path class="st26" d="M98.9,135c-34-13-36.1-53.6-35.6-68.4c1.1,0.1,2.2,0.2,3.3,0.2c15.8,0,26.6-11.8,32.3-20.2
		c5.6,8.3,16.4,20.2,32.3,20.2c1.1,0,2.2-0.1,3.3-0.2C135,81.3,132.9,122,98.9,135z"/>
	<g>
		<path class="st23" d="M152,125.2c0,10.6-8.6,19.2-19.2,19.2c-10.6,0-19.2-8.6-19.2-19.2c0-10.6,8.6-19.2,19.2-19.2
			C143.5,106.1,152,114.6,152,125.2z"/>
		<polygon class="st32" points="120.5,116.1 134.3,134.3 145.7,121.7 134.3,127 		"/>
	</g>
	<path class="st32" d="M99.3,90.8h-34c3.4,16.8,12.1,36,33.6,44.2c0.1-0.1,0.3-0.1,0.4-0.2V90.8z"/>
	<path class="st32" d="M131.3,66.7c1.1,0,2.2-0.1,3.3-0.2c0.2,5.5,0,14.7-2.1,24.7H99.3V47.1c0.1-0.2-0.5-0.4-0.4-0.6
		C104.5,54.9,115.8,66.7,131.3,66.7z"/>
	<g>
		<rect x="150.7" y="90.6" class="st26" width="9.2" height="11"/>
		<polygon class="st26" points="164.2,91.4 146.4,91.4 155.3,79.8 155.3,79.8 		"/>
	</g>
	<g>
		<rect x="130" y="43.7" class="st26" width="6.5" height="7.8"/>
		<polygon class="st26" points="139.4,44.3 126.9,44.3 133.2,36 133.2,36 		"/>
	</g>
	<g>
		<rect x="52.4" y="125.5" class="st26" width="8.3" height="9.9"/>
		<polygon class="st26" points="64.5,126.2 48.5,126.2 56.5,115.8 56.5,115.8 		"/>
	</g>
</g>
<g>
	<rect x="9.2" y="149.5" class="st21" width="240.1" height="57.1"/>
	<path class="st14" d="M19.2,152.5c0,1.1-0.6,1.7-1.8,1.7h-3.8v2.9h3.5c0.5,0,0.9,0.2,1.2,0.5c0.3,0.3,0.5,0.7,0.5,1.2
		c0,0.5-0.2,0.9-0.5,1.2c-0.3,0.3-0.7,0.5-1.2,0.5h-3.5v4.7c0,1.2-0.6,1.8-1.8,1.8c-1.2,0-1.8-0.6-1.8-1.9v-12.4
		c0-0.5,0.2-1,0.5-1.3c0.3-0.4,0.7-0.5,1.3-0.5h5.6C18.6,150.8,19.2,151.4,19.2,152.5z"/>
	<path class="st14" d="M31.3,160.9c0,1.8-0.5,3.2-1.6,4.5c-1.1,1.3-2.5,1.9-4.3,1.9c-1.8,0-3.2-0.6-4.3-1.8
		c-1.1-1.2-1.6-2.7-1.6-4.5c0-1.8,0.5-3.3,1.6-4.5c1.1-1.2,2.5-1.8,4.3-1.8c1.7,0,3.1,0.6,4.2,1.9S31.3,159.1,31.3,160.9z
		 M27.8,160.9c0-0.8-0.2-1.5-0.6-2c-0.4-0.6-1-0.9-1.8-0.9c-0.8,0-1.4,0.3-1.8,0.9c-0.4,0.5-0.6,1.2-0.6,2.1c0,0.8,0.2,1.5,0.6,2
		c0.4,0.6,1,1,1.8,1c0.3,0,0.7-0.1,1.4-0.4C27.4,162.9,27.8,162.1,27.8,160.9z"/>
	<path class="st14" d="M42.9,156.5c0,0.4-0.1,0.8-0.3,1.2l-5.5,12.6c-0.4,1-1,1.5-1.8,1.5c-0.9,0-1.5-0.5-1.7-1.6
		c0.1-0.4,0.2-0.8,0.3-1.1l1.4-3.4l-3.4-8.1c-0.2-0.6-0.4-1-0.4-1.2c0-0.5,0.2-0.9,0.5-1.2c0.3-0.3,0.7-0.5,1.2-0.5
		c0.9,0,1.5,0.4,1.8,1.3l2.1,5.3l2.1-5c0.5-1.1,1.1-1.7,1.8-1.7c0.5,0,0.9,0.2,1.3,0.5C42.7,155.6,42.9,156,42.9,156.5z"/>
	<path class="st14" d="M54.7,165.2c0,0.5-0.2,0.9-0.5,1.3c-0.3,0.4-0.7,0.6-1.2,0.6c-0.9,0-1.5-0.4-1.8-1.1c-0.7,0.9-1.7,1.4-3,1.4
		c-1.2,0-2.3-0.4-3.2-1.1c-0.8-0.7-1.5-1.6-1.9-2.8c-0.3-0.8-0.4-1.6-0.4-2.3c0-1.1,0.2-2.2,0.7-3.1c0.5-1,1.2-1.9,2-2.4
		s1.7-0.9,2.7-0.9c1.2,0,2.2,0.3,3,1v-4.2c0-0.5,0.2-0.9,0.5-1.3c0.3-0.3,0.8-0.5,1.3-0.5s0.9,0.2,1.3,0.5s0.5,0.8,0.5,1.3V165.2z
		 M51.2,160.9c0-0.8-0.2-1.5-0.6-2.1c-0.4-0.6-1-0.9-1.8-0.9s-1.4,0.3-1.8,0.9c-0.4,0.5-0.6,1.2-0.6,2c0,0.8,0.2,1.5,0.6,2
		c0.4,0.6,1,0.9,1.8,0.9s1.4-0.3,1.8-0.9C51,162.4,51.2,161.7,51.2,160.9z"/>
	<path class="st14" d="M67.6,165.2c0,0.5-0.2,0.9-0.5,1.2c-0.3,0.4-0.7,0.6-1.1,0.6c-0.9,0-1.5-0.4-1.8-1.1c-0.7,0.9-1.7,1.3-3,1.3
		c-2.2,0-3.8-1.1-4.8-3.2c-0.5-1.1-0.7-2.1-0.7-3.1c0-2.4,0.9-4.3,2.7-5.5c0.8-0.6,1.7-0.9,2.7-0.9c1.3,0,2.3,0.5,3.1,1.4
		c0.3-0.7,0.8-1.1,1.6-1.1c0.5,0,0.9,0.2,1.3,0.5c0.3,0.4,0.5,0.8,0.5,1.3V165.2z M64,160.9c0-0.8-0.2-1.5-0.6-2.1
		c-0.4-0.6-1-0.9-1.8-0.9c-0.8,0-1.4,0.3-1.8,1c-0.4,0.6-0.6,1.3-0.6,2.1c0,0.8,0.2,1.4,0.6,2c0.5,0.6,1.1,0.9,1.8,0.9
		c0.8,0,1.4-0.3,1.8-0.9C63.8,162.4,64,161.7,64,160.9z"/>
	<path class="st14" d="M80,165.2c0,0.5-0.2,1-0.5,1.3c-0.3,0.3-0.7,0.5-1.3,0.5c-0.5,0-1-0.2-1.3-0.5c-0.3-0.3-0.5-0.8-0.5-1.3v-5.6
		c0-0.6-0.2-1.1-0.5-1.5c-0.3-0.4-0.8-0.6-1.4-0.6c-0.6,0-1.1,0.2-1.4,0.6c-0.4,0.4-0.5,0.9-0.5,1.5v5.6c0,0.5-0.2,1-0.5,1.3
		c-0.3,0.3-0.7,0.5-1.3,0.5c-0.5,0-0.9-0.2-1.3-0.5c-0.3-0.3-0.5-0.8-0.5-1.3v-8.6c0-0.5,0.2-0.9,0.5-1.3c0.3-0.4,0.8-0.5,1.2-0.5
		c0.9,0,1.5,0.4,1.8,1.1c0.7-0.9,1.7-1.4,3.2-1.4c1.5,0,2.6,0.5,3.4,1.4c0.6,0.7,0.8,1.6,0.8,2.8V165.2z"/>
	<path class="st14" d="M93,165.6c0,0.9-0.1,1.8-0.3,2.5c-0.2,0.7-0.6,1.4-1.2,2.1c-1.2,1.1-2.7,1.7-4.8,1.7c-3.1,0-4.9-0.9-5.3-2.6
		c0.1-0.7,0.4-1.2,1-1.4c0.2-0.1,0.4-0.1,0.5-0.1c0.2,0,0.8,0.2,1.7,0.6c0.6,0.3,1.3,0.4,2,0.4c0.9,0,1.6-0.3,2.1-0.8
		c0.5-0.5,0.8-1.2,0.8-2.1v-0.2h-0.1c-0.6,0.9-1.7,1.4-3.1,1.4c-1.6,0-2.9-0.6-3.9-1.9c-0.9-1.1-1.3-2.5-1.3-4.2
		c0-1.7,0.5-3.1,1.4-4.4c1-1.4,2.4-2.1,4-2.1c1.3,0,2.3,0.5,3.1,1.4c0.3-0.7,0.8-1.1,1.6-1.1c0.5,0,0.9,0.2,1.3,0.5
		c0.3,0.4,0.5,0.8,0.5,1.3V165.6z M89.5,160.9c0-0.8-0.2-1.5-0.6-2.1c-0.4-0.6-1-0.9-1.8-0.9c-0.8,0-1.4,0.3-1.8,1
		c-0.4,0.6-0.6,1.2-0.6,2.1c0,0.8,0.2,1.5,0.6,2c0.4,0.6,1.1,0.9,1.8,0.9c0.8,0,1.4-0.3,1.9-0.9C89.3,162.4,89.5,161.8,89.5,160.9z"
		/>
	<path class="st14" d="M98.3,151.6c0,0.6-0.2,1.1-0.6,1.5c-0.4,0.4-0.9,0.6-1.5,0.6c-0.6,0-1.1-0.2-1.5-0.6
		c-0.4-0.4-0.6-0.9-0.6-1.5c0-0.6,0.2-1.1,0.6-1.5c0.4-0.4,0.9-0.6,1.5-0.6c0.6,0,1.1,0.2,1.5,0.6C98.1,150.6,98.3,151,98.3,151.6z
		 M97.9,165.2c0,0.5-0.2,1-0.5,1.3c-0.3,0.3-0.7,0.5-1.2,0.5c-0.5,0-0.9-0.2-1.3-0.5c-0.3-0.3-0.5-0.8-0.5-1.3v-8.6
		c0-0.5,0.2-1,0.5-1.3c0.3-0.4,0.8-0.5,1.3-0.5c0.5,0,0.9,0.2,1.2,0.5c0.3,0.4,0.5,0.8,0.5,1.3V165.2z"/>
	<path class="st14" d="M109.3,165.3c0,1.1-0.6,1.6-1.9,1.6h-7.1c-1.1,0-1.6-0.4-1.6-1.2c0-0.4,0.2-0.9,0.5-1.4l4.5-6.2h-3.1
		c-1.2,0-1.8-0.5-1.8-1.6s0.6-1.6,1.8-1.6h6.8c0.4,0,0.8,0.1,1.1,0.3c0.4,0.2,0.5,0.5,0.5,0.9c0,0.3-0.1,0.7-0.4,1.1l-4.8,6.5h3.7
		C108.7,163.6,109.3,164.2,109.3,165.3z"/>
	<path class="st14" d="M127.2,165.2c0,0.5-0.2,1-0.5,1.3c-0.3,0.3-0.8,0.5-1.3,0.5c-0.5,0-0.9-0.2-1.2-0.5c-0.3-0.3-0.5-0.8-0.5-1.3
		v-5.6c0-0.6-0.2-1.1-0.5-1.5c-0.3-0.4-0.8-0.6-1.4-0.6c-0.6,0-1.1,0.2-1.4,0.6c-0.3,0.4-0.5,0.9-0.5,1.5v5.6c0,0.5-0.2,1-0.5,1.3
		c-0.3,0.3-0.7,0.5-1.3,0.5c-0.5,0-0.9-0.2-1.3-0.5c-0.3-0.3-0.5-0.8-0.5-1.3v-13.8c0-0.5,0.2-1,0.5-1.3c0.3-0.4,0.8-0.5,1.3-0.5
		c0.5,0,0.9,0.2,1.3,0.5s0.5,0.8,0.5,1.3v4h0.1c1-0.6,2-0.9,3-0.9c1.3,0,2.4,0.4,3.2,1.1c0.8,0.7,1.2,1.8,1.2,3.1V165.2z"/>
	<path class="st14" d="M132.7,151.6c0,0.6-0.2,1.1-0.6,1.5c-0.4,0.4-0.9,0.6-1.5,0.6c-0.6,0-1.1-0.2-1.5-0.6
		c-0.4-0.4-0.6-0.9-0.6-1.5c0-0.6,0.2-1.1,0.6-1.5c0.4-0.4,0.9-0.6,1.5-0.6c0.6,0,1.1,0.2,1.5,0.6
		C132.5,150.6,132.7,151,132.7,151.6z M132.3,165.2c0,0.5-0.2,1-0.5,1.3c-0.3,0.3-0.7,0.5-1.2,0.5c-0.5,0-0.9-0.2-1.3-0.5
		c-0.3-0.3-0.5-0.8-0.5-1.3v-8.6c0-0.5,0.2-1,0.5-1.3c0.3-0.4,0.8-0.5,1.3-0.5c0.5,0,0.9,0.2,1.2,0.5c0.3,0.4,0.5,0.8,0.5,1.3V165.2
		z"/>
	<path class="st14" d="M151.4,165.2c0,0.5-0.2,1-0.5,1.3c-0.3,0.3-0.7,0.5-1.3,0.5c-0.5,0-0.9-0.2-1.3-0.5c-0.3-0.3-0.5-0.8-0.5-1.3
		v-5.6c0-0.6-0.1-1.1-0.4-1.5c-0.3-0.4-0.8-0.7-1.3-0.7c-0.6,0-1,0.2-1.3,0.6s-0.5,0.9-0.5,1.5v5.6c0,0.5-0.2,1-0.5,1.3
		c-0.3,0.3-0.7,0.5-1.3,0.5c-0.5,0-0.9-0.2-1.3-0.5c-0.3-0.3-0.5-0.8-0.5-1.3v-5.6c0-0.6-0.2-1.1-0.5-1.5c-0.3-0.4-0.7-0.6-1.3-0.6
		c-0.6,0-1,0.2-1.3,0.6c-0.3,0.4-0.5,0.9-0.5,1.5v5.6c0,0.5-0.2,1-0.5,1.3c-0.3,0.3-0.7,0.5-1.3,0.5c-0.5,0-0.9-0.2-1.3-0.5
		c-0.3-0.3-0.5-0.8-0.5-1.3v-8.6c0-0.5,0.2-0.9,0.5-1.3c0.3-0.4,0.8-0.5,1.2-0.5c0.9,0,1.5,0.4,1.8,1.1c0.6-0.9,1.6-1.4,3.1-1.4
		c1.4,0,2.5,0.5,3.2,1.5c0.8-0.5,1.3-0.9,1.6-1.1c0.6-0.3,1.2-0.4,1.9-0.4c1.3,0,2.3,0.4,3.1,1.1c0.8,0.7,1.1,1.8,1.1,3V165.2z"/>
	<path class="st14" d="M164.4,160.9c0,1.8-0.5,3.2-1.6,4.5c-1.1,1.3-2.5,1.9-4.3,1.9c-1.8,0-3.2-0.6-4.3-1.8
		c-1.1-1.2-1.6-2.7-1.6-4.5c0-1.8,0.5-3.3,1.6-4.5c1.1-1.2,2.5-1.8,4.3-1.8c1.7,0,3.1,0.6,4.2,1.9S164.4,159.1,164.4,160.9z
		 M160.9,160.9c0-0.8-0.2-1.5-0.6-2c-0.4-0.6-1-0.9-1.8-0.9c-0.8,0-1.4,0.3-1.8,0.9c-0.4,0.5-0.6,1.2-0.6,2.1c0,0.8,0.2,1.5,0.6,2
		c0.4,0.6,1,1,1.8,1c0.3,0,0.7-0.1,1.4-0.4C160.5,162.9,160.9,162.1,160.9,160.9z"/>
	<path class="st14" d="M176,156.5c0,0.4-0.1,0.8-0.3,1.2l-5.5,12.6c-0.4,1-1,1.5-1.8,1.5c-0.9,0-1.5-0.5-1.7-1.6
		c0.1-0.4,0.2-0.8,0.3-1.1l1.4-3.4l-3.4-8.1c-0.2-0.6-0.4-1-0.4-1.2c0-0.5,0.2-0.9,0.5-1.2c0.3-0.3,0.7-0.5,1.2-0.5
		c0.9,0,1.5,0.4,1.8,1.3l2.1,5.3l2.1-5c0.5-1.1,1.1-1.7,1.8-1.7c0.5,0,0.9,0.2,1.3,0.5C175.9,155.6,176,156,176,156.5z"/>
	<path class="st14" d="M187.8,165.2c0,0.5-0.2,0.9-0.5,1.2c-0.3,0.4-0.7,0.6-1.1,0.6c-0.9,0-1.5-0.4-1.8-1.1c-0.7,0.9-1.7,1.3-3,1.3
		c-2.2,0-3.8-1.1-4.8-3.2c-0.5-1.1-0.7-2.1-0.7-3.1c0-2.4,0.9-4.3,2.7-5.5c0.8-0.6,1.7-0.9,2.7-0.9c1.3,0,2.3,0.5,3.1,1.4
		c0.3-0.7,0.8-1.1,1.6-1.1c0.5,0,0.9,0.2,1.3,0.5c0.3,0.4,0.5,0.8,0.5,1.3V165.2z M184.3,160.9c0-0.8-0.2-1.5-0.6-2.1
		c-0.4-0.6-1-0.9-1.8-0.9c-0.8,0-1.4,0.3-1.8,1c-0.4,0.6-0.6,1.3-0.6,2.1c0,0.8,0.2,1.4,0.6,2c0.5,0.6,1.1,0.9,1.8,0.9
		c0.8,0,1.4-0.3,1.8-0.9C184.1,162.4,184.3,161.7,184.3,160.9z"/>
	<path class="st14" d="M198.9,164.9c0,0.8-0.5,1.4-1.6,1.9c-0.8,0.3-1.7,0.5-2.7,0.5c-1.6,0-3-0.6-4.1-1.9c-1.1-1.3-1.7-2.7-1.7-4.4
		c0-0.8,0.1-1.6,0.4-2.5c0.4-1.2,1.2-2.2,2.2-2.9c1-0.7,2.2-1,3.5-1c0.9,0,1.8,0.2,2.5,0.5c1,0.5,1.5,1.1,1.5,1.9
		c0,1-0.4,1.5-1.3,1.6c-0.1,0-0.1,0-0.2,0.1c-0.3,0-0.7-0.1-1.2-0.3c-0.5-0.2-1-0.3-1.3-0.3c-0.8,0-1.5,0.3-2,0.9
		c-0.4,0.5-0.7,1.2-0.7,2.1c0,1.4,0.5,2.3,1.5,2.7c0.3,0.1,0.7,0.2,1,0.2c0.5,0,1-0.1,1.7-0.3c0.5-0.2,0.8-0.3,0.9-0.3
		c0.4,0,0.8,0.2,1.1,0.5C198.8,164.1,198.9,164.4,198.9,164.9z"/>
	<path class="st14" d="M210.6,165.2c0,0.5-0.2,1-0.5,1.3c-0.3,0.3-0.8,0.5-1.3,0.5c-0.5,0-0.9-0.2-1.2-0.5c-0.3-0.3-0.5-0.8-0.5-1.3
		v-5.6c0-0.6-0.2-1.1-0.5-1.5c-0.3-0.4-0.8-0.6-1.4-0.6c-0.6,0-1.1,0.2-1.4,0.6c-0.3,0.4-0.5,0.9-0.5,1.5v5.6c0,0.5-0.2,1-0.5,1.3
		c-0.3,0.3-0.7,0.5-1.3,0.5c-0.5,0-0.9-0.2-1.3-0.5c-0.3-0.3-0.5-0.8-0.5-1.3v-13.8c0-0.5,0.2-1,0.5-1.3c0.3-0.4,0.8-0.5,1.3-0.5
		c0.5,0,0.9,0.2,1.3,0.5s0.5,0.8,0.5,1.3v4h0.1c1-0.6,2-0.9,3-0.9c1.3,0,2.4,0.4,3.2,1.1c0.8,0.7,1.2,1.8,1.2,3.1V165.2z"/>
	<path class="st14" d="M216,151.6c0,0.6-0.2,1.1-0.6,1.5c-0.4,0.4-0.9,0.6-1.5,0.6c-0.6,0-1.1-0.2-1.5-0.6c-0.4-0.4-0.6-0.9-0.6-1.5
		c0-0.6,0.2-1.1,0.6-1.5c0.4-0.4,0.9-0.6,1.5-0.6c0.6,0,1.1,0.2,1.5,0.6C215.8,150.6,216,151,216,151.6z M215.7,165.2
		c0,0.5-0.2,1-0.5,1.3c-0.3,0.3-0.7,0.5-1.2,0.5c-0.5,0-0.9-0.2-1.3-0.5c-0.3-0.3-0.5-0.8-0.5-1.3v-8.6c0-0.5,0.2-1,0.5-1.3
		c0.3-0.4,0.8-0.5,1.3-0.5c0.5,0,0.9,0.2,1.2,0.5c0.3,0.4,0.5,0.8,0.5,1.3V165.2z"/>
	<path class="st14" d="M225.8,163.3c0,1.2-0.5,2.2-1.4,2.9c-0.9,0.7-1.9,1-3.1,1c-1,0-2-0.2-2.9-0.5c-1.2-0.4-1.8-1.1-1.8-1.9
		c0-0.4,0.1-0.8,0.4-1.2c0.3-0.3,0.6-0.5,1-0.5c0.4,0,1,0.2,1.7,0.5c0.7,0.4,1.3,0.5,1.6,0.5c0.7,0,1.1-0.2,1.1-0.7
		c0-0.2-0.1-0.4-0.2-0.5c-0.2-0.1-0.6-0.3-1.2-0.6c-1.3-0.5-2-0.8-2.3-1c-0.9-0.5-1.4-1.1-1.6-1.8c-0.1-0.3-0.1-0.6-0.1-1
		c0-1.2,0.5-2.2,1.4-2.9c0.9-0.7,1.9-1.1,3.2-1.1c0.9,0,1.7,0.2,2.5,0.6c1,0.5,1.5,1.1,1.5,1.9c0,0.4-0.1,0.8-0.4,1.1
		c-0.3,0.3-0.6,0.4-1.1,0.4c-0.2,0-0.6-0.1-1.3-0.4c-0.7-0.3-1.2-0.4-1.5-0.4c-0.6,0-0.9,0.3-0.9,0.8c0,0.3,0.5,0.7,1.4,1
		c1.3,0.5,2.2,0.9,2.6,1.2C225.4,161.3,225.8,162.2,225.8,163.3z"/>
	<path class="st14" d="M230.7,151.6c0,0.6-0.2,1.1-0.6,1.5c-0.4,0.4-0.9,0.6-1.5,0.6c-0.6,0-1.1-0.2-1.5-0.6
		c-0.4-0.4-0.6-0.9-0.6-1.5c0-0.6,0.2-1.1,0.6-1.5c0.4-0.4,0.9-0.6,1.5-0.6c0.6,0,1.1,0.2,1.5,0.6
		C230.4,150.6,230.7,151,230.7,151.6z M230.3,165.2c0,0.5-0.2,1-0.5,1.3c-0.3,0.3-0.7,0.5-1.2,0.5c-0.5,0-0.9-0.2-1.3-0.5
		c-0.3-0.3-0.5-0.8-0.5-1.3v-8.6c0-0.5,0.2-1,0.5-1.3c0.3-0.4,0.8-0.5,1.3-0.5c0.5,0,0.9,0.2,1.2,0.5c0.3,0.4,0.5,0.8,0.5,1.3V165.2
		z"/>
</g>
<g>
	<rect x="318.6" y="149.5" class="st21" width="240.1" height="57.1"/>
	<path class="st14" d="M331.4,162.1c0,1.6-0.5,2.8-1.6,3.6c-1,0.8-2.3,1.2-3.9,1.2h-4.6c-0.5,0-1-0.2-1.3-0.5
		c-0.3-0.4-0.5-0.8-0.5-1.3v-12.4c0-1.2,0.6-1.8,1.8-1.8h4.4c1.2,0,2.3,0.4,3.1,1.2s1.3,1.8,1.3,3c0,1.4-0.6,2.4-1.9,3.1
		c1,0.2,1.8,0.6,2.3,1.4C331.1,160.2,331.4,161.1,331.4,162.1z M324.8,154.1h-1.7v3h1.6c1.2,0,1.8-0.5,1.8-1.5
		C326.5,154.6,325.9,154.1,324.8,154.1z M327.6,162c0-1.1-0.8-1.6-2.3-1.6h-2.2v3.3h2.3C326.9,163.6,327.6,163.1,327.6,162z"/>
	<path class="st14" d="M336.1,151.6c0,0.6-0.2,1.1-0.6,1.5c-0.4,0.4-0.9,0.6-1.5,0.6c-0.6,0-1.1-0.2-1.5-0.6
		c-0.4-0.4-0.6-0.9-0.6-1.5c0-0.6,0.2-1.1,0.6-1.5c0.4-0.4,0.9-0.6,1.5-0.6c0.6,0,1.1,0.2,1.5,0.6
		C335.9,150.6,336.1,151,336.1,151.6z M335.7,165.2c0,0.5-0.2,1-0.5,1.3c-0.3,0.3-0.7,0.5-1.2,0.5c-0.5,0-0.9-0.2-1.3-0.5
		c-0.3-0.3-0.5-0.8-0.5-1.3v-8.6c0-0.5,0.2-1,0.5-1.3c0.3-0.4,0.8-0.5,1.3-0.5c0.5,0,0.9,0.2,1.2,0.5c0.3,0.4,0.5,0.8,0.5,1.3V165.2
		z"/>
	<path class="st14" d="M347.1,165.3c0,1.1-0.6,1.6-1.9,1.6h-7.1c-1.1,0-1.6-0.4-1.6-1.2c0-0.4,0.2-0.9,0.5-1.4l4.5-6.2h-3.1
		c-1.2,0-1.8-0.5-1.8-1.6s0.6-1.6,1.8-1.6h6.8c0.4,0,0.8,0.1,1.1,0.3c0.4,0.2,0.5,0.5,0.5,0.9c0,0.3-0.1,0.7-0.4,1.1l-4.8,6.5h3.7
		C346.5,163.6,347.1,164.2,347.1,165.3z"/>
	<path class="st14" d="M359,165.2c0,0.5-0.2,1-0.5,1.3c-0.3,0.3-0.7,0.5-1.3,0.5c-0.5,0-1-0.2-1.3-0.5c-0.3-0.3-0.5-0.8-0.5-1.3
		v-5.6c0-0.6-0.2-1.1-0.5-1.5c-0.3-0.4-0.8-0.6-1.4-0.6c-0.6,0-1.1,0.2-1.4,0.6c-0.4,0.4-0.5,0.9-0.5,1.5v5.6c0,0.5-0.2,1-0.5,1.3
		c-0.3,0.3-0.7,0.5-1.3,0.5c-0.5,0-0.9-0.2-1.3-0.5c-0.3-0.3-0.5-0.8-0.5-1.3v-8.6c0-0.5,0.2-0.9,0.5-1.3c0.3-0.4,0.8-0.5,1.2-0.5
		c0.9,0,1.5,0.4,1.8,1.1c0.7-0.9,1.7-1.4,3.2-1.4c1.5,0,2.6,0.5,3.4,1.4c0.6,0.7,0.8,1.6,0.8,2.8V165.2z"/>
	<path class="st14" d="M372,160.5c0,0.6-0.1,1-0.4,1.2c-0.3,0.2-0.7,0.3-1.3,0.3H364c0,0.7,0.3,1.2,1,1.5c0.5,0.3,1.1,0.4,1.9,0.4
		c0.5,0,0.9-0.1,1.2-0.2c0,0,0.4-0.2,1.2-0.5c0.6-0.3,1-0.4,1.2-0.4c0.4,0,0.8,0.1,1,0.4c0.3,0.3,0.4,0.7,0.4,1.1
		c0,0.9-0.7,1.7-2.1,2.2c-1.1,0.4-2.2,0.6-3.3,0.6c-1.8,0-3.3-0.6-4.5-1.8c-1.1-1.2-1.7-2.7-1.7-4.6c0-1.7,0.6-3.2,1.8-4.5
		c1.2-1.3,2.6-1.9,4.4-1.9c1.6,0,3,0.6,4.1,1.8C371.5,157.5,372,158.9,372,160.5z M368.5,159.6c0-0.6-0.2-1.1-0.7-1.5
		c-0.5-0.4-1-0.6-1.6-0.6c-0.6,0-1.1,0.2-1.5,0.7c-0.5,0.4-0.7,0.9-0.7,1.5H368.5z"/>
	<path class="st14" d="M381.3,163.3c0,1.2-0.5,2.2-1.4,2.9c-0.9,0.7-1.9,1-3.1,1c-1,0-2-0.2-2.9-0.5c-1.2-0.4-1.8-1.1-1.8-1.9
		c0-0.4,0.1-0.8,0.4-1.2c0.3-0.3,0.6-0.5,1-0.5c0.4,0,1,0.2,1.7,0.5c0.7,0.4,1.3,0.5,1.6,0.5c0.7,0,1.1-0.2,1.1-0.7
		c0-0.2-0.1-0.4-0.2-0.5c-0.2-0.1-0.6-0.3-1.2-0.6c-1.3-0.5-2-0.8-2.3-1c-0.9-0.5-1.4-1.1-1.6-1.8c-0.1-0.3-0.1-0.6-0.1-1
		c0-1.2,0.5-2.2,1.4-2.9c0.9-0.7,1.9-1.1,3.2-1.1c0.9,0,1.7,0.2,2.5,0.6c1,0.5,1.5,1.1,1.5,1.9c0,0.4-0.1,0.8-0.4,1.1
		c-0.3,0.3-0.6,0.4-1.1,0.4c-0.2,0-0.6-0.1-1.3-0.4c-0.7-0.3-1.2-0.4-1.5-0.4c-0.6,0-0.9,0.3-0.9,0.8c0,0.3,0.5,0.7,1.4,1
		c1.3,0.5,2.2,0.9,2.6,1.2C380.9,161.3,381.3,162.2,381.3,163.3z"/>
	<path class="st14" d="M396.1,156.4c0,0.5-0.2,0.9-0.5,1.2c-0.3,0.2-0.8,0.4-1.5,0.6c-0.7,0.2-1.2,0.4-1.4,0.6
		c-0.5,0.4-0.8,1-0.8,1.8v4.4c0,1.3-0.6,1.9-1.9,1.9c-0.4,0-0.8-0.2-1.1-0.6c-0.3-0.3-0.4-0.8-0.4-1.3v-8.5c0-0.5,0.2-1,0.5-1.3
		c0.3-0.4,0.7-0.5,1.3-0.5c0.9,0,1.5,0.4,1.8,1.1c0.7-0.9,1.6-1.4,2.6-1.4c0.5,0,0.9,0.2,1.2,0.6
		C395.9,155.5,396.1,155.9,396.1,156.4z"/>
	<path class="st14" d="M399.7,151.6c0,0.6-0.2,1.1-0.6,1.5c-0.4,0.4-0.9,0.6-1.5,0.6c-0.6,0-1.1-0.2-1.5-0.6
		c-0.4-0.4-0.6-0.9-0.6-1.5c0-0.6,0.2-1.1,0.6-1.5c0.4-0.4,0.9-0.6,1.5-0.6c0.6,0,1.1,0.2,1.5,0.6
		C399.4,150.6,399.7,151,399.7,151.6z M399.3,165.2c0,0.5-0.2,1-0.5,1.3c-0.3,0.3-0.7,0.5-1.2,0.5c-0.5,0-0.9-0.2-1.3-0.5
		c-0.3-0.3-0.5-0.8-0.5-1.3v-8.6c0-0.5,0.2-1,0.5-1.3c0.3-0.4,0.8-0.5,1.3-0.5c0.5,0,0.9,0.2,1.2,0.5c0.3,0.4,0.5,0.8,0.5,1.3V165.2
		z"/>
	<path class="st14" d="M410.6,156.5c0,0.4-0.2,1.1-0.5,2l-2.9,7.1c-0.4,0.9-1,1.4-1.9,1.4c-0.9,0-1.5-0.5-1.9-1.4l-2.8-7.1
		c-0.4-1-0.6-1.6-0.6-1.9c0-0.5,0.2-0.9,0.5-1.3c0.4-0.4,0.8-0.5,1.2-0.5c0.8,0,1.4,0.4,1.7,1.3l1.9,5.3h0l1.9-5.3
		c0.3-0.9,0.9-1.4,1.7-1.4c0.5,0,0.9,0.2,1.2,0.5C410.4,155.6,410.6,156,410.6,156.5z"/>
	<path class="st14" d="M422.7,160.9c0,1.8-0.5,3.2-1.6,4.5c-1.1,1.3-2.5,1.9-4.3,1.9c-1.8,0-3.2-0.6-4.3-1.8
		c-1.1-1.2-1.6-2.7-1.6-4.5c0-1.8,0.5-3.3,1.6-4.5c1.1-1.2,2.5-1.8,4.3-1.8c1.7,0,3.1,0.6,4.2,1.9
		C422.1,157.6,422.7,159.1,422.7,160.9z M419.1,160.9c0-0.8-0.2-1.5-0.6-2c-0.4-0.6-1-0.9-1.8-0.9c-0.8,0-1.4,0.3-1.8,0.9
		c-0.4,0.5-0.6,1.2-0.6,2.1c0,0.8,0.2,1.5,0.6,2c0.4,0.6,1,1,1.8,1c0.3,0,0.7-0.1,1.4-0.4C418.8,162.9,419.1,162.1,419.1,160.9z"/>
	<path class="st14" d="M427.6,151.6c0,0.6-0.2,1.1-0.6,1.5c-0.4,0.4-0.9,0.6-1.5,0.6c-0.6,0-1.1-0.2-1.5-0.6
		c-0.4-0.4-0.6-0.9-0.6-1.5c0-0.6,0.2-1.1,0.6-1.5c0.4-0.4,0.9-0.6,1.5-0.6c0.6,0,1.1,0.2,1.5,0.6
		C427.4,150.6,427.6,151,427.6,151.6z M427.2,170.1c0,0.5-0.2,0.9-0.5,1.3c-0.3,0.3-0.7,0.5-1.2,0.5c-0.5,0-0.9-0.2-1.3-0.5
		c-0.3-0.3-0.5-0.8-0.5-1.3v-13.5c0-0.5,0.2-1,0.5-1.3c0.3-0.4,0.8-0.5,1.3-0.5c0.5,0,0.9,0.2,1.2,0.5c0.3,0.4,0.5,0.8,0.5,1.3
		V170.1z"/>
	<path class="st14" d="M432.6,151.6c0,0.6-0.2,1.1-0.6,1.5c-0.4,0.4-0.9,0.6-1.5,0.6c-0.6,0-1.1-0.2-1.5-0.6
		c-0.4-0.4-0.6-0.9-0.6-1.5c0-0.6,0.2-1.1,0.6-1.5c0.4-0.4,0.9-0.6,1.5-0.6c0.6,0,1.1,0.2,1.5,0.6
		C432.4,150.6,432.6,151,432.6,151.6z M432.3,165.2c0,0.5-0.2,1-0.5,1.3c-0.3,0.3-0.7,0.5-1.2,0.5c-0.5,0-0.9-0.2-1.3-0.5
		c-0.3-0.3-0.5-0.8-0.5-1.3v-8.6c0-0.5,0.2-1,0.5-1.3c0.3-0.4,0.8-0.5,1.3-0.5c0.5,0,0.9,0.2,1.2,0.5c0.3,0.4,0.5,0.8,0.5,1.3V165.2
		z"/>
</g>
<g>
	<rect x="561.4" y="150.1" class="st21" width="240.1" height="57.1"/>
	<path class="st14" d="M571.6,165.7c0,1.2-0.6,1.7-1.8,1.7h-5.6c-0.6,0-1-0.2-1.4-0.5c-0.4-0.3-0.5-0.8-0.5-1.3v-12.4
		c0-0.5,0.2-1,0.5-1.3c0.3-0.4,0.7-0.5,1.3-0.5h5.8c1.1,0,1.7,0.6,1.7,1.7c0,1.1-0.6,1.7-1.7,1.7h-3.9v2.9h3.6
		c0.5,0,0.9,0.2,1.2,0.5c0.3,0.3,0.5,0.7,0.5,1.2c0,0.5-0.2,0.9-0.5,1.2c-0.3,0.3-0.7,0.5-1.2,0.5h-3.6v3h3.9
		C571,164.1,571.6,164.6,571.6,165.7z"/>
	<path class="st14" d="M576,165.8c0,0.5-0.2,1-0.5,1.3c-0.3,0.3-0.7,0.5-1.2,0.5c-0.5,0-1-0.2-1.3-0.5c-0.3-0.3-0.5-0.8-0.5-1.3
		v-13.8c0-0.5,0.2-1,0.5-1.3s0.8-0.5,1.3-0.5c0.5,0,0.9,0.2,1.2,0.5c0.3,0.4,0.5,0.8,0.5,1.3V165.8z"/>
	<path class="st14" d="M589,161.1c0,0.6-0.1,1-0.4,1.2c-0.3,0.2-0.7,0.3-1.3,0.3h-6.3c0,0.7,0.3,1.2,1,1.5c0.5,0.3,1.1,0.4,1.9,0.4
		c0.5,0,0.9-0.1,1.2-0.2c0,0,0.4-0.2,1.2-0.5c0.6-0.3,1-0.4,1.2-0.4c0.4,0,0.8,0.1,1,0.4c0.3,0.3,0.4,0.7,0.4,1.1
		c0,0.9-0.7,1.7-2.1,2.2c-1.1,0.4-2.2,0.6-3.3,0.6c-1.8,0-3.3-0.6-4.5-1.8s-1.7-2.7-1.7-4.6c0-1.7,0.6-3.2,1.8-4.5s2.6-1.9,4.4-1.9
		c1.6,0,3,0.6,4,1.8C588.4,158,589,159.4,589,161.1z M585.5,160.2c0-0.6-0.2-1.1-0.7-1.5c-0.5-0.4-1-0.6-1.6-0.6
		c-0.6,0-1.1,0.2-1.5,0.7c-0.5,0.4-0.7,0.9-0.7,1.5H585.5z"/>
	<path class="st14" d="M600.4,166c0,0.5-0.2,0.9-0.6,1.1c-0.4,0.3-0.9,0.4-1.4,0.4c-0.5,0-1-0.4-1.6-1.1l-3.6-4.7v3.9
		c0,0.6-0.2,1-0.5,1.4c-0.3,0.4-0.8,0.6-1.3,0.6c-0.5,0-0.9-0.2-1.3-0.5c-0.3-0.4-0.5-0.8-0.5-1.4v-13.7c0-0.5,0.2-1,0.5-1.3
		s0.7-0.5,1.3-0.5c0.5,0,1,0.2,1.3,0.6c0.3,0.4,0.5,0.8,0.5,1.4v7.4l3.4-3.4c0.4-0.5,0.9-0.7,1.4-0.7c0.5,0,0.9,0.2,1.2,0.5
		c0.4,0.3,0.5,0.7,0.5,1.2c0,0.4-0.2,0.8-0.6,1.2l-2.5,2.5l3.3,4.2C600.3,165.3,600.4,165.7,600.4,166z"/>
	<path class="st14" d="M608.2,157.1c0,1.1-0.6,1.6-1.7,1.6h-1.1v7c0,1.3-0.6,1.9-1.9,1.9c-0.4,0-0.8-0.2-1.1-0.6
		c-0.3-0.4-0.5-0.8-0.5-1.3v-7.1c-0.7,0-1.3-0.1-1.6-0.3c-0.4-0.2-0.6-0.7-0.6-1.4c0-1,0.7-1.6,2.2-1.6v-2.4c0-0.5,0.2-0.9,0.5-1.3
		c0.4-0.3,0.8-0.5,1.3-0.5s0.9,0.2,1.2,0.5c0.3,0.3,0.5,0.8,0.5,1.3v2.3c1,0,1.6,0,1.9,0.1C607.9,155.8,608.2,156.3,608.2,157.1z"/>
	<path class="st14" d="M615.4,157c0,0.5-0.2,0.9-0.5,1.2c-0.3,0.2-0.8,0.4-1.5,0.6c-0.7,0.2-1.2,0.4-1.4,0.6c-0.5,0.4-0.8,1-0.8,1.8
		v4.4c0,1.3-0.6,1.9-1.9,1.9c-0.4,0-0.8-0.2-1.1-0.6c-0.3-0.3-0.4-0.8-0.4-1.3v-8.5c0-0.5,0.2-1,0.5-1.3c0.3-0.4,0.7-0.5,1.3-0.5
		c0.9,0,1.5,0.4,1.8,1.1c0.7-0.9,1.6-1.4,2.6-1.4c0.5,0,0.9,0.2,1.2,0.6C615.2,156,615.4,156.5,615.4,157z"/>
	<path class="st14" d="M626.5,161.4c0,1.8-0.5,3.2-1.6,4.5c-1.1,1.3-2.5,1.9-4.3,1.9c-1.8,0-3.2-0.6-4.3-1.8
		c-1.1-1.2-1.6-2.7-1.6-4.5c0-1.8,0.5-3.3,1.6-4.5s2.5-1.8,4.3-1.8c1.7,0,3.1,0.6,4.2,1.9C626,158.2,626.5,159.7,626.5,161.4z
		 M623,161.4c0-0.8-0.2-1.5-0.6-2c-0.4-0.6-1-0.9-1.8-0.9c-0.8,0-1.4,0.3-1.8,0.9c-0.4,0.5-0.6,1.2-0.6,2.1c0,0.8,0.2,1.5,0.6,2
		c0.4,0.6,1,1,1.8,1c0.3,0,0.7-0.1,1.4-0.4C622.6,163.5,623,162.6,623,161.4z"/>
	<path class="st14" d="M638.6,165.8c0,0.5-0.2,1-0.5,1.3c-0.3,0.3-0.7,0.5-1.3,0.5c-0.5,0-1-0.2-1.3-0.5c-0.3-0.3-0.5-0.8-0.5-1.3
		v-5.6c0-0.6-0.2-1.1-0.5-1.5c-0.3-0.4-0.8-0.6-1.4-0.6c-0.6,0-1.1,0.2-1.4,0.6c-0.4,0.4-0.5,0.9-0.5,1.5v5.6c0,0.5-0.2,1-0.5,1.3
		c-0.3,0.3-0.7,0.5-1.3,0.5c-0.5,0-0.9-0.2-1.3-0.5c-0.3-0.3-0.5-0.8-0.5-1.3v-8.6c0-0.5,0.2-0.9,0.5-1.3c0.3-0.4,0.8-0.5,1.2-0.5
		c0.9,0,1.5,0.4,1.8,1.1c0.7-0.9,1.7-1.4,3.2-1.4c1.5,0,2.6,0.5,3.4,1.4c0.6,0.7,0.8,1.6,0.8,2.8V165.8z"/>
	<path class="st14" d="M657.1,165.8c0,0.5-0.2,1-0.5,1.3c-0.3,0.3-0.8,0.5-1.3,0.5c-0.5,0-0.9-0.2-1.2-0.5c-0.3-0.3-0.5-0.8-0.5-1.3
		v-5.6c0-0.6-0.2-1.1-0.5-1.5c-0.3-0.4-0.8-0.6-1.4-0.6c-0.6,0-1.1,0.2-1.4,0.6c-0.3,0.4-0.5,0.9-0.5,1.5v5.6c0,0.5-0.2,1-0.5,1.3
		c-0.3,0.3-0.7,0.5-1.3,0.5c-0.5,0-0.9-0.2-1.3-0.5c-0.3-0.3-0.5-0.8-0.5-1.3v-13.8c0-0.5,0.2-1,0.5-1.3s0.8-0.5,1.3-0.5
		c0.5,0,0.9,0.2,1.3,0.5s0.5,0.8,0.5,1.3v4h0.1c1-0.6,2-0.9,3-0.9c1.3,0,2.4,0.4,3.2,1.1s1.2,1.8,1.2,3.1V165.8z"/>
	<path class="st14" d="M662.5,152.2c0,0.6-0.2,1.1-0.6,1.5c-0.4,0.4-0.9,0.6-1.5,0.6c-0.6,0-1.1-0.2-1.5-0.6
		c-0.4-0.4-0.6-0.9-0.6-1.5c0-0.6,0.2-1.1,0.6-1.5c0.4-0.4,0.9-0.6,1.5-0.6c0.6,0,1.1,0.2,1.5,0.6
		C662.3,151.1,662.5,151.6,662.5,152.2z M662.2,165.8c0,0.5-0.2,1-0.5,1.3c-0.3,0.3-0.7,0.5-1.2,0.5c-0.5,0-0.9-0.2-1.3-0.5
		c-0.3-0.3-0.5-0.8-0.5-1.3v-8.6c0-0.5,0.2-1,0.5-1.3c0.3-0.4,0.8-0.5,1.3-0.5c0.5,0,0.9,0.2,1.2,0.5c0.3,0.4,0.5,0.8,0.5,1.3V165.8
		z"/>
	<path class="st14" d="M672.3,163.9c0,1.2-0.5,2.2-1.4,2.9c-0.9,0.7-1.9,1-3.1,1c-1,0-2-0.2-2.9-0.5c-1.2-0.4-1.8-1.1-1.8-1.9
		c0-0.4,0.1-0.8,0.4-1.2c0.3-0.3,0.6-0.5,1-0.5c0.4,0,1,0.2,1.7,0.5c0.7,0.4,1.3,0.5,1.6,0.5c0.7,0,1.1-0.2,1.1-0.7
		c0-0.2-0.1-0.4-0.2-0.5c-0.2-0.1-0.6-0.3-1.2-0.6c-1.3-0.5-2-0.8-2.3-1c-0.9-0.5-1.4-1.1-1.6-1.8c-0.1-0.3-0.1-0.6-0.1-1
		c0-1.2,0.5-2.2,1.4-2.9c0.9-0.7,1.9-1.1,3.2-1.1c0.9,0,1.7,0.2,2.5,0.6c1,0.5,1.5,1.1,1.5,1.9c0,0.4-0.1,0.8-0.4,1.1
		c-0.3,0.3-0.6,0.4-1.1,0.4c-0.2,0-0.6-0.1-1.3-0.4c-0.7-0.3-1.2-0.4-1.5-0.4c-0.6,0-0.9,0.3-0.9,0.8c0,0.3,0.5,0.7,1.4,1
		c1.3,0.5,2.2,0.9,2.6,1.2C671.9,161.9,672.3,162.8,672.3,163.9z"/>
	<path class="st14" d="M684.7,161.4c0,1.8-0.5,3.2-1.6,4.5c-1.1,1.3-2.5,1.9-4.3,1.9c-1.8,0-3.2-0.6-4.3-1.8
		c-1.1-1.2-1.6-2.7-1.6-4.5c0-1.8,0.5-3.3,1.6-4.5s2.5-1.8,4.3-1.8c1.7,0,3.1,0.6,4.2,1.9C684.2,158.2,684.7,159.7,684.7,161.4z
		 M681.2,161.4c0-0.8-0.2-1.5-0.6-2c-0.4-0.6-1-0.9-1.8-0.9c-0.8,0-1.4,0.3-1.8,0.9c-0.4,0.5-0.6,1.2-0.6,2.1c0,0.8,0.2,1.5,0.6,2
		c0.4,0.6,1,1,1.8,1c0.3,0,0.7-0.1,1.4-0.4C680.8,163.5,681.2,162.6,681.2,161.4z"/>
	<path class="st14" d="M697.6,161.4c0,1.7-0.5,3.1-1.5,4.3c-1.1,1.3-2.4,2-4,2c-1.3,0-2.3-0.4-3-1.4c-0.3,0.8-0.9,1.1-1.8,1.1
		c-0.5,0-0.8-0.2-1.1-0.6c-0.3-0.4-0.5-0.8-0.5-1.2V152c0-0.5,0.2-1,0.5-1.3c0.3-0.4,0.7-0.5,1.3-0.5s0.9,0.2,1.3,0.5
		c0.3,0.3,0.5,0.8,0.5,1.3v4.2c0.8-0.7,1.8-1,3-1c0.9,0,1.8,0.3,2.6,0.9C696.7,157.2,697.6,159,697.6,161.4z M694.1,161.4
		c0-0.8-0.2-1.5-0.6-2c-0.4-0.6-1-0.9-1.8-0.9c-0.8,0-1.4,0.3-1.9,0.9c-0.4,0.5-0.6,1.2-0.6,2.1c0,0.8,0.2,1.5,0.6,2
		c0.4,0.6,1,0.9,1.8,0.9c0.8,0,1.4-0.3,1.8-0.9C693.9,162.9,694.1,162.2,694.1,161.4z"/>
	<path class="st14" d="M710.1,161.4c0,1.8-0.5,3.2-1.6,4.5c-1.1,1.3-2.5,1.9-4.3,1.9c-1.8,0-3.2-0.6-4.3-1.8
		c-1.1-1.2-1.6-2.7-1.6-4.5c0-1.8,0.5-3.3,1.6-4.5s2.5-1.8,4.3-1.8c1.7,0,3.1,0.6,4.2,1.9C709.6,158.2,710.1,159.7,710.1,161.4z
		 M706.6,161.4c0-0.8-0.2-1.5-0.6-2c-0.4-0.6-1-0.9-1.8-0.9c-0.8,0-1.4,0.3-1.8,0.9c-0.4,0.5-0.6,1.2-0.6,2.1c0,0.8,0.2,1.5,0.6,2
		c0.4,0.6,1,1,1.8,1c0.3,0,0.7-0.1,1.4-0.4C706.3,163.5,706.6,162.6,706.6,161.4z"/>
	<path class="st14" d="M718.5,157.1c0,1.1-0.6,1.6-1.7,1.6h-1.1v7c0,1.3-0.6,1.9-1.9,1.9c-0.5,0-0.8-0.2-1.1-0.6
		c-0.3-0.4-0.5-0.8-0.5-1.3v-7.1c-0.7,0-1.3-0.1-1.6-0.3c-0.4-0.2-0.6-0.7-0.6-1.4c0-1,0.7-1.6,2.2-1.6v-2.4c0-0.5,0.2-0.9,0.5-1.3
		c0.4-0.3,0.8-0.5,1.3-0.5s0.9,0.2,1.2,0.5c0.3,0.3,0.5,0.8,0.5,1.3v2.3c1,0,1.6,0,1.9,0.1C718.2,155.8,718.5,156.3,718.5,157.1z"/>
	<path class="st14" d="M731.2,157.1c0,1.1-0.6,1.6-1.7,1.6h-1.1v7c0,1.3-0.6,1.9-1.9,1.9c-0.5,0-0.8-0.2-1.1-0.6
		c-0.3-0.4-0.5-0.8-0.5-1.3v-7.1c-0.7,0-1.3-0.1-1.6-0.3c-0.4-0.2-0.6-0.7-0.6-1.4c0-1,0.7-1.6,2.2-1.6v-2.4c0-0.5,0.2-0.9,0.5-1.3
		c0.4-0.3,0.8-0.5,1.3-0.5s0.9,0.2,1.2,0.5c0.3,0.3,0.5,0.8,0.5,1.3v2.3c1,0,1.6,0,1.9,0.1C730.9,155.8,731.2,156.3,731.2,157.1z"/>
	<path class="st14" d="M734.5,152.2c0,0.6-0.2,1.1-0.6,1.5c-0.4,0.4-0.9,0.6-1.5,0.6c-0.6,0-1.1-0.2-1.5-0.6
		c-0.4-0.4-0.6-0.9-0.6-1.5c0-0.6,0.2-1.1,0.6-1.5c0.4-0.4,0.9-0.6,1.5-0.6c0.6,0,1.1,0.2,1.5,0.6
		C734.3,151.1,734.5,151.6,734.5,152.2z M734.1,165.8c0,0.5-0.2,1-0.5,1.3c-0.3,0.3-0.7,0.5-1.2,0.5c-0.5,0-0.9-0.2-1.3-0.5
		c-0.3-0.3-0.5-0.8-0.5-1.3v-8.6c0-0.5,0.2-1,0.5-1.3c0.3-0.4,0.8-0.5,1.3-0.5c0.5,0,0.9,0.2,1.2,0.5c0.3,0.4,0.5,0.8,0.5,1.3V165.8
		z"/>
	<path class="st14" d="M745.5,165.8c0,1.1-0.6,1.6-1.9,1.6h-7.1c-1.1,0-1.6-0.4-1.6-1.2c0-0.4,0.2-0.9,0.5-1.4l4.5-6.2h-3.1
		c-1.2,0-1.8-0.5-1.8-1.6s0.6-1.6,1.8-1.6h6.8c0.4,0,0.8,0.1,1.1,0.3c0.4,0.2,0.5,0.5,0.5,0.9c0,0.3-0.1,0.7-0.4,1.1l-4.8,6.5h3.7
		C744.9,164.2,745.5,164.7,745.5,165.8z"/>
	<path class="st14" d="M750.3,152.2c0,0.6-0.2,1.1-0.6,1.5c-0.4,0.4-0.9,0.6-1.5,0.6c-0.6,0-1.1-0.2-1.5-0.6
		c-0.4-0.4-0.6-0.9-0.6-1.5c0-0.6,0.2-1.1,0.6-1.5c0.4-0.4,0.9-0.6,1.5-0.6c0.6,0,1.1,0.2,1.5,0.6
		C750.1,151.1,750.3,151.6,750.3,152.2z M750,165.8c0,0.5-0.2,1-0.5,1.3c-0.3,0.3-0.7,0.5-1.2,0.5c-0.5,0-0.9-0.2-1.3-0.5
		c-0.3-0.3-0.5-0.8-0.5-1.3v-8.6c0-0.5,0.2-1,0.5-1.3c0.3-0.4,0.8-0.5,1.3-0.5c0.5,0,0.9,0.2,1.2,0.5c0.3,0.4,0.5,0.8,0.5,1.3V165.8
		z"/>
	<path class="st14" d="M769.1,165.8c0,0.5-0.2,1-0.5,1.3c-0.3,0.3-0.7,0.5-1.3,0.5c-0.5,0-0.9-0.2-1.3-0.5c-0.3-0.3-0.5-0.8-0.5-1.3
		v-5.6c0-0.6-0.1-1.1-0.4-1.5c-0.3-0.4-0.8-0.7-1.3-0.7c-0.6,0-1,0.2-1.3,0.6c-0.3,0.4-0.5,0.9-0.5,1.5v5.6c0,0.5-0.2,1-0.5,1.3
		c-0.3,0.3-0.7,0.5-1.3,0.5c-0.5,0-0.9-0.2-1.3-0.5c-0.3-0.3-0.5-0.8-0.5-1.3v-5.6c0-0.6-0.2-1.1-0.5-1.5c-0.3-0.4-0.7-0.6-1.3-0.6
		c-0.6,0-1,0.2-1.3,0.6c-0.3,0.4-0.5,0.9-0.5,1.5v5.6c0,0.5-0.2,1-0.5,1.3c-0.3,0.3-0.7,0.5-1.3,0.5c-0.5,0-0.9-0.2-1.3-0.5
		c-0.3-0.3-0.5-0.8-0.5-1.3v-8.6c0-0.5,0.2-0.9,0.5-1.3c0.3-0.4,0.8-0.5,1.2-0.5c0.9,0,1.5,0.4,1.8,1.1c0.6-0.9,1.6-1.4,3.1-1.4
		c1.4,0,2.5,0.5,3.2,1.5c0.8-0.5,1.3-0.9,1.6-1.1c0.6-0.3,1.2-0.4,1.9-0.4c1.3,0,2.3,0.4,3.1,1.1c0.8,0.7,1.1,1.8,1.1,3V165.8z"/>
	<path class="st14" d="M774.5,152.2c0,0.6-0.2,1.1-0.6,1.5c-0.4,0.4-0.9,0.6-1.5,0.6c-0.6,0-1.1-0.2-1.5-0.6
		c-0.4-0.4-0.6-0.9-0.6-1.5c0-0.6,0.2-1.1,0.6-1.5c0.4-0.4,0.9-0.6,1.5-0.6c0.6,0,1.1,0.2,1.5,0.6
		C774.3,151.1,774.5,151.6,774.5,152.2z M774.2,165.8c0,0.5-0.2,1-0.5,1.3c-0.3,0.3-0.7,0.5-1.2,0.5c-0.5,0-0.9-0.2-1.3-0.5
		c-0.3-0.3-0.5-0.8-0.5-1.3v-8.6c0-0.5,0.2-1,0.5-1.3c0.3-0.4,0.8-0.5,1.3-0.5c0.5,0,0.9,0.2,1.2,0.5c0.3,0.4,0.5,0.8,0.5,1.3V165.8
		z"/>
</g>
<g>
	<rect x="174.4" y="546.7" class="st21" width="542.9" height="39.5"/>
	<path class="st33" d="M201.3,573.3c0,3.3-1.1,5.9-3.4,7.6c-2.1,1.6-4.8,2.5-8.2,2.5H180c-1.1,0-2.1-0.4-2.7-1.1
		c-0.7-0.7-1-1.7-1-2.8v-26.2c0-2.5,1.3-3.8,3.8-3.8h9.3c2.6,0,4.8,0.8,6.6,2.5c1.8,1.6,2.7,3.7,2.7,6.3c0,2.9-1.3,5.1-4,6.6
		c2.1,0.4,3.8,1.3,5,2.9C200.7,569.2,201.3,571,201.3,573.3z M187.4,556.4h-3.5v6.3h3.4c2.5,0,3.7-1.1,3.7-3.2
		C191,557.4,189.8,556.4,187.4,556.4z M193.3,573c0-2.3-1.6-3.5-4.8-3.5h-4.7v7h5C191.8,576.4,193.3,575.3,193.3,573z"/>
	<path class="st33" d="M235.9,566.5c0,5.2-1.5,9.4-4.4,12.7c-3,3.3-7.1,5-12.3,5c-5.1,0-9.2-1.7-12.2-5c-3-3.2-4.4-7.4-4.4-12.6
		c0-5.2,1.5-9.5,4.4-12.8c3-3.3,7-4.9,12.2-4.9c5.2,0,9.3,1.7,12.3,5C234.4,557,235.9,561.2,235.9,566.5z M227.6,566.4
		c0-3-0.6-5.4-1.9-7.3c-1.5-2.2-3.6-3.3-6.4-3.3c-2.8,0-5,1.1-6.4,3.4c-1.3,1.9-1.9,4.3-1.9,7.3c0,2.9,0.6,5.4,1.9,7.3
		c1.5,2.1,3.6,3.2,6.4,3.2c2.8,0,5-1.1,6.4-3.3C226.9,571.8,227.6,569.4,227.6,566.4z"/>
	<path class="st33" d="M270.2,566.5c0,5.2-1.5,9.4-4.4,12.7c-3,3.3-7.1,5-12.3,5c-5.1,0-9.2-1.7-12.2-5c-3-3.2-4.4-7.4-4.4-12.6
		c0-5.2,1.5-9.5,4.4-12.8c3-3.3,7-4.9,12.2-4.9c5.2,0,9.3,1.7,12.3,5C268.7,557,270.2,561.2,270.2,566.5z M261.9,566.4
		c0-3-0.6-5.4-1.9-7.3c-1.5-2.2-3.6-3.3-6.4-3.3c-2.8,0-5,1.1-6.4,3.4c-1.3,1.9-1.9,4.3-1.9,7.3c0,2.9,0.6,5.4,1.9,7.3
		c1.5,2.1,3.6,3.2,6.4,3.2c2.8,0,5-1.1,6.4-3.3C261.3,571.8,261.9,569.4,261.9,566.4z"/>
	<path class="st33" d="M299.2,579.4c0,2.8-1.3,4.3-4,4.3c-1.3,0-2.5-0.7-3.8-2.2l-11.7-13.1v11.1c0,2.7-1.3,4.1-4,4.1
		c-1.2,0-2.1-0.4-2.7-1.1c-0.6-0.7-0.9-1.7-0.9-2.9v-26.4c0-1.2,0.3-2.1,1-2.9c0.7-0.7,1.6-1.1,2.8-1.1c2.6,0,3.9,1.4,3.9,4.2v9.3
		l10.9-11.8c1-1.1,2.2-1.7,3.4-1.7c1,0,1.9,0.4,2.7,1.2c0.8,0.8,1.2,1.7,1.2,2.7c0,0.9-0.5,1.9-1.5,3l-9.2,9.2l10.8,11.7
		C298.8,577.9,299.2,578.7,299.2,579.4z"/>
	<path class="st33" d="M324.4,588.1c0,0.8-0.5,1.2-1.4,1.2h-23.8c-0.9,0-1.4-0.4-1.4-1.2c0-0.8,0.5-1.2,1.4-1.2H323
		C323.9,586.9,324.4,587.3,324.4,588.1z"/>
	<path class="st33" d="M347.7,572.7c0,3.6-1.2,6.5-3.7,8.5c-2.3,1.9-5.3,2.9-9.1,2.9c-3.6,0-6.7-0.7-9.2-2.1
		c-1.6-0.9-2.5-2.1-2.5-3.5c0-0.9,0.4-1.9,1.1-2.9c0.6-0.8,1.5-1.3,2.5-1.3c0.8,0,2.1,0.3,4,1c1.8,0.7,3.3,1,4.4,1
		c1.1,0,2-0.2,2.7-0.7c0.9-0.5,1.4-1.3,1.4-2.3c0-1-0.4-1.8-1.2-2.3c-0.8-0.6-2.5-1.3-5.3-2.1c-2.9-0.9-5-1.9-6.2-2.9
		c-1.8-1.5-2.7-3.8-2.7-6.8c0-3.5,1.2-6.2,3.7-8.1c2.2-1.7,5.1-2.5,8.7-2.5c2.2,0,4.1,0.3,5.8,1c2.3,1,3.5,2.3,3.5,4.2
		c0,1-0.3,1.9-1,2.5c-0.7,0.7-1.5,1-2.6,1c-0.3,0-1.3-0.2-3-0.7c-1.4-0.4-2.5-0.6-3.3-0.6c-0.8,0-1.6,0.2-2.3,0.6
		c-0.9,0.5-1.3,1.1-1.3,1.9s0.2,1.4,0.7,1.7c0.4,0.3,1.3,0.8,2.9,1.3c4.3,1.5,7,2.6,8.2,3.4C346.4,566.8,347.7,569.3,347.7,572.7z"
		/>
	<path class="st33" d="M371.8,553c0,2.3-1.3,3.5-4,3.5h-4.3v23c0,2.7-1.3,4.1-3.9,4.1c-2.6,0-3.9-1.4-3.9-4.1v-23h-4.2
		c-2.7,0-4-1.2-4-3.5c0-2.4,1.3-3.6,4-3.6h16.3C370.5,549.5,371.8,550.7,371.8,553z"/>
	<path class="st33" d="M405.6,566.5c0,5.2-1.5,9.4-4.4,12.7c-3,3.3-7.1,5-12.3,5c-5.1,0-9.2-1.7-12.2-5c-3-3.2-4.4-7.4-4.4-12.6
		c0-5.2,1.5-9.5,4.4-12.8c3-3.3,7-4.9,12.2-4.9c5.2,0,9.3,1.7,12.3,5C404.2,557,405.6,561.2,405.6,566.5z M397.3,566.4
		c0-3-0.6-5.4-1.9-7.3c-1.5-2.2-3.6-3.3-6.4-3.3c-2.8,0-5,1.1-6.4,3.4c-1.3,1.9-1.9,4.3-1.9,7.3c0,2.9,0.6,5.4,1.9,7.3
		c1.5,2.1,3.6,3.2,6.4,3.2c2.8,0,5-1.1,6.4-3.3C396.7,571.8,397.3,569.4,397.3,566.4z"/>
	<path class="st33" d="M432.3,580c0,1.1-0.5,2-1.3,2.7s-2,0.9-3.2,0.9c-1.1,0-2.1-0.6-3-1.8l-9.6-12v9.7c0,1.2-0.3,2.2-1,3
		c-0.7,0.8-1.6,1.1-2.8,1.1c-2.5,0-3.8-1.4-3.8-4.2v-26.2c0-1.1,0.4-2,1.1-2.7c0.7-0.7,1.7-1.1,2.9-1.1h9c3.4,0,6.1,1,8.2,2.9
		c2.1,1.9,3.2,4.5,3.2,7.9c0,2.4-0.7,4.4-2.2,6.1s-3.4,2.8-5.7,3.1l7,7.4C431.9,577.9,432.3,578.9,432.3,580z M424.2,560.4
		c0-1.1-0.4-2-1.1-2.7c-0.8-0.7-1.7-1.1-2.7-1.1h-5.2v7.6h4.8c1.1,0,2.1-0.3,3-1C423.8,562.4,424.2,561.5,424.2,560.4z"/>
	<path class="st33" d="M453.7,579.7c0,2.5-1.3,3.7-3.9,3.7H438c-1.2,0-2.1-0.3-2.9-1c-0.7-0.7-1.1-1.6-1.1-2.8v-26.2
		c0-1.1,0.3-2,1-2.8c0.7-0.7,1.5-1.1,2.7-1.1h12.2c2.4,0,3.6,1.2,3.6,3.6c0,2.3-1.2,3.5-3.6,3.5h-8.2v6.2h7.6c1.1,0,1.9,0.3,2.6,1
		c0.7,0.7,1,1.5,1,2.6c0,1.1-0.3,1.9-1,2.6c-0.7,0.7-1.6,1-2.6,1h-7.6v6.4h8.2C452.4,576.3,453.7,577.4,453.7,579.7z"/>
	<path class="st33" d="M488.8,579.1c0,1.7-1.1,3-3.4,4c-1.7,0.7-3.6,1-5.6,1c-3.5,0-6.4-1.3-8.7-4c-2.4-2.7-3.5-5.8-3.5-9.3
		c0-1.7,0.3-3.4,0.9-5.2c0.9-2.6,2.4-4.7,4.6-6.1c2.1-1.5,4.6-2.2,7.5-2.2c2,0,3.7,0.4,5.3,1.1c2.1,1,3.1,2.3,3.1,4
		c0,2.1-0.9,3.2-2.8,3.3c-0.2,0-0.3,0.1-0.4,0.1c-0.5-0.1-1.4-0.3-2.5-0.7c-1.1-0.4-2-0.6-2.7-0.6c-1.8,0-3.1,0.6-4.1,1.9
		c-0.9,1.1-1.4,2.6-1.4,4.4c0,2.9,1,4.8,3.1,5.8c0.7,0.3,1.4,0.5,2.1,0.5c1,0,2.1-0.2,3.5-0.7c1.1-0.4,1.8-0.6,1.9-0.6
		c0.9,0,1.6,0.3,2.3,1C488.5,577.4,488.8,578.2,488.8,579.1z"/>
	<path class="st33" d="M514.5,570.7c0,3.7-1.1,6.9-3.4,9.4c-2.4,2.7-5.4,4-9,4c-3.8,0-6.8-1.3-9.1-3.8c-2.3-2.5-3.4-5.7-3.4-9.6
		c0-3.8,1.1-7,3.4-9.6c2.3-2.6,5.3-3.9,9.1-3.9c3.6,0,6.6,1.3,8.9,4C513.4,563.8,514.5,567,514.5,570.7z M507.1,570.7
		c0-1.7-0.4-3.1-1.2-4.3c-0.9-1.3-2.2-2-3.8-2c-1.7,0-3,0.6-3.9,1.9c-0.8,1.1-1.3,2.6-1.3,4.3c0,1.7,0.4,3.1,1.2,4.3
		c0.9,1.3,2.1,2,3.7,2.1c0.6,0,1.5-0.3,2.9-0.9C506.3,575,507.1,573.2,507.1,570.7z"/>
	<path class="st33" d="M540,574.3c0,3.2-1.1,5.7-3.4,7.5c-2.1,1.6-4.8,2.3-8.1,2.3c-3.3,0-6-0.8-8.1-2.4c-2.3-1.7-3.4-4.2-3.4-7.4
		v-12.7c0-1.1,0.4-2,1.1-2.7c0.7-0.8,1.6-1.1,2.7-1.1c1.1,0,2,0.4,2.7,1.1c0.7,0.7,1,1.7,1,2.8v11.5c0,1.2,0.4,2.2,1.1,3
		c0.8,0.8,1.7,1.1,2.9,1.1c1.2,0,2.2-0.4,3-1.1c0.8-0.8,1.2-1.7,1.2-3v-11.5c0-1.1,0.3-2,1-2.7c0.7-0.8,1.5-1.1,2.6-1.1
		c1.1,0,2,0.4,2.7,1.1c0.7,0.7,1.1,1.7,1.1,2.8V574.3z"/>
	<path class="st33" d="M566.4,579.8c0,1.1-0.3,2-1,2.7s-1.6,1.1-2.6,1.1c-1.1,0-2-0.4-2.7-1.1s-1-1.6-1-2.7v-11.7
		c0-1.3-0.4-2.4-1.1-3.2c-0.7-0.9-1.7-1.3-2.9-1.3c-1.3,0-2.3,0.4-3.1,1.3c-0.8,0.9-1.1,1.9-1.1,3.2v11.7c0,1.1-0.3,2-1,2.7
		c-0.7,0.7-1.6,1.1-2.7,1.1c-1.1,0-1.9-0.4-2.7-1.1c-0.7-0.7-1.1-1.6-1.1-2.7v-18.2c0-1.1,0.4-2,1.1-2.7c0.7-0.8,1.6-1.1,2.6-1.1
		c1.9,0,3.1,0.8,3.7,2.4c1.4-1.9,3.6-2.9,6.7-2.9c3.1,0,5.5,1,7.2,3c1.2,1.4,1.8,3.3,1.8,5.8V579.8z"/>
	<path class="st33" d="M585.1,561.5c0,2.3-1.2,3.4-3.6,3.4h-2.3v14.8c0,2.7-1.3,4-4,4c-1,0-1.8-0.4-2.4-1.2c-0.7-0.8-1-1.7-1-2.7
		v-14.9c-1.6,0-2.7-0.2-3.3-0.6c-0.9-0.5-1.4-1.5-1.4-3c0-2.2,1.6-3.3,4.7-3.3v-5c0-1.1,0.4-2,1.1-2.7c0.7-0.7,1.6-1,2.7-1
		c1.1,0,1.9,0.4,2.6,1.1c0.7,0.7,1,1.6,1,2.7v5c2.1,0,3.4,0.1,4,0.3C584.5,558.8,585.1,559.8,585.1,561.5z"/>
	<path class="st33" d="M608,569.9c0,1.3-0.3,2.1-0.9,2.6c-0.6,0.5-1.5,0.7-2.7,0.7H591c0,1.4,0.7,2.5,2.1,3.2
		c1.1,0.6,2.4,0.9,3.9,0.9c1,0,1.8-0.1,2.6-0.4c0.1,0,0.9-0.4,2.6-1.1c1.2-0.5,2-0.8,2.5-0.8c0.9,0,1.6,0.3,2.2,0.9s0.9,1.4,0.9,2.3
		c0,2-1.5,3.5-4.5,4.7c-2.3,0.8-4.7,1.3-7.1,1.3c-3.9,0-7-1.3-9.4-3.8c-2.4-2.5-3.6-5.7-3.6-9.6c0-3.7,1.2-6.8,3.7-9.5
		c2.5-2.6,5.6-4,9.3-4c3.4,0,6.3,1.2,8.5,3.7S608,566.4,608,569.9z M600.6,568.1c0-1.2-0.5-2.2-1.5-3.1c-1-0.9-2.1-1.4-3.3-1.4
		c-1.2,0-2.3,0.5-3.2,1.4c-1,0.9-1.5,2-1.5,3.1H600.6z"/>
	<path class="st33" d="M625.8,561.2c0,1.1-0.4,1.9-1.1,2.5c-0.6,0.4-1.6,0.9-3.1,1.3c-1.5,0.5-2.5,0.9-3,1.3
		c-1.1,0.8-1.7,2.1-1.7,3.9v9.3c0,2.7-1.4,4.1-4.1,4.1c-0.8,0-1.6-0.4-2.4-1.3c-0.6-0.7-0.9-1.6-0.9-2.7v-17.9c0-1.1,0.3-2.1,1-2.8
		c0.7-0.7,1.6-1.1,2.7-1.1c1.9,0,3.1,0.8,3.7,2.3c1.6-1.9,3.4-2.9,5.4-2.9c1,0,1.8,0.4,2.5,1.2C625.5,559.3,625.8,560.2,625.8,561.2
		z"/>
</g>
<g>
</g>
<g>
</g>
<g>
</g>
<g>
</g>
<g>
</g>
<g>
</g>
<g>
</g>
<g>
</g>
<g>
</g>
<g>
</g>
<g>
</g>
<g>
</g>
<g>
</g>
<g>
</g>
<g>
</g>
</svg>
