<?xml version="1.0" encoding="utf-8"?>
<!-- Generator: Adobe Illustrator 20.1.0, SVG Export Plug-In . SVG Version: 6.00 Build 0)  -->
<svg version="1.1" id="Слой_1" xmlns="http://www.w3.org/2000/svg" xmlns:xlink="http://www.w3.org/1999/xlink" x="0px" y="0px"
	 viewBox="0 0 300 300" style="enable-background:new 0 0 300 300;" xml:space="preserve">
<style type="text/css">
	.st0{fill:#FFA229;}
	.st1{fill:#768296;}
	.st2{fill:#AEBFCE;}
	.st3{fill:#1C4670;}
	.st4{fill:#FFFFFF;}
	.st5{fill:#FCD751;}
</style>
<g>
	<g>
		<rect x="156.2" y="182.1" class="st0" width="12.3" height="14.8"/>
		<polygon class="st0" points="174.3,183.3 150.5,183.3 162.4,167.7 162.4,167.7 		"/>
	</g>
	<g>
		<rect x="227.7" y="126.6" class="st0" width="9.9" height="11.8"/>
		<polygon class="st0" points="242.2,127.5 223.2,127.5 232.7,115 232.7,115 		"/>
	</g>
	<g>
		<rect x="181.5" y="46.2" class="st0" width="5.9" height="7.1"/>
		<polygon class="st0" points="190.1,46.7 178.7,46.7 184.4,39.3 184.4,39.3 		"/>
	</g>
	<g>
		
			<rect x="184" y="145.7" transform="matrix(0.7949 -0.6067 0.6067 0.7949 -51.0353 153.373)" class="st1" width="34.7" height="13"/>
	</g>
	<g>
		
			<rect x="199.9" y="57.2" transform="matrix(0.8367 -0.5477 0.5477 0.8367 -12.0772 126.7163)" class="st1" width="13" height="52.7"/>
	</g>
	<path class="st2" d="M176,144.7c-21-6.8-43.5,4.8-50.2,25.7c-6.8,21,4.7,43.5,25.7,50.2c21,6.8,43.5-4.8,50.2-25.7
		C208.5,174,197,151.5,176,144.7z M156.7,204.3c-11.9-3.9-18.5-16.7-14.7-28.6c3.9-11.9,16.7-18.5,28.6-14.7
		c12,3.9,18.5,16.7,14.7,28.6C181.5,201.6,168.7,208.2,156.7,204.3z"/>
	<path class="st2" d="M241.8,99.5c-15.7-5.1-32.6,3.6-37.6,19.3c-5.1,15.7,3.6,32.6,19.3,37.6c15.7,5.1,32.6-3.6,37.6-19.3
		C266.2,121.4,257.6,104.5,241.8,99.5z M227.4,144.1c-8.9-2.9-13.9-12.5-11-21.4c2.9-9,12.5-13.9,21.4-11c9,2.9,13.9,12.5,11,21.4
		C246,142.1,236.4,147,227.4,144.1z"/>
	<path class="st2" d="M188.9,27.4c-10.3-2.5-20.6,3.8-23.1,14.1c-2.5,10.3,3.8,20.6,14.1,23c10.3,2.5,20.6-3.8,23.1-14.1
		C205.5,40.2,199.2,29.9,188.9,27.4z M181.9,56.6c-5.8-1.4-9.4-7.3-8-13.1c1.4-5.8,7.3-9.4,13.1-8c5.8,1.4,9.4,7.3,8,13.1
		C193.6,54.4,187.7,58,181.9,56.6z"/>
	<g>
		<path class="st3" d="M153.8,230.4c0,10.6-8.7,19.3-19.3,19.3H63.6c-10.6,0-19.3-8.7-19.3-19.3V62.8c0-10.6,8.7-19.3,19.3-19.3
			h70.9c10.6,0,19.3,8.7,19.3,19.3V230.4z"/>
		<rect x="55.5" y="70.8" class="st4" width="87.1" height="138.6"/>
		<path class="st4" d="M115.7,57.4c0,1.5-1.2,2.7-2.7,2.7H85c-1.5,0-2.7-1.2-2.7-2.7l0,0c0-1.5,1.2-2.7,2.7-2.7H113
			C114.5,54.7,115.7,55.9,115.7,57.4L115.7,57.4z"/>
		<g>
			<path class="st4" d="M99,239.6c-5.8,0-10.5-4.7-10.5-10.5c0-5.8,4.7-10.5,10.5-10.5c5.8,0,10.5,4.7,10.5,10.5
				C109.6,234.9,104.8,239.6,99,239.6z M99,222c-3.9,0-7.1,3.2-7.1,7.1c0,3.9,3.2,7.1,7.1,7.1c3.9,0,7.1-3.2,7.1-7.1
				C106.1,225.2,102.9,222,99,222z"/>
		</g>
	</g>
	<g>
		<rect x="87.2" y="109.1" class="st1" width="23.7" height="43.4"/>
		<polygon class="st1" points="121.9,111.3 76.1,111.3 99,81.2 99,81.2 		"/>
	</g>
	<g>
		<path class="st3" d="M103.5,145.5c0,0.7-0.5,1.3-1,1.2l-5.1-0.2c-0.5,0-0.9-0.6-0.9-1.4l0.2-4.1c0-0.7,0.5-1.3,1-1.2l5,0.3
			c0.5,0,0.9,0.6,0.9,1.3L103.5,145.5z"/>
		<path class="st3" d="M101.5,185.1c0-0.7-0.4-1.3-0.9-1.3l-5.1-0.3c-0.5,0-1,0.5-1,1.2l-0.2,4.1c0,0.7,0.4,1.3,0.9,1.3l5.1,0.3
			c0.5,0,1-0.5,1-1.2L101.5,185.1z"/>
		<path class="st3" d="M93.1,145.9c0.3,0.6,0.2,1.4-0.3,1.6l-4.5,2.3c-0.5,0.2-1.1-0.1-1.4-0.7l-1.9-3.6c-0.3-0.6-0.2-1.3,0.3-1.6
			l4.5-2.3c0.5-0.2,1.1,0.1,1.4,0.7L93.1,145.9z"/>
		<path class="st3" d="M111.2,181.2c-0.3-0.6-1-1-1.4-0.7l-4.5,2.3c-0.5,0.2-0.6,1-0.3,1.6l1.9,3.6c0.3,0.6,1,1,1.5,0.7l4.5-2.3
			c0.5-0.2,0.6-0.9,0.3-1.6L111.2,181.2z"/>
		<path class="st3" d="M84.2,151.4c0.6,0.4,0.9,1.1,0.6,1.5l-2.8,4.3c-0.3,0.4-1,0.5-1.6,0.1L77,155c-0.6-0.4-0.9-1.1-0.6-1.5
			l2.7-4.3c0.3-0.4,1-0.5,1.6-0.1L84.2,151.4z"/>
		<path class="st3" d="M117.6,173c-0.6-0.4-1.3-0.3-1.6,0.1l-2.7,4.3c-0.3,0.4,0,1.1,0.6,1.5l3.4,2.2c0.6,0.4,1.3,0.4,1.6-0.1
			l2.7-4.2c0.3-0.4,0-1.1-0.6-1.5L117.6,173z"/>
		<path class="st3" d="M79.4,160.6c0.7,0,1.3,0.5,1.3,1l-0.3,5.1c0,0.5-0.6,0.9-1.3,0.9l-4.1-0.2c-0.7,0-1.3-0.5-1.2-1l0.3-5.1
			c0-0.5,0.6-0.9,1.3-0.9L79.4,160.6z"/>
		<path class="st3" d="M119,162.7c-0.7,0-1.3,0.3-1.4,0.9l-0.3,5c0,0.5,0.5,1,1.3,1l4.1,0.2c0.7,0,1.3-0.4,1.3-0.9l0.3-5.1
			c0-0.5-0.5-1-1.2-1L119,162.7z"/>
		<path class="st3" d="M79.8,171.1c0.6-0.3,1.3-0.2,1.6,0.3l2.3,4.5c0.2,0.5-0.1,1.1-0.7,1.4l-3.6,1.9c-0.6,0.3-1.3,0.2-1.6-0.3
			l-2.3-4.5c-0.2-0.5,0.1-1.1,0.7-1.4L79.8,171.1z"/>
		<path class="st3" d="M115.1,153c-0.6,0.3-1,1-0.7,1.4l2.3,4.5c0.2,0.5,1,0.6,1.6,0.3l3.6-1.9c0.6-0.3,1-1,0.7-1.4l-2.3-4.5
			c-0.2-0.5-1-0.6-1.6-0.3L115.1,153z"/>
		<path class="st3" d="M85.3,179.9c0.4-0.6,1.1-0.9,1.5-0.6l4.2,2.7c0.4,0.3,0.5,1,0.1,1.6l-2.2,3.4c-0.4,0.6-1.1,0.9-1.5,0.6
			l-4.2-2.8c-0.4-0.3-0.5-1-0.1-1.6L85.3,179.9z"/>
		<path class="st3" d="M106.9,146.6c-0.4,0.6-0.3,1.3,0.1,1.6l4.3,2.7c0.4,0.3,1.1,0,1.5-0.6l2.2-3.4c0.4-0.6,0.3-1.3-0.1-1.6
			l-4.2-2.8c-0.4-0.3-1.1,0-1.5,0.6L106.9,146.6z"/>
		<path class="st3" d="M100.1,143.8c-11.8-0.6-21.8,8.5-22.4,20.2c-0.6,11.8,8.4,21.8,20.2,22.4c11.8,0.6,21.8-8.5,22.4-20.2
			C120.9,154.4,111.9,144.4,100.1,143.8z M98.3,179.1c-7.8-0.4-13.7-7-13.3-14.7c0.4-7.7,7-13.7,14.7-13.3c7.7,0.4,13.7,7,13.3,14.7
			C112.6,173.6,106.1,179.5,98.3,179.1z"/>
	</g>
	<g>
		<g>
			<path class="st5" d="M115.8,165.1c0,9.3-7.5,16.8-16.8,16.8c-9.3,0-16.8-7.5-16.8-16.8c0-9.3,7.5-16.8,16.8-16.8
				C108.3,148.3,115.8,155.8,115.8,165.1z"/>
			<path class="st0" d="M112.4,165.1c0,7.4-6,13.4-13.4,13.4c-7.4,0-13.4-6-13.4-13.4c0-7.4,6-13.4,13.4-13.4
				C106.4,151.7,112.4,157.7,112.4,165.1z"/>
			<path class="st5" d="M109.9,165.1c0,6-4.9,10.9-10.9,10.9c-6,0-10.9-4.9-10.9-10.9c0-6,4.9-10.9,10.9-10.9
				C105,154.2,109.9,159.1,109.9,165.1z"/>
			<g>
				<path class="st0" d="M98,172c-0.7,0-1.4-0.1-1.9-0.2c-0.5-0.1-1-0.3-1.3-0.4l0.7-2.2c0.2,0.1,0.6,0.3,1,0.4
					c0.4,0.1,0.9,0.2,1.5,0.3V166c-0.4-0.2-0.8-0.4-1.2-0.6c-0.4-0.2-0.7-0.5-1-0.8c-0.3-0.3-0.5-0.7-0.7-1.1
					c-0.2-0.4-0.3-0.9-0.3-1.5c0-1.1,0.3-1.9,0.9-2.5c0.6-0.6,1.4-1,2.3-1.2v-1.7h2v1.7c0.6,0,1,0.1,1.5,0.2
					c0.4,0.1,0.8,0.3,1.2,0.4l-0.7,2.1c-0.2-0.1-0.5-0.2-0.8-0.3c-0.3-0.1-0.7-0.2-1.1-0.2v3.6c0.4,0.2,0.8,0.4,1.2,0.6
					c0.4,0.2,0.8,0.5,1.1,0.8c0.3,0.3,0.6,0.7,0.8,1.1c0.2,0.4,0.3,0.9,0.3,1.5c0,1.2-0.3,2.1-0.9,2.7c-0.6,0.7-1.4,1.1-2.4,1.3v1.8
					h-2V172z M97.2,161.8c0,0.4,0.1,0.7,0.4,1c0.3,0.3,0.7,0.5,1.1,0.7v-3.1c-0.6,0-1,0.2-1.2,0.4C97.4,161.1,97.2,161.4,97.2,161.8
					z M100.8,168.2c0-0.4-0.2-0.7-0.5-1c-0.3-0.3-0.7-0.5-1.2-0.7v3.3c0.6-0.1,1-0.2,1.3-0.5C100.7,169,100.8,168.6,100.8,168.2z"/>
			</g>
		</g>
	</g>
</g>
<g>
</g>
<g>
</g>
<g>
</g>
<g>
</g>
<g>
</g>
<g>
</g>
<g>
</g>
<g>
</g>
<g>
</g>
<g>
</g>
<g>
</g>
<g>
</g>
<g>
</g>
<g>
</g>
<g>
</g>
</svg>
