<?xml version="1.0" encoding="utf-8"?>
<!-- Generator: Adobe Illustrator 20.1.0, SVG Export Plug-In . SVG Version: 6.00 Build 0)  -->
<svg version="1.1" id="Слой_1" xmlns="http://www.w3.org/2000/svg" xmlns:xlink="http://www.w3.org/1999/xlink" x="0px" y="0px"
	 viewBox="0 0 300 300" style="enable-background:new 0 0 300 300;" xml:space="preserve">
<style type="text/css">
	.st0{fill:#DA4643;}
	.st1{fill:#CE2729;}
	.st2{fill:#E3C08A;}
	.st3{fill:#C8A679;}
	.st4{fill:#F3F5FA;}
	.st5{fill:#C7C8CC;}
	.st6{fill:#C2A077;}
</style>
<g>
	<g>
		<g>
			<path class="st0" d="M270.1,142.1c0,68.6-55.6,124.1-124.1,124.1c-68.5,0-124.1-55.6-124.1-124.1C21.8,73.6,77.4,18,146,18
				C214.5,18,270.1,73.6,270.1,142.1z"/>
		</g>
	</g>
</g>
<g>
	<path class="st0" d="M22.4,130.9c0.3-3.3,0.7-6.5,1.2-9.6C23.1,124.4,22.6,127.6,22.4,130.9z"/>
	<path class="st0" d="M22.1,133.5c0-0.5,0.1-1.1,0.1-1.6C22.2,132.4,22.2,133,22.1,133.5z"/>
	<path class="st0" d="M22,136.3c0-0.5,0-0.9,0.1-1.4C22,135.4,22,135.8,22,136.3z"/>
	<path class="st0" d="M21.9,139.2c0-0.4,0-0.7,0-1.1C21.9,138.5,21.9,138.8,21.9,139.2z"/>
	<path class="st1" d="M21.9,138.1c0-0.6,0-1.2,0.1-1.8C22,136.9,21.9,137.5,21.9,138.1z"/>
	<path class="st1" d="M22.1,134.9c0-0.5,0.1-0.9,0.1-1.4C22.1,134,22.1,134.4,22.1,134.9z"/>
	<path class="st1" d="M21.8,142.1c0-1,0-2,0-2.9C21.9,140.2,21.8,141.2,21.8,142.1z"/>
	<path class="st1" d="M22.3,131.9c0-0.3,0.1-0.7,0.1-1C22.3,131.2,22.3,131.5,22.3,131.9z"/>
	<path class="st1" d="M23.6,121.2C23.6,121.2,23.6,121.2,23.6,121.2C23.6,121.2,23.6,121.2,23.6,121.2L23.6,121.2z"/>
	<g>
		<path class="st0" d="M21.9,138.1c0-0.6,0-1.2,0.1-1.8c0-0.5,0-0.9,0.1-1.4c0-0.5,0.1-0.9,0.1-1.4c0-0.5,0.1-1.1,0.1-1.6
			c-0.3,3.4-0.4,6.8-0.4,10.3c0-1,0-2,0-2.9C21.9,138.8,21.9,138.5,21.9,138.1z"/>
		<path class="st0" d="M22.4,130.9c0.3-3.2,0.7-6.4,1.2-9.6C23.1,124.4,22.7,127.6,22.4,130.9z"/>
		<path class="st0" d="M21.9,145.5c0-0.1,0-0.2,0-0.3C21.9,145.4,21.9,145.5,21.9,145.5z"/>
		<path class="st1" d="M23.6,121.2C23.6,121.2,23.6,121.2,23.6,121.2C23.6,121.3,23.6,121.3,23.6,121.2
			C23.6,121.2,23.6,121.2,23.6,121.2L23.6,121.2z"/>
		<path class="st1" d="M21.9,145.3c0-1,0-2.1,0-3.1C21.8,143.2,21.9,144.2,21.9,145.3z"/>
		<path class="st1" d="M22.4,130.9c0,0.3-0.1,0.7-0.1,1c0,0,0,0,0,0C22.3,131.5,22.3,131.2,22.4,130.9
			C22.4,130.9,22.4,130.9,22.4,130.9z"/>
		<path class="st1" d="M189.1,149.4L154.4,132l8.5-13.6l11-16.5l-3.2-34.6l-29.3,8.2l-20-16l-97.8,61.7c0,0,0,0,0,0.1
			c-0.5,3.2-0.9,6.4-1.2,9.6c0,0.3-0.1,0.7-0.1,1c0,0.5-0.1,1.1-0.1,1.6c0,0.5-0.1,0.9-0.1,1.4c0,0.5-0.1,0.9-0.1,1.4
			c0,0.6,0,1.2-0.1,1.8c0,0.4,0,0.7,0,1.1c0,1,0,2,0,2.9c0,1,0,2.1,0,3.1c0,0.1,0,0.2,0,0.3c1.8,66.9,56.5,120.5,123.7,120.7
			l65.4-42.1L189.1,149.4z"/>
	</g>
</g>
<g>
	<rect x="93.8" y="128.6" class="st2" width="117.2" height="95.6"/>
	<polygon class="st3" points="203.5,113.4 203.4,113.4 203.3,113.2 152.4,113.3 101.5,113.2 101.4,113.4 101.3,113.4 93.8,128.6 
		211,128.6 	"/>
	<rect x="144.2" y="128.6" class="st4" width="16.4" height="39.6"/>
	<polygon class="st5" points="158.3,113.3 157.3,113.3 147.5,113.3 146.5,113.3 144.2,128.6 160.6,128.6 	"/>
	<rect x="176.9" y="214.1" class="st6" width="27.3" height="5.4"/>
	<g>
		<g>
			<polygon class="st6" points="188.9,195.7 184.6,191.3 180.1,195.7 181.5,195.7 181.5,212.6 187.6,212.6 187.6,195.7 			"/>
			<polygon class="st6" points="200.9,199.9 197.6,196.5 194.3,199.9 195.3,199.9 195.3,212.6 199.9,212.6 199.9,199.9 			"/>
		</g>
	</g>
	<rect x="97.9" y="136.1" class="st6" width="18.7" height="3.6"/>
	<rect x="120" y="136.1" class="st6" width="14.3" height="3.6"/>
	<rect x="97.9" y="143.6" class="st6" width="10.5" height="3.6"/>
	<rect x="123.8" y="143.6" class="st6" width="10.5" height="3.6"/>
	<rect x="110.9" y="143.6" class="st6" width="10.5" height="3.6"/>
</g>
<g>
	<rect x="116.9" y="68.8" class="st2" width="71.1" height="58"/>
	<polygon class="st3" points="183.4,59.5 183.3,59.5 183.3,59.4 152.4,59.5 121.5,59.4 121.5,59.5 121.4,59.5 116.9,68.7 
		187.9,68.7 	"/>
	<rect x="147.4" y="68.8" class="st4" width="9.9" height="24"/>
	<polygon class="st5" points="156,59.5 155.4,59.5 149.4,59.5 148.8,59.5 147.4,68.7 157.4,68.7 	"/>
	<rect x="167.2" y="120.6" class="st6" width="16.5" height="3.3"/>
	<g>
		<g>
			<polygon class="st6" points="174.6,109.4 171.9,106.7 169.2,109.4 170,109.4 170,119.7 173.7,119.7 173.7,109.4 			"/>
			<polygon class="st6" points="181.8,112 179.8,109.9 177.8,112 178.4,112 178.4,119.7 181.2,119.7 181.2,112 			"/>
		</g>
	</g>
	<rect x="119.4" y="73.3" class="st6" width="11.4" height="2.2"/>
	<rect x="132.7" y="73.3" class="st6" width="8.7" height="2.2"/>
	<rect x="119.4" y="77.8" class="st6" width="6.3" height="2.2"/>
	<rect x="135.1" y="77.8" class="st6" width="6.3" height="2.2"/>
	<rect x="127.2" y="77.8" class="st6" width="6.3" height="2.2"/>
</g>
<g>
</g>
<g>
</g>
<g>
</g>
<g>
</g>
<g>
</g>
<g>
</g>
<g>
</g>
<g>
</g>
<g>
</g>
<g>
</g>
<g>
</g>
<g>
</g>
<g>
</g>
<g>
</g>
<g>
</g>
</svg>
