<?xml version="1.0" encoding="utf-8"?>
<!-- Generator: Adobe Illustrator 20.1.0, SVG Export Plug-In . SVG Version: 6.00 Build 0)  -->
<svg version="1.1" id="Слой_1" xmlns="http://www.w3.org/2000/svg" xmlns:xlink="http://www.w3.org/1999/xlink" x="0px" y="0px"
	 viewBox="0 0 300 300" style="enable-background:new 0 0 300 300;" xml:space="preserve">
<style type="text/css">
	.st0{fill:#3F4D50;}
	.st1{fill:#2F383A;}
	.st2{fill:#FDFCEA;}
	.st3{fill:#00A4A1;}
	.st4{fill:#F39225;}
	.st5{fill:#F4F4F4;}
	.st6{fill:#F9F6EC;}
	.st7{fill:#C4D8D1;}
</style>
<path class="st0" d="M285,150c0,74.6-60.5,135-135,135c-74.6,0-135-60.5-135-135C15,75.4,75.4,15,150,15C224.6,15,285,75.4,285,150z
	"/>
<g>
	<path class="st0" d="M16.7,171.6c-0.8-5.2-1.3-10.3-1.6-15.5C15.3,161.3,15.9,166.5,16.7,171.6z"/>
	<path class="st0" d="M15.1,155.3c0-0.7-0.1-1.5-0.1-2.2C15,153.9,15,154.6,15.1,155.3z"/>
	<path class="st1" d="M15.1,156.1c0-0.3,0-0.5,0-0.8C15.1,155.6,15.1,155.8,15.1,156.1z"/>
	<path class="st1" d="M15,153.1c0-1,0-2.1,0-3.1C15,151,15,152.1,15,153.1z"/>
	<path class="st1" d="M196.9,110.1L99.3,85.5l-22.6,16.2L61,100.2l-46,49.3c0,0.1,0,0.3,0,0.4c0,1,0,2.1,0,3.1c0,0.7,0,1.5,0.1,2.2
		c0,0.3,0,0.5,0,0.8c0.2,5.1,0.8,10.3,1.6,15.5c9.7,60.7,59.9,107.9,122.1,113l114-92L196.9,110.1z"/>
</g>
<g>
	<g>
		<ellipse class="st2" cx="79.8" cy="196.5" rx="8.4" ry="9.2"/>
		<ellipse class="st2" cx="210.5" cy="195.9" rx="8.5" ry="9.5"/>
		<polygon class="st3" points="200,119.4 200,154.3 229.3,152.3 229.6,148.3 221.6,122.5 		"/>
		<rect x="232.9" y="174.9" class="st4" width="15.4" height="9.1"/>
		<g>
			<g>
				<path class="st4" d="M179.4,98.6H62.6c-2.5,0-4.5,2-4.5,4.5v66.7c0,2.5,2,4.5,4.5,4.5h116.8c2.5,0,4.5-2,4.5-4.5v-66.7
					C183.9,100.6,181.9,98.6,179.4,98.6z"/>
				<g>
					<g>
						<path class="st3" d="M209.5,177.2c-10.5,0-19,8.5-19,19c0,10.5,8.5,19,19,19c10.5,0,19-8.5,19-19
							C228.5,185.7,220,177.2,209.5,177.2z M213.3,200.4c-1,0.9-2.4,1.5-3.8,1.5c-1.5,0-2.8-0.6-3.8-1.5c-1.1-1-1.8-2.5-1.8-4.2
							c0-0.4,0-0.7,0.1-1c0.5-2.6,2.8-4.6,5.6-4.6c2.8,0,5.1,2,5.6,4.6c0.1,0.3,0.1,0.7,0.1,1C215.1,197.9,214.4,199.4,213.3,200.4z
							"/>
						<path class="st3" d="M80.4,177.2L80.4,177.2c-9.5,0-17.2,6.8-18.8,15.8c-0.2,1.1-0.3,2.1-0.3,3.2c0,10.5,8.5,19,19,19
							c10.5,0,19-8.5,19-19c0-1.1-0.1-2.2-0.3-3.2C97.6,184.1,89.8,177.3,80.4,177.2z M84.2,200.4c-1,0.9-2.4,1.5-3.8,1.5
							c-1.5,0-2.8-0.6-3.8-1.5c-1.1-1-1.8-2.5-1.8-4.2c0-0.4,0-0.7,0.1-1c0.1-0.8,0.5-1.6,0.9-2.2c1-1.5,2.7-2.4,4.7-2.4
							c1.9,0,3.6,1,4.7,2.4c0.5,0.6,0.8,1.4,0.9,2.2c0.1,0.3,0.1,0.7,0.1,1C86,197.9,85.3,199.4,84.2,200.4z"/>
						<path class="st5" d="M73.5,177.2h-16V193h2.9c0-0.1,0-0.1,0-0.2C61.7,185.5,66.8,179.6,73.5,177.2z"/>
						<path class="st5" d="M248.8,183.1c-0.1-8.7,0.2-17.3-0.2-26c-2.8-1.3-5.6-2.5-8.4-3.8c-1.9-0.9-3.9-1.8-5.8-2.8
							c-0.3-0.1-0.5-0.2-0.7-0.3c-3.9-2.1-3.8-7.4-5.3-11.2c-1.6-6.4-4.1-12.6-5.7-19c-1-4-1.6-8.1-1.2-12.4
							c-11.3-0.2-22.6-0.1-33.9,0c0,0-0.1,0-0.1,0c0,0,0,0,0,0l-0.1-0.1v14l0.1,0c0,18.5-0.2,37.1,0,55.6l-100.3,0
							c6.7,2.4,11.8,8.2,13.1,15.6c0,0.1,0,0.1,0,0.2l87.5,0c2.8-8.8,9.7-17.4,19.7-17.9c11-1.6,21.2,6.8,23.6,17.4
							c7.2,0.1,14.5,0.1,21.7,0.1c0-3,0.1-6.1,0.1-9.2C251.5,183.3,250.2,183.2,248.8,183.1z M202.5,149.1
							c-0.1-8.4-0.2-16.9,0.1-25.3c5.7,0,11.4-0.1,17,0.2c2.2,8.4,4.9,16.6,7.2,25.1C218.7,149.1,210.6,149.1,202.5,149.1z
							 M247.9,183.8c-4.9,0.2-9.9,0.2-14.8,0.1c-0.1-3-0.1-5.9,0-8.8c4.9-0.1,9.8-0.1,14.8,0C248,178,248,180.9,247.9,183.8z"/>
					</g>
				</g>
			</g>
		</g>
	</g>
</g>
<circle class="st3" cx="124.4" cy="124.2" r="46.7"/>
<g>
	<path class="st6" d="M87.6,124.2c0,20.3,16.5,36.8,36.8,36.8V87.4C104.1,87.4,87.6,103.9,87.6,124.2z"/>
	<path class="st7" d="M124.4,87.4V161c20.3,0,36.8-16.5,36.8-36.8C161.2,103.9,144.7,87.4,124.4,87.4z"/>
</g>
<g>
	<circle class="st0" cx="124.4" cy="124.2" r="5.9"/>
	<path class="st0" d="M126.6,115.7c0,0.8-1,1.4-2.2,1.4l0,0c-1.2,0-2.2-0.6-2.2-1.4V94c0-0.8,1-1.4,2.2-1.4l0,0
		c1.2,0,2.2,0.6,2.2,1.4V115.7z"/>
	<path class="st0" d="M105.3,137.7c-1.2,0.6-2.7,0-3.4-1.3l0,0c-0.6-1.3-0.2-2.8,1-3.4l12-5.9c1.2-0.6,2.7,0,3.4,1.3l0,0
		c0.6,1.3,0.2,2.8-1,3.4L105.3,137.7z"/>
</g>
<g>
</g>
<g>
</g>
<g>
</g>
<g>
</g>
<g>
</g>
<g>
</g>
<g>
</g>
<g>
</g>
<g>
</g>
<g>
</g>
<g>
</g>
<g>
</g>
<g>
</g>
<g>
</g>
<g>
</g>
</svg>
