<?xml version="1.0" encoding="utf-8"?>
<!-- Generator: Adobe Illustrator 20.1.0, SVG Export Plug-In . SVG Version: 6.00 Build 0)  -->
<svg version="1.1" id="Слой_1" xmlns="http://www.w3.org/2000/svg" xmlns:xlink="http://www.w3.org/1999/xlink" x="0px" y="0px"
	 viewBox="0 0 480 480" style="enable-background:new 0 0 480 480;" xml:space="preserve">
<style type="text/css">
	.st0{fill:#D6705B;}
	.st1{fill:#EFF7FD;}
	.st2{fill:#DD9134;}
	.st3{fill:#828282;}
	.st4{fill:#3D4A5D;}
	.st5{fill:#EFBFA5;}
	.st6{fill:#BABCBE;}
	.st7{fill:#D67086;}
	.st8{fill:#292949;}
	.st9{fill:#5D66D3;}
	.st10{fill:#EED5D5;}
	.st11{fill:#9EB79C;}
	.st12{fill:#B0C0BA;}
	.st13{fill:#8CABEF;}
	.st14{fill:#353A85;}
	.st15{fill:#3B3387;}
	.st16{fill:#DDDAE8;}
	.st17{fill:#474EBB;}
	.st18{opacity:0.13;}
	.st19{clip-path:url(#SVGID_2_);fill:#000100;}
	.st20{opacity:0.11;}
	.st21{clip-path:url(#SVGID_4_);fill:#000100;}
	.st22{fill:#C1A279;}
	.st23{fill:#DFBC86;}
	.st24{fill:#3D5060;}
	.st25{fill:#212122;}
	.st26{fill:#F0D069;}
	.st27{fill:#2C2D2C;}
	.st28{fill:#8B8B8B;}
	.st29{fill:#F0F0F0;}
	.st30{fill:#63A6DC;}
	.st31{fill:#181717;}
	.st32{fill:#C2C2C2;}
	.st33{fill:#B8B8B8;}
	.st34{fill:#E5E4E4;}
</style>
<rect x="282.6" y="71.9" class="st0" width="165.8" height="226.8"/>
<rect x="290" y="79.1" class="st1" width="150.8" height="210"/>
<path class="st2" d="M397.2,72h-25.5c0.9-1.2,1.5-2.5,1.8-4.1c0.7-4.7-2.6-9.2-7.3-9.9c-4.7-0.7-9.2,2.6-9.9,7.3
	c-0.4,2.5,0.4,4.9,1.8,6.7h-24v18h63.2V72z M365.6,61.3c3,0.4,4.9,3.1,4.5,6.1c-0.4,3-3.1,4.9-6.1,4.5c-3-0.4-4.9-3.1-4.5-6.1
	C359.9,62.8,362.6,60.9,365.6,61.3z"/>
<path class="st3" d="M419.7,129.7c0,1.5-0.5,2.7-1.2,2.7l-57.1,0.4c-0.6,0-1.2-1.2-1.2-2.7l0,0c0-1.5,0.5-2.7,1.2-2.7l57.1-0.4
	C419.2,127,419.7,128.1,419.7,129.7L419.7,129.7z"/>
<path class="st3" d="M419.8,137.8c0,1.5-0.6,2.7-1.3,2.7l-66.8,0.5c-0.7,0-1.3-1.2-1.3-2.7l0,0c0-1.5,0.6-2.7,1.3-2.7l66.8-0.5
	C419.2,135.1,419.8,136.4,419.8,137.8L419.8,137.8z"/>
<path class="st3" d="M420.7,244.7c0,1.4-0.6,2.6-1.3,2.6l-66.8,0.5c-0.7,0-1.3-1.2-1.3-2.5l0,0c0-1.4,0.6-2.6,1.3-2.6l66.8-0.5
	C420,242.2,420.7,243.4,420.7,244.7L420.7,244.7z"/>
<path class="st3" d="M420.8,253.6c0,1.4-0.6,2.6-1.3,2.6l-66.8,0.5c-0.7,0-1.3-1.2-1.3-2.5l0,0c0-1.4,0.6-2.6,1.3-2.6l66.8-0.5
	C420.1,251.1,420.8,252.2,420.8,253.6L420.8,253.6z"/>
<path class="st3" d="M420.2,188.7c0,1.2-0.6,2.1-1.3,2.1l-66.8,0.5c-0.7,0-1.3-1-1.3-2.1l0,0c0-1.2,0.6-2.1,1.3-2.1l66.8-0.5
	C419.6,186.5,420.2,187.4,420.2,188.7L420.2,188.7z"/>
<path class="st3" d="M420.3,196.6c0,1.2-0.5,2.1-1.2,2.1l-57.8,0.5c-0.6,0-1.2-1-1.2-2.1l0,0c0-1.2,0.5-2.1,1.2-2.1l57.8-0.5
	C419.8,194.5,420.3,195.4,420.3,196.6L420.3,196.6z"/>
<path class="st3" d="M420.1,180.2c0,1.2-0.5,2.1-1.2,2.1l-57.2,0.4c-0.6,0-1.2-1-1.2-2.1l0,0c0-1.2,0.5-2.1,1.2-2.1L419,178
	C419.6,178,420.1,178.9,420.1,180.2L420.1,180.2z"/>
<path class="st4" d="M334.8,123l-3.9-3.9c-0.4-0.4-1-0.4-1.3,0l-15.3,15l-8.1-7.8c-0.4-0.4-1-0.4-1.3,0l-3.9,3.9
	c-0.4,0.4-0.4,1,0,1.3l12.7,12.4c0.4,0.4,1,0.4,1.3,0l2.9-2.8l0,0l0.4-0.4l0.7-0.6l0,0l15.9-15.7C335.1,124,335.1,123.4,334.8,123z"
	/>
<path class="st4" d="M335.2,182.5l-3.9-3.9c-0.4-0.4-1-0.4-1.3,0l-15.3,15.1l-8.1-7.8c-0.4-0.4-1-0.4-1.3,0l-3.9,3.9
	c-0.4,0.4-0.4,1,0,1.3l12.7,12.4c0.4,0.4,1,0.4,1.3,0l2.9-2.8l0,0l0.4-0.4l0.7-0.6l0,0l15.9-15.7
	C335.7,183.5,335.7,182.9,335.2,182.5z"/>
<path class="st4" d="M335.8,239.5l-3.9-3.9c-0.4-0.4-1-0.4-1.3,0l-15.2,15.1l-8.1-7.8c-0.4-0.4-1-0.4-1.3,0l-3.9,3.9
	c-0.4,0.4-0.4,1,0,1.3l12.7,12.4c0.4,0.4,1,0.4,1.3,0l2.9-2.8l0,0l0.4-0.4l0.7-0.6l0,0l15.9-15.7
	C336.1,240.4,336.1,239.9,335.8,239.5z"/>
<path class="st5" d="M83.9,293.5c3.1-1.6,7.7-1.9,11.5-3.7c1.9-0.9,2-5.1,5.8-3c1.4,0.8,3.7,3,6.4,4.5c3.9,2.2,9.8,2.8,14.9,2.4
	c20.1-1.6,40.3-2.7,60.6-1.9c1.2,0,2.3,0.1,3.4-0.4c1.9-1,2.4-2.9,3.1-4.8c3.3-8.7,6.8-17.1,11.7-25.1c4.4-7.1,9.3-13.7,16.4-18.2
	c7.1-4.4,15.9-5.9,23.4-2.3c5.6,2.7,9.9,7.5,10.3,13.8c0.9,15.6-14.6,25-24.5,34.4c-9.3,8.9-17.3,16.5-26.8,24.6
	c-1.2,1-2.3,1.9-3.8,2.4c-1.5,0.4-3.2,0.3-4.7,0c-20-3.1-39.4-6.6-59.6-5.3c-5.5,0.4-10.3-1.5-15.6-0.5c-3.4,0.6-5.5,3.6-8.7,4.7
	c-3.2,1.1-6.9,2.2-10.3,1.9c-7.4-0.5-14.9-7.9-16.4-15.3C79.9,297.1,81.4,294.8,83.9,293.5"/>
<path class="st6" d="M66,344.9c0,0,4.7,29.8-0.1,43l11.3,0.7l-1.2-47.6L66,344.9z"/>
<path class="st6" d="M76.9,383.3c-3.2,0.3-6.4,0.5-9.6,0.6c-0.5,0-0.5,0.9,0.1,0.8c3.2-0.1,6.4-0.3,9.6-0.6
	C77.4,384.1,77.4,383.3,76.9,383.3"/>
<path class="st6" d="M76.6,378.8c-2.7,0.2-5.5,0.5-8.6,0.7c-0.5,0-0.5,0.9,0.1,0.8c2.9-0.2,5.7-0.5,8.6-0.7
	C77.2,379.6,77.1,378.8,76.6,378.8"/>
<path class="st6" d="M76.4,375c-2.1,0.5-3.4,0.8-8.2,0.5c-0.5,0-0.5,0.8,0.1,0.8c2.8,0.1,5.5-0.1,8.2-0.5
	C76.9,375.7,76.9,374.9,76.4,375"/>
<path class="st6" d="M76.8,369.6c-2.8,0.5-5.6,0.9-8.4,1c-0.5,0-0.5,0.9,0.1,0.8c2.8-0.1,5.6-0.5,8.4-1
	C77.4,370.3,77.3,369.5,76.8,369.6"/>
<path class="st6" d="M76.3,364.7c-2.7,0.3-5.4,0.5-8.2,0.6c-0.5,0-0.5,0.9,0.1,0.8c2.7-0.1,5.5-0.3,8.2-0.6
	C76.9,365.5,76.8,364.7,76.3,364.7"/>
<path class="st6" d="M75.8,359.9c-2.6,0.4-5.3,0.6-8,0.8c-0.5,0-0.5,0.9,0.1,0.8c2.7-0.2,5.3-0.4,8-0.8
	C76.4,360.7,76.3,359.8,75.8,359.9"/>
<path class="st6" d="M75.7,354.4c-2.8,0.5-5.7,0.8-8.5,1c-0.1,0-0.2,0-0.2,0.1c0,0,0,0.1,0,0.1c0,0.2,0.1,0.4,0.1,0.6
	c0,0,0.1,0,0.1,0c2.9-0.2,5.7-0.6,8.5-1C76.3,355.2,76.2,354.3,75.7,354.4"/>
<path class="st6" d="M75.8,348.9c-2.8,0.3-5.6,0.5-8.4,0.8c-0.5,0-0.5,0.9,0.1,0.8c2.8-0.3,5.6-0.5,8.4-0.8
	C76.3,349.7,76.3,348.9,75.8,348.9"/>
<path class="st7" d="M260.6,443.3l-202.7,6.5c-0.3,0-0.5-0.2-0.5-0.5l-1.1-33.9c0-0.3,0.2-0.5,0.5-0.5l202.7-6.5
	c0.3,0,0.5,0.2,0.5,0.5l1.1,33.9C261,443.1,260.8,443.3,260.6,443.3"/>
<polygon class="st8" points="93.6,448.7 72.3,449.4 71.1,414.5 92.4,413.8 "/>
<polygon class="st8" points="103.2,448.4 98.5,448.5 97.4,413.7 102.1,413.5 "/>
<path class="st8" d="M120.7,430.4c0.1,3.4-2.5,6.3-5.8,6.4c-3.3,0.1-6.1-2.6-6.2-6c-0.1-3.4,2.5-6.3,5.8-6.4
	C117.8,424.3,120.6,427,120.7,430.4"/>
<path class="st9" d="M261.1,408.8l-202.7,6.5c-0.3,0-0.5-0.2-0.5-0.5L57,387.7c0-0.3,0.2-0.5,0.5-0.5l202.7-6.5
	c0.3,0,0.5,0.2,0.5,0.5l0.9,27.1C261.6,408.6,261.4,408.8,261.1,408.8"/>
<polygon class="st10" points="83.2,394.4 83.6,406.6 89.8,400.9 "/>
<polygon class="st10" points="91.4,395.3 91.7,405.1 96.7,400.6 "/>
<polygon class="st10" points="69.9,415 68.9,415 68,386.9 68.9,386.9 "/>
<polygon class="st10" points="74.2,414.8 73.3,414.8 72.3,386.8 73.3,386.7 "/>
<path class="st10" d="M126.5,77.9l-14.6,4.6l0.4-3.4c1.1-10.4,0-23-2.5-33.1l0.6-0.6L124,34.6L126.5,77.9z"/>
<polygon class="st11" points="208.9,76.6 125.3,76 111.5,82.3 202,83.2 "/>
<path class="st12" d="M111.3,81.4c2.5-0.5,4.8-2,7.2-3.2c2.2-1.1,4.4-2.2,6.6-3.2c0.3-0.2,0.6,1,0.2,1.1c-2.4,1.2-4.8,2.3-7.2,3.5
	c-2.2,1.1-4.5,2.5-6.8,3C111,82.6,110.9,81.5,111.3,81.4"/>
<path class="st13" d="M207.5,35.7l-84.2-1.1l0.8,9.3c0.7,7.5,1,15.1,1.1,22.6l0,9.5l83.6,0.6L209,76
	C210.3,62.9,209.8,48.9,207.5,35.7"/>
<path class="st9" d="M136,35.7c-0.2-1.2-2-1.1-1.8,0.1c1.9,12.5,2.2,25.2,0.8,37.7c-0.1,1.2,1.7,1.6,1.8,0.4
	C138.2,61.2,138,48.4,136,35.7"/>
<path class="st5" d="M83.6,131.3l-32.7,6.6l0.9-4.6c2.8-13.9,0.6-30.8-4.7-44.4l1.4-0.8l30.9-14.7L83.6,131.3z"/>
<polygon class="st8" points="266.7,127.2 81.1,128.7 50.1,137.6 251.1,136.2 "/>
<path class="st14" d="M49.7,136.4c5.5-0.8,10.8-2.8,16.1-4.5c5-1.5,9.9-3,14.8-4.5c0.8-0.2,1.2,1.3,0.4,1.5
	c-5.3,1.6-10.7,3.3-16,4.9c-5,1.5-10,3.4-15.2,4.2C49,138.1,48.9,136.5,49.7,136.4"/>
<path class="st14" d="M79.2,75.3c-11.2,4-22.1,9-32.7,15c-1.1,0.6-2.2-1.5-1.1-2.1C56.2,82.2,67.3,77.1,78.6,73
	C79.8,72.6,80.4,74.9,79.2,75.3"/>
<path class="st15" d="M264.8,72.3l-186.9,1l1.6,12.5c1.3,10.1,1.9,20.2,1.8,30.3l-0.2,12.7l185.6-1.5l0.1-0.7
	C270.3,108.8,269.6,90,264.8,72.3z"/>
<path class="st16" d="M246,380.9l-171.5,5.5l-1.4-41.2l171.5-5.5l0.2,0.6C249.1,353.4,249.5,367.5,246,380.9"/>
<rect x="91.3" y="344.3" transform="matrix(0.9995 -3.211243e-02 3.211243e-02 0.9995 -11.6632 3.5052)" class="st14" width="24" height="41.2"/>
<path class="st5" d="M72.2,301.6l-32-3.7l1.3,3.6c3.8,10.8,3.1,24.1-0.7,34.9l1.4,0.6L73,347.4L72.2,301.6z"/>
<polygon class="st8" points="258.1,296.2 70.1,303.8 39.6,298.1 241.1,289.5 "/>
<path class="st14" d="M39.3,299.1c5.3,0.4,10.6,1.7,15.8,2.8c4.9,1,9.8,1.9,14.7,2.9c0.8,0.2,1.1-1.1,0.3-1.2
	c-5.3-1-10.6-2.1-15.9-3.1c-4.9-1-9.9-2.2-14.9-2.6C38.5,297.8,38.5,299.1,39.3,299.1"/>
<path class="st14" d="M72.6,345.7c-11-2.7-21.9-6.2-32.5-10.5c-1.1-0.4-2,1.2-0.9,1.7c10.7,4.3,21.7,7.9,32.9,10.7
	C73.3,347.8,73.8,346,72.6,345.7"/>
<path class="st17" d="M259.6,341.4l-188.1,6l0.5-9.8c0.4-8,0.2-15.9-0.7-23.8l-1.2-10l188-7.6l0.2,0.6
	C263,311.2,263.5,326.7,259.6,341.4"/>
<path class="st13" d="M239.8,293.9l-178.2,5.7c-0.3,0-0.5-0.2-0.5-0.5l-1.4-41.7c0-0.3,0.2-0.5,0.5-0.5l178.2-5.7
	c0.3,0,0.5,0.2,0.5,0.5l1.4,41.7C240.3,293.7,240.1,293.9,239.8,293.9"/>
<path class="st9" d="M262,220.2l-220.3,7.1c-0.3,0-0.5-0.2-0.5-0.5l-1-30.2c0-0.3,0.2-0.5,0.5-0.5L261,189c0.3,0,0.5,0.2,0.5,0.5
	l1,30.2C262.5,220,262.3,220.2,262,220.2"/>
<path class="st7" d="M225.7,190.8l-140.5,4.5l-2-61.6l140.5-4.5l0.6,3.4c3.3,18,3.9,36.5,1.8,54.7L225.7,190.8z"/>
<polygon class="st10" points="128.6,193.5 100.8,194.4 98.7,133.6 126.6,132.7 "/>
<rect x="105.7" y="133.2" transform="matrix(0.9995 -3.211596e-02 3.211596e-02 0.9995 -5.1937 3.7312)" class="st7" width="15.7" height="60.8"/>
<g class="st18">
	<g>
		<defs>
			
				<rect id="SVGID_1_" x="147.1" y="62.2" transform="matrix(5.148831e-02 -0.9987 0.9987 5.148831e-02 13.3142 281.675)" width="15.6" height="143.3"/>
		</defs>
		<clipPath id="SVGID_2_">
			<use xlink:href="#SVGID_1_"  style="overflow:visible;"/>
		</clipPath>
		<polygon class="st19" points="83.2,134.1 223.6,129.5 226.1,145.3 83.3,137.4 		"/>
	</g>
</g>
<path class="st16" d="M62.8,210.7c-2-2.3-4.2-4.3-6.7-6c-1-0.7-1.9,1-0.9,1.7c2.2,1.4,4.1,3.1,5.8,5c-1.7,2.2-3.6,4.2-5.6,6.1
	c-0.9,0.8,0.5,2.1,1.3,1.3c2.2-2.1,4.3-4.3,6.1-6.7C63.2,211.6,63.1,211.1,62.8,210.7"/>
<path class="st16" d="M73.5,209.9c-1.3-1.9-3.7-3.5-5.4-5c-0.9-0.8-2.1,0.6-1.3,1.4c1.4,1.3,3.5,2.7,4.8,4.2
	c-0.7,0.9-1.8,1.7-2.5,2.5c-1,1-1.9,1.9-2.9,2.9c-0.8,0.8,0.5,2.1,1.3,1.3c1.1-1.1,2.3-2.3,3.4-3.4c0.8-0.8,2-1.7,2.6-2.8
	C73.7,210.6,73.7,210.2,73.5,209.9"/>
<path class="st16" d="M79,202.5c-0.9-0.8-2.1,0.5-1.3,1.4c0.5,0.5,1.6,2.2,0.3,2.5c-1.2,0.3-0.6,2.1,0.6,1.8
	c1.2-0.3,1.8-1.4,1.8-2.5C80.5,204.4,79.9,203.3,79,202.5"/>
<path class="st16" d="M89.4,207c-0.3-0.4-0.7-0.4-1-0.4c-1.6-0.7-3.5-0.4-4.6,1c-1.1,1.4-0.8,3.5,0.4,4.8c1.3,1.4,3.5,1.3,4.9,0.1
	C90.6,211.1,90.7,208.6,89.4,207 M87.9,211c-0.7,0.7-1.8,0.7-2.5,0c-1.3-1.6,0.5-3.6,2.2-2.7c0.2,0.1,0.4,0.1,0.5,0.1
	C88.6,209.2,88.6,210.3,87.9,211"/>
<g class="st20">
	<g>
		<defs>
			
				<rect id="SVGID_3_" x="152.4" y="258.2" transform="matrix(5.148831e-02 -0.9987 0.9987 5.148831e-02 -192.8025 487.3357)" width="15.4" height="173.9"/>
		</defs>
		<clipPath id="SVGID_4_">
			<use xlink:href="#SVGID_3_"  style="overflow:visible;"/>
		</clipPath>
		<path class="st21" d="M73,347.4l172.3-5.5c0,0,1.2,4.2,1.7,7l-173.8-0.4L73,347.4z"/>
	</g>
</g>
<path class="st8" d="M251.6,251.2l-220.3,7.1c-0.3,0-0.5-0.2-0.5-0.5l-1-30.2c0-0.3,0.2-0.5,0.5-0.5l220.3-7.1
	c0.3,0,0.5,0.2,0.5,0.5l1,30.2C252.1,250.9,251.9,251.2,251.6,251.2"/>
<rect x="55.9" y="235.4" transform="matrix(0.9995 -3.195336e-02 3.195336e-02 0.9995 -7.6973 1.9616)" class="st16" width="3.3" height="12.8"/>
<rect x="66.3" y="235.1" transform="matrix(0.9995 -3.195653e-02 3.195653e-02 0.9995 -7.6819 2.2962)" class="st16" width="3.3" height="12.8"/>
<path class="st10" d="M262.8,219.6l-221,7.4c-0.7,0-1.2-0.6-1-1.2l221.4-9.2L262.8,219.6z"/>
<path class="st16" d="M262,218.3l-221,7.4c-0.7,0-1.2-0.6-1-1.2l221.4-9.2L262,218.3z"/>
<path class="st6" d="M73.3,139c0,0,7.9,38.8,0.6,55.2l11.3,1.1l-2-61.2L73.3,139z"/>
<path class="st22" d="M413.2,297.5c0.6,0.5,9,20.3,28.6,34.9l-0.6-34.5L413.2,297.5z"/>
<path class="st23" d="M462.2,338.4l-8.9-36.9c0,0-0.6-6.1-5.4-9.4l-47-16.9l10.6,22.5l21.8,6.7c0,0,2.9,0.9,2.6,7.6l0.6,24.8
	c0,0-6.3,7.3-13,7.6l18.9,25.5l15.8-18.3C458.2,351.8,464.2,347.6,462.2,338.4z"/>
<g>
	<path class="st24" d="M376.9,268.4l91.2,99.6c0.6,0.6,1.5,0.7,2.1,0.1l5.7-5.2c0.6-0.5,0.6-1.5,0.1-2.1l-91.2-99.6
		c-0.1-0.1-0.2-0.2-0.3-0.2l-7.7,7.1C376.8,268.2,376.8,268.3,376.9,268.4z"/>
	<path class="st24" d="M473.5,365.1l2.3-2.1c0.6-0.5,0.6-1.5,0.1-2.1l-91.2-99.6c-0.1-0.1-0.2-0.2-0.3-0.2l-2.3,2.1
		c0.1,0,0.1,0.1,0.2,0.2c0,0,0,0,0.1,0.1l91.2,99.6C474.1,363.6,474.1,364.5,473.5,365.1z"/>
	<path class="st24" d="M379.7,265.9l91.2,99.6c0.6,0.6,1.2,1,1.4,0.8l2-1.8c0.2-0.2-0.1-0.8-0.6-1.5l-91.2-99.6c0,0,0,0-0.1-0.1
		c-0.1-0.1-0.1-0.1-0.2-0.2l-2.7,2.5C379.5,265.7,379.6,265.8,379.7,265.9z"/>
</g>
<path class="st23" d="M420.3,344c0,0-5.5,0.8-10.8-7.3c0,0-3.1-4.9-1.5-14.2l0.8-27.1c0,0-0.1-6.1-5.8-8.5c0,0-6.4-2.8-11.4,2.4
	c0,0-3.4,2.8-2.6,11.2l-1.8,47.2c0,0,0.1,12.1,2.5,20.1c0,0,1.8,9.4,3.5,12.4l0.1,4.1l38,0.4v-1.9l11.1-12.8l-18.9-25.5
	C422.5,344.5,421.4,344.4,420.3,344z"/>
<rect x="387.7" y="384.5" class="st25" width="50.2" height="39.6"/>
<path class="st26" d="M384.6,260.7c0,0-14.2-7.7-14.7-7.3c-0.5,0.4,5.9,15.3,5.9,15.3L384.6,260.7z"/>
<path class="st27" d="M375.2,255.7c0,0-5.1-2.6-5.3-2.4c-0.3,0.3,1.9,5.5,1.9,5.5L375.2,255.7z"/>
<path class="st28" d="M349.3,470.7H222.7c-11.4,0-20.7-9.3-20.7-20.7v-99.7c0-18.5,15.1-33.6,33.6-33.6h100.8
	c18.5,0,33.6,15.1,33.6,33.6V450C370,461.4,360.7,470.7,349.3,470.7z"/>
<path class="st29" d="M349.3,466.5H222.7c-11.4,0-20.7-9.3-20.7-20.7v-97.3c0-18.5,15.1-33.6,33.6-33.6h100.8
	c18.5,0,33.6,15.1,33.6,33.6v97.3C370,457.2,360.7,466.5,349.3,466.5z"/>
<path class="st30" d="M370,354.3H202v-5.8c0-18.5,15.1-33.6,33.6-33.6h100.8c18.5,0,33.6,15.1,33.6,33.6V354.3z"/>
<ellipse class="st31" cx="227.2" cy="363.1" rx="3.4" ry="3.5"/>
<ellipse class="st31" cx="227.2" cy="338.1" rx="3.4" ry="3.5"/>
<ellipse class="st31" cx="344.7" cy="363.1" rx="3.4" ry="3.5"/>
<ellipse class="st31" cx="344.7" cy="338.1" rx="3.4" ry="3.5"/>
<path class="st32" d="M227.2,365L227.2,365c-1.6,0-3-1.3-3-3V339c0-1.6,1.3-3,3-3h0c1.6,0,3,1.3,3,3v23.1
	C230.2,363.7,228.8,365,227.2,365z"/>
<path class="st32" d="M344.7,365L344.7,365c-1.6,0-3-1.3-3-3V339c0-1.6,1.3-3,3-3l0,0c1.6,0,3,1.3,3,3v23.1
	C347.6,363.7,346.3,365,344.7,365z"/>
<path class="st33" d="M355.8,424.3l-39.7,41.8c0,0,1.5-7.4,1.5-12c0-2.9-0.6-5.5-0.8-9.7c-0.6-11.8,6.3-14.8,9.5-16.6
	c5-2.7,13.1-0.7,18-1C346.4,426.6,354.3,426.3,355.8,424.3z"/>
<path class="st34" d="M369,421.7l-52.9,44.4c0,0,2.6-8.4,3.1-13.9c0.3-3.4-0.1-6.5,0.1-11.5c0.6-13.9,9.3-16.7,13.4-18.3
	c6.3-2.6,16,0.7,22,0.9C357.2,423.3,366.9,423.8,369,421.7z"/>
<rect x="219.4" y="376.4" class="st32" width="22.4" height="14.5"/>
<rect x="219.4" y="402.2" class="st32" width="22.4" height="14.5"/>
<rect x="255" y="402.2" class="st30" width="22.4" height="14.5"/>
<rect x="290.7" y="402.2" class="st32" width="22.4" height="14.5"/>
<rect x="325.6" y="402.2" class="st32" width="22.4" height="14.5"/>
<rect x="219.4" y="428.1" class="st32" width="22.4" height="14.5"/>
<rect x="255" y="428.1" class="st32" width="22.4" height="14.5"/>
<rect x="290.7" y="428.1" class="st32" width="22.4" height="14.5"/>
<rect x="255" y="376.4" class="st32" width="22.4" height="14.5"/>
<rect x="290.7" y="376.4" class="st32" width="22.4" height="14.5"/>
<rect x="326.3" y="376.4" class="st32" width="22.4" height="14.5"/>
</svg>
