<?xml version="1.0" encoding="utf-8"?>
<!-- Generator: Adobe Illustrator 20.1.0, SVG Export Plug-In . SVG Version: 6.00 Build 0)  -->
<svg version="1.1" id="Слой_1" xmlns="http://www.w3.org/2000/svg" xmlns:xlink="http://www.w3.org/1999/xlink" x="0px" y="0px"
	 viewBox="0 0 540 380" style="enable-background:new 0 0 540 380;" xml:space="preserve">
<style type="text/css">
	.st0{opacity:0.33;fill:#DDCACA;}
	.st1{fill:#B3ADEC;}
	.st2{fill:#78BA9A;}
	.st3{fill:#FFA938;}
	.st4{fill:#E1806D;}
	.st5{fill:#6756AD;}
	.st6{fill:#EFEBEB;}
	.st7{fill:#37366A;}
	.st8{font-family:'Montserrat-Regular';}
	.st9{font-size:5.5542px;}
	.st10{fill:#A43F60;}
	.st11{fill:#F3F4E9;}
	.st12{font-size:4.1372px;}
	.st13{opacity:0.57;}
	.st14{font-size:3.7798px;}
	.st15{fill:none;stroke:#37366A;stroke-width:0.5;stroke-miterlimit:10;}
	.st16{opacity:0.52;}
	.st17{fill:none;stroke:#50C3E2;stroke-width:0.5;stroke-miterlimit:10;}
	.st18{opacity:0.25;fill:#6756AD;}
	.st19{fill:#F5BA9A;}
	.st20{fill:#594656;}
	.st21{fill:#B96944;}
	.st22{fill:#53648C;}
	.st23{fill:#5D95BA;}
	.st24{fill:#8FCAEC;}
	.st25{fill:#F49E78;}
	.st26{fill:#514540;}
	.st27{opacity:0.28;}
	.st28{fill:#F28279;}
</style>
<g>
	<path class="st0" d="M86.6,123.4l102.7-0.3l-26.2-5.3c0,0,1.1-29.4-11.8-23.5c-12.8,5.9-13.4,18.7-13.4,18.7s-4.8-11.8-11.8-7.5
		c-7,4.3-10.2,11.8-10.2,11.8s-2.5-8.5-7-8.9c-3.8-0.4-11.1,7.6-14.9,12.2L86.6,123.4z"/>
	<path class="st0" d="M369.1,171.1l84.8-0.2l-21.6-4c0,0,0.9-21.9-9.7-17.5c-10.6,4.4-11,13.9-11,13.9s-4-8.7-9.7-5.6
		c-5.7,3.2-8.4,8.7-8.4,8.7s-2.1-6.3-5.7-6.6c-3.1-0.3-9.1,5.7-12.3,9L369.1,171.1z"/>
	<path class="st0" d="M231.2,49.7l84.8-0.3L294.4,45c0,0,0.9-24.3-9.7-19.4c-10.6,4.9-11,15.4-11,15.4s-4-9.7-9.7-6.2
		c-5.7,3.5-8.4,9.7-8.4,9.7s-2.1-7-5.7-7.4c-3.1-0.3-9.1,6.3-12.3,10L231.2,49.7z"/>
</g>
<g>
	<path class="st1" d="M380.3,35l-6.4,2.2l-2.8-8.1c-5.2-14.9-21.4-22.7-36.3-17.6C320,16.7,312.1,33,317.3,47.9l2.8,8.1l-6.5,2.2
		c-5,1.7-7.7,7.3-6,12.3l18.2,52.4c1.8,5.1,7.3,7.8,12.4,6.1l66.8-23.2c5.1-1.8,7.8-7.4,6-12.5l-18.2-52.4
		C391,35.9,385.4,33.2,380.3,35z M329.4,43.6c-2.8-8.1,1.5-17.1,9.6-19.9c8.1-2.8,17.1,1.5,19.9,9.6l2.8,8.1l-29.5,10.2L329.4,43.6z
		 M368.1,91.4l4.6,13.4c0.2,0.6-0.1,1.1-0.7,1.3l-6.4,2.2c-0.5,0.2-1.1-0.1-1.3-0.6l-4.6-13.4c-5-0.2-9.6-3.3-11.3-8.3
		c-2.2-6.5,1.2-13.6,7.7-15.8c6.5-2.3,13.6,1.2,15.8,7.7C373.6,82.9,371.9,88.2,368.1,91.4z"/>
	<g>
		<path class="st2" d="M336.2,293.8c-1.6-3.1,2.1-6.4,5.5-7c3.4-0.6,7.3-0.1,10-2.3c3.6-2.9,3.5-9.2,7.5-11.5
			c3.2-1.8,7.5-0.1,10.9-1.5c4.3-1.8,5.5-7.7,9.6-9.7c3.3-1.6,7.7,0.2,9.4,3.5c1.7,3.3,0.9,7.5-1.4,10.3c-1.8,2.2-4.6,3.8-5.7,6.4
			c-1.8,4.1,1,9.2-0.6,13.4c-3,7.8-17.4,5.4-19.9,13.4c-0.6,1.8-0.3,3.7-0.5,5.5c-0.4,5.5-4.3,10.3-9.1,13.1
			c-4.8,2.7-10.4,3.7-15.9,4.1c-2.3,0.2-4.6,0.2-6.6-0.8c-1.9-1-3.2-2.8-4.2-4.6C318.5,314,315.8,298.3,336.2,293.8"/>
	</g>
	<g>
		<path class="st3" d="M230.1,287.5c3.6-2.4,1.6-8.1-1.7-10.8c-3.3-2.7-7.7-4.5-9.3-8.5c-2.2-5.3,1.8-11.9-1.1-16.8
			c-2.3-3.9-8-4.6-10.8-8.2c-3.5-4.5-1.2-11.6-4.4-16.2c-2.6-3.7-8.3-4.4-12.1-1.9c-3.8,2.5-5.5,7.5-4.7,11.9
			c0.6,3.5,2.6,6.8,2.2,10.3c-0.6,5.5-6.6,9.2-7.4,14.7c-1.4,10.1,15.4,16.3,13.3,26.3c-0.5,2.2-1.9,4.1-2.8,6.2
			c-2.9,6.1-1.6,13.6,1.9,19.5c3.5,5.8,8.9,10.2,14.6,13.9c2.3,1.5,4.8,3,7.6,3.1c2.6,0.1,5.1-1,7.3-2.4
			C236.8,319.7,249.2,304.6,230.1,287.5"/>
	</g>
	<g>
		<g>
			<path class="st4" d="M323.4,300.2c5-2.1,9.5-6.1,13.2-10c10-10.3,16.2-23.9,19.5-37.8c3-12.6,3.6-25.6,3-38.5
				c-0.1-1.1-1.8-1.1-1.7,0c1.4,28.9-4.4,64.4-30.2,82c-1.4,1-3,2-4.6,2.7C321.5,299.1,322.4,300.6,323.4,300.2L323.4,300.2z"/>
		</g>
		<path class="st4" d="M356.3,247.6c0,0,1.6-9.4,14.1-10.9C370.4,236.7,365.8,247.8,356.3,247.6z"/>
		<path class="st4" d="M352.2,261.5c0,0,3.8-8.7,16.2-7.3C368.4,254.2,361.4,263.9,352.2,261.5z"/>
		<path class="st4" d="M347,273.7c0,0,5.6-7.7,17.4-3.5C364.4,270.2,355.4,278.1,347,273.7z"/>
		<path class="st4" d="M358.2,233c0,0,1.6-9.2,13.8-10.7C372,222.4,367.6,233.3,358.2,233z"/>
		<path class="st4" d="M358.4,217c0,0-7-6.3-1.7-17.4C356.7,199.7,363.6,209.2,358.4,217z"/>
		<path class="st4" d="M358.4,226.5c0,0-9.2-1.7-10.5-13.9C347.9,212.6,358.7,217.2,358.4,226.5z"/>
		<path class="st4" d="M357.5,240.6c0,0-9.2-1.7-10.5-13.9C347,226.7,357.8,231.2,357.5,240.6z"/>
		<path class="st4" d="M355.1,253.7c0,0-9.1-2.3-9.5-14.6C345.6,239.1,356.1,244.4,355.1,253.7z"/>
		<path class="st4" d="M350.9,266.8c0,0-9.1-2.3-9.5-14.6C341.4,252.2,351.9,257.5,350.9,266.8z"/>
	</g>
	<g>
		<path class="st5" d="M323.3,333.1h-89.9c-11.7,0-21.1-9.5-21.1-21.1V95.1c0-11.7,9.5-21.1,21.1-21.1h89.9
			c11.7,0,21.1,9.5,21.1,21.1V312C344.5,323.7,335,333.1,323.3,333.1z"/>
		<path class="st6" d="M323.6,324h-90.3c-8.2,0-14.8-6.6-14.8-14.8V96.4c0-8.2,6.6-14.8,14.8-14.8h90.3c8.2,0,14.8,6.6,14.8,14.8
			v212.8C338.4,317.4,331.7,324,323.6,324z"/>
		<path class="st5" d="M314.3,81.6h-7.8c-2.4,0-4.3,1.9-4.3,4.3V89c0,2.4-1.9,4.3-4.3,4.3H263c-2.4,0-4.3-1.9-4.3-4.3v-3.1
			c0-2.4-1.9-4.3-4.3-4.3h-22.2v-2.2h82.1V81.6z"/>
		<g>
			<g>
				<g>
					<path class="st7" d="M281.7,119c0.5-0.3,0.9-0.8,0.9-1.4c0-0.9-0.7-1.6-1.6-1.6c-0.9,0-1.6,0.7-1.6,1.6c0,0.6,0.4,1.1,0.9,1.4
						c-1,0.3-1.8,1.3-1.8,2.4v1.3h5v-1.3C283.5,120.2,282.7,119.3,281.7,119z"/>
					<g>
						<text transform="matrix(1 0 0 1 259.4621 131.5566)" class="st7 st8 st9">Create Account</text>
					</g>
				</g>
				<g>
					<path class="st10" d="M301.8,288.4h-48.1c-0.5,0-0.9-0.4-0.9-0.9v-9.4c0-0.5,0.4-0.9,0.9-0.9h48.1c0.5,0,0.9,0.4,0.9,0.9v9.4
						C302.7,288,302.3,288.4,301.8,288.4z"/>
					<g>
						<text transform="matrix(1 0 0 1 269.1476 284.0507)" class="st11 st8 st12">Register</text>
					</g>
				</g>
				<g>
					<g class="st13">
						<text transform="matrix(1 0 0 1 235.3058 146.6196)" class="st7 st8 st14">Email Address</text>
					</g>
					<g>
						<text transform="matrix(1 0 0 1 239.5544 158.957)" class="st7 st8 st14">youremail@gmail.c</text>
					</g>
					<path class="st15" d="M323.9,164.5h-85.8c-1.5,0-2.8-1.2-2.8-2.8v-8.2c0-1.5,1.2-2.8,2.8-2.8h85.8c1.5,0,2.8,1.2,2.8,2.8v8.2
						C326.6,163.3,325.4,164.5,323.9,164.5z"/>
				</g>
				<g>
					<g>
						<g class="st16">
							<text transform="matrix(1 0 0 1 235.3058 177.2455)" class="st7 st8 st14">Country</text>
						</g>
						<g>
							<g>
								<text transform="matrix(1 0 0 1 239.5544 189.4633)" class="st7 st8 st14">Your text</text>
							</g>
							<path class="st15" d="M323.9,195.2h-85.8c-1.5,0-2.8-1.2-2.8-2.8v-8.2c0-1.5,1.2-2.8,2.8-2.8h85.8c1.5,0,2.8,1.2,2.8,2.8v8.2
								C326.6,194,325.4,195.2,323.9,195.2z"/>
						</g>
					</g>
				</g>
				<g>
					<g>
						<g class="st16">
							<text transform="matrix(1 0 0 1 235.3058 209.5815)" class="st7 st8 st14">City</text>
						</g>
						<g>
							<g>
								<text transform="matrix(1 0 0 1 239.5544 221.8007)" class="st7 st8 st14">Your City</text>
							</g>
							<path class="st15" d="M323.9,227.6h-85.8c-1.5,0-2.8-1.2-2.8-2.8v-8.2c0-1.5,1.2-2.8,2.8-2.8h85.8c1.5,0,2.8,1.2,2.8,2.8v8.2
								C326.6,226.3,325.4,227.6,323.9,227.6z"/>
						</g>
					</g>
				</g>
				<g>
					<g>
						<g class="st16">
							<text transform="matrix(1 0 0 1 235.3058 242.0761)" class="st7 st8 st14">Password</text>
						</g>
						<g>
							<g>
								<text transform="matrix(1 0 0 1 239.5544 254.2948)" class="st7 st8 st14">Entry password</text>
							</g>
							<path class="st15" d="M323.9,260.1h-85.8c-1.5,0-2.8-1.2-2.8-2.8v-8.2c0-1.5,1.2-2.8,2.8-2.8h85.8c1.5,0,2.8,1.2,2.8,2.8v8.2
								C326.6,258.8,325.4,260.1,323.9,260.1z"/>
						</g>
					</g>
				</g>
			</g>
			<line class="st17" x1="277" y1="154.4" x2="277" y2="159.3"/>
		</g>
	</g>
</g>
<g>
	<ellipse class="st18" cx="265.4" cy="372.4" rx="58.7" ry="1.9"/>
	<g>
		<path class="st19" d="M271.6,248.1c0,0,5.8,9,7.2,5.1c1.3-3.9,2.1-6.3,2.1-6.3s-1.7-2.7-2.5-1.9c-0.9,0.9-2.1-0.7-2.1-0.7
			L271.6,248.1z"/>
		<g>
			<path class="st19" d="M300.4,201.5l2.4-14c1.6-0.5,3.2-1.7,2.7-3.6c-0.3-0.9-1-1.4-1.9-1.8c-0.3-0.1-2-0.6-2.1,0c0,0,0.9-5,0.9-5
				l-16.4-7.9c0,0-1.5,10.1-1.5,10.2c0-0.2-1.6-0.5-1.8-0.5c-0.8,0.1-1.6,0.9-2,1.6c-0.9,1.9,0.8,4.3,2.9,4.3c0,0,0.3,4.5,1.3,6.1
				c1,1.6,5.9,2.7,5.9,2.7l-0.5,6.1L300.4,201.5z"/>
		</g>
		<g>
			<path class="st3" d="M306,202.6c-7.4-2.1-17.8-3.9-17.8-3.9l-6.9,49.3l29.1-0.9L306,202.6z"/>
		</g>
		<g>
			<path class="st3" d="M306,202.6c9.7,2.5,19.3,4.5,29.2,5.5c-2.2-10.1-3.4-17.8-6.3-26.4c2.8-0.7,8.2-2.1,10.9-2.8
				c0,0,9.2,32,6.4,36.2c-4.7,7.3-28.3,2.5-28.3,2.5l-11.2-2L306,202.6z"/>
		</g>
		<g>
			<path class="st3" d="M256.1,213.5c0,0,31.3-15.3,32.7-14.7c1.4,0.6,2.7,7.7,2.7,7.7s-11.3,7.2-28.9,15.4l15.9,21.7l-7.9,5.7
				c0,0-21.9-24.6-21.1-29.7C250.2,215.5,256.1,213.5,256.1,213.5z"/>
		</g>
		<path class="st19" d="M339.3,179.1c0,0-1.3-9-1.4-9.3c-0.2-0.3-0.2-1.9-2.5-1.5c0,0-0.2-2.9-1.5-2.9c-1.3-0.1-2.8,0.3-2.8,0.3
			s-1.5-7.4-2.5-8.6c-1.1-1.4-2.6,2.3-0.2,11.2c0,0,1.3,6.1,0.9,6.3c-1,0.6-2.5,0.5-4.4-2.9c-2.1-3.6-4.7-2.4-3.4,0.4
			c1.3,2.8,3.1,6.4,4.3,7.4c1.2,1,3.7,0.8,3.7,0.8l0.4,1.2L339.3,179.1z"/>
		<g>
			<path class="st20" d="M310.4,247.1c-3.5,53.3-15.4,119.1-15.4,119.1l11.7,4.9h-24.8l16.3-116.3h-5.6l-41.2,116.4h-24.8l14.1-5.1
				l41.2-121.8L310.4,247.1z"/>
		</g>
		<path class="st21" d="M304.4,182.5c1.4-2.8,3-9.5-1.2-11.4c-2.2-1-4.5-2.4-6.1-3.5c-2.6-1.7-5.8-2.4-8.7-1.6
			c-0.5,0.1-0.9,0.3-1.4,0.5c-2.9,1.4-4.9,9.3-4.9,9.3l2.9,0.7c0,0,3.2,14.3,8.5,17.3l5.3,1.1l3.1,0.7L304.4,182.5z"/>
		<g>
			<g>
				<path class="st21" d="M300.6,170.1c0-0.9,0-1.7-0.1-2.6c0-0.4-0.6-0.4-0.6,0c0.1,0.9,0.1,1.7,0.1,2.6
					C300,170.5,300.6,170.5,300.6,170.1L300.6,170.1z"/>
			</g>
		</g>
		<g>
			<g>
				<path class="st21" d="M300.6,170.2c0.4-0.2,0.5-0.6,0.7-1c0.3-0.5,0.6-0.9,0.9-1.4c0.2-0.3-0.3-0.6-0.5-0.3
					c-0.3,0.3-0.5,0.7-0.7,1c-0.2,0.3-0.3,0.9-0.6,1.1C299.9,169.9,300.2,170.4,300.6,170.2L300.6,170.2z"/>
			</g>
		</g>
	</g>
</g>
<g>
	<ellipse class="st18" cx="140.2" cy="358.3" rx="58.7" ry="1.9"/>
	<g>
		<path class="st20" d="M160.5,154.3c-1.1-0.3-2.1-0.3-3.5-0.4c-2.1-0.2-4,1.2-5.6,2.6c-1.6,1.4-2.7,3.2-3.8,5.1
			c-1.1,1.9-2,4.1-1.4,6.1c0.2,0.5,0.4,1,0.4,1.6c0,1.7-2.4,2.4-3.1,3.9c-0.9,1.9,0.9,4.5-0.3,6.2c-0.6,0.8-1.8,1.1-2.4,2
			c-0.5,0.7-0.4,1.6-0.4,2.4c0,0.2,0,0.4,0.1,0.5c0.1,0.1,0.3,0.1,0.4,0.1c6.7,0.6,13.4-0.8,20.1-0.2c0.8,0.1,1.6,0.2,2.4,0.1
			c1.2-0.1,2.3-0.6,3.3-1.1c5.8-2.7,11.6-3.3,17.3-6.3c0.2-0.1,0.5-0.3,0.6-0.5c0.1-0.2,0.1-0.4,0.1-0.6c-0.2-1.5-1.3-2.9-2.7-3.3
			c-1.5-0.5-3.3-0.1-4.5-1c-0.9-0.7-1.2-1.9-1.3-3c-0.2-2.3,0-4.9-1.6-6.5c-1.3-1.2-3.3-1.4-4.6-2.6c-0.7-0.7-1.1-1.7-1.7-2.5
			C166.5,154.4,163.5,153,160.5,154.3"/>
		<g>
			<path class="st22" d="M149.2,232.1l-37.5,118.7l-14.8,5.7h21.9l42.3-111.8c0.3-0.7,1-1.2,1.7-1.2l0,0c1.1,0,2,1,1.8,2l-11.2,111
				h22.2l-14.8-4.9c0,0,13.8-64.5,16.9-84.7c3.1-20.2-1.4-34.5-1.4-34.5S162.1,227.8,149.2,232.1z"/>
		</g>
		<g>
			<path class="st4" d="M149.7,189.4c3.4-3.6,17.1-4,22-2c4.9,2,14,28.3,14,28.3l-9,3.5l-5.6-21.9l-17.6-2.4L149.7,189.4z"/>
		</g>
		<g>
			<path class="st4" d="M172.7,200.5c0,0,1.5-3.6,1.9-6.4c0.3-2.8-3.5-5.5-3.5-5.5l-20.7,5.4l1.3,12.3l-3,24.9l26.3,1l-2.6-31.5"/>
		</g>
		<g>
			<path class="st23" d="M152,201.2c-0.1,0-0.2,0-0.3-0.1c-0.2-0.1-0.2-0.4-0.1-0.6l1.5-2c0.1-0.2,0.4-0.2,0.6-0.1
				c0.2,0.1,0.2,0.4,0.1,0.6l-1.5,2C152.3,201.1,152.2,201.2,152,201.2z"/>
		</g>
		<g>
			<path class="st24" d="M138.9,235.3c1.6-0.9,3.2-1.8,4.7-2.8"/>
		</g>
		<g>
			<path class="st19" d="M159.4,186.4c-0.3-2.7,1.1-5.5-3.3-7.3c-6.1-2.4-7.4-23.5,3.6-23.6c11,0,10.5,13.9,10.5,18
				c0,4.1-3.7,5.2-4.6,6.7c-0.9,1.5-0.1,6.2-0.1,6.2H159.4z"/>
		</g>
		<g>
			<ellipse class="st19" cx="151" cy="170.4" rx="2.1" ry="2.5"/>
		</g>
		<g>
			<ellipse class="st19" cx="170.8" cy="168.5" rx="2.1" ry="2.5"/>
		</g>
		<path class="st1" d="M216.5,213.2l-3.3-8.3l-92.5,36.3c-3.6-4.8-9.3-8-15.8-8c-10.8,0-19.6,8.8-19.6,19.6
			c0,10.8,8.8,19.6,19.6,19.6s19.6-8.8,19.6-19.6c0-0.8-0.1-1.6-0.1-2.4l70.5-28.5l3.9,8.5l8.6-3.9l-3-6.8l2.8-1.5l3.3,6.5l6.1-3.3
			l-3.4-6.9L216.5,213.2z M104.9,265.6c-7.1,0-12.8-5.7-12.8-12.8c0-7.1,5.7-12.8,12.8-12.8c7.1,0,12.8,5.7,12.8,12.8
			C117.7,259.9,112,265.6,104.9,265.6z"/>
		<g>
			<path class="st4" d="M149.7,189.4c0,0-23.3,20.8-23.5,24.6c-0.1,3.9,13.7,24.1,13.7,24.1l6.9-4.4l-9.7-18.2l15.8-15.1
				c0,0,0.5,3.5,1.8,4.5l0.7-13.9L149.7,189.4z"/>
		</g>
		<path class="st20" d="M167.9,160.4c-3,0.2-16.5,1.5-16.5,1.5s2-8.1,8.2-8.4C167.9,153.1,167.9,160.4,167.9,160.4z"/>
		<path class="st20" d="M151.5,168.9c0,0,10.9-1,12.8-6.2c0,0,3.6,4.6,5.7,4.4c0,0,0.3-6.1-1-6.9c-1.3-0.8-18,0.9-18,0.9
			S150.6,165,151.5,168.9z"/>
		<path class="st19" d="M140.2,237.9c0,0,3,6.3,3.1,6.4c0.2,0.2,0.5,1.3,2.1,0.5c0,0,0.8,2,1.7,1.8c1-0.3,2-0.9,2-0.9
			s1.2,1.6,2.1,0.8c1-1,0.1-2.1-0.7-3.3c0,0-2.3-4.1-2.1-4.4c0.6-0.7,1.7-0.9,3.9,1.1c2.3,2.1,4,0.7,2.4-1.1
			c-1.6-1.7-3.7-3.9-4.8-4.4c-1.1-0.4-2.9,0.2-2.9,0.2l-0.5-0.8L140.2,237.9z"/>
		<path class="st4" d="M187.9,224.7c0,0-1.7,4.7-4.6,5.5c-2.9,0.8-19.3,4.1-19.3,4.1v-6.5L187.9,224.7z"/>
		<path class="st19" d="M164.1,228.7h-1.2c0,0-0.3-0.9-0.5-1.2c-0.5-0.8-7.4-1.7-7.2-0.8c0.1,0.9,1.3,1.1,3.7,1.6c0,0-9,2.2-8.2,2.9
			c0.8,0.7,6.5-0.9,6.5-0.9s-6.1,2-5.7,3.3c0.2,0.8,6.4-1.1,6.4-1.1s-6.3,2.3-5.2,3c1.1,0.8,8.1-1,8.8-1.2c0.7-0.2,0.9-1.5,0.9-1.5
			l1.7-0.3V228.7z"/>
		<g>
			<path class="st20" d="M158.9,151c0.2,1,0.3,2.2,0.9,3.1c0.2,0.4,0.8,0,0.6-0.3c-0.5-0.8-0.6-2-0.8-3
				C159.5,150.4,158.8,150.6,158.9,151L158.9,151z"/>
		</g>
		<g>
			<path class="st20" d="M160.4,154.2c0.3-0.6,0.7-1.2,1.1-1.8c0.2-0.4-0.3-0.7-0.6-0.3c-0.4,0.6-0.8,1.2-1.1,1.8
				C159.6,154.3,160.2,154.6,160.4,154.2L160.4,154.2z"/>
		</g>
		<g>
			<path class="st25" d="M161.7,168.4c0,0.8,0,1.5,0.1,2.3c0,0.4,0,1.1,0.3,1.4c0.2,0.2,0.5,0.2,0.7,0.2c0.7,0.1,1.5,0.2,2.2,0.3
				c0-0.1-0.1-0.2-0.1-0.3c-0.6,0.6-1.3,1-2.1,1.4c-0.2,0.1,0,0.4,0.2,0.3c0.8-0.4,1.5-0.8,2.2-1.4c0.1-0.1,0-0.3-0.1-0.3
				c-0.8-0.1-2.4,0-2.8-0.8c-0.4-0.8-0.2-2.2-0.2-3C162,168.2,161.7,168.2,161.7,168.4L161.7,168.4z"/>
		</g>
		<g>
			<path class="st26" d="M165.2,170.7c0.1-0.8-0.4-2.6,0.6-2.9c0.9-0.3,1.4,0.4,1.5,1.1c0.1,0.5,0.2,0.9,0.2,1.4
				c0,0.2,0.4,0.1,0.3-0.1c-0.2-1.1-0.3-3-1.9-2.8c-1.6,0.2-1,2.4-1.1,3.4C164.8,171,165.1,171,165.2,170.7L165.2,170.7z"/>
		</g>
		<g>
			<path class="st26" d="M156.4,171.2c0.1-0.8-0.4-2.6,0.6-2.9c0.9-0.3,1.4,0.4,1.5,1.1c0.1,0.5,0.2,0.9,0.2,1.4
				c0,0.2,0.4,0.1,0.3-0.1c-0.2-1.1-0.3-3-1.9-2.8c-1.6,0.2-1,2.4-1.1,3.4C156.1,171.4,156.4,171.4,156.4,171.2L156.4,171.2z"/>
		</g>
		<g>
			<path class="st25" d="M158.7,173.2c0.4,2.8,5.1,3.4,6.9,1.7c0.2-0.2-0.1-0.4-0.2-0.2c-1.5,1.4-6,1.1-6.3-1.4
				C159.1,172.9,158.7,172.9,158.7,173.2L158.7,173.2z"/>
		</g>
		<g>
			<path class="st25" d="M158.7,173.6c0.1-0.3,0.4-0.5,0.7-0.4c0.2,0,0.3-0.3,0.1-0.3c-0.5-0.1-1,0.2-1.1,0.7
				C158.3,173.7,158.6,173.8,158.7,173.6L158.7,173.6z"/>
		</g>
		<g class="st27">
			<path class="st28" d="M158.3,172c0.1,0.4-0.5,1-1.5,1.2c-0.5,0.1-1,0.1-1.3,0c-0.3-0.1-0.5-0.2-0.6-0.4c0-0.1,0-0.2,0-0.3
				c0.1-0.1,0.2-0.2,0.4-0.3c0.3-0.2,0.7-0.3,1.2-0.4C157.3,171.6,158.1,171.7,158.3,172z"/>
		</g>
		<g class="st27">
			<path class="st28" d="M169.3,171.3c0.1,0.4-0.5,1-1.5,1.2c-0.5,0.1-1,0.1-1.3,0c-0.3-0.1-0.5-0.2-0.6-0.4c0-0.1,0-0.2,0-0.3
				c0.1-0.1,0.2-0.2,0.4-0.3c0.3-0.2,0.7-0.3,1.2-0.4C168.4,170.8,169.2,170.9,169.3,171.3z"/>
		</g>
		<g>
			<path class="st25" d="M150.8,169.2c-0.7,0-1,0.6-1,1.3c0.1,0.6,0.5,1.1,1.1,1.2c0.2,0,0.2-0.3,0-0.3c-0.9-0.1-1.2-1.7-0.2-1.7
				C151.1,169.5,151.1,169.2,150.8,169.2L150.8,169.2z"/>
		</g>
		<g>
			<path class="st25" d="M149.9,170.1c0.3,0.4,0.8,0.6,1.3,0.6c0.2,0,0.2-0.4,0-0.3c-0.4,0-0.8-0.1-1.1-0.5
				C150,169.7,149.8,169.9,149.9,170.1L149.9,170.1z"/>
		</g>
		<g>
			<path class="st25" d="M170.6,169.7c0.7,0.2,1.1-0.5,1.2-1.1c0.1-0.7-0.3-1.4-1.1-1.4c-0.2,0-0.2,0.3,0,0.3c0.5,0,0.8,0.5,0.8,1
				c0,0.4-0.3,1.1-0.8,0.9C170.5,169.4,170.4,169.7,170.6,169.7L170.6,169.7z"/>
		</g>
		<g>
			<path class="st25" d="M170.8,168.7c0.3-0.3,0.5-0.7,0.6-1.1c0-0.2-0.3-0.3-0.3-0.1c-0.1,0.4-0.2,0.7-0.5,0.9
				C170.4,168.7,170.7,168.9,170.8,168.7L170.8,168.7z"/>
		</g>
	</g>
</g>
</svg>
