<?xml version="1.0" encoding="utf-8"?>
<!-- Generator: Adobe Illustrator 20.1.0, SVG Export Plug-In . SVG Version: 6.00 Build 0)  -->
<svg version="1.1" id="Слой_1" xmlns="http://www.w3.org/2000/svg" xmlns:xlink="http://www.w3.org/1999/xlink" x="0px" y="0px"
	 viewBox="0 0 300 300" style="enable-background:new 0 0 300 300;" xml:space="preserve">
<style type="text/css">
	.st0{fill:#FCD751;}
	.st1{fill:#1C4670;}
	.st2{fill:#AEBFCE;}
	.st3{fill:#FFA229;}
</style>
<g>
	<g>
		<g>
			<rect x="187.2" y="87.2" class="st0" width="15.6" height="18.7"/>
		</g>
		<g>
			<polygon class="st0" points="210,88.6 180,88.6 195,68.9 195,68.9 			"/>
		</g>
	</g>
	<g>
		<g>
			<rect x="58.7" y="80.4" class="st1" width="6.7" height="187.2"/>
		</g>
		<g>
			<rect x="42.1" y="247.6" class="st1" width="202" height="6.6"/>
		</g>
		<g>
			<rect x="74.8" y="195.3" class="st2" width="30.8" height="42.9"/>
		</g>
		<g>
			<rect x="105.7" y="179.9" class="st3" width="30.8" height="58.3"/>
		</g>
		<g>
			<rect x="136.5" y="150.8" class="st1" width="30.8" height="87.4"/>
		</g>
		<g>
			<rect x="167.4" y="129.4" class="st3" width="30.8" height="108.7"/>
		</g>
		<g>
			<rect x="198.2" y="101.3" class="st2" width="30.8" height="136.9"/>
		</g>
	</g>
	<g>
		<g>
			<polygon class="st1" points="89.7,181.4 83.8,177.3 101.2,152.4 117.2,152.4 133.5,121.4 150,121.4 166.2,97.7 182.3,97.7 
				198.1,68.8 203.9,62.6 209.1,67.4 203.6,73.4 186.5,104.9 170,104.9 153.8,128.6 137.8,128.6 121.5,159.6 105,159.6 			"/>
		</g>
		<g>
			<g>
				<polygon class="st1" points="214.1,77.8 220.4,49.8 193.1,58.3 				"/>
			</g>
		</g>
	</g>
	<g>
		<g>
			<rect x="247.6" y="181.3" class="st0" width="20.5" height="24.6"/>
		</g>
		<g>
			<polygon class="st0" points="277.6,183.2 238,183.2 257.8,157.2 257.8,157.2 			"/>
		</g>
	</g>
	<g>
		<g>
			<rect x="84.1" y="125.4" class="st0" width="20.5" height="24.6"/>
		</g>
		<g>
			<polygon class="st0" points="114.1,127.2 74.6,127.2 94.4,101.3 94.4,101.3 			"/>
		</g>
	</g>
	<g>
		<g>
			<rect x="136.1" y="44.9" class="st0" width="12.9" height="15.5"/>
		</g>
		<g>
			<polygon class="st0" points="155,46.1 130,46.1 142.5,29.7 142.5,29.7 			"/>
		</g>
	</g>
</g>
<g>
</g>
<g>
</g>
<g>
</g>
<g>
</g>
<g>
</g>
<g>
</g>
<g>
</g>
<g>
</g>
<g>
</g>
<g>
</g>
<g>
</g>
<g>
</g>
<g>
</g>
<g>
</g>
<g>
</g>
</svg>
