<?xml version="1.0" encoding="utf-8"?>
<!-- Generator: Adobe Illustrator 20.1.0, SVG Export Plug-In . SVG Version: 6.00 Build 0)  -->
<svg version="1.1" id="Слой_1" xmlns="http://www.w3.org/2000/svg" xmlns:xlink="http://www.w3.org/1999/xlink" x="0px" y="0px"
	 viewBox="0 0 480 480" style="enable-background:new 0 0 480 480;" xml:space="preserve">
<style type="text/css">
	.st0{fill:#94CDAD;}
	.st1{fill:#5C9971;}
	.st2{fill:#FBAA3E;}
	.st3{fill:#E5891A;}
	.st4{opacity:0.4;fill:#FFFFFF;}
	.st5{fill:#961C45;}
	.st6{fill:#D16F95;}
	.st7{opacity:0.2;fill:#FFFFFF;}
	.st8{fill:#FF4200;}
	.st9{fill:#FFFFFF;}
</style>
<g>
	<circle class="st0" cx="238.7" cy="241.7" r="213.3"/>
	<path class="st1" d="M147,388.3l109.4,65.9c109.5-9,195.5-100.7,195.5-212.6c0-14.9-0.9-20.1-2.7-33.9l-118.9-86.7L147,388.3z"/>
	<g>
		<g>
			<g>
				<path class="st2" d="M208.1,388.3h-61.2V163.6c0,0,30.6-16.1,61.2,0.5V388.3z"/>
				<rect x="160.7" y="184.7" class="st3" width="33.6" height="42.6"/>
			</g>
			<path class="st4" d="M174.3,156.7c-15.8,0.9-27.2,6.9-27.2,6.9v224.7h27.2V156.7z"/>
		</g>
		<g>
			<g>
				<path class="st5" d="M269.2,388.3h-61.2V103.9c0,0,30.6-20.4,61.2,0.6V388.3z"/>
				<rect x="221.8" y="130.6" class="st6" width="33.6" height="53.9"/>
			</g>
			<path class="st7" d="M235.5,95.1c-15.8,1.1-27.2,8.7-27.2,8.7v284.6h27.2V95.1z"/>
		</g>
		<g>
			<g>
				<path class="st8" d="M330.4,388.3h-61.2V120.5c0,0,30.6-19.2,61.2,0.6V388.3z"/>
				<rect x="283" y="145.7" class="st4" width="33.6" height="50.8"/>
			</g>
			<path class="st4" d="M296.6,112.2c-15.8,1.1-27.3,8.2-27.3,8.2v267.9h27.3V112.2z"/>
		</g>
	</g>
</g>
<path class="st9" d="M397.6,273.2h-40.5v-40.5c0-14.8-12-26.8-26.8-26.8c-14.8,0-26.8,12-26.8,26.8v40.5h-40.5
	c-14.8,0-26.8,12-26.8,26.8c0,14.8,12,26.8,26.8,26.8h40.5v40.5c0,14.8,12,26.8,26.8,26.8c14.8,0,26.8-12,26.8-26.8v-40.5h40.5
	c14.8,0,26.8-12,26.8-26.8C424.4,285.2,412.4,273.2,397.6,273.2z"/>
<g>
</g>
<g>
</g>
<g>
</g>
<g>
</g>
<g>
</g>
<g>
</g>
<g>
</g>
<g>
</g>
<g>
</g>
<g>
</g>
<g>
</g>
<g>
</g>
<g>
</g>
<g>
</g>
<g>
</g>
</svg>
