<?xml version="1.0" encoding="utf-8"?>
<!-- Generator: Adobe Illustrator 20.1.0, SVG Export Plug-In . SVG Version: 6.00 Build 0)  -->
<svg version="1.1" id="Слой_1" xmlns="http://www.w3.org/2000/svg" xmlns:xlink="http://www.w3.org/1999/xlink" x="0px" y="0px"
	 viewBox="0 0 480 480" style="enable-background:new 0 0 480 480;" xml:space="preserve">
<style type="text/css">
	.st0{fill:#94CDAD;}
	.st1{fill:#5C9971;}
	.st2{fill:#FBAA3E;}
	.st3{fill:#E5891A;}
	.st4{opacity:0.4;fill:#FFFFFF;}
	.st5{fill:#961C45;}
	.st6{fill:#D16F95;}
	.st7{opacity:0.2;fill:#FFFFFF;}
	.st8{fill:#FF4200;}
	.st9{fill:#CCD5BD;}
	.st10{fill:#D5DCC4;}
	.st11{fill:#DFE5CB;}
	.st12{fill:#794629;}
	.st13{fill:#EA563B;}
	.st14{fill:#FFFFFF;}
	.st15{fill:#F19961;}
	.st16{fill:#FFAF77;}
	.st17{fill:#451613;}
	.st18{fill:#DAC18E;}
	.st19{fill:#F7F1E6;}
	.st20{fill:#F1E4C4;}
	.st21{fill:#F05C42;}
</style>
<g>
	<circle class="st0" cx="238.7" cy="241.7" r="213.3"/>
	<path class="st1" d="M147,388.3l109.4,65.9c109.5-9,195.5-100.7,195.5-212.6c0-14.9-0.9-20.1-2.7-33.9l-118.9-86.7L147,388.3z"/>
	<g>
		<g>
			<g>
				<path class="st2" d="M208.1,388.3h-61.2V163.6c0,0,30.6-16.1,61.2,0.5V388.3z"/>
				<rect x="160.7" y="184.7" class="st3" width="33.6" height="42.6"/>
			</g>
			<path class="st4" d="M174.3,156.7c-15.8,0.9-27.2,6.9-27.2,6.9v224.7h27.2V156.7z"/>
		</g>
		<g>
			<g>
				<path class="st5" d="M269.2,388.3h-61.2V103.9c0,0,30.6-20.4,61.2,0.6V388.3z"/>
				<rect x="221.8" y="130.6" class="st6" width="33.6" height="53.9"/>
			</g>
			<path class="st7" d="M235.5,95.1c-15.8,1.1-27.2,8.7-27.2,8.7v284.6h27.2V95.1z"/>
		</g>
		<g>
			<g>
				<path class="st8" d="M330.4,388.3h-61.2V120.5c0,0,30.6-19.2,61.2,0.6V388.3z"/>
				<rect x="283" y="145.7" class="st4" width="33.6" height="50.8"/>
			</g>
			<path class="st4" d="M296.6,112.2c-15.8,1.1-27.3,8.2-27.3,8.2v267.9h27.3V112.2z"/>
		</g>
	</g>
</g>
<g>
	
		<rect x="116.1" y="80.3" transform="matrix(0.9987 -5.036542e-02 5.036542e-02 0.9987 -9.113 10.2227)" class="st9" width="164.3" height="211.3"/>
	
		<rect x="110.5" y="87.6" transform="matrix(0.996 -8.890660e-02 8.890660e-02 0.996 -16.4167 17.8947)" class="st10" width="164.3" height="211.3"/>
	<g>
		
			<rect x="103.1" y="91.8" transform="matrix(0.9861 -0.1659 0.1659 0.9861 -30.1784 33.4698)" class="st11" width="164.3" height="211.3"/>
		
			<rect x="108.9" y="115.7" transform="matrix(0.9861 -0.1659 0.1659 0.9861 -18.2106 30.4445)" class="st12" width="128.6" height="17"/>
		<g>
			<g>
				<g>
					
						<ellipse transform="matrix(0.9861 -0.1659 0.1659 0.9861 -33.5928 26.319)" class="st13" cx="140.8" cy="214.3" rx="15.5" ry="15.5"/>
					<path class="st14" d="M139.3,222.6c-0.8,0.1-1.6-0.1-2.3-0.6l-5-4c-1.2-1-1.4-2.8-0.4-4c1-1.2,2.8-1.4,4-0.4l2.8,2.3l6.6-7.7
						c1-1.2,2.8-1.3,4-0.3c1.2,1,1.3,2.8,0.3,4l-8.4,9.8C140.5,222.2,139.9,222.5,139.3,222.6z"/>
				</g>
				<g>
					<g>
						<g>
							
								<rect x="166.6" y="195.4" transform="matrix(0.9861 -0.1659 0.1659 0.9861 -29.9314 36.8589)" class="st12" width="78.1" height="4.3"/>
						</g>
						<g>
							
								<rect x="168.7" y="208.5" transform="matrix(0.9861 -0.1659 0.1659 0.9861 -32.2232 35.4863)" class="st12" width="55.3" height="4.3"/>
						</g>
					</g>
				</g>
			</g>
			<g>
				<g>
					
						<ellipse transform="matrix(0.9861 -0.1659 0.1659 0.9861 -27.0937 24.6601)" class="st13" cx="134.1" cy="174.5" rx="15.5" ry="15.5"/>
					<path class="st14" d="M132.6,182.9c-0.8,0.1-1.6-0.1-2.3-0.6l-5-4c-1.2-1-1.4-2.8-0.4-4c1-1.2,2.8-1.4,4-0.4l2.8,2.3l6.6-7.7
						c1-1.2,2.8-1.3,4-0.3c1.2,1,1.3,2.8,0.3,4l-8.4,9.8C133.9,182.5,133.2,182.8,132.6,182.9z"/>
				</g>
				<g>
					<g>
						<g>
							
								<rect x="161.7" y="155.4" transform="matrix(0.9861 -0.1659 0.1659 0.9861 -23.36 35.4762)" class="st12" width="78.1" height="4.3"/>
						</g>
						<g>
							
								<rect x="163.9" y="170.7" transform="matrix(0.9861 -0.1659 0.1659 0.9861 -26.2218 31.8739)" class="st12" width="27.7" height="4.3"/>
						</g>
					</g>
				</g>
			</g>
			<g>
				<g>
					
						<ellipse transform="matrix(0.9861 -0.1659 0.1659 0.9861 -39.925 27.937)" class="st13" cx="147.3" cy="253" rx="15.5" ry="15.5"/>
					<path class="st14" d="M145.8,261.3c-0.8,0.1-1.6-0.1-2.3-0.6l-5-4c-1.2-1-1.4-2.8-0.4-4c1-1.2,2.8-1.4,4-0.4l2.8,2.3l6.6-7.7
						c1-1.2,2.8-1.3,4-0.3c1.2,1,1.3,2.8,0.3,4l-8.4,9.8C147,260.9,146.4,261.2,145.8,261.3z"/>
				</g>
				<g>
					<g>
						<g>
							
								<rect x="172.2" y="234.3" transform="matrix(0.9861 -0.1659 0.1659 0.9861 -36.301 38.3208)" class="st12" width="78.1" height="4.3"/>
						</g>
						<g>
							
								<rect x="174.3" y="248.5" transform="matrix(0.9861 -0.1659 0.1659 0.9861 -38.8734 35.8534)" class="st12" width="41.7" height="4.3"/>
						</g>
					</g>
				</g>
			</g>
		</g>
		
			<rect x="229.5" y="267" transform="matrix(0.9861 -0.1659 0.1659 0.9861 -41.2406 44.4791)" class="st12" width="32.4" height="4.3"/>
	</g>
	<g>
		<path class="st15" d="M263.1,216.5c-38-5.4-54.6-30.6-54.6-30.6l39.3-5.7C247.8,180.2,301.2,222,263.1,216.5z"/>
		<path class="st16" d="M260.7,276.5l27.6-24.7c0,0,3.7-37.3,0-50.4c-3.7-13.1-29.1-28.4-35.3-31.8c-6.2-3.5-39,1.5-48.3,7.4
			c-7.7,4.9-1,9.9,3.9,11.4c4.9,1.4,32.3-6.2,39.5,0.2c7.2,6.4,15.6,27.4,5.9,34.4c-9.6,7-32.3-24.3-36.5-30
			c-4.2-5.7-20.4-0.9-14.3,7.9c6.1,8.8,25.5,37.2,32.8,45.9C243.3,255.6,260.7,276.5,260.7,276.5z"/>
		<g>
			<g>
				<polygon class="st17" points="171,186.4 171.6,182.3 164.5,183.3 				"/>
				<polygon class="st18" points="180.8,191 182.4,180.9 171.6,182.3 171,186.4 				"/>
				<path class="st19" d="M266.3,204.1c1.1,0.2,2.2-0.6,2.3-1.7l0.9-6.1c0.2-1.1-0.6-2.2-1.7-2.3l-4.5-0.7l-1.5,10.1L266.3,204.1z"
					/>
				<polygon class="st20" points="254.1,202.1 261.8,203.4 263.3,193.2 255.7,191.9 				"/>
				<path class="st21" d="M179.6,185.5c0.4-2.4,2.8-4.6,2.8-4.6l73.3,11.1l-1.5,10.1L180.8,191C180.8,191,179.2,187.9,179.6,185.5z"
					/>
			</g>
			<polygon class="st17" points="258.9,202.9 260.4,203.2 262,193 260.5,192.8 			"/>
			<polygon class="st17" points="255.8,202.3 257.2,202.6 258.8,192.4 257.3,192.2 			"/>
		</g>
		<path class="st16" d="M217.5,193.1c-4.2-5.7-20.4-0.9-14.3,7.9c0.7,1,1.5,2.2,2.5,3.6l21.9,1.4C222.8,200.4,219,195.1,217.5,193.1
			z"/>
		<polygon class="st13" points="295,240.7 251.1,281.9 356,398 379.7,312.8 		"/>
	</g>
</g>
<g>
</g>
<g>
</g>
<g>
</g>
<g>
</g>
<g>
</g>
<g>
</g>
<g>
</g>
<g>
</g>
<g>
</g>
<g>
</g>
<g>
</g>
<g>
</g>
<g>
</g>
<g>
</g>
<g>
</g>
</svg>
