<?xml version="1.0" encoding="utf-8"?>
<!-- Generator: Adobe Illustrator 20.1.0, SVG Export Plug-In . SVG Version: 6.00 Build 0)  -->
<svg version="1.1" id="Слой_1" xmlns="http://www.w3.org/2000/svg" xmlns:xlink="http://www.w3.org/1999/xlink" x="0px" y="0px"
	 viewBox="0 0 870 870" style="enable-background:new 0 0 870 870;" xml:space="preserve">
<style type="text/css">
	.st0{fill:#E09F25;}
	.st1{fill:#D79824;}
	.st2{clip-path:url(#SVGID_2_);}
	.st3{fill:#CAA48B;}
	.st4{fill:#AB4245;}
	.st5{fill:#DDBEA6;}
	.st6{fill:#E9D5BB;}
	.st7{fill:#FFFFFF;}
	.st8{fill:#4F3B2D;}
	.st9{fill:#55938A;}
</style>
<g id="men_5">
	<g>
		<ellipse class="st0" cx="435" cy="435.3" rx="406" ry="406"/>
		<path class="st1" d="M841,435.3c0-224.2-181.8-406-406-406v812C659.2,841.3,841,659.5,841,435.3z"/>
	</g>
	<g>
		<defs>
			<path id="SVGID_1_" d="M841,435.3c0-224.2-181.8-406-406-406c-224.2,0-406,181.8-406,406c0,224.2,181.8,406,406,406
				C659.2,841.3,841,659.5,841,435.3z"/>
		</defs>
		<clipPath id="SVGID_2_">
			<use xlink:href="#SVGID_1_"  style="overflow:visible;"/>
		</clipPath>
		<g class="st2">
			<rect x="377.1" y="537.7" class="st3" width="118.9" height="130.4"/>
			<path class="st4" d="M495.2,607.1h20.3c37.8,9.7,79.1,16.6,106.6,48.5c17.1,19.8,46.9,185.7,46.9,185.7h-72H435.8V689.4v-35.9
				C468.6,653.5,495.2,632.7,495.2,607.1z"/>
			<path class="st4" d="M376.3,607.1h-20.2c-37.8,9.7-79.1,16.6-106.7,48.5c-17.1,19.8-46.9,185.7-46.9,185.7h72h161.2V689.4v-35.9
				C402.9,653.5,376.3,632.7,376.3,607.1z"/>
			<g>
				<path class="st5" d="M436.5,164.7c57.7,0,149,32.8,149,186.6c0,88.8-28.9,147-41.6,163c-11.6,14.8-76.8,46.3-107.5,46.3
					C436.5,405.2,436.5,164.7,436.5,164.7z"/>
				<path class="st5" d="M614.2,387.9c2.5-24.6-9.2-46.4-26.1-48.7c-17-2.3-32.8,15.7-35.4,40.3c-2.5,24.6,9.2,46.4,26.2,48.7
					C595.9,430.5,611.7,412.5,614.2,387.9z"/>
			</g>
			<g>
				<path class="st6" d="M436.5,164.7c-57.7,0-149,32.8-149,186.6c0,88.8,28.9,147,41.6,163c11.6,14.8,76.8,46.3,107.5,46.3
					C436.5,405.2,436.5,164.7,436.5,164.7z"/>
				<path class="st6" d="M258.8,387.9c-2.5-24.6,9.2-46.4,26.1-48.7c17-2.3,32.8,15.7,35.4,40.3c2.6,24.6-9.2,46.4-26.1,48.7
					C277.2,430.5,261.3,412.5,258.8,387.9z"/>
			</g>
			<path class="st7" d="M436.5,502.6c26.9,0,48.7-8.9,48.7-19.9h-97.4C387.8,493.7,409.6,502.6,436.5,502.6z"/>
			<path class="st8" d="M556.6,363.4c6.2-15.9,18.5-26,31.5-24.2c0,0,0.1,0,0.1,0c5.9-18.2,8-39.9-0.1-62.9
				c-43-122.4,5.8-144.2,5.8-144.2s-47.5-2.1-84.4,28.4c25.4-39.4,36.9-49.6,36.9-49.6S493,99.4,435.8,157.9c12.7-31.8,28-48,28-48
				s-119.5,0.9-162.8,87.4c-24.6,49.3-26.5,102.7-20.6,143c1.5-0.5,3-1,4.5-1.2c5.6-0.8,11.1,0.7,16.1,3.9c0-18.6,0-35.1,0-37.7
				c22.9-10.2,47.1-22.9,45.8-73.8c53.4,0,82.7,0,82.7,0h85.2c0,0-3.8,57.2,42,71.2C556.6,326.7,556.6,347.8,556.6,363.4z"/>
			<path class="st9" d="M435.8,668.5c44,0,79.7-27.5,79.7-61.5h-20.4c0,25.6-26.5,46.3-59.3,46.4c-32.8-0.1-59.3-20.8-59.3-46.4
				h-20.4C356.1,641,391.8,668.5,435.8,668.5z"/>
		</g>
	</g>
</g>
</svg>
