<?xml version="1.0" encoding="utf-8"?>
<!-- Generator: Adobe Illustrator 20.1.0, SVG Export Plug-In . SVG Version: 6.00 Build 0)  -->
<svg version="1.1" id="Слой_1" xmlns="http://www.w3.org/2000/svg" xmlns:xlink="http://www.w3.org/1999/xlink" x="0px" y="0px"
	 viewBox="0 0 300 300" style="enable-background:new 0 0 300 300;" xml:space="preserve">
<style type="text/css">
	.st0{fill:#AEBFCE;}
	.st1{fill:#768296;}
	.st2{fill:#1C4670;}
	.st3{fill:#FFA229;}
	.st4{fill:#FCD751;}
</style>
<g>
	<g>
		<path class="st0" d="M87,72.9c-0.3,1.2,0.2,2.4,1.1,2.6l8.6,2c0.9,0.2,1.8-0.6,2.1-1.8l1.6-6.9c0.3-1.2-0.2-2.4-1.1-2.6l-8.6-2
			c-0.9-0.2-1.8,0.6-2.1,1.8L87,72.9z"/>
		<path class="st0" d="M71.6,140.2c0.3-1.2,1.2-2,2.1-1.8l8.6,2c0.9,0.2,1.4,1.4,1.1,2.6l-1.6,6.9c-0.3,1.2-1.2,2-2.1,1.8l-8.6-2
			c-0.9-0.2-1.4-1.4-1.1-2.6L71.6,140.2z"/>
		<path class="st0" d="M104.3,78.5c-0.8,0.9-1,2.2-0.3,2.8l6.4,6c0.7,0.6,1.9,0.4,2.8-0.5l4.8-5.2c0.8-0.9,1-2.2,0.3-2.8l-6.4-6
			c-0.7-0.6-1.9-0.4-2.8,0.5L104.3,78.5z"/>
		<path class="st0" d="M57.2,129c0.9-0.9,2.1-1.1,2.8-0.5l6.4,6c0.7,0.6,0.5,1.9-0.3,2.8l-4.8,5.2c-0.8,0.9-2.1,1.1-2.8,0.5l-6.4-6
			c-0.7-0.6-0.5-1.9,0.3-2.8L57.2,129z"/>
		<path class="st0" d="M116.4,92c-1.2,0.4-1.9,1.4-1.7,2.3l2.6,8.4c0.3,0.9,1.5,1.3,2.6,0.9l6.8-2.1c1.2-0.4,1.9-1.4,1.7-2.3
			l-2.6-8.4c-0.3-0.9-1.5-1.3-2.6-0.9L116.4,92z"/>
		<path class="st0" d="M50.4,112.2c1.2-0.4,2.4,0,2.6,0.9l2.6,8.4c0.3,0.9-0.5,1.9-1.7,2.3l-6.8,2.1c-1.2,0.4-2.4,0-2.6-0.9
			l-2.6-8.4c-0.3-0.9,0.5-1.9,1.7-2.2L50.4,112.2z"/>
		<path class="st0" d="M120.2,109.7c-1.2-0.3-2.4,0.2-2.6,1.1l-2,8.6c-0.2,0.9,0.6,1.8,1.8,2.1l6.9,1.6c1.2,0.3,2.4-0.2,2.6-1.1
			l2-8.6c0.2-0.9-0.6-1.8-1.8-2.1L120.2,109.7z"/>
		<path class="st0" d="M52.9,94.3c1.2,0.3,2,1.2,1.8,2.1l-2,8.6c-0.2,0.9-1.4,1.4-2.6,1.1l-6.9-1.6c-1.2-0.3-2-1.2-1.8-2.1l2-8.6
			c0.2-0.9,1.4-1.4,2.6-1.1L52.9,94.3z"/>
		<path class="st0" d="M114.6,127c-0.9-0.8-2.1-1-2.8-0.3l-6,6.4c-0.6,0.7-0.4,1.9,0.5,2.8l5.2,4.8c0.9,0.8,2.1,1,2.8,0.3l6-6.4
			c0.6-0.7,0.4-1.9-0.5-2.8L114.6,127z"/>
		<path class="st0" d="M64.1,79.9c0.9,0.9,1.1,2.1,0.5,2.8l-6,6.4c-0.6,0.7-1.9,0.5-2.8-0.3L50.6,84c-0.9-0.8-1.1-2.1-0.5-2.7l6-6.4
			c0.6-0.7,1.9-0.5,2.8,0.3L64.1,79.9z"/>
		<path class="st0" d="M101.1,139.1c-0.4-1.2-1.4-1.9-2.2-1.7l-8.4,2.6c-0.9,0.3-1.3,1.4-0.9,2.6l2.1,6.8c0.4,1.2,1.4,1.9,2.2,1.6
			l8.4-2.6c0.9-0.3,1.3-1.5,0.9-2.6L101.1,139.1z"/>
		<path class="st0" d="M80.9,73.1c0.4,1.2,0,2.4-0.9,2.6l-8.4,2.6c-0.9,0.3-1.9-0.5-2.2-1.7l-2.1-6.8c-0.4-1.2,0-2.4,0.9-2.6
			l8.4-2.6c0.9-0.3,1.9,0.5,2.3,1.7L80.9,73.1z"/>
		<path class="st0" d="M49.1,99.6c-4.6,19.9,7.9,39.8,27.8,44.4c19.9,4.6,39.8-7.9,44.4-27.8c4.6-19.9-7.9-39.8-27.8-44.4
			C73.6,67.2,53.7,79.6,49.1,99.6z M61.4,102.4c3-13.1,16.1-21.3,29.3-18.3c13.1,3,21.3,16.1,18.3,29.3c-3,13.1-16.1,21.3-29.3,18.3
			C66.6,128.6,58.4,115.6,61.4,102.4z"/>
	</g>
	<g>
		<path class="st1" d="M34.2,156.6c-6.6,9.8-4.1,23.2,5.8,29.8c9.8,6.6,23.2,4.1,29.8-5.8c6.6-9.8,4.1-23.2-5.8-29.8
			C54.2,144.2,40.9,146.8,34.2,156.6z M40.3,160.7c4.4-6.5,13.1-8.2,19.6-3.8c6.5,4.4,8.2,13.2,3.8,19.6c-4.4,6.5-13.2,8.2-19.6,3.8
			C37.6,176,35.9,167.2,40.3,160.7z"/>
		<path class="st1" d="M58.9,149.9c-0.4,0.6-0.3,1.4,0.4,1.8l5.8,3.9c0.6,0.4,1.4,0.3,1.8-0.4l2.3-3.4c0.4-0.6,0.2-1.4-0.4-1.8
			l-5.8-3.9c-0.6-0.4-1.4-0.2-1.8,0.4L58.9,149.9z"/>
		<path class="st1" d="M37.2,182c0.4-0.6,1.2-0.8,1.8-0.3l5.8,3.9c0.6,0.4,0.8,1.2,0.4,1.8l-2.3,3.4c-0.4,0.6-1.2,0.8-1.8,0.4
			l-5.7-3.9c-0.6-0.4-0.8-1.2-0.4-1.8L37.2,182z"/>
		<path class="st1" d="M70.1,160.3c-0.7,0.1-1.2,0.8-1,1.5l1.3,6.8c0.1,0.7,0.8,1.2,1.5,1l4-0.8c0.7-0.1,1.2-0.8,1-1.5l-1.3-6.8
			c-0.1-0.7-0.8-1.2-1.5-1L70.1,160.3z"/>
		<path class="st1" d="M32.1,167.6c0.7-0.1,1.4,0.3,1.5,1l1.3,6.8c0.1,0.7-0.3,1.4-1,1.5l-4.1,0.8c-0.7,0.1-1.4-0.3-1.5-1L27,170
			c-0.1-0.7,0.3-1.4,1-1.5L32.1,167.6z"/>
		<path class="st1" d="M70.7,175.5c-0.6-0.4-1.4-0.2-1.8,0.4l-3.9,5.8c-0.4,0.6-0.2,1.4,0.3,1.8l3.4,2.3c0.6,0.4,1.4,0.3,1.8-0.3
			l3.9-5.8c0.4-0.6,0.2-1.4-0.3-1.8L70.7,175.5z"/>
		<path class="st1" d="M38.6,153.8c0.6,0.4,0.8,1.2,0.4,1.8l-3.9,5.8c-0.4,0.6-1.2,0.8-1.8,0.4l-3.4-2.3c-0.6-0.4-0.8-1.2-0.4-1.8
			l3.9-5.8c0.4-0.6,1.2-0.8,1.8-0.4L38.6,153.8z"/>
		<path class="st1" d="M60.4,186.8c-0.1-0.7-0.8-1.2-1.5-1l-6.8,1.3c-0.7,0.1-1.2,0.8-1,1.5l0.8,4.1c0.1,0.7,0.8,1.2,1.5,1l6.8-1.3
			c0.7-0.1,1.2-0.8,1-1.5L60.4,186.8z"/>
		<path class="st1" d="M53,148.7c0.1,0.7-0.3,1.4-1,1.5l-6.8,1.3c-0.7,0.1-1.4-0.3-1.5-1l-0.8-4.1c-0.1-0.7,0.3-1.4,1-1.5l6.8-1.3
			c0.7-0.1,1.4,0.3,1.5,1L53,148.7z"/>
	</g>
	<path class="st2" d="M243,101.8c-52.8,14.8-82.3-48.7-82.3-48.7s-29.6,63.5-82.3,48.7c0,0-14.8,128.8,82.3,162.5
		C257.8,230.6,243,101.8,243,101.8z"/>
	<path class="st3" d="M160.7,245.6C96.9,221.2,93.1,145,93.9,117.3c2.1,0.2,4.2,0.3,6.3,0.3c29.7,0,50-22.2,60.5-37.8
		c10.6,15.6,30.8,37.8,60.5,37.8c2.1,0,4.2-0.1,6.3-0.3C228.3,145,224.4,221.3,160.7,245.6z"/>
	<g>
		<path class="st1" d="M260.3,227.3c0,19.9-16.1,36-36,36c-19.9,0-36-16.1-36-36c0-19.9,16.1-36,36-36
			C244.2,191.4,260.3,207.5,260.3,227.3z"/>
		<polygon class="st4" points="201.2,210.2 227.1,244.3 248.4,220.7 227.1,230.6 		"/>
	</g>
	<path class="st4" d="M161.5,162.7H97.7c6.4,31.5,22.8,67.5,63,82.9c0.2-0.1,0.5-0.2,0.7-0.3V162.7z"/>
	<path class="st4" d="M221.4,117.7c2,0,4.1-0.1,6.1-0.3c0.3,10.4,0,27.6-3.9,46.3h-62.2V80.9c0.3-0.4-1-0.7-0.7-1.1
		C171,95.4,192.3,117.7,221.4,117.7z"/>
	<g>
		<rect x="257.7" y="162.4" class="st3" width="17.2" height="20.7"/>
		<polygon class="st3" points="283,164 249.7,164 266.4,142.1 266.4,142.1 		"/>
	</g>
	<g>
		<rect x="218.9" y="74.4" class="st3" width="12.2" height="14.6"/>
		<polygon class="st3" points="236.7,75.5 213.2,75.5 224.9,60.1 224.9,60.1 		"/>
	</g>
	<g>
		<rect x="73.4" y="227.8" class="st3" width="15.5" height="18.6"/>
		<polygon class="st3" points="96.1,229.2 66.2,229.2 81.1,209.6 81.1,209.6 		"/>
	</g>
</g>
<g>
</g>
<g>
</g>
<g>
</g>
<g>
</g>
<g>
</g>
<g>
</g>
<g>
</g>
<g>
</g>
<g>
</g>
<g>
</g>
<g>
</g>
<g>
</g>
<g>
</g>
<g>
</g>
<g>
</g>
</svg>
