<?xml version="1.0" encoding="utf-8"?>
<!-- Generator: Adobe Illustrator 20.1.0, SVG Export Plug-In . SVG Version: 6.00 Build 0)  -->
<svg version="1.1" id="Слой_1" xmlns="http://www.w3.org/2000/svg" xmlns:xlink="http://www.w3.org/1999/xlink" x="0px" y="0px"
	 viewBox="0 0 300 300" style="enable-background:new 0 0 300 300;" xml:space="preserve">
<style type="text/css">
	.st0{fill:#AEBFCE;}
	.st1{fill:#768296;}
	.st2{fill:#1C4670;}
	.st3{fill:#FCD751;}
	.st4{fill:#FFA229;}
	.st5{fill:#FFFFFF;}
</style>
<g>
	<g>
		<g>
			<path class="st0" d="M77.7,166.4c-0.1,1-0.7,1.8-1.4,1.8l-7.1-0.4c-0.7,0-1.3-0.9-1.3-1.9l0.3-5.7c0-1,0.7-1.8,1.4-1.8l7.1,0.4
				c0.7,0,1.3,0.9,1.2,1.9L77.7,166.4z"/>
			<path class="st0" d="M74.9,222.3c0-1-0.5-1.9-1.3-1.9l-7.1-0.3c-0.7,0-1.4,0.7-1.4,1.7l-0.3,5.7c-0.1,1,0.5,1.9,1.3,1.9l7.1,0.3
				c0.7,0,1.4-0.7,1.4-1.7L74.9,222.3z"/>
			<path class="st0" d="M63,167c0.5,0.9,0.3,1.9-0.4,2.2l-6.3,3.3c-0.7,0.3-1.6-0.1-2-1l-2.6-5.1c-0.5-0.9-0.3-1.9,0.4-2.2l6.3-3.2
				c0.7-0.3,1.6,0.1,2,1L63,167z"/>
			<path class="st0" d="M88.5,216.8c-0.5-0.9-1.4-1.4-2-1l-6.3,3.3c-0.7,0.3-0.8,1.3-0.4,2.2l2.6,5.1c0.5,0.9,1.4,1.4,2,1l6.3-3.2
				c0.7-0.3,0.8-1.3,0.4-2.3L88.5,216.8z"/>
			<path class="st0" d="M50.6,174.8c0.8,0.5,1.2,1.5,0.8,2.1l-3.9,6c-0.4,0.6-1.4,0.7-2.3,0.1l-4.8-3.1c-0.8-0.5-1.2-1.5-0.8-2.1
				l3.9-6c0.4-0.6,1.4-0.7,2.3-0.1L50.6,174.8z"/>
			<path class="st0" d="M97.5,205.2c-0.8-0.5-1.9-0.5-2.3,0.1l-3.9,6c-0.4,0.6-0.1,1.6,0.8,2.1l4.8,3.1c0.8,0.6,1.9,0.5,2.3-0.1
				l3.9-6c0.4-0.6,0.1-1.6-0.8-2.1L97.5,205.2z"/>
			<path class="st0" d="M43.7,187.8c1,0.1,1.8,0.7,1.8,1.4l-0.4,7.1c0,0.7-0.9,1.3-1.9,1.3l-5.7-0.3c-1-0.1-1.8-0.7-1.8-1.4l0.4-7.1
				c0-0.8,0.9-1.3,1.9-1.3L43.7,187.8z"/>
			<path class="st0" d="M99.6,190.6c-1-0.1-1.9,0.5-1.9,1.2l-0.4,7.1c0,0.7,0.7,1.4,1.8,1.4l5.7,0.3c1,0.1,1.9-0.5,1.9-1.3l0.4-7.1
				c0-0.7-0.8-1.4-1.8-1.4L99.6,190.6z"/>
			<path class="st0" d="M44.3,202.5c0.9-0.5,1.9-0.3,2.2,0.4l3.2,6.3c0.3,0.7-0.1,1.6-1,2l-5.1,2.6c-0.9,0.5-1.9,0.3-2.2-0.4
				l-3.2-6.3c-0.3-0.7,0.1-1.6,1-2L44.3,202.5z"/>
			<path class="st0" d="M94.1,177c-0.9,0.5-1.3,1.4-1,2l3.2,6.3c0.3,0.7,1.3,0.8,2.2,0.4l5.1-2.6c0.9-0.5,1.4-1.4,1-2l-3.2-6.3
				c-0.3-0.7-1.3-0.8-2.2-0.4L94.1,177z"/>
			<path class="st0" d="M52.1,214.9c0.6-0.8,1.5-1.2,2.1-0.8l6,3.9c0.6,0.4,0.7,1.4,0.1,2.3l-3.1,4.8c-0.5,0.8-1.5,1.2-2.1,0.8
				l-6-3.9c-0.6-0.4-0.7-1.4-0.1-2.3L52.1,214.9z"/>
			<path class="st0" d="M82.5,168c-0.5,0.8-0.5,1.9,0.1,2.3l6,3.9c0.6,0.4,1.6,0.1,2.1-0.8l3.1-4.8c0.5-0.8,0.5-1.9-0.1-2.3l-6-3.9
				c-0.6-0.4-1.6,0-2.1,0.8L82.5,168z"/>
			<path class="st1" d="M72.9,164.1c-16.6-0.8-30.7,11.9-31.5,28.5c-0.8,16.6,11.9,30.7,28.5,31.5c16.6,0.8,30.7-11.9,31.5-28.5
				C102.2,179.1,89.5,165,72.9,164.1z M70.4,213.9c-10.9-0.5-19.3-9.8-18.7-20.8c0.6-10.9,9.8-19.3,20.8-18.7
				c10.9,0.6,19.3,9.8,18.7,20.8C90.6,206,81.3,214.4,70.4,213.9z"/>
		</g>
		<g>
			<path class="st2" d="M94.1,155.7c0,0.7-0.5,1.3-1,1.3l-5.2-0.3c-0.6,0-1-0.7-0.9-1.4l0.2-4.2c0-0.7,0.5-1.3,1.1-1.3l5.2,0.3
				c0.5,0,1,0.7,0.9,1.4L94.1,155.7z"/>
			<path class="st2" d="M92,196.8c0-0.8-0.4-1.4-0.9-1.4l-5.2-0.3c-0.5,0-1,0.5-1.1,1.3l-0.2,4.2c0,0.7,0.4,1.4,0.9,1.4l5.2,0.3
				c0.5,0,1-0.5,1.1-1.3L92,196.8z"/>
			<path class="st2" d="M83.3,156.1c0.3,0.7,0.2,1.4-0.3,1.6l-4.7,2.4c-0.5,0.2-1.2-0.1-1.5-0.7l-1.9-3.8c-0.3-0.7-0.2-1.4,0.3-1.6
				l4.7-2.4c0.5-0.3,1.2,0.1,1.5,0.7L83.3,156.1z"/>
			<path class="st2" d="M102,192.8c-0.3-0.7-1-1-1.5-0.7l-4.7,2.4c-0.5,0.3-0.6,1-0.3,1.6l1.9,3.8c0.3,0.7,1,1,1.5,0.7l4.7-2.4
				c0.5-0.3,0.6-1,0.3-1.6L102,192.8z"/>
			<path class="st2" d="M74.1,161.9c0.6,0.4,0.9,1.1,0.6,1.6l-2.9,4.4c-0.3,0.5-1,0.5-1.7,0.1l-3.5-2.3c-0.6-0.4-0.9-1.1-0.6-1.6
				l2.8-4.4c0.3-0.5,1-0.5,1.7-0.1L74.1,161.9z"/>
			<path class="st2" d="M108.7,184.2c-0.6-0.4-1.4-0.4-1.7,0.1l-2.8,4.4c-0.3,0.5,0,1.2,0.6,1.6l3.5,2.3c0.6,0.4,1.4,0.4,1.7-0.1
				l2.8-4.4c0.3-0.5,0-1.2-0.6-1.6L108.7,184.2z"/>
			<path class="st2" d="M69.1,171.4c0.7,0,1.3,0.5,1.3,1.1l-0.3,5.2c0,0.5-0.6,1-1.4,0.9l-4.2-0.2c-0.7,0-1.3-0.5-1.3-1.1l0.3-5.2
				c0-0.5,0.6-1,1.4-0.9L69.1,171.4z"/>
			<path class="st2" d="M110.1,173.5c-0.7,0-1.4,0.4-1.4,0.9l-0.3,5.2c0,0.5,0.6,1,1.3,1.1l4.2,0.2c0.7,0,1.4-0.4,1.4-0.9l0.3-5.2
				c0-0.6-0.6-1-1.3-1.1L110.1,173.5z"/>
			<path class="st2" d="M69.5,182.3c0.7-0.3,1.4-0.2,1.6,0.3l2.4,4.7c0.2,0.5-0.1,1.2-0.7,1.5l-3.8,1.9c-0.7,0.3-1.4,0.2-1.6-0.3
				l-2.4-4.7c-0.3-0.5,0.1-1.2,0.7-1.5L69.5,182.3z"/>
			<path class="st2" d="M106.1,163.5c-0.7,0.3-1,1-0.7,1.5l2.4,4.7c0.2,0.5,1,0.6,1.7,0.3l3.8-1.9c0.7-0.3,1-1,0.7-1.5l-2.4-4.7
				c-0.2-0.5-1-0.6-1.6-0.3L106.1,163.5z"/>
			<path class="st2" d="M75.2,191.4c0.4-0.6,1.1-0.9,1.6-0.6l4.4,2.8c0.5,0.3,0.5,1,0.1,1.7l-2.3,3.6c-0.4,0.6-1.1,0.9-1.6,0.6
				l-4.4-2.8c-0.5-0.3-0.5-1-0.1-1.7L75.2,191.4z"/>
			<path class="st2" d="M97.6,156.9c-0.4,0.6-0.4,1.4,0.1,1.7l4.4,2.8c0.5,0.3,1.2,0,1.6-0.6l2.3-3.5c0.4-0.6,0.4-1.4-0.1-1.7
				l-4.4-2.9c-0.5-0.3-1.2,0-1.6,0.6L97.6,156.9z"/>
			<path class="st2" d="M90.5,154c-12.2-0.6-22.6,8.8-23.2,20.9c-0.6,12.2,8.8,22.6,20.9,23.2c12.2,0.6,22.6-8.8,23.2-20.9
				C112.1,165,102.7,154.7,90.5,154z M88.7,190.6c-8-0.4-14.2-7.2-13.8-15.3c0.4-8,7.2-14.2,15.3-13.8c8,0.4,14.2,7.2,13.8,15.3
				C103.5,184.9,96.7,191,88.7,190.6z"/>
		</g>
	</g>
	<g>
		<g>
			<path class="st2" d="M145.1,216.1c-0.8-2.6,1-1.9,2.1-0.2c1.2,1.6,9.8,11.8,14.6-1.4c5-13-8.2-11-10.1-10.6
				c-1.9,0.5-3.8-0.2-1.5-1.6c2.9-1.8,9-5.1,16.7-1.6c8.1,3.7,6.2,13.3,4.7,17.5c-1.6,4.2-6.4,12.6-15,10.1
				C148.5,225.9,146.1,219.4,145.1,216.1z"/>
			<path class="st2" d="M242.3,252.5c2.3-1.4,0.5-2-1.4-1.6c-1.9,0.4-15.1,2.5-10.1-10.6c4.8-13.1,13.4-3,14.6-1.4
				c1.2,1.6,3,2.4,2.1-0.3c-1.1-3.3-3.4-9.8-11.6-12.2c-8.6-2.5-13.4,5.9-15,10.1c-1.5,4.2-3.5,13.7,4.7,17.5
				C233.3,257.7,239.4,254.3,242.3,252.5z"/>
			
				<rect x="194.4" y="196.9" transform="matrix(0.3493 -0.937 0.937 0.3493 -82.2209 331.0789)" class="st2" width="5.8" height="55.8"/>
			
				<rect x="192.4" y="202.3" transform="matrix(0.3497 -0.9369 0.9369 0.3497 -88.6189 332.6061)" class="st2" width="5.8" height="55.8"/>
			<path class="st2" d="M240.9,250.9c1.9-0.5,3.8,0.2,1.4,1.6c-2.9,1.8-9,5.1-16.7,1.6c-8.1-3.7-6.2-13.3-4.7-17.5l9.8,3.7
				C225.8,253.4,238.9,251.4,240.9,250.9z"/>
			<path class="st2" d="M156.6,228.3c-8.1-2.4-10.5-8.9-11.6-12.2c-0.8-2.6,1-1.9,2.1-0.2c1.2,1.6,9.8,11.8,14.6-1.4l9.8,3.7
				C170,222.4,165.2,230.8,156.6,228.3z"/>
		</g>
		<g>
			<g>
				
					<rect x="176.3" y="203.7" transform="matrix(0.3493 -0.937 0.937 0.3493 -61.5842 323.2328)" class="st3" width="51.2" height="4.5"/>
				
					<rect x="180.5" y="205.3" transform="matrix(0.3504 -0.9366 0.9366 0.3504 -60.4708 327.8465)" class="st4" width="51.2" height="4.4"/>
				<path class="st3" d="M211,188.1c0,0-7.4-4.1-6.2-7.5c1.2-3.4,9.4-13.1,13.3-11.6L211,188.1z"/>
				<path class="st4" d="M211,188.1c0,0,8.3,1.8,9.6-1.6c1.3-3.3,1.5-16-2.5-17.5L211,188.1z"/>
			</g>
			<g>
				<path class="st0" d="M188.8,270.9c-1.6,4.3-6.3,6.4-10.6,4.8l0,0c-4.3-1.6-6.4-6.3-4.8-10.6l14.3-38.3c1.6-4.3,6.3-6.4,10.6-4.8
					l0,0c4.3,1.6,6.4,6.3,4.8,10.6L188.8,270.9z"/>
				<path class="st1" d="M180.9,272.9c-0.4,0.9-1.3,1.5-2.1,1.1l0,0c-0.8-0.3-1.2-1.3-0.8-2.2l15.9-42.5c0.4-0.9,1.3-1.5,2.1-1.2
					l0,0c0.8,0.3,1.2,1.3,0.8,2.2L180.9,272.9z"/>
				<path class="st1" d="M186.3,272.4c-0.3,0.9-1.3,1.5-2.1,1.1l0,0c-0.8-0.3-1.2-1.3-0.8-2.2l15.9-42.5c0.3-0.9,1.3-1.4,2.1-1.1
					l0,0c0.8,0.3,1.2,1.3,0.8,2.2L186.3,272.4z"/>
				<path class="st1" d="M174.3,267.9c-0.3,1,0,1.9,0.8,2.2l0,0c0.8,0.3,1.7-0.2,2.1-1.1l15.9-42.5c0.3-0.9,0-1.9-0.8-2.2l0,0
					c-0.8-0.3-1.7,0.2-2.1,1.2L174.3,267.9z"/>
				<path class="st1" d="M207.1,229.7c-0.8,2.1-3.1,3.2-5.3,2.4l-12.9-4.8c-2.1-0.8-3.2-3.2-2.4-5.3l0,0c0.8-2.1,3.1-3.2,5.3-2.4
					l12.9,4.8C206.8,225.3,207.9,227.6,207.1,229.7L207.1,229.7z"/>
				<path class="st1" d="M205.9,228.3c-0.6,1.6-2.6,2.4-4.4,1.7l-11-4.1c-1.8-0.7-2.8-2.5-2.2-4.2l0,0c0.6-1.6,2.6-2.4,4.4-1.7
					l11,4.1C205.6,224.8,206.6,226.6,205.9,228.3L205.9,228.3z"/>
			</g>
		</g>
	</g>
	<g>
		<g>
			<path class="st2" d="M168.6,134.1l-16.4-28.3c-0.7-1.1-2-1.6-3.2-1.3c-1.2-0.3-2.5,0.2-3.2,1.3l-16.4,28.3
				c-0.8,1.4-0.3,3.1,1,3.9c1.4,0.8,3.1,0.3,3.9-1.1l14.6-25.3l14.6,25.3c0.8,1.4,2.5,1.8,3.9,1.1
				C168.9,137.2,169.4,135.4,168.6,134.1z"/>
			<path class="st2" d="M152.5,137.2c0,1.9-1.6,3.5-3.5,3.5l0,0c-1.9,0-3.5-1.6-3.5-3.5V97.8c0-1.9,1.5-3.5,3.5-3.5l0,0
				c1.9,0,3.5,1.6,3.5,3.5V137.2z"/>
		</g>
		<path class="st0" d="M195.8,94.1c0,2.7-2.2,4.9-4.9,4.9h-83.7c-2.7,0-4.9-2.2-4.9-4.9V38.4c0-2.7,2.2-4.9,4.9-4.9h83.7
			c2.7,0,4.9,2.2,4.9,4.9V94.1z"/>
		<g>
			<rect x="131" y="65.9" class="st3" width="6.2" height="22.2"/>
			<rect x="141.8" y="55.8" class="st3" width="6.3" height="32.3"/>
			<rect x="155.4" y="72.3" class="st3" width="6.2" height="15.8"/>
			<rect x="167.6" y="65.9" class="st3" width="6.2" height="22.2"/>
			<polygon class="st5" points="170.8,52.5 165.5,55.6 167.5,56.7 158.4,67.9 145.3,45.4 131.6,63.6 132.9,64.3 145.2,48.2 
				158.1,70.6 168.8,57.5 170.8,58.6 			"/>
			<rect x="123.2" y="45.4" class="st5" width="1.9" height="47.8"/>
			<rect x="118.6" y="88.1" class="st5" width="60.9" height="1.7"/>
		</g>
		<path class="st2" d="M199,34.2c0,2.7-2.2,4.9-4.9,4.9H104c-2.7,0-4.9-2.2-4.9-4.9l0,0c0-2.7,2.2-4.9,4.9-4.9h90.1
			C196.8,29.3,199,31.5,199,34.2L199,34.2z"/>
	</g>
	<g>
		<path class="st1" d="M218.9,215.9l-2-1.9c16.1-17.3,24.9-39.8,24.9-63.4c0-22.1-7.9-43.5-22.1-60.3l2.1-1.8
			c14.7,17.3,22.8,39.3,22.8,62C244.5,175,235.4,198.2,218.9,215.9z"/>
	</g>
	<g>
		<path class="st1" d="M55.6,150.7h-2.8c0-31,15.1-60.2,40.3-78.1l1.6,2.2C70.2,92.3,55.6,120.6,55.6,150.7z"/>
	</g>
	<g>
		<path class="st1" d="M148.7,246.5c-17.8,0-35.2-4.9-50.3-14.2l1.5-2.4c14.6,9,31.5,13.8,48.8,13.8c7.3,0,14.5-0.8,21.5-2.5
			l0.6,2.7C163.6,245.7,156.2,246.5,148.7,246.5z"/>
	</g>
	<g>
		<g>
			<path class="st2" d="M185.2,115.8c-7.6,0-14.7-2.9-20-8.3c-5.4-5.3-8.3-12.5-8.3-20c0-7.6,2.9-14.7,8.3-20
				c5.4-5.3,12.5-8.3,20-8.3c7.6,0,14.7,3,20,8.3c11.1,11.1,11.1,29,0,40.1C199.9,112.8,192.8,115.8,185.2,115.8z M185.2,67.4
				c-5.4,0-10.4,2.1-14.2,5.9c-3.8,3.8-5.9,8.8-5.9,14.2c0,5.4,2.1,10.4,5.9,14.2c3.8,3.8,8.8,5.9,14.2,5.9c5.4,0,10.4-2.1,14.2-5.9
				c7.8-7.8,7.8-20.5,0-28.3C195.6,69.5,190.6,67.4,185.2,67.4z"/>
		</g>
		<g>
			
				<rect x="204.4" y="101.5" transform="matrix(0.7072 -0.707 0.707 0.7072 -17.2133 179.846)" class="st2" width="8.3" height="18.4"/>
		</g>
		<path class="st4" d="M252.6,145.8c1.5,1.5,1.5,3.8,0,5.3l-3.7,3.7c-1.5,1.5-3.8,1.5-5.3,0l-34.6-34.6c-1.5-1.5-1.5-3.8,0-5.3
			l3.7-3.7c1.5-1.5,3.8-1.5,5.3,0L252.6,145.8z"/>
		<g>
			
				<rect x="210.7" y="117.8" transform="matrix(0.7086 -0.7056 0.7056 0.7086 -20.8711 187.8709)" class="st2" width="12.7" height="2.8"/>
		</g>
		<g>
			
				<rect x="213.8" y="120.9" transform="matrix(0.7068 -0.7074 0.7074 0.7068 -21.9798 191.5865)" class="st2" width="12.7" height="2.8"/>
		</g>
		<g>
			
				<rect x="238.4" y="145.5" transform="matrix(0.7077 -0.7065 0.7065 0.7077 -32.2557 215.8206)" class="st2" width="12.7" height="2.8"/>
		</g>
		<g>
			
				<rect x="235.3" y="142.4" transform="matrix(0.7065 -0.7077 0.7077 0.7065 -30.8457 213.2073)" class="st2" width="12.7" height="2.8"/>
		</g>
	</g>
</g>
<g>
</g>
<g>
</g>
<g>
</g>
<g>
</g>
<g>
</g>
<g>
</g>
<g>
</g>
<g>
</g>
<g>
</g>
<g>
</g>
<g>
</g>
<g>
</g>
<g>
</g>
<g>
</g>
<g>
</g>
</svg>
