<?xml version="1.0" encoding="utf-8"?>
<!-- Generator: Adobe Illustrator 20.1.0, SVG Export Plug-In . SVG Version: 6.00 Build 0)  -->
<svg version="1.1" id="Слой_1" xmlns="http://www.w3.org/2000/svg" xmlns:xlink="http://www.w3.org/1999/xlink" x="0px" y="0px"
	 viewBox="0 0 300 300" style="enable-background:new 0 0 300 300;" xml:space="preserve">
<style type="text/css">
	.st0{fill:#AEBFCE;}
	.st1{fill:#768296;}
	.st2{fill:#FCD751;}
	.st3{fill:#1C4670;}
	.st4{fill:#FFA229;}
</style>
<g>
	<g>
		<path class="st0" d="M86.6,116.5c-0.1,1.6-1.1,2.8-2.2,2.7l-11-0.6c-1.2-0.1-2-1.4-1.9-2.9l0.4-8.9c0.1-1.6,1.1-2.8,2.2-2.7
			l11,0.6c1.1,0.1,2,1.4,1.9,2.9L86.6,116.5z"/>
		<path class="st0" d="M82.2,203c0.1-1.6-0.8-2.9-1.9-2.9l-11-0.5c-1.1-0.1-2.2,1.2-2.2,2.7l-0.4,8.9c-0.1,1.6,0.8,2.9,1.9,2.9
			l11,0.5c1.2,0.1,2.1-1.1,2.2-2.7L82.2,203z"/>
		<path class="st0" d="M63.9,117.3c0.7,1.4,0.5,2.9-0.6,3.5l-9.8,5c-1,0.5-2.4-0.2-3.1-1.6l-4.1-7.9c-0.7-1.4-0.5-2.9,0.6-3.5l9.8-5
			c1-0.5,2.4,0.2,3.1,1.6L63.9,117.3z"/>
		<path class="st0" d="M103.3,194.4c-0.7-1.4-2.1-2.1-3.1-1.6l-9.8,5c-1,0.5-1.3,2.1-0.6,3.5l4.1,7.9c0.7,1.4,2.1,2.1,3.2,1.6l9.8-5
			c1-0.5,1.3-2.1,0.6-3.5L103.3,194.4z"/>
		<path class="st0" d="M44.6,129.4c1.3,0.8,1.9,2.3,1.3,3.3l-6,9.3c-0.6,1-2.2,1.1-3.5,0.2l-7.5-4.8c-1.3-0.9-1.9-2.3-1.2-3.3l6-9.3
			c0.6-1,2.2-1.1,3.5-0.2L44.6,129.4z"/>
		<path class="st0" d="M117.3,176.5c-1.3-0.8-2.9-0.7-3.5,0.2l-6,9.3c-0.6,1-0.1,2.4,1.2,3.3l7.5,4.8c1.3,0.9,2.9,0.8,3.5-0.2l6-9.3
			c0.6-1,0.1-2.4-1.2-3.3L117.3,176.5z"/>
		<path class="st0" d="M33.9,149.5c1.6,0.1,2.8,1.1,2.7,2.2l-0.6,11c-0.1,1.2-1.4,2-2.9,1.9l-8.9-0.4c-1.6-0.1-2.8-1.1-2.7-2.2
			l0.6-11c0.1-1.2,1.4-2,2.9-1.9L33.9,149.5z"/>
		<path class="st0" d="M120.5,153.9c-1.6-0.1-2.9,0.8-2.9,1.9l-0.6,11c-0.1,1.2,1.2,2.2,2.7,2.2l8.9,0.5c1.6,0.1,2.9-0.8,2.9-1.9
			l0.6-11c0.1-1.2-1.2-2.1-2.7-2.2L120.5,153.9z"/>
		<path class="st0" d="M34.8,172.3c1.4-0.7,2.9-0.5,3.5,0.6l5,9.8c0.5,1-0.2,2.4-1.6,3.2l-7.9,4c-1.4,0.7-2.9,0.5-3.5-0.6l-5-9.8
			c-0.5-1,0.2-2.4,1.6-3.2L34.8,172.3z"/>
		<path class="st0" d="M111.9,132.8c-1.4,0.7-2.1,2.1-1.6,3.1l5,9.8c0.5,1,2.1,1.3,3.5,0.6l7.9-4c1.4-0.7,2.1-2.1,1.6-3.1l-5-9.8
			c-0.5-1-2.1-1.3-3.5-0.6L111.9,132.8z"/>
		<path class="st0" d="M46.9,191.6c0.9-1.3,2.3-1.9,3.3-1.2l9.3,6c1,0.6,1.1,2.2,0.2,3.5l-4.8,7.5c-0.8,1.3-2.3,1.9-3.3,1.2l-9.3-6
			c-1-0.6-1.1-2.2-0.2-3.5L46.9,191.6z"/>
		<path class="st0" d="M93.9,118.8c-0.8,1.3-0.8,2.9,0.2,3.5l9.3,6c1,0.6,2.4,0.1,3.3-1.2l4.8-7.5c0.8-1.3,0.7-2.9-0.2-3.5l-9.3-6
			c-1-0.6-2.4-0.1-3.3,1.2L93.9,118.8z"/>
		<path class="st1" d="M79.2,112.9c-25.7-1.3-47.5,18.4-48.8,44.1c-1.3,25.7,18.4,47.5,44.1,48.8c25.7,1.3,47.5-18.4,48.8-44.1
			C124.6,136,104.8,114.2,79.2,112.9z M75.3,189.9c-16.9-0.8-29.9-15.2-29-32.1c0.9-16.9,15.3-29.9,32.1-29
			c16.9,0.8,29.9,15.2,29,32.1C106.5,177.8,92.2,190.8,75.3,189.9z"/>
	</g>
	<g>
		<path class="st0" d="M96.5,29.2c0,1-0.7,1.8-1.4,1.8l-7.2-0.4c-0.8,0-1.3-0.9-1.3-1.9l0.3-5.8c0-1,0.7-1.8,1.5-1.8l7.2,0.4
			c0.7,0,1.3,0.9,1.3,1.9L96.5,29.2z"/>
		<path class="st0" d="M93.6,85.6c0-1-0.5-1.9-1.3-1.9l-7.2-0.4c-0.8,0-1.4,0.8-1.5,1.8l-0.3,5.8c-0.1,1,0.5,1.9,1.3,1.9l7.2,0.4
			c0.7,0,1.4-0.8,1.4-1.8L93.6,85.6z"/>
		<path class="st0" d="M81.7,29.8c0.5,0.9,0.3,1.9-0.4,2.3l-6.4,3.3c-0.7,0.3-1.6-0.1-2.1-1l-2.6-5.2c-0.5-0.9-0.3-1.9,0.4-2.3
			l6.4-3.3c0.7-0.3,1.6,0.1,2,1L81.7,29.8z"/>
		<path class="st0" d="M107.4,80.1c-0.5-0.9-1.4-1.4-2.1-1l-6.4,3.3c-0.7,0.3-0.8,1.4-0.4,2.3l2.6,5.2c0.5,0.9,1.4,1.4,2.1,1
			l6.4-3.3c0.7-0.3,0.8-1.4,0.4-2.3L107.4,80.1z"/>
		<path class="st0" d="M69.1,37.7c0.9,0.5,1.2,1.5,0.8,2.1l-3.9,6c-0.4,0.6-1.4,0.7-2.3,0.1l-4.9-3.2c-0.9-0.6-1.2-1.5-0.8-2.1
			l3.9-6c0.4-0.6,1.4-0.7,2.3-0.1L69.1,37.7z"/>
		<path class="st0" d="M116.5,68.3c-0.9-0.5-1.9-0.5-2.3,0.1l-3.9,6c-0.4,0.6-0.1,1.6,0.8,2.1l4.9,3.1c0.8,0.6,1.9,0.5,2.3-0.1
			l3.9-6c0.4-0.6,0.1-1.6-0.8-2.1L116.5,68.3z"/>
		<path class="st0" d="M62.2,50.8c1,0.1,1.8,0.7,1.8,1.5l-0.4,7.2c0,0.7-0.9,1.3-1.9,1.3l-5.8-0.3c-1-0.1-1.8-0.7-1.8-1.5l0.4-7.2
			c0-0.8,0.9-1.3,1.9-1.3L62.2,50.8z"/>
		<path class="st0" d="M118.6,53.7c-1-0.1-1.9,0.5-1.9,1.3l-0.4,7.2c0,0.8,0.8,1.4,1.8,1.5l5.8,0.3c1,0,1.9-0.5,1.9-1.3l0.4-7.2
			c0-0.7-0.8-1.4-1.8-1.5L118.6,53.7z"/>
		<path class="st0" d="M62.7,65.6c0.9-0.5,1.9-0.3,2.3,0.4l3.3,6.4c0.3,0.7-0.1,1.6-1,2.1l-5.2,2.6c-0.9,0.5-1.9,0.3-2.3-0.4
			l-3.3-6.4c-0.3-0.7,0.1-1.6,1-2L62.7,65.6z"/>
		<path class="st0" d="M113,39.9c-0.9,0.5-1.4,1.4-1,2.1l3.3,6.4c0.3,0.7,1.4,0.8,2.3,0.4l5.2-2.6c0.9-0.5,1.4-1.4,1-2.1l-3.3-6.4
			c-0.3-0.7-1.4-0.8-2.3-0.4L113,39.9z"/>
		<path class="st0" d="M70.6,78.2c0.6-0.9,1.5-1.2,2.1-0.8l6,3.9c0.6,0.4,0.7,1.4,0.1,2.3l-3.2,4.9c-0.6,0.8-1.5,1.2-2.2,0.8l-6-3.9
			c-0.6-0.4-0.7-1.4-0.1-2.3L70.6,78.2z"/>
		<path class="st0" d="M101.3,30.8c-0.6,0.9-0.5,1.9,0.1,2.3l6,3.9c0.6,0.4,1.6,0.1,2.1-0.8l3.2-4.9c0.5-0.8,0.5-1.9-0.1-2.3l-6-3.9
			c-0.6-0.4-1.6,0-2.2,0.8L101.3,30.8z"/>
		<path class="st1" d="M91.6,26.9c-16.7-0.8-31,12-31.8,28.7c-0.9,16.7,12,31,28.7,31.8c16.7,0.8,31-12,31.8-28.7
			C121.2,42,108.4,27.8,91.6,26.9z M89.1,77.1c-11-0.6-19.5-9.9-18.9-20.9c0.6-11,9.9-19.5,20.9-18.9c11,0.6,19.5,9.9,18.9,21
			C109.5,69.2,100.1,77.7,89.1,77.1z"/>
	</g>
	<g>
		<path class="st0" d="M244.1,107.6c0,0.8-0.6,1.5-1.2,1.5l-5.9-0.3c-0.6,0-1.1-0.7-1-1.6l0.2-4.8c0-0.8,0.6-1.5,1.2-1.5l5.9,0.3
			c0.6,0,1.1,0.7,1,1.6L244.1,107.6z"/>
		<path class="st0" d="M241.8,154.1c0-0.8-0.4-1.5-1-1.6l-5.9-0.3c-0.6,0-1.2,0.6-1.2,1.5l-0.2,4.8c0,0.8,0.4,1.5,1,1.6l5.9,0.3
			c0.6,0,1.1-0.6,1.2-1.5L241.8,154.1z"/>
		<path class="st0" d="M231.9,108c0.4,0.7,0.3,1.6-0.3,1.9l-5.3,2.7c-0.5,0.3-1.3-0.1-1.7-0.8l-2.2-4.3c-0.4-0.7-0.2-1.6,0.3-1.9
			l5.3-2.7c0.5-0.3,1.3,0.1,1.7,0.8L231.9,108z"/>
		<path class="st0" d="M253.1,149.5c-0.4-0.8-1.1-1.1-1.7-0.9l-5.3,2.7c-0.6,0.3-0.7,1.1-0.3,1.9l2.2,4.3c0.4,0.8,1.1,1.1,1.7,0.8
			l5.3-2.7c0.5-0.3,0.7-1.1,0.3-1.9L253.1,149.5z"/>
		<path class="st0" d="M221.5,114.6c0.7,0.5,1,1.2,0.7,1.8l-3.2,5c-0.3,0.5-1.2,0.6-1.9,0.1l-4-2.6c-0.7-0.5-1-1.2-0.7-1.8l3.2-5
			c0.3-0.5,1.2-0.6,1.9-0.1L221.5,114.6z"/>
		<path class="st0" d="M260.6,139.9c-0.7-0.5-1.6-0.4-1.9,0.1l-3.2,5c-0.3,0.5,0,1.3,0.7,1.8l4,2.6c0.7,0.5,1.6,0.4,1.9-0.1l3.2-5
			c0.3-0.5,0-1.3-0.7-1.8L260.6,139.9z"/>
		<path class="st0" d="M215.8,125.4c0.8,0,1.5,0.6,1.5,1.2l-0.3,5.9c0,0.6-0.7,1.1-1.6,1l-4.8-0.2c-0.8,0-1.5-0.6-1.5-1.2l0.3-5.9
			c0-0.6,0.7-1.1,1.6-1L215.8,125.4z"/>
		<path class="st0" d="M262.3,127.7c-0.8,0-1.6,0.4-1.6,1l-0.3,5.9c0,0.6,0.6,1.2,1.5,1.2l4.8,0.2c0.8,0,1.5-0.4,1.6-1l0.3-5.9
			c0-0.6-0.6-1.2-1.5-1.2L262.3,127.7z"/>
		<path class="st0" d="M216.2,137.6c0.7-0.4,1.6-0.2,1.9,0.3l2.7,5.3c0.3,0.6-0.1,1.3-0.8,1.7l-4.3,2.2c-0.7,0.4-1.6,0.2-1.9-0.3
			l-2.7-5.3c-0.3-0.5,0.1-1.3,0.8-1.7L216.2,137.6z"/>
		<path class="st0" d="M257.7,116.4c-0.7,0.4-1.1,1.1-0.8,1.7l2.7,5.3c0.3,0.6,1.1,0.7,1.9,0.3l4.3-2.2c0.7-0.4,1.1-1.1,0.8-1.7
			l-2.7-5.3c-0.3-0.6-1.1-0.7-1.9-0.3L257.7,116.4z"/>
		<path class="st0" d="M222.8,148c0.5-0.7,1.3-1,1.8-0.7l5,3.2c0.5,0.3,0.6,1.2,0.1,1.9l-2.6,4c-0.5,0.7-1.3,1-1.8,0.7l-5-3.2
			c-0.5-0.3-0.6-1.2-0.1-1.9L222.8,148z"/>
		<path class="st0" d="M248.1,108.9c-0.5,0.7-0.4,1.5,0.1,1.9l5,3.2c0.5,0.3,1.3,0,1.8-0.7l2.6-4c0.5-0.7,0.4-1.6-0.1-1.9l-5-3.2
			c-0.5-0.3-1.3,0-1.8,0.7L248.1,108.9z"/>
		<path class="st1" d="M240.1,105.6c-13.8-0.7-25.6,9.9-26.3,23.7c-0.7,13.8,9.9,25.6,23.7,26.3c13.8,0.7,25.6-9.9,26.3-23.7
			C264.5,118.1,253.9,106.4,240.1,105.6z M238,147.1c-9.1-0.5-16.1-8.2-15.6-17.3c0.5-9.1,8.2-16.1,17.3-15.6
			c9.1,0.5,16.1,8.2,15.6,17.3C254.8,140.6,247.1,147.6,238,147.1z"/>
	</g>
	<g>
		<path class="st2" d="M95,139l48.9-30.6L98.6,72.6C83.1,92.3,82.4,118.9,95,139z"/>
		<path class="st3" d="M126.1,37.1l21.6,53.5l42-39.6c-1.9-2-3.9-4-6.2-5.7C166.6,32,144.6,29.6,126.1,37.1z"/>
		<path class="st3" d="M108.2,153.8c11.9,9.4,26.4,13.4,40.5,12.2l-4.7-57.5L95,139C98.4,144.5,102.8,149.5,108.2,153.8z"/>
		<path class="st0" d="M98.6,72.6l45.3,35.8l-21.6-53.5C113.3,58.5,105.1,64.4,98.6,72.6z"/>
		<path class="st0" d="M143.9,108.4l55.5,15.8c5.4-19.2,0.6-40.4-13.6-55.4L143.9,108.4z"/>
		<path class="st4" d="M143.9,108.4l4.7,57.5c6.6-0.5,13-2.2,19.1-4.9c8.2-3.7,15.6-9.3,21.6-16.8c4.8-6.1,8.2-12.9,10.2-20
			L143.9,108.4z"/>
	</g>
	<g>
		<g>
			<path class="st3" d="M238.8,180.9c-13.3,0-25.8-5.2-35.3-14.6c-9.4-9.4-14.6-21.9-14.6-35.3c0-13.3,5.2-25.8,14.6-35.3
				c9.4-9.4,21.9-14.6,35.3-14.6c13.3,0,25.8,5.2,35.3,14.6c9.4,9.4,14.6,21.9,14.6,35.3c0,13.3-5.2,25.8-14.6,35.3
				C264.7,175.7,252.2,180.9,238.8,180.9z M238.8,91.5c-10.5,0-20.5,4.1-27.9,11.6c-7.5,7.5-11.6,17.4-11.6,27.9
				c0,10.5,4.1,20.4,11.6,27.9c7.5,7.5,17.4,11.6,27.9,11.6c10.5,0,20.4-4.1,27.9-11.6c7.5-7.5,11.6-17.4,11.6-27.9
				s-4.1-20.4-11.6-27.9C259.3,95.6,249.4,91.5,238.8,91.5z"/>
		</g>
		<g>
			
				<rect x="178.9" y="168.8" transform="matrix(0.7072 -0.707 0.707 0.7072 -65.6741 189.4129)" class="st3" width="34" height="10.4"/>
		</g>
		<path class="st0" d="M114.4,238.9c-2.7,2.7-2.7,7.1,0,9.8l6.7,6.7c2.7,2.7,7.1,2.7,9.8,0l63.8-63.8c2.7-2.7,2.7-7.1,0-9.8
			l-6.7-6.7c-2.7-2.7-7.1-2.7-9.8,0L114.4,238.9z"/>
		<g>
			
				<rect x="178.4" y="178" transform="matrix(0.7071 -0.7071 0.7071 0.7071 -81.3688 182.9316)" class="st2" width="3.5" height="23.4"/>
		</g>
		<g>
			
				<rect x="172.7" y="183.7" transform="matrix(0.7072 -0.707 0.707 0.7072 -87.0936 180.5462)" class="st2" width="3.5" height="23.4"/>
		</g>
		<g>
			
				<rect x="127.3" y="229.1" transform="matrix(0.7069 -0.7073 0.7073 0.7069 -132.5118 161.8495)" class="st2" width="3.5" height="23.4"/>
		</g>
		<g>
			
				<rect x="133" y="223.4" transform="matrix(0.707 -0.7072 0.7072 0.707 -126.7701 164.1761)" class="st2" width="3.5" height="23.4"/>
		</g>
	</g>
</g>
<g>
</g>
<g>
</g>
<g>
</g>
<g>
</g>
<g>
</g>
<g>
</g>
<g>
</g>
<g>
</g>
<g>
</g>
<g>
</g>
<g>
</g>
<g>
</g>
<g>
</g>
<g>
</g>
<g>
</g>
</svg>
