<?xml version="1.0" encoding="utf-8"?>
<!-- Generator: Adobe Illustrator 20.1.0, SVG Export Plug-In . SVG Version: 6.00 Build 0)  -->
<svg version="1.1" id="Слой_1" xmlns="http://www.w3.org/2000/svg" xmlns:xlink="http://www.w3.org/1999/xlink" x="0px" y="0px"
	 viewBox="0 0 300 300" style="enable-background:new 0 0 300 300;" xml:space="preserve">
<style type="text/css">
	.st0{fill:#1C4670;}
	.st1{fill:#768296;}
	.st2{fill:url(#SVGID_1_);}
	.st3{fill:#FFFFFF;}
	.st4{fill:#FFA229;}
	.st5{fill:#AEBFCE;}
	.st6{fill:url(#SVGID_2_);}
	.st7{fill:url(#SVGID_3_);}
	.st8{fill:url(#SVGID_4_);}
	.st9{fill:url(#SVGID_5_);}
</style>
<g>
	<g>
		<path class="st0" d="M103.6,36.8c0,0.6-0.4,1.1-0.8,1.1l-4.2,0c-0.5,0-0.8-0.5-0.8-1.1l0-3.4c0-0.6,0.4-1.1,0.8-1.1l4.2,0
			c0.4,0,0.8,0.5,0.8,1.1L103.6,36.8z"/>
		<path class="st0" d="M103.4,69.8c0-0.6-0.4-1.1-0.8-1.1l-4.2,0c-0.4,0-0.8,0.5-0.8,1.1l0,3.4c0,0.6,0.3,1.1,0.8,1.1l4.2,0
			c0.4,0,0.8-0.5,0.8-1.1L103.4,69.8z"/>
		<path class="st0" d="M95,37.5c0.3,0.5,0.2,1.1-0.2,1.3l-3.7,2.1c-0.4,0.2-0.9,0-1.2-0.5l-1.7-3c-0.3-0.5-0.2-1.1,0.2-1.3l3.7-2.1
			c0.4-0.2,0.9,0,1.2,0.5L95,37.5z"/>
		<path class="st0" d="M111.3,66.2c-0.3-0.5-0.8-0.8-1.2-0.6l-3.7,2.1c-0.4,0.2-0.5,0.8-0.2,1.3l1.7,2.9c0.3,0.5,0.9,0.8,1.2,0.6
			l3.7-2.1c0.4-0.2,0.4-0.8,0.2-1.3L111.3,66.2z"/>
		<path class="st0" d="M87.8,42.4c0.5,0.3,0.8,0.9,0.5,1.2l-2.1,3.6c-0.2,0.4-0.8,0.4-1.4,0.1L82,45.7c-0.5-0.3-0.8-0.9-0.5-1.2
			l2.1-3.6c0.2-0.4,0.8-0.4,1.3-0.1L87.8,42.4z"/>
		<path class="st0" d="M116.3,59.2c-0.5-0.3-1.1-0.2-1.3,0.1l-2.1,3.6c-0.2,0.4,0,0.9,0.5,1.2l2.9,1.7c0.5,0.3,1.1,0.2,1.3-0.1
			l2.1-3.6c0.2-0.4,0-0.9-0.5-1.2L116.3,59.2z"/>
		<path class="st0" d="M84.1,50.3c0.6,0,1.1,0.4,1.1,0.8l0,4.2c0,0.4-0.5,0.8-1.1,0.8l-3.4,0c-0.6,0-1.1-0.4-1.1-0.8l0-4.2
			c0-0.4,0.5-0.8,1.1-0.8L84.1,50.3z"/>
		<path class="st0" d="M117.1,50.5c-0.6,0-1.1,0.4-1.1,0.8l0,4.2c0,0.4,0.5,0.8,1.1,0.8l3.4,0c0.6,0,1.1-0.3,1.1-0.8l0-4.2
			c0-0.4-0.5-0.8-1.1-0.8L117.1,50.5z"/>
		<path class="st0" d="M84.8,58.9c0.5-0.3,1.1-0.2,1.3,0.2l2.1,3.7c0.2,0.4,0,0.9-0.5,1.2l-3,1.7c-0.5,0.3-1.1,0.2-1.3-0.2l-2.1-3.7
			c-0.2-0.4,0-0.9,0.5-1.2L84.8,58.9z"/>
		<path class="st0" d="M113.5,42.6c-0.5,0.3-0.8,0.8-0.6,1.2l2.1,3.7c0.2,0.4,0.8,0.5,1.3,0.2l3-1.7c0.5-0.3,0.8-0.8,0.5-1.2
			l-2.1-3.7c-0.2-0.4-0.8-0.4-1.3-0.2L113.5,42.6z"/>
		<path class="st0" d="M89.7,66.1c0.3-0.5,0.9-0.7,1.2-0.5l3.6,2.1c0.4,0.2,0.4,0.8,0.1,1.3L93,71.9c-0.3,0.5-0.8,0.8-1.2,0.5
			l-3.6-2.1c-0.4-0.2-0.4-0.8-0.1-1.3L89.7,66.1z"/>
		<path class="st0" d="M106.5,37.6c-0.3,0.5-0.2,1.1,0.1,1.3l3.6,2.1c0.4,0.2,0.9,0,1.2-0.5l1.7-2.9c0.3-0.5,0.2-1.1-0.1-1.3
			l-3.6-2.1c-0.4-0.2-0.9,0-1.2,0.5L106.5,37.6z"/>
		<path class="st0" d="M100.7,35.5c-9.8-0.1-17.8,7.8-17.9,17.6C82.8,62.9,90.6,71,100.4,71c9.8,0.1,17.8-7.8,17.9-17.6
			C118.4,43.6,110.5,35.6,100.7,35.5z M100.5,65c-6.5,0-11.6-5.3-11.6-11.8c0-6.4,5.3-11.6,11.8-11.6c6.5,0.1,11.6,5.3,11.6,11.8
			C112.2,59.8,107,65,100.5,65z"/>
	</g>
	<g>
		<path class="st0" d="M225.8,141.8c0,0.4-0.3,0.8-0.6,0.8l-3,0c-0.3,0-0.6-0.4-0.6-0.8l0-2.5c0-0.4,0.3-0.8,0.6-0.8l3,0
			c0.3,0,0.6,0.4,0.6,0.8L225.8,141.8z"/>
		<path class="st0" d="M225.6,165.7c0-0.4-0.3-0.8-0.6-0.8l-3,0c-0.3,0-0.6,0.4-0.6,0.8l0,2.5c0,0.4,0.2,0.8,0.6,0.8l3.1,0
			c0.3,0,0.6-0.3,0.6-0.8L225.6,165.7z"/>
		<path class="st0" d="M219.5,142.3c0.2,0.4,0.2,0.8-0.1,1l-2.6,1.5c-0.3,0.2-0.7,0-0.9-0.4l-1.2-2.1c-0.2-0.4-0.2-0.8,0.1-1
			l2.6-1.5c0.3-0.2,0.7,0,0.9,0.4L219.5,142.3z"/>
		<path class="st0" d="M231.3,163.1c-0.2-0.4-0.6-0.6-0.9-0.4l-2.7,1.5c-0.3,0.2-0.3,0.6-0.1,1l1.2,2.1c0.2,0.4,0.6,0.6,0.9,0.4
			l2.7-1.5c0.3-0.2,0.3-0.6,0.1-1L231.3,163.1z"/>
		<path class="st0" d="M214.4,145.9c0.4,0.2,0.5,0.6,0.4,0.9l-1.5,2.6c-0.2,0.3-0.6,0.3-1,0.1l-2.1-1.2c-0.4-0.2-0.5-0.6-0.4-0.9
			l1.5-2.6c0.2-0.3,0.6-0.3,1-0.1L214.4,145.9z"/>
		<path class="st0" d="M234.9,158c-0.4-0.2-0.8-0.2-1,0.1l-1.5,2.6c-0.2,0.3,0,0.7,0.4,0.9l2.1,1.2c0.4,0.2,0.8,0.2,1-0.1l1.5-2.6
			c0.2-0.3,0-0.7-0.4-0.9L234.9,158z"/>
		<path class="st0" d="M211.7,151.5c0.4,0,0.8,0.3,0.8,0.6l0,3c0,0.3-0.4,0.6-0.8,0.6l-2.5,0c-0.4,0-0.8-0.3-0.8-0.6l0-3
			c0-0.3,0.4-0.6,0.8-0.6L211.7,151.5z"/>
		<path class="st0" d="M235.6,151.7c-0.4,0-0.8,0.3-0.8,0.6l0,3c0,0.3,0.4,0.6,0.8,0.6l2.5,0c0.4,0,0.8-0.2,0.8-0.6l0-3
			c0-0.3-0.3-0.6-0.8-0.6L235.6,151.7z"/>
		<path class="st0" d="M212.2,157.8c0.4-0.2,0.8-0.2,0.9,0.1l1.5,2.6c0.2,0.3,0,0.7-0.4,0.9l-2.1,1.2c-0.4,0.2-0.8,0.2-1-0.1
			l-1.5-2.6c-0.2-0.3,0-0.7,0.4-0.9L212.2,157.8z"/>
		<path class="st0" d="M232.9,146c-0.4,0.2-0.5,0.6-0.4,0.9l1.5,2.6c0.2,0.3,0.6,0.3,0.9,0.1l2.1-1.2c0.4-0.2,0.5-0.6,0.4-0.9
			l-1.5-2.7c-0.2-0.3-0.6-0.3-1-0.1L232.9,146z"/>
		<path class="st0" d="M215.7,162.9c0.2-0.4,0.6-0.5,0.9-0.4l2.6,1.5c0.3,0.2,0.3,0.6,0.1,1l-1.2,2.1c-0.2,0.4-0.6,0.5-0.9,0.4
			l-2.6-1.5c-0.3-0.2-0.3-0.6-0.1-1L215.7,162.9z"/>
		<path class="st0" d="M227.8,142.4c-0.2,0.4-0.2,0.8,0.1,1l2.6,1.5c0.3,0.2,0.7,0,0.9-0.4l1.2-2.1c0.2-0.4,0.2-0.8-0.1-1l-2.6-1.5
			c-0.3-0.2-0.7,0-0.9,0.4L227.8,142.4z"/>
		<path class="st0" d="M223.7,140.9c-7.1-0.1-12.9,5.6-12.9,12.7c-0.1,7.1,5.6,12.9,12.7,12.9c7.1,0,12.9-5.6,12.9-12.7
			C236.5,146.7,230.8,140.9,223.7,140.9z M223.5,162.2c-4.7,0-8.4-3.8-8.4-8.5c0-4.7,3.8-8.4,8.5-8.4c4.7,0,8.4,3.9,8.4,8.5
			C232,158.5,228.2,162.2,223.5,162.2z"/>
	</g>
	<g>
		<path class="st0" d="M96.1,174.7c0,0.4-0.2,0.6-0.5,0.6l-2.5,0c-0.3,0-0.5-0.3-0.5-0.6l0-2c0-0.4,0.2-0.6,0.5-0.6l2.5,0
			c0.3,0,0.5,0.3,0.5,0.7L96.1,174.7z"/>
		<path class="st0" d="M96,194.4c0-0.4-0.2-0.6-0.5-0.6l-2.5,0c-0.3,0-0.5,0.3-0.5,0.6l0,2c0,0.4,0.2,0.6,0.5,0.6l2.5,0
			c0.3,0,0.5-0.3,0.5-0.6L96,194.4z"/>
		<path class="st0" d="M90.9,175.1c0.2,0.3,0.1,0.7-0.1,0.8l-2.2,1.2c-0.2,0.1-0.6,0-0.7-0.3l-1-1.8c-0.2-0.3-0.1-0.7,0.1-0.8
			l2.2-1.2c0.2-0.1,0.6,0,0.7,0.3L90.9,175.1z"/>
		<path class="st0" d="M100.7,192.3c-0.2-0.3-0.5-0.5-0.7-0.3l-2.2,1.2c-0.2,0.1-0.3,0.5-0.1,0.8l1,1.8c0.2,0.3,0.5,0.5,0.7,0.3
			l2.2-1.2c0.2-0.1,0.3-0.5,0.1-0.8L100.7,192.3z"/>
		<path class="st0" d="M86.7,178.1c0.3,0.2,0.4,0.5,0.3,0.7l-1.3,2.2c-0.1,0.2-0.5,0.3-0.8,0.1l-1.7-1c-0.3-0.2-0.5-0.5-0.3-0.7
			l1.3-2.2c0.1-0.2,0.5-0.3,0.8-0.1L86.7,178.1z"/>
		<path class="st0" d="M103.7,188.1c-0.3-0.2-0.7-0.1-0.8,0.1l-1.3,2.2c-0.1,0.2,0,0.6,0.3,0.7l1.7,1c0.3,0.2,0.7,0.1,0.8-0.1
			l1.3-2.2c0.1-0.2,0-0.6-0.3-0.7L103.7,188.1z"/>
		<path class="st0" d="M84.4,182.8c0.4,0,0.6,0.2,0.6,0.5l0,2.5c0,0.3-0.3,0.5-0.6,0.5l-2,0c-0.4,0-0.6-0.2-0.6-0.5l0-2.5
			c0-0.3,0.3-0.5,0.7-0.5L84.4,182.8z"/>
		<path class="st0" d="M104.2,182.9c-0.4,0-0.6,0.2-0.7,0.5l0,2.5c0,0.3,0.3,0.5,0.6,0.5l2,0c0.4,0,0.6-0.2,0.7-0.5l0-2.5
			c0-0.3-0.3-0.5-0.6-0.5L104.2,182.9z"/>
		<path class="st0" d="M84.9,187.9c0.3-0.2,0.7-0.1,0.8,0.1l1.2,2.2c0.1,0.2,0,0.6-0.3,0.7l-1.8,1c-0.3,0.2-0.7,0.1-0.8-0.1
			l-1.2-2.2c-0.1-0.2,0-0.6,0.3-0.7L84.9,187.9z"/>
		<path class="st0" d="M102,178.2c-0.3,0.2-0.4,0.5-0.3,0.7l1.3,2.2c0.1,0.2,0.5,0.3,0.8,0.1l1.8-1c0.3-0.2,0.5-0.5,0.3-0.7
			l-1.2-2.2c-0.1-0.2-0.5-0.3-0.8-0.1L102,178.2z"/>
		<path class="st0" d="M87.8,192.2c0.2-0.3,0.5-0.4,0.7-0.3l2.2,1.3c0.2,0.1,0.3,0.5,0.1,0.8l-1,1.7c-0.2,0.3-0.5,0.4-0.7,0.3
			l-2.2-1.3c-0.2-0.1-0.3-0.5-0.1-0.8L87.8,192.2z"/>
		<path class="st0" d="M97.8,175.2c-0.2,0.3-0.1,0.7,0.1,0.8l2.2,1.3c0.2,0.1,0.6,0,0.7-0.3l1-1.7c0.2-0.3,0.1-0.7-0.1-0.8l-2.2-1.3
			c-0.2-0.1-0.6,0-0.7,0.3L97.8,175.2z"/>
		<path class="st0" d="M94.4,174c-5.9,0-10.6,4.7-10.7,10.5c0,5.9,4.7,10.6,10.5,10.7c5.9,0,10.6-4.7,10.7-10.5
			C104.9,178.8,100.2,174,94.4,174z M94.2,191.5c-3.9,0-7-3.2-6.9-7c0-3.9,3.2-6.9,7-6.9c3.9,0,7,3.2,6.9,7
			C101.2,188.5,98.1,191.6,94.2,191.5z"/>
	</g>
	<g>
		<path class="st0" d="M143.6,44.5c0,0.4-0.3,0.8-0.6,0.8l-3,0c-0.3,0-0.6-0.4-0.6-0.8l0-2.5c0-0.4,0.3-0.8,0.6-0.8l3,0
			c0.3,0,0.6,0.4,0.6,0.8L143.6,44.5z"/>
		<path class="st0" d="M143.5,68.4c0-0.4-0.3-0.8-0.6-0.8l-3,0c-0.3,0-0.6,0.4-0.6,0.8l0,2.5c0,0.4,0.3,0.8,0.6,0.8l3.1,0
			c0.3,0,0.6-0.3,0.6-0.8L143.5,68.4z"/>
		<path class="st0" d="M137.4,45.1c0.2,0.4,0.2,0.8-0.1,1l-2.6,1.5c-0.3,0.2-0.7,0-0.9-0.4l-1.2-2.1c-0.2-0.4-0.2-0.8,0.1-1l2.6-1.5
			c0.3-0.2,0.7,0,0.9,0.4L137.4,45.1z"/>
		<path class="st0" d="M149.2,65.8c-0.2-0.4-0.6-0.6-0.9-0.4l-2.6,1.5c-0.3,0.2-0.3,0.6-0.1,1l1.2,2.1c0.2,0.4,0.6,0.6,0.9,0.4
			l2.7-1.5c0.3-0.2,0.3-0.6,0.1-1L149.2,65.8z"/>
		<path class="st0" d="M132.2,48.6c0.4,0.2,0.5,0.6,0.4,0.9l-1.5,2.6c-0.2,0.3-0.6,0.3-1,0.1L128,51c-0.4-0.2-0.5-0.6-0.4-0.9
			l1.5-2.6c0.2-0.3,0.6-0.3,1-0.1L132.2,48.6z"/>
		<path class="st0" d="M152.8,60.7c-0.4-0.2-0.8-0.2-1,0.1l-1.5,2.6c-0.2,0.3,0,0.7,0.4,0.9l2.1,1.2c0.4,0.2,0.8,0.2,1-0.1l1.5-2.6
			c0.2-0.3,0-0.7-0.4-0.9L152.8,60.7z"/>
		<path class="st0" d="M129.5,54.3c0.4,0,0.8,0.3,0.8,0.6l0,3c0,0.3-0.4,0.6-0.8,0.6l-2.5,0c-0.4,0-0.8-0.3-0.8-0.6l0-3
			c0-0.3,0.4-0.6,0.8-0.6L129.5,54.3z"/>
		<path class="st0" d="M153.4,54.5c-0.4,0-0.8,0.3-0.8,0.6l0,3c0,0.3,0.4,0.6,0.8,0.6l2.5,0c0.4,0,0.8-0.3,0.8-0.6l0-3
			c0-0.3-0.3-0.6-0.8-0.6L153.4,54.5z"/>
		<path class="st0" d="M130,60.5c0.4-0.2,0.8-0.2,0.9,0.1l1.5,2.6c0.2,0.3,0,0.7-0.4,0.9l-2.1,1.2c-0.4,0.2-0.8,0.2-1-0.1l-1.5-2.6
			c-0.2-0.3,0-0.7,0.4-0.9L130,60.5z"/>
		<path class="st0" d="M150.8,48.8c-0.4,0.2-0.5,0.6-0.4,0.9l1.5,2.6c0.2,0.3,0.6,0.3,1,0.1l2.1-1.2c0.4-0.2,0.6-0.6,0.4-0.9
			l-1.5-2.7c-0.2-0.3-0.6-0.3-1-0.1L150.8,48.8z"/>
		<path class="st0" d="M133.6,65.7c0.2-0.4,0.6-0.5,0.9-0.4l2.6,1.5c0.3,0.2,0.3,0.6,0.1,1l-1.2,2.1c-0.2,0.4-0.6,0.5-0.9,0.4
			l-2.6-1.5c-0.3-0.2-0.3-0.6-0.1-1L133.6,65.7z"/>
		<path class="st0" d="M145.7,45.1c-0.2,0.4-0.2,0.8,0.1,1l2.6,1.5c0.3,0.2,0.7,0,0.9-0.4l1.2-2.1c0.2-0.4,0.2-0.8-0.1-1l-2.6-1.5
			c-0.3-0.2-0.7,0-0.9,0.4L145.7,45.1z"/>
		<path class="st0" d="M141.6,43.6c-7.1-0.1-12.9,5.6-12.9,12.7c-0.1,7.1,5.6,12.9,12.7,12.9c7.1,0.1,12.9-5.6,12.9-12.7
			C154.3,49.5,148.6,43.7,141.6,43.6z M141.4,64.9c-4.7,0-8.4-3.8-8.4-8.5c0-4.7,3.8-8.4,8.5-8.4c4.7,0,8.4,3.9,8.4,8.5
			C149.9,61.2,146.1,64.9,141.4,64.9z"/>
	</g>
	<g>
		<path class="st0" d="M152,242.2c-0.7,0-1.3-0.6-1.3-1.4v-19.5c0-4-2.9-7.2-6.4-7.2h-24.6c-4.9,0-9-3.2-9-7.2c0-4,4-7.2,9-7.2h65.2
			c3.8,0,6.4-2.1,6.4-4c0-1.9-2.6-4-6.4-4h-36c-4.9,0-9-3.7-9-8.1c0-4.5,4-8.1,9-8.1h33.7c3.5,0,6.4-2.5,6.4-5.4
			c0-2.9-2.9-5.4-6.4-5.4h-63.8c-4.9,0-9-4.2-9-9.4v-7.9c0-0.8,0.6-1.4,1.3-1.4s1.3,0.6,1.3,1.4v7.9c0,3.6,2.9,6.5,6.4,6.5h63.8
			c4.9,0,9,3.7,9,8.3c0,4.6-4,8.3-9,8.3h-33.7c-3.5,0-6.4,2.4-6.4,5.2c0,2.8,2.9,5.2,6.4,5.2h36c5,0,9,3,9,6.9c0,3.9-3.9,6.9-9,6.9
			h-65.2c-3.5,0-6.4,2-6.4,4.3c0,2.4,2.9,4.3,6.4,4.3h24.6c4.9,0,9,4.5,9,10.1v19.5C153.3,241.6,152.7,242.2,152,242.2z"/>
	</g>
	<g>
		<path class="st1" d="M143.7,184.3c-0.8,0-1.6-0.1-2.3-0.3c-0.7,0.2-1.5,0.3-2.3,0.3H64.4c-3.7,0-6.8-3-6.8-6.8V62.2
			c0-3.7,3-6.8,6.8-6.8h70.3c2.5,0,4.9,0.8,6.8,2.3c1.9-1.4,4.2-2.3,6.8-2.3h70.3c3.7,0,6.8,3,6.8,6.8v115.3c0,3.7-3,6.8-6.8,6.8
			H143.7z"/>
		<linearGradient id="SVGID_1_" gradientUnits="userSpaceOnUse" x1="141.4536" y1="167.9732" x2="141.4536" y2="48.1699">
			<stop  offset="0" style="stop-color:#CDEFFA"/>
			<stop  offset="1" style="stop-color:#FAFAFA"/>
		</linearGradient>
		<path class="st2" d="M218.5,59.9h-60.8h-8.1h-1.3c-3.7,0-6.8,3.1-6.8,6.8c0-3.7-3.1-6.8-6.8-6.8h-1.3h-8.1H64.4
			c-1.2,0-2.3,1-2.3,2.3v115.3c0,1.2,1,2.3,2.3,2.3h4.5h1.3h8.1h46.9h8.1h1.3h4.5c1.2,0,2.3-0.6,2.3-1.2c0,0.7,1,1.2,2.3,1.2h4.5
			h1.3h8.1h46.9h8.1h1.3h4.5c1.2,0,2.3-1,2.3-2.3V62.2C220.8,61,219.7,59.9,218.5,59.9z"/>
		<path class="st3" d="M141.5,116V66.7c0-3.7-3.1-6.8-6.8-6.8h-1.3h-8.1H64.4c-1.2,0-2.3,1-2.3,2.3v115.3c0,1.2,1,2.3,2.3,2.3h4.5
			h1.3h8.1h46.9h8.1h1.3h4.5c1.2,0,2.3-0.6,2.3-1.2V116C141.5,116,141.5,116,141.5,116z"/>
		<path class="st3" d="M141.5,116V66.7c0-3.7,3.1-6.8,6.8-6.8h1.3h8.1h60.8c1.2,0,2.3,1,2.3,2.3v115.3c0,1.2-1,2.3-2.3,2.3H214h-1.3
			h-8.1h-46.9h-8.1h-1.3h-4.5c-1.2,0-2.3-0.6-2.3-1.2V116C141.5,116,141.5,116,141.5,116z"/>
		<rect x="68.7" y="67.7" class="st4" width="64" height="11.8"/>
		<rect x="68.7" y="83.5" class="st5" width="64" height="4.1"/>
		<rect x="68.7" y="99.3" class="st5" width="64" height="4.1"/>
		<rect x="68.7" y="107.2" class="st5" width="64" height="4.1"/>
		<rect x="68.7" y="115.1" class="st5" width="64" height="4.1"/>
		<rect x="68.7" y="128.7" class="st5" width="64" height="4.1"/>
		<rect x="68.7" y="136.6" class="st5" width="64" height="4.1"/>
		<rect x="68.7" y="152.4" class="st5" width="64" height="4.1"/>
		<rect x="68.7" y="160.3" class="st5" width="64" height="4.1"/>
		<rect x="150.1" y="67.7" class="st5" width="64" height="4.2"/>
		<rect x="150.1" y="75.6" class="st5" width="64" height="4.2"/>
		<rect x="150.1" y="89.1" class="st5" width="64" height="4.1"/>
		<rect x="150.1" y="97.1" class="st5" width="64" height="4.1"/>
		<rect x="150.1" y="105" class="st5" width="64" height="4.2"/>
		<rect x="150.1" y="128.7" class="st5" width="64" height="4.1"/>
		<rect x="150.1" y="136.6" class="st5" width="64" height="4.1"/>
		<rect x="150.1" y="144.5" class="st5" width="64" height="4.1"/>
		<rect x="150.1" y="160.3" class="st5" width="64" height="4.1"/>
		<polygon class="st0" points="169.2,55.4 161,55.4 161,146.6 169.2,142 177.4,146.6 177.4,55.4 		"/>
	</g>
	<path class="st1" d="M169.6,259.4c0,9.7-7.9,17.6-17.6,17.6l0,0c-9.7,0-17.6-7.9-17.6-17.6v-21.5c0-9.7,7.9-17.6,17.6-17.6l0,0
		c9.7,0,17.6,7.9,17.6,17.6V259.4z"/>
	<g>
		<path class="st5" d="M134.4,237.9v4.3H152v-22C142.3,220.3,134.4,228.1,134.4,237.9z"/>
		<linearGradient id="SVGID_2_" gradientUnits="userSpaceOnUse" x1="160.8355" y1="242.2192" x2="160.8355" y2="220.2547">
			<stop  offset="0" style="stop-color:#CDEFFA"/>
			<stop  offset="1" style="stop-color:#FAFAFA"/>
		</linearGradient>
		<path class="st6" d="M169.6,237.9c0-9.7-7.9-17.6-17.6-17.6v22h17.6V237.9z"/>
		<path class="st5" d="M169.6,237.9c0-9.7-7.9-17.6-17.6-17.6v22h17.6V237.9z"/>
	</g>
	<path class="st0" d="M154.6,243.8c0,1.4-1.1,2.5-2.5,2.5l0,0c-1.4,0-2.5-1.1-2.5-2.5v-3.1c0-1.4,1.1-2.5,2.5-2.5l0,0
		c1.4,0,2.5,1.1,2.5,2.5V243.8z"/>
	<g>
		<path class="st4" d="M259.4,52.3c0,0-2.9-3.6-9.8-1.1c-5.3,1.9-29.9,24-27.3,33.6c0,0,2,0.4,4.7-5.5c2.8-5.9,4.5-9.3,10.3-15
			c5.8-5.8,13.7-11.4,16.3-8.9L259.4,52.3z"/>
		<path class="st0" d="M240.5,99.1c-14.8,20-33.3,37-38.1,33.5c-4.8-3.5,6.1-26.3,20.8-46.3c14.8-20,35.2-39.5,39.9-36
			C268,53.9,255.3,79.1,240.5,99.1z"/>
		<path class="st4" d="M214.1,116.9c-2.3-1.7-4.9-2.9-7.5-3.5c-4.7,9.7-6.7,17.3-4.2,19.2c2.6,1.9,9.3-2.3,17.2-9.6
			C218.3,120.7,216.4,118.6,214.1,116.9z"/>
		
			<linearGradient id="SVGID_3_" gradientUnits="userSpaceOnUse" x1="284.6793" y1="-69.7778" x2="308.2228" y2="-69.7778" gradientTransform="matrix(0.8045 0.594 -0.594 0.8045 -49.89 -24.7743)">
			<stop  offset="0" style="stop-color:#BDBDBD"/>
			<stop  offset="0.1172" style="stop-color:#ABABAB"/>
			<stop  offset="0.3225" style="stop-color:#919191"/>
			<stop  offset="0.5346" style="stop-color:#7F7F7F"/>
			<stop  offset="0.7556" style="stop-color:#747474"/>
			<stop  offset="1" style="stop-color:#707070"/>
		</linearGradient>
		<path class="st7" d="M239.5,102.2c-1.3,1.8-2.7,3.1-4.8,1.6l-14.3-10.5c-2-1.5-1.2-3.2,0.1-5l0,0c1.4-1.8,2.7-3.1,4.8-1.6
			l14.3,10.5C241.7,98.7,240.9,100.4,239.5,102.2L239.5,102.2z"/>
		
			<linearGradient id="SVGID_4_" gradientUnits="userSpaceOnUse" x1="293.5926" y1="-22.3081" x2="299.3149" y2="-22.3081" gradientTransform="matrix(0.8045 0.594 -0.594 0.8045 -49.89 -24.7743)">
			<stop  offset="0" style="stop-color:#286891"/>
			<stop  offset="1.002896e-02" style="stop-color:#276790"/>
			<stop  offset="0.2403" style="stop-color:#1C5176"/>
			<stop  offset="0.4781" style="stop-color:#144264"/>
			<stop  offset="0.726" style="stop-color:#103959"/>
			<stop  offset="1" style="stop-color:#0E3655"/>
		</linearGradient>
		<path class="st8" d="M203.9,130.6c-0.8-0.6-1.7-1-2.6-1.2c-1.7,3.4-2.4,6.1-1.5,6.8c0.9,0.7,3.3-0.8,6.1-3.4
			C205.4,131.9,204.7,131.2,203.9,130.6z"/>
		<path class="st4" d="M239.5,102.2c-1.3,1.8-2.7,3.1-4.8,1.6l-14.3-10.5c-2-1.5-1.2-3.2,0.1-5l0,0c1.4-1.8,2.7-3.1,4.8-1.6
			l14.3,10.5C241.7,98.7,240.9,100.4,239.5,102.2L239.5,102.2z"/>
	</g>
	<g>
		<path class="st4" d="M36.1,101.3c0,0,2.3-2.9,7.8-0.9c4.2,1.5,23.8,19.2,21.7,26.8c0,0-1.6,0.3-3.8-4.4c-2.2-4.7-3.6-7.4-8.2-12
			c-4.6-4.6-10.9-9.1-13-7.1L36.1,101.3z"/>
		<path class="st0" d="M51.2,138.6c11.8,15.9,26.6,29.5,30.4,26.7c3.8-2.8-4.8-21-16.6-36.9c-11.8-15.9-28-31.5-31.8-28.7
			C29.3,102.5,39.4,122.7,51.2,138.6z"/>
		<path class="st4" d="M72.3,152.8c1.9-1.4,3.9-2.3,5.9-2.8c3.8,7.8,5.4,13.8,3.3,15.3c-2.1,1.5-7.4-1.8-13.7-7.7
			C68.9,155.8,70.4,154.1,72.3,152.8z"/>
		
			<linearGradient id="SVGID_5_" gradientUnits="userSpaceOnUse" x1="194.6295" y1="48.573" x2="213.3926" y2="48.573" gradientTransform="matrix(-0.8045 0.594 0.594 0.8045 194.806 -24.7743)">
			<stop  offset="0" style="stop-color:#BDBDBD"/>
			<stop  offset="0.1172" style="stop-color:#ABABAB"/>
			<stop  offset="0.3225" style="stop-color:#919191"/>
			<stop  offset="0.5346" style="stop-color:#7F7F7F"/>
			<stop  offset="0.7556" style="stop-color:#747474"/>
			<stop  offset="1" style="stop-color:#707070"/>
		</linearGradient>
		<path class="st9" d="M52,141.1c1.1,1.4,2.2,2.4,3.8,1.2l11.4-8.4c1.6-1.2,1-2.5-0.1-4l0,0c-1.1-1.4-2.2-2.4-3.8-1.2l-11.4,8.4
			C50.3,138.3,50.9,139.6,52,141.1L52,141.1z"/>
		<path class="st0" d="M80.4,163.7c0.7-0.5,1.4-0.8,2.1-1c1.3,2.7,1.9,4.9,1.2,5.4c-0.7,0.5-2.6-0.6-4.8-2.7
			C79.2,164.8,79.7,164.2,80.4,163.7z"/>
		<path class="st4" d="M52,141.1c1.1,1.4,2.2,2.4,3.8,1.2l11.4-8.4c1.6-1.2,1-2.5-0.1-4l0,0c-1.1-1.4-2.2-2.4-3.8-1.2l-11.4,8.4
			C50.3,138.3,50.9,139.6,52,141.1L52,141.1z"/>
	</g>
</g>
<g>
</g>
<g>
</g>
<g>
</g>
<g>
</g>
<g>
</g>
<g>
</g>
<g>
</g>
<g>
</g>
<g>
</g>
<g>
</g>
<g>
</g>
<g>
</g>
<g>
</g>
<g>
</g>
<g>
</g>
</svg>
