<?xml version="1.0" encoding="utf-8"?>
<!-- Generator: Adobe Illustrator 20.1.0, SVG Export Plug-In . SVG Version: 6.00 Build 0)  -->
<svg version="1.1" id="Слой_1" xmlns="http://www.w3.org/2000/svg" xmlns:xlink="http://www.w3.org/1999/xlink" x="0px" y="0px"
	 viewBox="0 0 300 300" style="enable-background:new 0 0 300 300;" xml:space="preserve">
<style type="text/css">
	.st0{fill:#FCD751;}
	.st1{fill:#FFA229;}
	.st2{fill:#1C4670;}
	.st3{fill:#AEBFCE;}
</style>
<g>
	<g>
		<g>
			<path class="st0" d="M148.7,169.7c0,24.9-20.2,45.1-45.1,45.1c-24.9,0-45.1-20.2-45.1-45.1c0-24.9,20.2-45.1,45.1-45.1
				C128.6,124.7,148.7,144.8,148.7,169.7z"/>
			<path class="st1" d="M141.1,169.7c0,20.7-16.8,37.5-37.5,37.5c-20.7,0-37.5-16.8-37.5-37.5c0-20.7,16.8-37.5,37.5-37.5
				C124.4,132.3,141.1,149,141.1,169.7z"/>
			<path class="st0" d="M134.1,169.7c0,16.8-13.6,30.4-30.4,30.4c-16.8,0-30.4-13.6-30.4-30.4c0-16.8,13.6-30.4,30.4-30.4
				C120.4,139.3,134.1,152.9,134.1,169.7z"/>
			<g>
				<path class="st1" d="M100.8,189c-2-0.1-3.8-0.3-5.3-0.6c-1.5-0.4-2.7-0.8-3.5-1.2L94,181c0.6,0.4,1.5,0.8,2.7,1.1
					c1.1,0.4,2.5,0.6,4.1,0.7v-10.8c-1.1-0.5-2.2-1-3.3-1.7c-1.1-0.6-2.1-1.3-2.9-2.2c-0.8-0.9-1.5-1.9-2-3.1
					c-0.5-1.2-0.8-2.6-0.8-4.2c0-3,0.8-5.4,2.4-7.1c1.6-1.7,3.8-2.8,6.6-3.3v-4.8h5.5v4.6c1.6,0.1,2.9,0.3,4.1,0.6
					c1.2,0.3,2.2,0.7,3.2,1.1l-1.9,5.9c-0.6-0.3-1.4-0.6-2.3-0.8c-0.9-0.3-2-0.5-3.1-0.6v10c1.1,0.5,2.2,1,3.3,1.7
					c1.1,0.6,2.1,1.4,3,2.2c0.9,0.9,1.6,1.9,2.1,3c0.5,1.1,0.8,2.5,0.8,4.1c0,3.3-0.8,5.8-2.5,7.6c-1.6,1.8-3.9,3-6.8,3.5v4.9h-5.5
					V189z M98.7,160.4c0,1.1,0.4,2,1.2,2.7c0.8,0.7,1.9,1.4,3.1,2v-8.6c-1.7,0.1-2.8,0.5-3.4,1.2C99,158.4,98.7,159.3,98.7,160.4z
					 M108.6,178.3c0-1.1-0.4-2-1.4-2.8c-0.9-0.7-2-1.4-3.3-2v9.3c1.6-0.2,2.7-0.7,3.5-1.5C108.2,180.6,108.6,179.6,108.6,178.3z"/>
			</g>
		</g>
	</g>
	<g>
		<g>
			<path class="st0" d="M182.2,127.6c0,20.1-16.3,36.5-36.5,36.5c-20.1,0-36.5-16.4-36.5-36.5c0-20.2,16.4-36.5,36.5-36.5
				C165.9,91.1,182.2,107.5,182.2,127.6z"/>
			<path class="st1" d="M176.1,127.6c0,16.8-13.6,30.3-30.4,30.3c-16.8,0-30.3-13.6-30.3-30.3c0-16.8,13.6-30.3,30.3-30.3
				C162.5,97.3,176.1,110.9,176.1,127.6z"/>
			<path class="st0" d="M170.4,127.6c0,13.6-11,24.6-24.6,24.6c-13.6,0-24.6-11-24.6-24.6c0-13.6,11-24.6,24.6-24.6
				C159.3,103,170.4,114,170.4,127.6z"/>
			<g>
				<path class="st1" d="M143.4,143.2c-1.6,0-3.1-0.2-4.3-0.5c-1.2-0.3-2.2-0.6-2.9-1l1.7-4.9c0.5,0.3,1.2,0.6,2.2,0.9
					c0.9,0.3,2,0.5,3.3,0.6v-8.7c-0.9-0.4-1.8-0.8-2.6-1.3c-0.9-0.5-1.7-1.1-2.3-1.7c-0.7-0.7-1.2-1.5-1.7-2.5
					c-0.4-1-0.6-2.1-0.6-3.4c0-2.5,0.6-4.4,2-5.7c1.3-1.4,3.1-2.2,5.3-2.6v-3.9h4.5v3.7c1.3,0.1,2.4,0.3,3.3,0.5
					c0.9,0.3,1.8,0.6,2.6,0.9l-1.5,4.7c-0.5-0.2-1.1-0.5-1.9-0.7c-0.7-0.2-1.6-0.4-2.5-0.5v8.1c0.9,0.4,1.8,0.9,2.7,1.4
					c0.9,0.5,1.7,1.1,2.4,1.8c0.7,0.7,1.3,1.5,1.7,2.4c0.4,0.9,0.7,2,0.7,3.3c0,2.6-0.7,4.7-2,6.2c-1.3,1.5-3.2,2.4-5.5,2.9v4h-4.5
					V143.2z M141.7,120.1c0,0.9,0.3,1.6,1,2.2c0.7,0.6,1.5,1.1,2.5,1.6v-7c-1.3,0-2.3,0.4-2.8,1C142,118.4,141.7,119.2,141.7,120.1z
					 M149.8,134.6c0-0.9-0.4-1.7-1.1-2.2c-0.7-0.6-1.6-1.1-2.6-1.6v7.6c1.3-0.1,2.2-0.5,2.8-1.2
					C149.5,136.5,149.8,135.6,149.8,134.6z"/>
			</g>
		</g>
	</g>
	<g>
		<g>
			<path class="st0" d="M211.8,91.2c0,16.3-13.2,29.6-29.6,29.6c-16.3,0-29.6-13.2-29.6-29.6c0-16.3,13.2-29.6,29.6-29.6
				C198.6,61.6,211.8,74.8,211.8,91.2z"/>
			<path class="st1" d="M206.8,91.2c0,13.6-11,24.6-24.6,24.6c-13.6,0-24.6-11-24.6-24.6c0-13.6,11-24.6,24.6-24.6
				C195.8,66.6,206.8,77.6,206.8,91.2z"/>
			<path class="st0" d="M202.2,91.2c0,11-8.9,19.9-19.9,19.9c-11,0-19.9-8.9-19.9-19.9c0-11,8.9-20,19.9-20
				C193.2,71.2,202.2,80.2,202.2,91.2z"/>
			<g>
				<path class="st1" d="M180.3,103.8c-1.3,0-2.5-0.2-3.5-0.4c-1-0.2-1.8-0.5-2.3-0.8l1.3-4c0.4,0.3,1,0.5,1.8,0.7
					c0.8,0.2,1.7,0.4,2.7,0.5v-7.1c-0.7-0.3-1.4-0.7-2.1-1.1c-0.7-0.4-1.3-0.9-1.9-1.4c-0.6-0.6-1-1.2-1.3-2
					c-0.3-0.8-0.5-1.7-0.5-2.8c0-2,0.5-3.6,1.6-4.7c1-1.1,2.5-1.8,4.3-2.1v-3.2h3.6v3c1,0.1,1.9,0.2,2.7,0.4
					c0.8,0.2,1.5,0.4,2.1,0.7l-1.2,3.8c-0.4-0.2-0.9-0.4-1.5-0.5c-0.6-0.2-1.3-0.3-2.1-0.4v6.5c0.7,0.3,1.4,0.7,2.2,1.1
					c0.7,0.4,1.4,0.9,1.9,1.4c0.6,0.6,1,1.2,1.4,2c0.4,0.8,0.5,1.7,0.5,2.7c0,2.1-0.5,3.8-1.6,5c-1.1,1.2-2.6,2-4.4,2.3v3.2h-3.6
					V103.8z M179,85.1c0,0.7,0.3,1.3,0.8,1.7c0.6,0.5,1.2,0.9,2,1.3v-5.7c-1.1,0-1.8,0.3-2.2,0.8C179.2,83.7,179,84.3,179,85.1z
					 M185.5,96.8c0-0.7-0.3-1.3-0.9-1.8c-0.6-0.5-1.3-0.9-2.1-1.3v6.1c1-0.1,1.8-0.4,2.3-1C185.2,98.3,185.5,97.6,185.5,96.8z"/>
			</g>
		</g>
	</g>
	<g>
		<g>
			<path class="st2" d="M129.2,234.5c-11,0-21.3-4.3-29.1-12c-7.8-7.8-12-18.1-12-29.1c0-11,4.3-21.3,12-29.1
				c7.8-7.8,18.1-12,29.1-12c11,0,21.3,4.3,29.1,12c7.8,7.8,12,18.1,12,29.1c0,11-4.3,21.3-12,29.1
				C150.5,230.2,140.2,234.5,129.2,234.5z M129.2,162.3c-8.3,0-16.1,3.2-22,9.1c-12.1,12.1-12.1,31.9,0,44c5.9,5.9,13.7,9.1,22,9.1
				c8.3,0,16.1-3.2,22-9.1c5.9-5.9,9.1-13.7,9.1-22c0-8.3-3.2-16.1-9.1-22C145.3,165.5,137.5,162.3,129.2,162.3z"/>
		</g>
		<g>
			
				<rect x="159" y="214.4" transform="matrix(0.7071 -0.7071 0.7071 0.7071 -113.3013 182.783)" class="st2" width="10" height="27.5"/>
		</g>
		<path class="st3" d="M229.8,280.6c2.2,2.2,2.2,5.7,0,7.9l-5.5,5.5c-2.2,2.2-5.7,2.2-7.9,0l-51.6-51.6c-2.2-2.2-2.2-5.7,0-7.9
			l5.5-5.5c2.2-2.2,5.7-2.2,7.9,0L229.8,280.6z"/>
		<g>
			
				<rect x="167.2" y="239.2" transform="matrix(0.7074 -0.7068 0.7068 0.7074 -118.5406 195.3453)" class="st0" width="18.9" height="3.3"/>
		</g>
		<g>
			
				<rect x="171.8" y="243.8" transform="matrix(0.7063 -0.708 0.708 0.7063 -120.5301 200.4583)" class="st0" width="18.9" height="3.3"/>
		</g>
		<g>
			
				<rect x="208.5" y="280.5" transform="matrix(0.7068 -0.7074 0.7074 0.7068 -135.6966 236.9383)" class="st0" width="18.9" height="3.3"/>
		</g>
		<g>
			
				<rect x="203.9" y="275.9" transform="matrix(0.7066 -0.7076 0.7076 0.7066 -133.7928 232.4175)" class="st0" width="18.9" height="3.3"/>
		</g>
	</g>
	<g>
		<g>
			<path class="st2" d="M147.9,122.6c-9.2,0-17.8-3.6-24.2-10c-6.5-6.5-10-15.1-10-24.2s3.6-17.8,10-24.2c6.5-6.5,15.1-10,24.2-10
				c9.2,0,17.8,3.6,24.2,10c13.4,13.4,13.4,35.1,0,48.5C165.7,119.1,157.1,122.6,147.9,122.6z M147.9,64.1c-6.5,0-12.6,2.5-17.1,7.1
				c-4.6,4.6-7.1,10.7-7.1,17.1c0,6.5,2.5,12.6,7.1,17.1c4.6,4.6,10.7,7.1,17.1,7.1c6.5,0,12.6-2.5,17.1-7.1
				c9.4-9.4,9.4-24.8,0-34.3C160.5,66.7,154.4,64.1,147.9,64.1z"/>
		</g>
		<g>
			
				<rect x="114.7" y="49.1" transform="matrix(0.7072 -0.707 0.707 0.7072 -7.5112 102.3028)" class="st2" width="10" height="22.3"/>
		</g>
		<path class="st3" d="M66.4,17.7c-1.8-1.8-1.8-4.7,0-6.4l4.4-4.4c1.8-1.8,4.6-1.8,6.4,0l41.8,41.8c1.8,1.8,1.8,4.6,0,6.4l-4.4,4.4
			c-1.8,1.8-4.7,1.8-6.4,0L66.4,17.7z"/>
		<g>
			
				<rect x="101.8" y="48.3" transform="matrix(0.7068 -0.7074 0.7074 0.7068 -3.2319 92.0842)" class="st0" width="15.3" height="3.3"/>
		</g>
		<g>
			
				<rect x="98.1" y="44.5" transform="matrix(0.7071 -0.7071 0.7071 0.7071 -1.6967 88.2889)" class="st0" width="15.3" height="3.3"/>
		</g>
		<g>
			
				<rect x="68.3" y="14.8" transform="matrix(0.7068 -0.7074 0.7074 0.7068 10.635 58.5861)" class="st0" width="15.3" height="3.3"/>
		</g>
		<g>
			
				<rect x="72.1" y="18.5" transform="matrix(0.7076 -0.7066 0.7066 0.7076 9.033 62.2584)" class="st0" width="15.3" height="3.3"/>
		</g>
	</g>
</g>
<g>
</g>
<g>
</g>
<g>
</g>
<g>
</g>
<g>
</g>
<g>
</g>
<g>
</g>
<g>
</g>
<g>
</g>
<g>
</g>
<g>
</g>
<g>
</g>
<g>
</g>
<g>
</g>
<g>
</g>
</svg>
