<?xml version="1.0" encoding="utf-8"?>
<!-- Generator: Adobe Illustrator 20.1.0, SVG Export Plug-In . SVG Version: 6.00 Build 0)  -->
<svg version="1.1" id="Слой_1" xmlns="http://www.w3.org/2000/svg" xmlns:xlink="http://www.w3.org/1999/xlink" x="0px" y="0px"
	 viewBox="0 0 300 300" style="enable-background:new 0 0 300 300;" xml:space="preserve">
<style type="text/css">
	.st0{fill:#00A4A1;}
	.st1{fill:#008C84;}
	.st2{fill:#FFFFFF;}
	.st3{fill:#1FBAB2;}
	.st4{fill:#DA4643;}
	.st5{fill:#BC3C3C;}
</style>
<path class="st0" d="M283.3,137.1c0,73.6-59.7,133.3-133.3,133.3c-73.6,0-133.3-59.7-133.3-133.3C16.7,63.5,76.4,3.8,150,3.8
	C223.6,3.8,283.3,63.5,283.3,137.1z"/>
<g>
	<path class="st0" d="M18.3,158c-0.1-0.7-0.2-1.4-0.3-2C18.1,156.6,18.2,157.3,18.3,158z"/>
	<path class="st1" d="M18,156c0-0.2-0.1-0.4-0.1-0.6C18,155.6,18,155.8,18,156z"/>
	<path class="st1" d="M191.8,215.2l17.7-14.7l-12.2-5.1l13.1-10.7l-25-7.5L163,201.8l-8.3-24.2l-16.5,17l-1.6-9.6l33.6-49.3
		L131.9,46L17.7,153.1c0.1,0.8,0.2,1.5,0.3,2.3c0,0.2,0.1,0.4,0.1,0.6c0.1,0.7,0.2,1.4,0.3,2c9.7,61.6,61.6,109.2,125.1,112.2
		l67.8-52.6L191.8,215.2z"/>
</g>
<g>
	<rect x="125.7" y="79.2" class="st2" width="41" height="48.8"/>
	<g>
		<path class="st3" d="M156.1,105.4c-1.2,0-2.1,0.4-2.9,1.2c-0.7,0.8-1.1,1.8-1.1,3c0,1.2,0.4,2.2,1.1,3c0.7,0.8,1.7,1.2,2.9,1.2
			c1.2,0,2.1-0.4,2.9-1.2c0.7-0.8,1.1-1.8,1.1-3c0-1.2-0.4-2.2-1.1-3C158.2,105.8,157.3,105.4,156.1,105.4z"/>
		<path class="st4" d="M168.2,128V57.1c0-7.5-6.1-13.6-13.6-13.6h-8.4v53.2l6.5-11.6h5.3L146.2,106v63.8l0.1,0.1l37.6-41.9H168.2z
			 M161.9,115.3c-1.5,1.5-3.4,2.3-5.7,2.3c-2.3,0-4.2-0.8-5.7-2.3c-1.5-1.5-2.3-3.4-2.3-5.7c0-2.3,0.8-4.2,2.3-5.7
			c1.5-1.5,3.4-2.3,5.7-2.3c2.3,0,4.2,0.8,5.7,2.3c1.5,1.5,2.3,3.4,2.3,5.7C164.2,111.9,163.5,113.8,161.9,115.3z"/>
		<path class="st5" d="M139.8,117.4h-5.3l11.7-20.7V43.5h-8.4c-7.5,0-13.6,6.1-13.6,13.6V128h-15.6l37.7,41.9V106L139.8,117.4z
			 M128.2,93c0-2.3,0.8-4.2,2.3-5.8c1.5-1.5,3.5-2.3,5.8-2.3c2.3,0,4.2,0.8,5.8,2.3c1.5,1.5,2.3,3.5,2.3,5.8c0,2.3-0.8,4.2-2.3,5.8
			c-1.5,1.5-3.5,2.3-5.8,2.3c-2.3,0-4.2-0.8-5.8-2.3C128.9,97.2,128.2,95.3,128.2,93z"/>
		<path class="st5" d="M140.3,93c0-1.2-0.4-2.2-1.1-3c-0.8-0.8-1.8-1.2-3-1.2c-1.2,0-2.2,0.4-2.9,1.2c-0.8,0.8-1.1,1.8-1.1,3
			c0,1.2,0.4,2.2,1.1,3.1c0.8,0.8,1.7,1.2,2.9,1.2c1.2,0,2.2-0.4,2.9-1.2C139.9,95.2,140.3,94.2,140.3,93z"/>
		<path class="st4" d="M159,112.6c-0.7,0.8-1.7,1.2-2.9,1.2c-1.2,0-2.1-0.4-2.9-1.2c-0.7-0.8-1.1-1.8-1.1-3c0-1.2,0.4-2.2,1.1-3
			c0.7-0.8,1.7-1.2,2.9-1.2c1.2,0,2.2,0.4,2.9,1.2c0.7,0.8,1.1,1.8,1.1,3C160.1,110.8,159.7,111.8,159,112.6z"/>
	</g>
	<g>
		<path class="st2" d="M108,211c0,3.5-1.2,6.1-3.5,8c-2.2,1.8-5,2.7-8.6,2.7c-3.4,0-6.3-0.7-8.7-2c-1.5-0.9-2.3-2-2.3-3.3
			c0-0.9,0.4-1.8,1.1-2.7c0.6-0.8,1.4-1.2,2.4-1.2c0.8,0,2,0.3,3.8,1c1.7,0.6,3.1,1,4.1,1s1.9-0.2,2.6-0.7c0.9-0.5,1.3-1.2,1.3-2.2
			c0-0.9-0.4-1.7-1.1-2.2c-0.7-0.5-2.4-1.2-5-1.9c-2.8-0.9-4.7-1.8-5.9-2.7c-1.7-1.4-2.6-3.6-2.6-6.5c0-3.3,1.2-5.9,3.5-7.7
			c2.1-1.6,4.8-2.4,8.3-2.4c2.1,0,3.9,0.3,5.5,1c2.2,0.9,3.3,2.2,3.3,3.9c0,1-0.3,1.8-1,2.4c-0.6,0.6-1.5,0.9-2.4,0.9
			c-0.3,0-1.2-0.2-2.8-0.7c-1.3-0.4-2.4-0.5-3.1-0.5c-0.8,0-1.5,0.2-2.2,0.5c-0.8,0.5-1.2,1.1-1.2,1.8s0.2,1.3,0.7,1.6
			c0.4,0.3,1.3,0.7,2.7,1.2c4.1,1.4,6.7,2.5,7.8,3.2C106.9,205.3,108,207.7,108,211z"/>
		<path class="st2" d="M141.3,205c0,4.9-1.4,8.9-4.2,12c-2.9,3.1-6.8,4.7-11.6,4.7c-4.9,0-8.7-1.6-11.6-4.8c-2.8-3-4.2-7-4.2-11.9
			c0-5,1.4-9,4.2-12.1c2.8-3.1,6.7-4.7,11.6-4.7s8.8,1.6,11.7,4.8C139.9,196,141.3,200,141.3,205z M133.5,205c0-2.8-0.6-5.1-1.8-6.9
			c-1.4-2.1-3.4-3.1-6.1-3.1s-4.7,1.1-6.1,3.2c-1.2,1.8-1.8,4.1-1.8,6.9c0,2.8,0.6,5.1,1.8,6.9c1.4,2,3.4,3,6,3c2.7,0,4.7-1,6.1-3.1
			C132.9,210,133.5,207.8,133.5,205z"/>
		<path class="st2" d="M163.4,192.3c0,2.2-1.3,3.3-3.8,3.3h-4.1v21.8c0,2.6-1.2,3.9-3.7,3.9c-2.4,0-3.7-1.3-3.7-3.9v-21.8h-4
			c-2.5,0-3.8-1.1-3.8-3.3c0-2.2,1.3-3.4,3.8-3.4h15.4C162.1,188.9,163.4,190,163.4,192.3z"/>
		<path class="st2" d="M192.3,208.1c0,4.1-1.3,7.4-3.8,9.9c-2.6,2.5-5.9,3.7-10.1,3.7c-4.2,0-7.5-1.2-10.1-3.7
			c-2.6-2.5-3.8-5.8-3.8-9.9v-15.6c0-2.6,1.2-3.8,3.7-3.8c2.4,0,3.6,1.3,3.6,3.8v15.6c0,1.9,0.6,3.5,1.8,4.7
			c1.2,1.2,2.8,1.8,4.8,1.8c2,0,3.6-0.6,4.8-1.8c1.2-1.2,1.8-2.8,1.8-4.8v-15.6c0-1.1,0.3-2,0.9-2.8c0.6-0.7,1.5-1.1,2.6-1.1
			c1.2,0,2.1,0.4,2.8,1.1c0.7,0.7,1,1.6,1,2.8V208.1z"/>
		<path class="st2" d="M220.6,192.1c0,0.6-0.2,1.5-0.6,2.5l-9.4,23.4c-0.9,2.2-2.1,3.2-3.8,3.2c-1.8,0-3.1-1.1-3.9-3.3l-9.2-23.5
			c-0.4-1-0.6-1.8-0.6-2.3c0-1,0.4-1.8,1.1-2.5c0.8-0.7,1.6-1,2.6-1c1.7,0,3,1.1,3.8,3.2l6.3,16.6l6.3-16.5c0.8-2.2,2.1-3.3,3.9-3.3
			c1,0,1.8,0.3,2.5,1C220.3,190.3,220.6,191.2,220.6,192.1z"/>
	</g>
</g>
<g>
</g>
<g>
</g>
<g>
</g>
<g>
</g>
<g>
</g>
<g>
</g>
<g>
</g>
<g>
</g>
<g>
</g>
<g>
</g>
<g>
</g>
<g>
</g>
<g>
</g>
<g>
</g>
<g>
</g>
</svg>
