<?xml version="1.0" encoding="utf-8"?>
<!-- Generator: Adobe Illustrator 20.1.0, SVG Export Plug-In . SVG Version: 6.00 Build 0)  -->
<svg version="1.1" id="Слой_1" xmlns="http://www.w3.org/2000/svg" xmlns:xlink="http://www.w3.org/1999/xlink" x="0px" y="0px"
	 viewBox="0 0 300 300" style="enable-background:new 0 0 300 300;" xml:space="preserve">
<style type="text/css">
	.st0{fill:#3C444F;}
	.st1{fill:#2F383A;}
	.st2{fill:#71BDC1;}
	.st3{fill:#DA4643;}
	.st4{fill:#FFFFFF;}
	.st5{fill:#C3B7A0;}
</style>
<g>
	<path class="st0" d="M260.3,142.1c0,60.9-49.4,110.3-110.3,110.3c-60.9,0-110.3-49.4-110.3-110.3C39.7,81.2,89.1,31.8,150,31.8
		C210.9,31.8,260.3,81.2,260.3,142.1z"/>
</g>
<g>
	<path class="st1" d="M192,185.4l30.8-54.5L177.9,148l8.6-12.6L97.6,77.7l-57,50c-0.6,4.7-0.9,9.5-0.9,14.4
		c0,60.9,49.4,110.3,110.3,110.3c10.4,0,20.4-1.4,29.9-4.1l35-31.5L192,185.4z"/>
</g>
<g>
	<ellipse transform="matrix(0.7924 -0.61 0.61 0.7924 -44.4499 112.2516)" class="st2" cx="142.7" cy="121.4" rx="31.5" ry="31.5"/>
	<g>
		<g>
			<g>
				<g>
					<polygon class="st3" points="116.4,140.4 116.4,77.7 97.6,77.7 97.6,146.9 109.3,142.9 					"/>
					<polygon class="st3" points="131.7,135.2 132.2,135.6 139.8,141.8 139.8,91.4 121,91.4 121,138.9 126.9,136.8 					"/>
					<polygon class="st3" points="149.3,149.6 150.6,149.1 163.1,144.3 163.1,84.2 144.3,84.2 144.3,145.5 148.6,149 					"/>
					<polygon class="st3" points="186.5,135.4 186.5,91.4 167.7,91.4 167.7,142.6 175,139.8 					"/>
					<polygon class="st3" points="195.9,126.6 199.5,135.6 199,135.8 186.5,140.6 175,145 167.7,147.8 164.7,148.9 163.1,149.5 
						150.6,154.3 149.3,154.8 148.6,154.2 144.3,150.7 139.8,147 132.2,140.7 131.7,140.4 126.9,142 121,144 116.4,145.6 109.3,148 
						97.6,152 94.4,153.1 98.7,163.3 116.4,157.3 116.4,157.3 121,155.8 128.3,153.3 129.4,152.9 129.9,153.3 139.8,161.5 
						146.2,166.9 154.5,163.8 163.1,160.6 167.7,158.9 176.5,155.5 177.1,155.3 186.5,151.8 202.6,145.8 206.9,154.8 222.8,130.9 
											"/>
				</g>
			</g>
		</g>
		<g>
			
				<rect x="167.8" y="144.2" transform="matrix(0.7923 -0.6102 0.6102 0.7923 -61.3121 137.6589)" class="st4" width="7.5" height="29.3"/>
			<path class="st5" d="M217.7,205c2.6,3.3,1.7,8.4-2,11.2l0,0c-3.7,2.8-8.8,2.4-11.4-0.9l-27.7-35.9c-2.6-3.3-1.7-8.4,2-11.2l0,0
				c3.7-2.8,8.8-2.4,11.4,0.9L217.7,205z"/>
			<g>
				<path class="st4" d="M172.8,98.2c-12.8-16.6-36.7-19.7-53.3-6.9c-16.6,12.8-19.7,36.7-6.9,53.3c12.8,16.6,36.7,19.7,53.3,6.9
					C182.5,138.8,185.6,114.9,172.8,98.2z M161.9,146.4c-13.8,10.6-33.6,8-44.2-5.7c-10.6-13.8-8-33.6,5.7-44.2
					c13.8-10.6,33.6-8,44.2,5.7C178.3,116,175.7,135.8,161.9,146.4z"/>
				
					<ellipse transform="matrix(0.7924 -0.61 0.61 0.7924 -44.4499 112.2516)" class="st2" cx="142.7" cy="121.4" rx="31.5" ry="31.5"/>
			</g>
		</g>
	</g>
</g>
<g>
</g>
<g>
</g>
<g>
</g>
<g>
</g>
<g>
</g>
<g>
</g>
<g>
</g>
<g>
</g>
<g>
</g>
<g>
</g>
<g>
</g>
<g>
</g>
<g>
</g>
<g>
</g>
<g>
</g>
</svg>
