<?xml version="1.0" encoding="utf-8"?>
<!-- Generator: Adobe Illustrator 20.1.0, SVG Export Plug-In . SVG Version: 6.00 Build 0)  -->
<svg version="1.1" id="Слой_1" xmlns="http://www.w3.org/2000/svg" xmlns:xlink="http://www.w3.org/1999/xlink" x="0px" y="0px"
	 viewBox="0 0 480 480" style="enable-background:new 0 0 480 480;" xml:space="preserve">
<style type="text/css">
	.st0{fill:#94CDAD;}
	.st1{fill:#5C9971;}
	.st2{fill:#E7E6E6;}
	.st3{clip-path:url(#SVGID_2_);}
	.st4{fill:#D0D1D1;}
	.st5{fill:#EF0F44;}
	.st6{fill:#FBAA3E;}
	.st7{fill:#524938;}
	.st8{opacity:0.4;fill:url(#SVGID_3_);}
	.st9{fill:#961C45;}
	.st10{fill:#600B2C;}
	.st11{opacity:0.4;fill:url(#SVGID_4_);}
	.st12{fill:#E3496F;}
	.st13{fill:#AD274D;}
	.st14{opacity:0.4;fill:url(#SVGID_5_);}
</style>
<g>
	<ellipse class="st0" cx="239.3" cy="243.3" rx="217.7" ry="217.7"/>
	<path class="st1" d="M428.5,351c18.1-31.8,28.5-68.6,28.5-107.8c0-8.4-0.5-16.7-1.4-24.9l-96.7-81.2l-104.7,207l-125.4,54.9
		L239.3,461c0,0,14.8,0.4,35.6-2.9c39.8-6.4,79.7-25.7,109.9-52.9L428.5,351z"/>
	<g>
		<g>
			<path class="st2" d="M357.8,351.3c0,0-9.9,19.4,1.1,41.2H130l-1.1-44.1L357.8,351.3z"/>
			<g>
				<defs>
					<path id="SVGID_1_" d="M357.8,351.3c0,0-9.9,19.4,1.1,41.2H130l-1.1-44.1L357.8,351.3z"/>
				</defs>
				<clipPath id="SVGID_2_">
					<use xlink:href="#SVGID_1_"  style="overflow:visible;"/>
				</clipPath>
				<g class="st3">
					<g>
						<g>
							<g>
								<rect x="128.9" y="353.6" class="st4" width="228.5" height="1.8"/>
							</g>
							<g>
								<rect x="128.9" y="357.2" class="st4" width="228.5" height="1.8"/>
							</g>
						</g>
						<g>
							<g>
								<rect x="128.9" y="362.6" class="st4" width="228.5" height="1.8"/>
							</g>
							<g>
								<rect x="128.9" y="368" class="st4" width="228.5" height="1.8"/>
							</g>
						</g>
					</g>
					<g>
						<g>
							<g>
								<rect x="128.9" y="371.6" class="st4" width="228.5" height="1.8"/>
							</g>
						</g>
						<g>
							<g>
								<rect x="128.9" y="375.2" class="st4" width="228.5" height="1.8"/>
							</g>
							<g>
								<rect x="128.9" y="380.6" class="st4" width="228.5" height="1.8"/>
							</g>
						</g>
						<g>
							<g>
								<rect x="128.9" y="385.9" class="st4" width="228.5" height="1.8"/>
							</g>
						</g>
					</g>
				</g>
			</g>
			<path class="st5" d="M131.9,366.7c0-1.8,0-3.7,0-5.8c0-10.4,8.4-9.5,8.4-9.5h222.1v-11.9H138c-4.7,0-8,1.4-10.3,3.3v0l0,0
				c-0.2,0.2-0.4,0.4-0.6,0.5c0,0,0,0-0.1,0.1c-0.1,0.1-0.2,0.2-0.3,0.3c-4.2,4.3-20.7,23.8-1.8,51.3c2.1,3.6,5.9,6.6,13,6.6h224.4
				v-11.9H140.3c0,0-8.4,0.8-8.4-9.5c0-2.1,0-4.1,0-5.9C131.9,374.2,131.9,371.2,131.9,366.7z"/>
		</g>
		<g>
			<g>
				<g>
					<path class="st6" d="M119.5,322.4l48.8,17.7l85.9-237.2c0,0-19.5-22.2-48.9-17.2L119.5,322.4z"/>
					<g>
						<path class="st7" d="M217.1,177.1L186.5,166l24.7-68.1l30.6,11.1L217.1,177.1z M191.2,163.8l23.6,8.6l22.1-61.1l-23.6-8.6
							L191.2,163.8z"/>
					</g>
				</g>
				
					<rect x="160" y="243.2" transform="matrix(0.3408 -0.9401 0.9401 0.3408 -143.3428 333.9092)" class="st7" width="12.9" height="51.9"/>
				
					<rect x="153.7" y="260.5" transform="matrix(0.3407 -0.9402 0.9402 0.3407 -163.7351 339.4563)" class="st7" width="12.9" height="51.9"/>
			</g>
			
				<linearGradient id="SVGID_3_" gradientUnits="userSpaceOnUse" x1="243.1678" y1="377.6115" x2="243.1678" y2="119.2645" gradientTransform="matrix(0.934 0.3572 -0.3572 0.934 33.764 -114.3876)">
				<stop  offset="0" style="stop-color:#FFFFFF"/>
				<stop  offset="1" style="stop-color:#FFFFFF"/>
			</linearGradient>
			<path class="st8" d="M136.7,329.3l-17.2-6.6l85.8-237c0,0,1.5-0.5,8.8-0.7c3.9-0.1,9.6,1,9.6,1L136.7,329.3z"/>
		</g>
		<g>
			<g>
				<g>
					<path class="st9" d="M299.6,339.4h-59.3V136.7c0,0,29.7-14.5,59.3,0.5V339.4z"/>
					<g>
						<rect x="240.3" y="282" class="st10" width="59.3" height="14.7"/>
						<rect x="240.3" y="303.1" class="st10" width="59.3" height="14.7"/>
					</g>
					<g>
						<rect x="240.3" y="155.7" class="st10" width="59.3" height="14.7"/>
						<rect x="240.3" y="176.8" class="st10" width="59.3" height="14.7"/>
					</g>
				</g>
				<linearGradient id="SVGID_4_" gradientUnits="userSpaceOnUse" x1="251.3067" y1="339.4154" x2="251.3067" y2="130.8496">
					<stop  offset="0" style="stop-color:#FFFFFF"/>
					<stop  offset="1" style="stop-color:#FFFFFF"/>
				</linearGradient>
				<path class="st11" d="M262.3,339.4h-22.1V136.7c0,0,0.9-0.8,10.4-3.6c4.5-1.3,11.7-2.2,11.7-2.2V339.4z"/>
			</g>
			<g>
				<g>
					<path class="st12" d="M358.9,339.4h-59.3V136.7c0,0,29.7-14.5,59.3,0.5V339.4z"/>
					<rect x="312.9" y="155.7" class="st13" width="32.6" height="38.4"/>
				</g>
				<linearGradient id="SVGID_5_" gradientUnits="userSpaceOnUse" x1="310.633" y1="339.4154" x2="310.633" y2="130.8496">
					<stop  offset="0" style="stop-color:#FFFFFF"/>
					<stop  offset="1" style="stop-color:#FFFFFF"/>
				</linearGradient>
				<path class="st14" d="M321.7,339.4h-22.1V136.7c0,0,0.9-0.8,10.4-3.6c4.5-1.3,11.7-2.2,11.7-2.2V339.4z"/>
			</g>
		</g>
	</g>
</g>
<g>
</g>
<g>
</g>
<g>
</g>
<g>
</g>
<g>
</g>
<g>
</g>
<g>
</g>
<g>
</g>
<g>
</g>
<g>
</g>
<g>
</g>
<g>
</g>
<g>
</g>
<g>
</g>
<g>
</g>
</svg>
