<?xml version="1.0" encoding="utf-8"?>
<!-- Generator: Adobe Illustrator 20.1.0, SVG Export Plug-In . SVG Version: 6.00 Build 0)  -->
<svg version="1.1" id="Слой_1" xmlns="http://www.w3.org/2000/svg" xmlns:xlink="http://www.w3.org/1999/xlink" x="0px" y="0px"
	 viewBox="0 0 300 300" style="enable-background:new 0 0 300 300;" xml:space="preserve">
<style type="text/css">
	.st0{fill:#F39225;}
	.st1{fill:#DD8027;}
	.st2{fill:#FFFFFF;}
	.st3{fill:#D5D8D8;}
	.st4{fill:#282827;}
	.st5{fill:#3B3B3D;}
	.st6{fill:#CC3131;}
	.st7{fill:none;}
	.st8{fill:#C1E0DA;}
	.st9{fill:#DA4643;}
</style>
<g>
	<path class="st0" d="M285.1,150.1c0,74.6-60.5,135.2-135.2,135.2c-74.7,0-135.2-60.5-135.2-135.2c0-74.7,60.5-135.2,135.2-135.2
		C224.5,14.9,285.1,75.4,285.1,150.1z"/>
</g>
<g>
	<path class="st1" d="M85.4,65.6l-67.2,53.6c-2.3,9.9-3.6,20.3-3.6,30.9c0,64.3,44.9,118.2,105.2,131.8l113.7-49.2L85.4,65.6z"/>
</g>
<g>
	<g>
		<path class="st2" d="M217.4,126.4c0,0,0,0.1,0,0.1v0.2c0,0,0-0.1,0-0.1c-0.3,3.9-4.5,7.1-9.6,7.1h-2.3c-5.3,0-9.5-3.3-9.6-7.3
			c-0.1,4-4.4,7.3-9.6,7.3h-2.3c-5.3,0-9.5-3.3-9.6-7.3c-0.1,4-4.4,7.3-9.6,7.3h-2.3c-5.3,0-9.5-3.3-9.6-7.3c-0.1,4-4.4,7.3-9.6,7.3
			h-2.3c-5.3,0-9.5-3.3-9.6-7.3c-0.1,4-4.4,7.3-9.6,7.3h-2.3c-5.3,0-9.5-3.2-9.6-7.3c-0.1,4-4.4,7.3-9.6,7.3h-2.3
			c-5.3,0-9.5-3.2-9.6-7.3c0,0.3,0,0.5-0.1,0.7c-0.6,3.7-4.6,6.5-9.6,6.5h-2.3c0,0-0.1,0-0.1,0v89.9h152.8v-89.9H227
			C221.7,133.7,217.5,130.4,217.4,126.4z"/>
		<g>
			<path class="st3" d="M75.8,98.7v34.9c0,0,0.1,0,0.1,0h2.3c4.9,0,9-2.9,9.6-6.5c0-0.2,0.1-0.5,0.1-0.7c0.1,4,4.4,7.3,9.6,7.3h2.3
				c5.3,0,9.5-3.2,9.6-7.3c0.1,4,4.4,7.3,9.6,7.3h2.3c5.3,0,9.5-3.3,9.6-7.3c0.1,4,4.4,7.3,9.6,7.3h2.3c5.3,0,9.5-3.3,9.6-7.3
				c0.1,4,4.4,7.3,9.6,7.3h2.3c5.3,0,9.5-3.3,9.6-7.3c0.1,4,4.4,7.3,9.6,7.3h2.3c5.3,0,9.5-3.3,9.6-7.3c0.1,4,4.4,7.3,9.6,7.3h2.3
				c5.2,0,9.4-3.1,9.6-7.1c0,0,0,0.1,0,0.1v-0.2c0,0,0-0.1,0-0.1c0.1,4,4.4,7.3,9.6,7.3h1.6V98.7H75.8z"/>
			<g>
				<polygon class="st4" points="94.1,127.5 94.1,208.1 94.9,208.1 210,127.5 				"/>
				<polygon class="st5" points="94.9,208.1 210.3,208.1 210.3,127.5 210,127.5 				"/>
			</g>
		</g>
		<g>
			<path class="st6" d="M155,67.1v-6.7h-21.6V75v5.2h0v35.3c0,4.1,4.3,7.5,9.7,7.5h2.3c5.3,0,9.7-3.3,9.7-7.5V67.9
				C155,67.7,155,67.4,155,67.1z"/>
			<path class="st2" d="M176.6,67.7v-7.3H155V80h0v35.6c0,4.1,4.3,7.5,9.7,7.5h2.3c5.3,0,9.7-3.3,9.7-7.5V67.9
				C176.6,67.9,176.6,67.8,176.6,67.7z"/>
			<path class="st6" d="M198.2,67.8v-7.3h-21.6v7.4c0,0,0,0.1,0,0.1v47.6c0,4.1,4.3,7.5,9.7,7.5h2.3c5.3,0,9.7-3.3,9.7-7.5V67.9
				C198.2,67.9,198.2,67.8,198.2,67.8z"/>
			<path class="st6" d="M111.9,60.4H98.6c-0.1,0-0.2,0.1-0.3,0.1c-3,0.1-5.7,0.7-8.1,1.5v2.5c-6.8,6.1-7.6,16.1-7.6,16.1l7.6-0.1
				v35.8c0-0.2,0.1-0.5,0.1-0.7c0.1,4,4.4,7.3,9.6,7.3h2.3c5.3,0,9.7-3.3,9.7-7.5V80.4h0V60.4z"/>
			<path class="st2" d="M87.8,63c-19.7,9.2-19.1,40.4-19.1,40.4s0,0,0,0.1v12.1c0,4.1,4.3,7.5,9.7,7.5h2.3c4.9,0,9-2.9,9.6-6.5V62
				C89.4,62.3,88.6,62.6,87.8,63z"/>
			<g>
				<path class="st2" d="M219.8,79.4l2.6,0l-2.6-3.9v-7.5c0-0.1,0-0.2,0-0.3V62c-2.8-1-6-1.5-9.6-1.6c0,0,0,0,0,0h-0.5l0,0l-11.5,0
					v7.4c0,0,0,0.1,0,0.1v47.6c0,4.1,4.3,7.5,9.7,7.5h2.3c5.2,0,9.4-3.1,9.6-7.1c0,0,0,0.1,0,0.1v-0.2c0-0.1,0-0.2,0-0.3V79.4z"/>
				<path class="st6" d="M219.8,115.6v0.5c0.3,3.9,4.5,7,9.6,7h0C224.1,123,219.8,119.7,219.8,115.6z"/>
				<path class="st6" d="M241.3,103.4c0,0,0.5-31.2-19.1-40.4c0,0,0,0,0,0c-0.8-0.4-1.6-0.7-2.4-1v5.9v47.7c0,4.1,4.3,7.4,9.7,7.4
					h2.3c5.3,0,9.7-3.3,9.7-7.5L241.3,103.4C241.3,103.4,241.3,103.4,241.3,103.4z"/>
				<polygon class="st6" points="219.8,115.6 219.8,115.6 219.8,67.9 219.8,67.9 				"/>
			</g>
			<path class="st2" d="M133.4,67.4v-7h-21.5v6.7c0,0.3-0.1,0.5-0.1,0.8v47.6c0,4.1,4.3,7.5,9.7,7.5h2.3c5.3,0,9.7-3.3,9.7-7.5V67.9
				C133.4,67.8,133.4,67.6,133.4,67.4z"/>
		</g>
		<path class="st5" d="M234.1,227.6c0,3.6-2.9,6.5-6.5,6.5H76.8c-3.6,0-6.5-2.9-6.5-6.5l0,0c0-3.6,2.9-6.5,6.5-6.5h150.8
			C231.2,221.1,234.1,224,234.1,227.6L234.1,227.6z"/>
	</g>
	<g>
		<g>
			<g>
				<path class="st7" d="M182.7,158.9c2,1,3.3,3,3.3,5.3v24.9c0,3.3-2.9,6.1-6.4,6.1h-49.2c-1.1,0-2.1-0.3-3-0.7
					c0.9,0.5,2,0.8,3.1,0.8h49.2c3.5,0,6.4-2.7,6.4-6.1v-24.9C186.1,161.9,184.7,159.9,182.7,158.9z"/>
				<path class="st7" d="M179.6,195.1c3.5,0,6.4-2.7,6.4-6.1v-24.9c0-2.3-1.3-4.3-3.3-5.3c-0.9-0.4-1.9-0.7-3-0.7h-49.2
					c-3.5,0-6.4,2.7-6.4,6.1v24.9c0,2.3,1.3,4.3,3.3,5.3c0.9,0.4,1.9,0.7,3,0.7H179.6z M125.6,188.7v-24.9c0-2.5,2.2-4.5,4.8-4.5
					h49.2c2.7,0,4.8,2,4.8,4.5v24.9c0,2.5-2.2,4.5-4.8,4.5h-49.2C127.8,193.2,125.6,191.2,125.6,188.7z"/>
				<path class="st8" d="M179.7,193.2c2.7,0,4.8-2,4.8-4.5v-24.9c0-2.5-2.2-4.5-4.8-4.5h-49.2c-2.7,0-4.8,2-4.8,4.5v24.9
					c0,2.5,2.2,4.5,4.8,4.5H179.7z"/>
				<path class="st9" d="M182,156h-6.6h-5h-32.2h-4.6H128c-3.4,0-6.2,2.8-6.2,6.2v28.9c0,3.4,2.8,6.2,6.2,6.2h54
					c3.4,0,6.2-2.8,6.2-6.2v-28.9C188.2,158.7,185.4,156,182,156z M186.1,189.1c0,3.3-2.9,6.1-6.4,6.1h-49.2c-1.1,0-2.2-0.3-3.1-0.8
					c-2-1-3.4-3-3.4-5.4v-24.9c0-3.3,2.9-6.1,6.4-6.1h49.2c1.1,0,2.2,0.3,3.1,0.8c2,1,3.4,3,3.4,5.4V189.1z"/>
				<path class="st9" d="M124.1,189.1v-24.9c0-3.3,2.9-6.1,6.4-6.1h49.2c1.1,0,2.1,0.3,3,0.7c-0.9-0.5-2-0.8-3.1-0.8h-49.2
					c-3.5,0-6.4,2.7-6.4,6.1L124.1,189.1c-0.1,2.3,1.3,4.3,3.3,5.3C125.5,193.4,124.1,191.4,124.1,189.1z"/>
				<g>
					<polygon class="st9" points="160.8,178.5 166.3,178.5 166.3,175.1 160.8,175.1 160.8,171.3 166.6,171.3 166.6,167.9 
						157.5,167.9 157.5,186.3 166.9,186.3 166.9,182.9 160.8,182.9 					"/>
					<path class="st9" d="M178.9,173.2c0,2.8,0.1,5.2,0.3,7.7h-0.1c-0.7-2.1-1.5-4.4-2.4-6.3l-3.1-6.7h-3.9v18.4h3.1v-5.5
						c0-3,0-5.6-0.1-8l0.1,0c0.7,2.2,1.7,4.5,2.6,6.5l3.2,7.1h3.5v-18.4h-3.1V173.2z"/>
					<path class="st9" d="M153.3,169.2c-1-1-2.5-1.5-4.5-1.5c-2,0-3.5,0.2-4.5,0.4v18.1h3.3v-6.6c0.3,0.1,0.7,0.1,1.1,0.1
						c2,0,3.7-0.6,4.8-1.9c0.9-1,1.4-2.6,1.4-4.4C154.9,171.7,154.2,170.1,153.3,169.2z M148.7,176.6c-0.5,0-0.8,0-1.1-0.1V171
						c0.2-0.1,0.7-0.2,1.4-0.2c1.7,0,2.6,1,2.6,2.7C151.6,175.5,150.5,176.6,148.7,176.6z"/>
					<path class="st9" d="M134.5,167.6c-4.4,0-7.2,4.1-7.2,9.6c0,5.2,2.6,9.4,7,9.4c4.3,0,7.3-3.7,7.3-9.7
						C141.6,171.8,139.1,167.6,134.5,167.6z M134.5,183.3c-2.2,0-3.6-2.5-3.6-6.1c0-3.6,1.3-6.2,3.6-6.2c2.3,0,3.6,2.8,3.6,6.1
						C138,180.6,136.7,183.3,134.5,183.3z"/>
				</g>
			</g>
			<path class="st2" d="M150.9,147.3c0.6,0.6,1.4,0.9,2.3,0.9c0.9,0,1.8-0.4,2.4-1l14.8,8.8h5l-18.9-11.3c-0.1-1.8-1.5-3.2-3.3-3.2
				c-1.8,0-3.3,1.5-3.3,3.3c0,0,0,0,0,0.1L133.6,156h4.6L150.9,147.3z"/>
		</g>
		<circle class="st9" cx="153.2" cy="144.8" r="3.4"/>
	</g>
</g>
<g>
</g>
<g>
</g>
<g>
</g>
<g>
</g>
<g>
</g>
<g>
</g>
<g>
</g>
<g>
</g>
<g>
</g>
<g>
</g>
<g>
</g>
<g>
</g>
<g>
</g>
<g>
</g>
<g>
</g>
</svg>
